%TF.GenerationSoftware,KiCad,Pcbnew,9.0.2*%
%TF.CreationDate,2025-06-05T12:53:21-05:00*%
%TF.ProjectId,testing2,74657374-696e-4673-922e-6b696361645f,rev?*%
%TF.SameCoordinates,Original*%
%TF.FileFunction,Soldermask,Bot*%
%TF.FilePolarity,Negative*%
%FSLAX46Y46*%
G04 Gerber Fmt 4.6, Leading zero omitted, Abs format (unit mm)*
G04 Created by KiCad (PCBNEW 9.0.2) date 2025-06-05 12:53:21*
%MOMM*%
%LPD*%
G01*
G04 APERTURE LIST*
%ADD10R,1.700000X1.700000*%
%ADD11C,1.700000*%
%ADD12C,2.200000*%
%ADD13C,0.650000*%
%ADD14O,2.100000X1.000000*%
%ADD15O,1.600000X1.000000*%
G04 APERTURE END LIST*
D10*
%TO.C,J3*%
X132080000Y-136000000D03*
D11*
X129540000Y-136000000D03*
X127000000Y-136000000D03*
X124460000Y-136000000D03*
X121920000Y-136000000D03*
X119380000Y-136000000D03*
X116840000Y-136000000D03*
X114300000Y-136000000D03*
X111760000Y-136000000D03*
X109220000Y-136000000D03*
X106680000Y-136000000D03*
X104140000Y-136000000D03*
X101600000Y-136000000D03*
X99060000Y-136000000D03*
X96520000Y-136000000D03*
X93980000Y-136000000D03*
%TD*%
D10*
%TO.C,J2*%
X93730000Y-108500000D03*
D11*
X96270000Y-108500000D03*
X98810000Y-108500000D03*
X101350000Y-108500000D03*
X103890000Y-108500000D03*
X106430000Y-108500000D03*
X108970000Y-108500000D03*
X111510000Y-108500000D03*
X114050000Y-108500000D03*
X116590000Y-108500000D03*
X119130000Y-108500000D03*
X121670000Y-108500000D03*
X124210000Y-108500000D03*
X126750000Y-108500000D03*
X129290000Y-108500000D03*
X131830000Y-108500000D03*
%TD*%
D12*
%TO.C,H4*%
X89250000Y-108500000D03*
%TD*%
D13*
%TO.C,J1*%
X91105000Y-119360000D03*
X91105000Y-125140000D03*
D14*
X91605000Y-117930000D03*
D15*
X87425000Y-117930000D03*
D14*
X91605000Y-126570000D03*
D15*
X87425000Y-126570000D03*
%TD*%
D12*
%TO.C,H2*%
X89500000Y-136000000D03*
%TD*%
%TO.C,H3*%
X136250000Y-108500000D03*
%TD*%
%TO.C,H1*%
X136500000Y-136000000D03*
%TD*%
M02*
