%TF.GenerationSoftware,KiCad,Pcbnew,9.0.2*%
%TF.CreationDate,2025-06-05T12:53:21-05:00*%
%TF.ProjectId,testing2,74657374-696e-4673-922e-6b696361645f,rev?*%
%TF.SameCoordinates,Original*%
%TF.FileFunction,Copper,L1,Top*%
%TF.FilePolarity,Positive*%
%FSLAX46Y46*%
G04 Gerber Fmt 4.6, Leading zero omitted, Abs format (unit mm)*
G04 Created by KiCad (PCBNEW 9.0.2) date 2025-06-05 12:53:21*
%MOMM*%
%LPD*%
G01*
G04 APERTURE LIST*
G04 Aperture macros list*
%AMRoundRect*
0 Rectangle with rounded corners*
0 $1 Rounding radius*
0 $2 $3 $4 $5 $6 $7 $8 $9 X,Y pos of 4 corners*
0 Add a 4 corners polygon primitive as box body*
4,1,4,$2,$3,$4,$5,$6,$7,$8,$9,$2,$3,0*
0 Add four circle primitives for the rounded corners*
1,1,$1+$1,$2,$3*
1,1,$1+$1,$4,$5*
1,1,$1+$1,$6,$7*
1,1,$1+$1,$8,$9*
0 Add four rect primitives between the rounded corners*
20,1,$1+$1,$2,$3,$4,$5,0*
20,1,$1+$1,$4,$5,$6,$7,0*
20,1,$1+$1,$6,$7,$8,$9,0*
20,1,$1+$1,$8,$9,$2,$3,0*%
G04 Aperture macros list end*
%TA.AperFunction,SMDPad,CuDef*%
%ADD10RoundRect,0.135000X-0.135000X-0.185000X0.135000X-0.185000X0.135000X0.185000X-0.135000X0.185000X0*%
%TD*%
%TA.AperFunction,SMDPad,CuDef*%
%ADD11RoundRect,0.218750X0.256250X-0.218750X0.256250X0.218750X-0.256250X0.218750X-0.256250X-0.218750X0*%
%TD*%
%TA.AperFunction,SMDPad,CuDef*%
%ADD12RoundRect,0.125000X-0.187500X-0.125000X0.187500X-0.125000X0.187500X0.125000X-0.187500X0.125000X0*%
%TD*%
%TA.AperFunction,HeatsinkPad*%
%ADD13C,0.500000*%
%TD*%
%TA.AperFunction,HeatsinkPad*%
%ADD14R,1.100000X1.900000*%
%TD*%
%TA.AperFunction,ComponentPad*%
%ADD15R,1.700000X1.700000*%
%TD*%
%TA.AperFunction,ComponentPad*%
%ADD16C,1.700000*%
%TD*%
%TA.AperFunction,SMDPad,CuDef*%
%ADD17RoundRect,0.225000X0.225000X0.250000X-0.225000X0.250000X-0.225000X-0.250000X0.225000X-0.250000X0*%
%TD*%
%TA.AperFunction,SMDPad,CuDef*%
%ADD18RoundRect,0.100000X-0.100000X0.130000X-0.100000X-0.130000X0.100000X-0.130000X0.100000X0.130000X0*%
%TD*%
%TA.AperFunction,SMDPad,CuDef*%
%ADD19R,0.900000X1.000000*%
%TD*%
%TA.AperFunction,SMDPad,CuDef*%
%ADD20RoundRect,0.225000X-0.250000X0.225000X-0.250000X-0.225000X0.250000X-0.225000X0.250000X0.225000X0*%
%TD*%
%TA.AperFunction,SMDPad,CuDef*%
%ADD21RoundRect,0.100000X0.100000X-0.130000X0.100000X0.130000X-0.100000X0.130000X-0.100000X-0.130000X0*%
%TD*%
%TA.AperFunction,SMDPad,CuDef*%
%ADD22RoundRect,0.100000X0.130000X0.100000X-0.130000X0.100000X-0.130000X-0.100000X0.130000X-0.100000X0*%
%TD*%
%TA.AperFunction,SMDPad,CuDef*%
%ADD23R,0.900000X1.500000*%
%TD*%
%TA.AperFunction,SMDPad,CuDef*%
%ADD24R,1.500000X0.900000*%
%TD*%
%TA.AperFunction,HeatsinkPad*%
%ADD25C,0.600000*%
%TD*%
%TA.AperFunction,HeatsinkPad*%
%ADD26R,3.900000X3.900000*%
%TD*%
%TA.AperFunction,SMDPad,CuDef*%
%ADD27RoundRect,0.100000X-0.130000X-0.100000X0.130000X-0.100000X0.130000X0.100000X-0.130000X0.100000X0*%
%TD*%
%TA.AperFunction,SMDPad,CuDef*%
%ADD28RoundRect,0.093750X-0.156250X-0.093750X0.156250X-0.093750X0.156250X0.093750X-0.156250X0.093750X0*%
%TD*%
%TA.AperFunction,SMDPad,CuDef*%
%ADD29RoundRect,0.075000X-0.250000X-0.075000X0.250000X-0.075000X0.250000X0.075000X-0.250000X0.075000X0*%
%TD*%
%TA.AperFunction,SMDPad,CuDef*%
%ADD30RoundRect,0.375000X-0.625000X-0.375000X0.625000X-0.375000X0.625000X0.375000X-0.625000X0.375000X0*%
%TD*%
%TA.AperFunction,SMDPad,CuDef*%
%ADD31RoundRect,0.500000X-0.500000X-1.400000X0.500000X-1.400000X0.500000X1.400000X-0.500000X1.400000X0*%
%TD*%
%TA.AperFunction,SMDPad,CuDef*%
%ADD32RoundRect,0.150000X-0.500000X0.150000X-0.500000X-0.150000X0.500000X-0.150000X0.500000X0.150000X0*%
%TD*%
%TA.AperFunction,SMDPad,CuDef*%
%ADD33RoundRect,0.075000X-0.575000X0.075000X-0.575000X-0.075000X0.575000X-0.075000X0.575000X0.075000X0*%
%TD*%
%TA.AperFunction,HeatsinkPad*%
%ADD34O,2.100000X1.000000*%
%TD*%
%TA.AperFunction,HeatsinkPad*%
%ADD35O,1.600000X1.000000*%
%TD*%
%TA.AperFunction,SMDPad,CuDef*%
%ADD36RoundRect,0.075000X-0.075000X0.350000X-0.075000X-0.350000X0.075000X-0.350000X0.075000X0.350000X0*%
%TD*%
%TA.AperFunction,SMDPad,CuDef*%
%ADD37RoundRect,0.075000X-0.350000X-0.075000X0.350000X-0.075000X0.350000X0.075000X-0.350000X0.075000X0*%
%TD*%
%TA.AperFunction,SMDPad,CuDef*%
%ADD38RoundRect,0.225000X-0.225000X-0.250000X0.225000X-0.250000X0.225000X0.250000X-0.225000X0.250000X0*%
%TD*%
%TA.AperFunction,SMDPad,CuDef*%
%ADD39RoundRect,0.218750X0.218750X0.256250X-0.218750X0.256250X-0.218750X-0.256250X0.218750X-0.256250X0*%
%TD*%
%TA.AperFunction,SMDPad,CuDef*%
%ADD40RoundRect,0.218750X-0.218750X-0.256250X0.218750X-0.256250X0.218750X0.256250X-0.218750X0.256250X0*%
%TD*%
%TA.AperFunction,ViaPad*%
%ADD41C,0.600000*%
%TD*%
%TA.AperFunction,Conductor*%
%ADD42C,0.200000*%
%TD*%
%TA.AperFunction,Conductor*%
%ADD43C,0.500000*%
%TD*%
%TA.AperFunction,Conductor*%
%ADD44C,0.300000*%
%TD*%
%TA.AperFunction,Conductor*%
%ADD45C,0.700000*%
%TD*%
G04 APERTURE END LIST*
D10*
%TO.P,R10,1*%
%TO.N,Net-(D3-A)*%
X101740000Y-113500000D03*
%TO.P,R10,2*%
%TO.N,Net-(U2-FB)*%
X102760000Y-113500000D03*
%TD*%
D11*
%TO.P,D3,1,K*%
%TO.N,5v-Ext*%
X102250000Y-117500000D03*
%TO.P,D3,2,A*%
%TO.N,Net-(D3-A)*%
X102250000Y-115925000D03*
%TD*%
D12*
%TO.P,U2,1,EN*%
%TO.N,15v-Ext*%
X98187500Y-111525000D03*
%TO.P,U2,2,VIN*%
X98187500Y-112175000D03*
%TO.P,U2,3,GND*%
%TO.N,GND*%
X98187500Y-112825000D03*
%TO.P,U2,4,VOUT*%
%TO.N,Net-(D3-A)*%
X98187500Y-113475000D03*
%TO.P,U2,5,VOUT*%
X100312500Y-113475000D03*
%TO.P,U2,6,FB*%
%TO.N,Net-(U2-FB)*%
X100312500Y-112825000D03*
%TO.P,U2,7,PG*%
%TO.N,Net-(U2-PG)*%
X100312500Y-112175000D03*
%TO.P,U2,8,SS/TR*%
%TO.N,Net-(U2-SS{slash}TR)*%
X100312500Y-111525000D03*
D13*
%TO.P,U2,9,GND*%
%TO.N,GND*%
X99250000Y-111750000D03*
X99250000Y-112500000D03*
D14*
X99250000Y-112500000D03*
D13*
X99250000Y-113250000D03*
%TD*%
D15*
%TO.P,J3,1,Pin_1*%
%TO.N,IO1*%
X132080000Y-136000000D03*
D16*
%TO.P,J3,2,Pin_2*%
%TO.N,IO2*%
X129540000Y-136000000D03*
%TO.P,J3,3,Pin_3*%
%TO.N,TXD0*%
X127000000Y-136000000D03*
%TO.P,J3,4,Pin_4*%
%TO.N,RXD0*%
X124460000Y-136000000D03*
%TO.P,J3,5,Pin_5*%
%TO.N,IO38*%
X121920000Y-136000000D03*
%TO.P,J3,6,Pin_6*%
%TO.N,IO37*%
X119380000Y-136000000D03*
%TO.P,J3,7,Pin_7*%
%TO.N,IO36*%
X116840000Y-136000000D03*
%TO.P,J3,8,Pin_8*%
%TO.N,IO35*%
X114300000Y-136000000D03*
%TO.P,J3,9,Pin_9*%
%TO.N,IO48*%
X111760000Y-136000000D03*
%TO.P,J3,10,Pin_10*%
%TO.N,IO47*%
X109220000Y-136000000D03*
%TO.P,J3,11,Pin_11*%
%TO.N,IO21*%
X106680000Y-136000000D03*
%TO.P,J3,12,Pin_12*%
%TO.N,IO14*%
X104140000Y-136000000D03*
%TO.P,J3,13,Pin_13*%
%TO.N,unconnected-(J3-Pin_13-Pad13)*%
X101600000Y-136000000D03*
%TO.P,J3,14,Pin_14*%
%TO.N,unconnected-(J3-Pin_14-Pad14)*%
X99060000Y-136000000D03*
%TO.P,J3,15,Pin_15*%
%TO.N,unconnected-(J3-Pin_15-Pad15)*%
X96520000Y-136000000D03*
%TO.P,J3,16,Pin_16*%
%TO.N,unconnected-(J3-Pin_16-Pad16)*%
X93980000Y-136000000D03*
%TD*%
D17*
%TO.P,C12,1*%
%TO.N,Net-(D3-A)*%
X100025000Y-115500000D03*
%TO.P,C12,2*%
%TO.N,GND*%
X98475000Y-115500000D03*
%TD*%
D18*
%TO.P,C5,1*%
%TO.N,+3V3*%
X117250000Y-118930000D03*
%TO.P,C5,2*%
%TO.N,GND*%
X117250000Y-119570000D03*
%TD*%
D19*
%TO.P,SW1,1,1*%
%TO.N,GND*%
X88700000Y-113200000D03*
X92800000Y-113200000D03*
%TO.P,SW1,2,2*%
%TO.N,CHIP_PU*%
X88700000Y-114800000D03*
X92800000Y-114800000D03*
%TD*%
D20*
%TO.P,C1,1*%
%TO.N,5v-Ext*%
X103500000Y-122225000D03*
%TO.P,C1,2*%
%TO.N,GND*%
X103500000Y-123775000D03*
%TD*%
D17*
%TO.P,C8,1*%
%TO.N,15v-Ext*%
X96275000Y-111500000D03*
%TO.P,C8,2*%
%TO.N,GND*%
X94725000Y-111500000D03*
%TD*%
D15*
%TO.P,J2,1,Pin_1*%
%TO.N,GND*%
X93730000Y-108500000D03*
D16*
%TO.P,J2,2,Pin_2*%
%TO.N,15v-Ext*%
X96270000Y-108500000D03*
%TO.P,J2,3,Pin_3*%
%TO.N,+3V3*%
X98810000Y-108500000D03*
%TO.P,J2,4,Pin_4*%
%TO.N,IO3*%
X101350000Y-108500000D03*
%TO.P,J2,5,Pin_5*%
%TO.N,IO11*%
X103890000Y-108500000D03*
%TO.P,J2,6,Pin_6*%
%TO.N,IO10*%
X106430000Y-108500000D03*
%TO.P,J2,7,Pin_7*%
%TO.N,IO9*%
X108970000Y-108500000D03*
%TO.P,J2,8,Pin_8*%
%TO.N,IO8*%
X111510000Y-108500000D03*
%TO.P,J2,9,Pin_9*%
%TO.N,IO18*%
X114050000Y-108500000D03*
%TO.P,J2,10,Pin_10*%
%TO.N,IO17*%
X116590000Y-108500000D03*
%TO.P,J2,11,Pin_11*%
%TO.N,IO16*%
X119130000Y-108500000D03*
%TO.P,J2,12,Pin_12*%
%TO.N,IO15*%
X121670000Y-108500000D03*
%TO.P,J2,13,Pin_13*%
%TO.N,IO7*%
X124210000Y-108500000D03*
%TO.P,J2,14,Pin_14*%
%TO.N,IO6*%
X126750000Y-108500000D03*
%TO.P,J2,15,Pin_15*%
%TO.N,IO5*%
X129290000Y-108500000D03*
%TO.P,J2,16,Pin_16*%
%TO.N,IO4*%
X131830000Y-108500000D03*
%TD*%
D21*
%TO.P,R4,1*%
%TO.N,+3V3*%
X116250000Y-116820000D03*
%TO.P,R4,2*%
%TO.N,CHIP_PU*%
X116250000Y-116180000D03*
%TD*%
D20*
%TO.P,C4,1*%
%TO.N,+3V3*%
X114750000Y-119225000D03*
%TO.P,C4,2*%
%TO.N,GND*%
X114750000Y-120775000D03*
%TD*%
D22*
%TO.P,R3,1*%
%TO.N,+3V3*%
X103570000Y-118750000D03*
%TO.P,R3,2*%
%TO.N,Net-(D1-A)*%
X102930000Y-118750000D03*
%TD*%
D18*
%TO.P,C2,1*%
%TO.N,5v-Ext*%
X104750000Y-121930000D03*
%TO.P,C2,2*%
%TO.N,GND*%
X104750000Y-122570000D03*
%TD*%
D23*
%TO.P,U1,1,GND*%
%TO.N,GND*%
X137500000Y-113500000D03*
%TO.P,U1,2,3V3*%
%TO.N,+3V3*%
X136230000Y-113500000D03*
%TO.P,U1,3,EN*%
%TO.N,CHIP_PU*%
X134960000Y-113500000D03*
%TO.P,U1,4,IO4*%
%TO.N,IO4*%
X133690000Y-113500000D03*
%TO.P,U1,5,IO5*%
%TO.N,IO5*%
X132420000Y-113500000D03*
%TO.P,U1,6,IO6*%
%TO.N,IO6*%
X131150000Y-113500000D03*
%TO.P,U1,7,IO7*%
%TO.N,IO7*%
X129880000Y-113500000D03*
%TO.P,U1,8,IO15*%
%TO.N,IO15*%
X128610000Y-113500000D03*
%TO.P,U1,9,IO16*%
%TO.N,IO16*%
X127340000Y-113500000D03*
%TO.P,U1,10,IO17*%
%TO.N,IO17*%
X126070000Y-113500000D03*
%TO.P,U1,11,IO18*%
%TO.N,IO18*%
X124800000Y-113500000D03*
%TO.P,U1,12,IO8*%
%TO.N,IO8*%
X123530000Y-113500000D03*
%TO.P,U1,13,USB_D-*%
%TO.N,D-*%
X122260000Y-113500000D03*
%TO.P,U1,14,USB_D+*%
%TO.N,D+*%
X120990000Y-113500000D03*
D24*
%TO.P,U1,15,IO3*%
%TO.N,IO3*%
X119740000Y-115265000D03*
%TO.P,U1,16,IO46*%
%TO.N,unconnected-(U1-IO46-Pad16)*%
X119740000Y-116535000D03*
%TO.P,U1,17,IO9*%
%TO.N,IO9*%
X119740000Y-117805000D03*
%TO.P,U1,18,IO10*%
%TO.N,IO10*%
X119740000Y-119075000D03*
%TO.P,U1,19,IO11*%
%TO.N,IO11*%
X119740000Y-120345000D03*
%TO.P,U1,20,IO12*%
%TO.N,SDA*%
X119740000Y-121615000D03*
%TO.P,U1,21,IO13*%
%TO.N,SCL*%
X119740000Y-122885000D03*
%TO.P,U1,22,IO14*%
%TO.N,IO14*%
X119740000Y-124155000D03*
%TO.P,U1,23,IO21*%
%TO.N,IO21*%
X119740000Y-125425000D03*
%TO.P,U1,24,IO47*%
%TO.N,IO47*%
X119740000Y-126695000D03*
%TO.P,U1,25,IO48*%
%TO.N,IO48*%
X119740000Y-127965000D03*
%TO.P,U1,26,IO45*%
%TO.N,unconnected-(U1-IO45-Pad26)*%
X119740000Y-129235000D03*
D23*
%TO.P,U1,27,IO0*%
%TO.N,GPIO0*%
X120990000Y-131000000D03*
%TO.P,U1,28,IO35*%
%TO.N,IO35*%
X122260000Y-131000000D03*
%TO.P,U1,29,IO36*%
%TO.N,IO36*%
X123530000Y-131000000D03*
%TO.P,U1,30,IO37*%
%TO.N,IO37*%
X124800000Y-131000000D03*
%TO.P,U1,31,IO38*%
%TO.N,IO38*%
X126070000Y-131000000D03*
%TO.P,U1,32,IO39*%
%TO.N,unconnected-(U1-IO39-Pad32)*%
X127340000Y-131000000D03*
%TO.P,U1,33,IO40*%
%TO.N,unconnected-(U1-IO40-Pad33)*%
X128610000Y-131000000D03*
%TO.P,U1,34,IO41*%
%TO.N,unconnected-(U1-IO41-Pad34)*%
X129880000Y-131000000D03*
%TO.P,U1,35,IO42*%
%TO.N,unconnected-(U1-IO42-Pad35)*%
X131150000Y-131000000D03*
%TO.P,U1,36,RXD0*%
%TO.N,RXD0*%
X132420000Y-131000000D03*
%TO.P,U1,37,TXD0*%
%TO.N,TXD0*%
X133690000Y-131000000D03*
%TO.P,U1,38,IO2*%
%TO.N,IO2*%
X134960000Y-131000000D03*
%TO.P,U1,39,IO1*%
%TO.N,IO1*%
X136230000Y-131000000D03*
%TO.P,U1,40,GND*%
%TO.N,GND*%
X137500000Y-131000000D03*
D25*
%TO.P,U1,41,GND*%
X130480000Y-119350000D03*
X129080000Y-119350000D03*
X131180000Y-120050000D03*
X129780000Y-120050000D03*
X128380000Y-120050000D03*
X130480000Y-120750000D03*
D26*
X129780000Y-120750000D03*
D25*
X129080000Y-120750000D03*
X131180000Y-121450000D03*
X129780000Y-121450000D03*
X128380000Y-121450000D03*
X130480000Y-122150000D03*
X129080000Y-122150000D03*
%TD*%
D21*
%TO.P,C10,1*%
%TO.N,+3V3*%
X106250000Y-123320000D03*
%TO.P,C10,2*%
%TO.N,GND*%
X106250000Y-122680000D03*
%TD*%
D18*
%TO.P,R7,1*%
%TO.N,+3V3*%
X113500000Y-122680000D03*
%TO.P,R7,2*%
%TO.N,SDA*%
X113500000Y-123320000D03*
%TD*%
D27*
%TO.P,R6,1*%
%TO.N,Net-(U2-FB)*%
X103930000Y-113500000D03*
%TO.P,R6,2*%
%TO.N,GND*%
X104570000Y-113500000D03*
%TD*%
%TO.P,R1,1*%
%TO.N,Net-(J1-CC2)*%
X97180000Y-124000000D03*
%TO.P,R1,2*%
%TO.N,GND*%
X97820000Y-124000000D03*
%TD*%
D28*
%TO.P,U3,1,I/O1*%
%TO.N,Net-(J1-D--PadA7)*%
X97650000Y-121962500D03*
D29*
%TO.P,U3,2,GND*%
%TO.N,GND*%
X97575000Y-122500000D03*
D28*
%TO.P,U3,3,I/O2*%
%TO.N,Net-(J1-D+-PadA6)*%
X97650000Y-123037500D03*
%TO.P,U3,4,I/O2*%
%TO.N,D+*%
X99350000Y-123037500D03*
D29*
%TO.P,U3,5,VBUS*%
%TO.N,5v-Ext*%
X99425000Y-122500000D03*
D28*
%TO.P,U3,6,I/O1*%
%TO.N,D-*%
X99350000Y-121962500D03*
%TD*%
D27*
%TO.P,R2,1*%
%TO.N,Net-(J1-CC1)*%
X97180000Y-121000000D03*
%TO.P,R2,2*%
%TO.N,GND*%
X97820000Y-121000000D03*
%TD*%
D30*
%TO.P,U5,1,GND*%
%TO.N,GND*%
X106250000Y-115500000D03*
%TO.P,U5,2,VO*%
%TO.N,+3V3*%
X106250000Y-117800000D03*
D31*
X112550000Y-117800000D03*
D30*
%TO.P,U5,3,VI*%
%TO.N,5v-Ext*%
X106250000Y-120100000D03*
%TD*%
D32*
%TO.P,J1,A1,GND*%
%TO.N,GND*%
X92245000Y-119050000D03*
%TO.P,J1,A4,VBUS*%
%TO.N,Net-(D2-A)*%
X92245000Y-119850000D03*
D33*
%TO.P,J1,A5,CC1*%
%TO.N,Net-(J1-CC1)*%
X92245000Y-121000000D03*
%TO.P,J1,A6,D+*%
%TO.N,Net-(J1-D+-PadA6)*%
X92245000Y-122000000D03*
%TO.P,J1,A7,D-*%
%TO.N,Net-(J1-D--PadA7)*%
X92245000Y-122500000D03*
%TO.P,J1,A8*%
%TO.N,N/C*%
X92245000Y-123500000D03*
D32*
%TO.P,J1,A9,VBUS*%
%TO.N,Net-(D2-A)*%
X92245000Y-124650000D03*
%TO.P,J1,A12,GND*%
%TO.N,GND*%
X92245000Y-125450000D03*
%TO.P,J1,B1,GND*%
X92245000Y-125450000D03*
%TO.P,J1,B4,VBUS*%
%TO.N,Net-(D2-A)*%
X92245000Y-124650000D03*
D33*
%TO.P,J1,B5,CC2*%
%TO.N,Net-(J1-CC2)*%
X92245000Y-124000000D03*
%TO.P,J1,B6,D+*%
%TO.N,Net-(J1-D+-PadA6)*%
X92245000Y-123000000D03*
%TO.P,J1,B7,D-*%
%TO.N,Net-(J1-D--PadA7)*%
X92245000Y-121500000D03*
%TO.P,J1,B8*%
%TO.N,N/C*%
X92245000Y-120500000D03*
D32*
%TO.P,J1,B9,VBUS*%
%TO.N,Net-(D2-A)*%
X92245000Y-119850000D03*
%TO.P,J1,B12,GND*%
%TO.N,GND*%
X92245000Y-119050000D03*
D34*
%TO.P,J1,S1,SHIELD*%
X91605000Y-117930000D03*
D35*
X87425000Y-117930000D03*
D34*
X91605000Y-126570000D03*
D35*
X87425000Y-126570000D03*
%TD*%
D36*
%TO.P,U4,1,CLKIN*%
%TO.N,unconnected-(U4-CLKIN-Pad1)*%
X110750000Y-123050000D03*
%TO.P,U4,2,NC*%
%TO.N,unconnected-(U4-NC-Pad2)*%
X110250000Y-123050000D03*
%TO.P,U4,3,NC*%
%TO.N,unconnected-(U4-NC-Pad3)*%
X109750000Y-123050000D03*
%TO.P,U4,4,NC*%
%TO.N,unconnected-(U4-NC-Pad4)*%
X109250000Y-123050000D03*
%TO.P,U4,5,NC*%
%TO.N,unconnected-(U4-NC-Pad5)*%
X108750000Y-123050000D03*
%TO.P,U4,6,AUX_DA*%
%TO.N,unconnected-(U4-AUX_DA-Pad6)*%
X108250000Y-123050000D03*
D37*
%TO.P,U4,7,AUX_CL*%
%TO.N,unconnected-(U4-AUX_CL-Pad7)*%
X107550000Y-123750000D03*
%TO.P,U4,8,VLOGIC*%
%TO.N,+3V3*%
X107550000Y-124250000D03*
%TO.P,U4,9,AD0*%
%TO.N,unconnected-(U4-AD0-Pad9)*%
X107550000Y-124750000D03*
%TO.P,U4,10,REGOUT*%
%TO.N,unconnected-(U4-REGOUT-Pad10)*%
X107550000Y-125250000D03*
%TO.P,U4,11,FSYNC*%
%TO.N,unconnected-(U4-FSYNC-Pad11)*%
X107550000Y-125750000D03*
%TO.P,U4,12,INT*%
%TO.N,unconnected-(U4-INT-Pad12)*%
X107550000Y-126250000D03*
D36*
%TO.P,U4,13,VDD*%
%TO.N,+3V3*%
X108250000Y-126950000D03*
%TO.P,U4,14,NC*%
%TO.N,unconnected-(U4-NC-Pad14)*%
X108750000Y-126950000D03*
%TO.P,U4,15,NC*%
%TO.N,unconnected-(U4-NC-Pad15)*%
X109250000Y-126950000D03*
%TO.P,U4,16,NC*%
%TO.N,unconnected-(U4-NC-Pad16)*%
X109750000Y-126950000D03*
%TO.P,U4,17,NC*%
%TO.N,unconnected-(U4-NC-Pad17)*%
X110250000Y-126950000D03*
%TO.P,U4,18,GND*%
%TO.N,GND*%
X110750000Y-126950000D03*
D37*
%TO.P,U4,19,RESV*%
%TO.N,unconnected-(U4-RESV-Pad19)*%
X111450000Y-126250000D03*
%TO.P,U4,20,CPOUT*%
%TO.N,unconnected-(U4-CPOUT-Pad20)*%
X111450000Y-125750000D03*
%TO.P,U4,21,RESV*%
%TO.N,unconnected-(U4-RESV-Pad21)*%
X111450000Y-125250000D03*
%TO.P,U4,22,RESV*%
%TO.N,unconnected-(U4-RESV-Pad22)*%
X111450000Y-124750000D03*
%TO.P,U4,23,SCL*%
%TO.N,SCL*%
X111450000Y-124250000D03*
%TO.P,U4,24,SDA*%
%TO.N,SDA*%
X111450000Y-123750000D03*
%TD*%
D19*
%TO.P,SW3,1,1*%
%TO.N,GND*%
X88700000Y-129450000D03*
X92800000Y-129450000D03*
%TO.P,SW3,2,2*%
%TO.N,GPIO0*%
X88700000Y-131050000D03*
X92800000Y-131050000D03*
%TD*%
D18*
%TO.P,C3,1*%
%TO.N,+3V3*%
X116000000Y-119930000D03*
%TO.P,C3,2*%
%TO.N,GND*%
X116000000Y-120570000D03*
%TD*%
D38*
%TO.P,C6,1*%
%TO.N,+3V3*%
X115725000Y-125250000D03*
%TO.P,C6,2*%
%TO.N,GND*%
X117275000Y-125250000D03*
%TD*%
D18*
%TO.P,R5,1*%
%TO.N,+3V3*%
X118250000Y-129930000D03*
%TO.P,R5,2*%
%TO.N,GPIO0*%
X118250000Y-130570000D03*
%TD*%
D39*
%TO.P,D2,1,K*%
%TO.N,5v-Ext*%
X101787500Y-120500000D03*
%TO.P,D2,2,A*%
%TO.N,Net-(D2-A)*%
X100212500Y-120500000D03*
%TD*%
D22*
%TO.P,C11,1*%
%TO.N,+3V3*%
X104890000Y-125000000D03*
%TO.P,C11,2*%
%TO.N,GND*%
X104250000Y-125000000D03*
%TD*%
D27*
%TO.P,C9,1*%
%TO.N,Net-(U2-SS{slash}TR)*%
X101930000Y-111500000D03*
%TO.P,C9,2*%
%TO.N,GND*%
X102570000Y-111500000D03*
%TD*%
D40*
%TO.P,D1,1,K*%
%TO.N,GND*%
X98712500Y-118750000D03*
%TO.P,D1,2,A*%
%TO.N,Net-(D1-A)*%
X100287500Y-118750000D03*
%TD*%
D27*
%TO.P,R9,1*%
%TO.N,Net-(D3-A)*%
X102930000Y-114500000D03*
%TO.P,R9,2*%
%TO.N,Net-(U2-PG)*%
X103570000Y-114500000D03*
%TD*%
D18*
%TO.P,R8,1*%
%TO.N,+3V3*%
X115250000Y-122680000D03*
%TO.P,R8,2*%
%TO.N,SCL*%
X115250000Y-123320000D03*
%TD*%
%TO.P,C7,1*%
%TO.N,CHIP_PU*%
X114750000Y-116180000D03*
%TO.P,C7,2*%
%TO.N,GND*%
X114750000Y-116820000D03*
%TD*%
D41*
%TO.N,GND*%
X109500000Y-133000000D03*
X109600000Y-119400000D03*
X137500000Y-121750000D03*
X108700000Y-115900000D03*
X118500000Y-121000000D03*
X109750000Y-111500000D03*
X114750000Y-115250000D03*
X115250000Y-113750000D03*
X104750000Y-116000000D03*
X130250000Y-125750000D03*
X125000000Y-122250000D03*
X110750000Y-132000000D03*
X114100000Y-116900000D03*
X125000000Y-118000000D03*
X110250000Y-115250000D03*
X102250000Y-132000000D03*
X108700000Y-120200000D03*
X129500000Y-132500000D03*
X115750000Y-110750000D03*
X117000000Y-121500000D03*
X125750000Y-126750000D03*
X101750000Y-125000000D03*
X97500000Y-118000000D03*
X133250000Y-117500000D03*
X105250000Y-109500000D03*
X118750000Y-133250000D03*
X97250000Y-110500000D03*
X99750000Y-127500000D03*
X113000000Y-128250000D03*
X110000000Y-116500000D03*
X103750000Y-111500000D03*
X107750000Y-109500000D03*
X117750000Y-111500000D03*
X107250000Y-112000000D03*
X112500000Y-123000000D03*
X107250000Y-129000000D03*
X117800000Y-120400000D03*
X136750000Y-111500000D03*
X127500000Y-134250000D03*
X110600000Y-120200000D03*
%TO.N,5v-Ext*%
X103500000Y-120050000D03*
%TO.N,+3V3*%
X118250000Y-129250000D03*
X117000000Y-120500000D03*
X104500000Y-117750000D03*
X114500000Y-125250000D03*
X136250000Y-115250000D03*
X117250000Y-117750000D03*
%TO.N,CHIP_PU*%
X117000000Y-114750000D03*
X134250000Y-111500000D03*
%TO.N,Net-(D1-A)*%
X101500000Y-118750000D03*
X103500000Y-117750000D03*
%TO.N,Net-(D2-A)*%
X98000000Y-119850000D03*
X97500000Y-125000000D03*
%TO.N,SDA*%
X118000000Y-123000000D03*
X114250000Y-123250000D03*
%TO.N,D+*%
X100500000Y-123000000D03*
X120500000Y-112250000D03*
%TO.N,D-*%
X100500000Y-122000000D03*
X121500000Y-111500000D03*
%TO.N,IO3*%
X113250000Y-111500000D03*
%TO.N,IO21*%
X115000000Y-130250000D03*
%TO.N,IO14*%
X113750000Y-130250000D03*
%TO.N,IO48*%
X117000000Y-130250000D03*
%TO.N,IO47*%
X116000000Y-130250000D03*
%TO.N,Net-(U2-PG)*%
X101500000Y-112250000D03*
X104250000Y-114500000D03*
%TD*%
D42*
%TO.N,CHIP_PU*%
X92800000Y-114800000D02*
X88700000Y-114800000D01*
%TO.N,GPIO0*%
X92800000Y-131050000D02*
X88700000Y-131050000D01*
%TO.N,GND*%
X104705000Y-122570000D02*
X103500000Y-123775000D01*
X105000000Y-113500000D02*
X105500000Y-113000000D01*
X117250000Y-119570000D02*
X117250000Y-119850000D01*
X98925000Y-112825000D02*
X99250000Y-112500000D01*
X117250000Y-119850000D02*
X117800000Y-120400000D01*
X116000000Y-120570000D02*
X114955000Y-120570000D01*
X97852648Y-122500000D02*
X98151000Y-122798352D01*
X97820000Y-121000000D02*
X98151000Y-121331000D01*
X98151000Y-121331000D02*
X98151000Y-122798352D01*
X114180000Y-116820000D02*
X114100000Y-116900000D01*
X114955000Y-120570000D02*
X114750000Y-120775000D01*
X110750000Y-126950000D02*
X110750000Y-128250000D01*
X98151000Y-122798352D02*
X98151000Y-123669000D01*
X98187500Y-112825000D02*
X98925000Y-112825000D01*
X117275000Y-125250000D02*
X117275000Y-125475000D01*
X98187500Y-112825000D02*
X97175000Y-112825000D01*
X114750000Y-116820000D02*
X114180000Y-116820000D01*
X98151000Y-123669000D02*
X97820000Y-124000000D01*
X117275000Y-125475000D02*
X116250000Y-126500000D01*
X97575000Y-122500000D02*
X97852648Y-122500000D01*
X104570000Y-113500000D02*
X105000000Y-113500000D01*
X104750000Y-122570000D02*
X104705000Y-122570000D01*
X97175000Y-112825000D02*
X96750000Y-113250000D01*
%TO.N,5v-Ext*%
X104750000Y-120550000D02*
X104250000Y-120050000D01*
X99102642Y-121399000D02*
X101001000Y-121399000D01*
X104750000Y-121930000D02*
X104750000Y-120550000D01*
X103500000Y-120550000D02*
X104000000Y-120050000D01*
D43*
X102250000Y-117500000D02*
X102250000Y-119011292D01*
X102250000Y-119011292D02*
X103288708Y-120050000D01*
X102237500Y-120050000D02*
X101787500Y-120500000D01*
X104750000Y-120050000D02*
X104250000Y-120050000D01*
X104250000Y-120050000D02*
X104000000Y-120050000D01*
X106100000Y-120050000D02*
X104750000Y-120050000D01*
D42*
X99076642Y-122500000D02*
X98799000Y-122222358D01*
X99425000Y-122500000D02*
X99076642Y-122500000D01*
D43*
X104000000Y-120050000D02*
X103500000Y-120050000D01*
D42*
X98799000Y-122222358D02*
X98799000Y-121702642D01*
D43*
X103500000Y-120050000D02*
X102237500Y-120050000D01*
X103288708Y-120050000D02*
X103500000Y-120050000D01*
D42*
X103500000Y-122225000D02*
X103500000Y-120550000D01*
X98799000Y-121702642D02*
X99102642Y-121399000D01*
D43*
%TO.N,+3V3*%
X113500000Y-117750000D02*
X114250000Y-117750000D01*
X106200000Y-117750000D02*
X106250000Y-117800000D01*
D42*
X107291176Y-126950000D02*
X108250000Y-126950000D01*
X116500000Y-118250000D02*
X116000000Y-117750000D01*
X113500000Y-122680000D02*
X113500000Y-122500000D01*
D43*
X104500000Y-117750000D02*
X106200000Y-117750000D01*
D42*
X113750000Y-117750000D02*
X113500000Y-117750000D01*
X105750000Y-124250000D02*
X106250000Y-124250000D01*
X116750000Y-119000000D02*
X116750000Y-120250000D01*
X105750000Y-124250000D02*
X105750000Y-125408824D01*
X106250000Y-124250000D02*
X107550000Y-124250000D01*
D43*
X116500000Y-117750000D02*
X117000000Y-117750000D01*
D42*
X116000000Y-119930000D02*
X116000000Y-119000000D01*
X105750000Y-125408824D02*
X106295588Y-125954412D01*
D43*
X104500000Y-117820000D02*
X103570000Y-118750000D01*
D42*
X116000000Y-119000000D02*
X114750000Y-117750000D01*
X116250000Y-117250000D02*
X115750000Y-117750000D01*
X114750000Y-118750000D02*
X113750000Y-117750000D01*
D43*
X115500000Y-117750000D02*
X115750000Y-117750000D01*
D42*
X116500000Y-118750000D02*
X116500000Y-118250000D01*
X104890000Y-125000000D02*
X105341176Y-125000000D01*
X117250000Y-118500000D02*
X116500000Y-117750000D01*
X116000000Y-117750000D02*
X115750000Y-117750000D01*
D43*
X115750000Y-117750000D02*
X116500000Y-117750000D01*
X114250000Y-117750000D02*
X114750000Y-117750000D01*
D42*
X115500000Y-122000000D02*
X114000000Y-122000000D01*
D43*
X136250000Y-115250000D02*
X136250000Y-113520000D01*
D42*
X115250000Y-122680000D02*
X115250000Y-122250000D01*
D43*
X117000000Y-117750000D02*
X117250000Y-117750000D01*
X136250000Y-113520000D02*
X136230000Y-113500000D01*
D42*
X113500000Y-122500000D02*
X114000000Y-122000000D01*
X106000000Y-122000000D02*
X105250000Y-122750000D01*
D43*
X104500000Y-117750000D02*
X104500000Y-117820000D01*
D42*
X106250000Y-123390000D02*
X106250000Y-124250000D01*
X116750000Y-120250000D02*
X117000000Y-120500000D01*
X105250000Y-122750000D02*
X105250000Y-123750000D01*
X115250000Y-122250000D02*
X115500000Y-122000000D01*
X115500000Y-122000000D02*
X117000000Y-120500000D01*
D43*
X114750000Y-117750000D02*
X115500000Y-117750000D01*
D42*
X118250000Y-129250000D02*
X118250000Y-129930000D01*
X115725000Y-125250000D02*
X114500000Y-125250000D01*
X116500000Y-118750000D02*
X116750000Y-119000000D01*
X105250000Y-123750000D02*
X105750000Y-124250000D01*
D43*
X112400000Y-117750000D02*
X106100000Y-117750000D01*
D42*
X116250000Y-116820000D02*
X116250000Y-117250000D01*
X117250000Y-118930000D02*
X117250000Y-118500000D01*
D43*
X112400000Y-117750000D02*
X113500000Y-117750000D01*
D42*
X114750000Y-119225000D02*
X114750000Y-118750000D01*
X105341176Y-125000000D02*
X105750000Y-125408824D01*
X114000000Y-122000000D02*
X106000000Y-122000000D01*
X106295588Y-125954412D02*
X107291176Y-126950000D01*
%TO.N,CHIP_PU*%
X116070000Y-115500000D02*
X116250000Y-115680000D01*
X114250000Y-113680000D02*
X105849232Y-113680000D01*
X105849232Y-113680000D02*
X102728232Y-116801000D01*
X102728232Y-116801000D02*
X94801000Y-116801000D01*
X115500000Y-115500000D02*
X116070000Y-115500000D01*
X114750000Y-116180000D02*
X114820000Y-116180000D01*
X116250000Y-116180000D02*
X116250000Y-115680000D01*
X116250000Y-115680000D02*
X116250000Y-115500000D01*
X116250000Y-115680000D02*
X114250000Y-113680000D01*
X134960000Y-112210000D02*
X134960000Y-113500000D01*
X134250000Y-111500000D02*
X134960000Y-112210000D01*
X94801000Y-116801000D02*
X92800000Y-114800000D01*
X114820000Y-116180000D02*
X115500000Y-115500000D01*
X116250000Y-115500000D02*
X117000000Y-114750000D01*
%TO.N,GPIO0*%
X96800000Y-131300000D02*
X92700000Y-131300000D01*
X99000000Y-131000000D02*
X98500000Y-131000000D01*
X98500000Y-131000000D02*
X98200000Y-131300000D01*
X120990000Y-131000000D02*
X118250000Y-131000000D01*
X118250000Y-131000000D02*
X99000000Y-131000000D01*
X98200000Y-131300000D02*
X96800000Y-131300000D01*
%TO.N,Net-(D1-A)*%
X102930000Y-118750000D02*
X102930000Y-118320000D01*
X102930000Y-118320000D02*
X103500000Y-117750000D01*
X101500000Y-118750000D02*
X100287500Y-118750000D01*
D43*
%TO.N,Net-(D2-A)*%
X97150000Y-124650000D02*
X92245000Y-124650000D01*
X98000000Y-119850000D02*
X92245000Y-119850000D01*
X98000000Y-119850000D02*
X99562500Y-119850000D01*
X97500000Y-125000000D02*
X97150000Y-124650000D01*
X99562500Y-119850000D02*
X100212500Y-120500000D01*
D42*
%TO.N,Net-(J1-D--PadA7)*%
X96000000Y-122500000D02*
X92245000Y-122500000D01*
X96500000Y-122000000D02*
X97612500Y-122000000D01*
X97612500Y-122000000D02*
X97650000Y-121962500D01*
X96500000Y-122000000D02*
X96000000Y-121500000D01*
X96000000Y-121500000D02*
X92245000Y-121500000D01*
X96500000Y-122000000D02*
X96000000Y-122500000D01*
%TO.N,Net-(J1-D+-PadA6)*%
X95245000Y-123000000D02*
X92245000Y-123000000D01*
X95282500Y-123037500D02*
X95245000Y-123000000D01*
X91344000Y-122251001D02*
X91595001Y-122000000D01*
X91344000Y-122712112D02*
X91344000Y-122251001D01*
X97650000Y-123037500D02*
X96250000Y-123037500D01*
X92245000Y-123000000D02*
X91631888Y-123000000D01*
X91631888Y-123000000D02*
X91344000Y-122712112D01*
X91595001Y-122000000D02*
X92245000Y-122000000D01*
X96250000Y-123037500D02*
X95282500Y-123037500D01*
%TO.N,Net-(J1-CC2)*%
X97180000Y-124000000D02*
X92245000Y-124000000D01*
%TO.N,Net-(J1-CC1)*%
X97180000Y-121000000D02*
X92245000Y-121000000D01*
%TO.N,IO9*%
X116515100Y-112198000D02*
X111698000Y-112198000D01*
X119372100Y-117805000D02*
X118567100Y-117000000D01*
X119740000Y-117805000D02*
X119372100Y-117805000D01*
X119740000Y-117805000D02*
X119208000Y-117805000D01*
X118567100Y-117000000D02*
X118567100Y-114250000D01*
X118567100Y-114250000D02*
X116515100Y-112198000D01*
X110120000Y-109650000D02*
X108970000Y-108500000D01*
X110120000Y-110620000D02*
X110120000Y-109650000D01*
X111698000Y-112198000D02*
X110120000Y-110620000D01*
%TO.N,TXD0*%
X128750000Y-134250000D02*
X127000000Y-136000000D01*
X133690000Y-131300000D02*
X130740000Y-134250000D01*
X133690000Y-131000000D02*
X133690000Y-131300000D01*
X130740000Y-134250000D02*
X128750000Y-134250000D01*
%TO.N,RXD0*%
X132420000Y-131000000D02*
X132420000Y-131300000D01*
X126990000Y-133470000D02*
X124460000Y-136000000D01*
X130250000Y-133470000D02*
X126990000Y-133470000D01*
X132420000Y-131300000D02*
X130250000Y-133470000D01*
%TO.N,IO7*%
X127250000Y-109750000D02*
X125656388Y-109750000D01*
X129880000Y-113500000D02*
X129880000Y-110481000D01*
X129880000Y-110481000D02*
X129500000Y-110101000D01*
X124406388Y-108500000D02*
X124210000Y-108500000D01*
X125656388Y-109750000D02*
X124406388Y-108500000D01*
X129500000Y-110101000D02*
X127601000Y-110101000D01*
X127601000Y-110101000D02*
X127250000Y-109750000D01*
%TO.N,IO8*%
X112962000Y-109952000D02*
X111510000Y-108500000D01*
X123530000Y-113500000D02*
X123530000Y-111934000D01*
X123530000Y-111934000D02*
X122250000Y-110654000D01*
X122250000Y-110654000D02*
X117556611Y-110654000D01*
X116854612Y-109952000D02*
X112962000Y-109952000D01*
X117556611Y-110654000D02*
X116854612Y-109952000D01*
%TO.N,IO10*%
X119740000Y-119075000D02*
X119177057Y-119075000D01*
X119177057Y-119075000D02*
X118288000Y-118185943D01*
X106430000Y-109680000D02*
X106430000Y-108500000D01*
X118002000Y-116998000D02*
X118002000Y-114252000D01*
X116349000Y-112599000D02*
X109349000Y-112599000D01*
X118288000Y-117288000D02*
X118000000Y-117000000D01*
X109349000Y-112599000D02*
X106430000Y-109680000D01*
X118288000Y-118185943D02*
X118288000Y-117288000D01*
X118002000Y-114252000D02*
X116349000Y-112599000D01*
X118000000Y-117000000D02*
X118002000Y-116998000D01*
%TO.N,SDA*%
X113500000Y-123320000D02*
X114180000Y-123320000D01*
D44*
X119740000Y-121615000D02*
X118690000Y-121615000D01*
X118690000Y-121615000D02*
X118000000Y-122305000D01*
D42*
X114180000Y-123320000D02*
X114250000Y-123250000D01*
X113500000Y-123320000D02*
X113500000Y-123500000D01*
X113250000Y-123750000D02*
X111450000Y-123750000D01*
D44*
X118000000Y-122305000D02*
X118000000Y-123000000D01*
D42*
X113500000Y-123500000D02*
X113250000Y-123750000D01*
%TO.N,SCL*%
X114320000Y-124250000D02*
X115250000Y-123320000D01*
X118492000Y-123601000D02*
X119208000Y-122885000D01*
X119625000Y-123000000D02*
X119740000Y-122885000D01*
X111450000Y-124250000D02*
X114320000Y-124250000D01*
X119208000Y-122885000D02*
X119740000Y-122885000D01*
X115250000Y-123320000D02*
X115531000Y-123601000D01*
X115531000Y-123601000D02*
X118492000Y-123601000D01*
%TO.N,D+*%
X120990000Y-112510000D02*
X120990000Y-113500000D01*
X100500000Y-123000000D02*
X99387500Y-123000000D01*
X120750000Y-112250000D02*
X121000000Y-112500000D01*
X121000000Y-113490000D02*
X120990000Y-113500000D01*
X121000000Y-112500000D02*
X120990000Y-112510000D01*
X120500000Y-112250000D02*
X120750000Y-112250000D01*
X99387500Y-123000000D02*
X99350000Y-123037500D01*
%TO.N,IO11*%
X117887000Y-119442000D02*
X117887000Y-117537057D01*
X117601000Y-115781130D02*
X117601000Y-114501057D01*
X116099943Y-113000000D02*
X106750000Y-113000000D01*
X105000000Y-111250000D02*
X104000000Y-110250000D01*
X104000000Y-108610000D02*
X103890000Y-108500000D01*
X119740000Y-120345000D02*
X118790000Y-120345000D01*
X117501000Y-117151057D02*
X117501000Y-115881130D01*
X104000000Y-110250000D02*
X104000000Y-108610000D01*
X117501000Y-115881130D02*
X117601000Y-115781130D01*
X118790000Y-120345000D02*
X117887000Y-119442000D01*
X117601000Y-114501057D02*
X116099943Y-113000000D01*
X117887000Y-117537057D02*
X117501000Y-117151057D01*
X106750000Y-113000000D02*
X105000000Y-111250000D01*
%TO.N,IO16*%
X122899000Y-109601000D02*
X123399000Y-110101000D01*
X119130000Y-108500000D02*
X120130000Y-109500000D01*
X120130000Y-109500000D02*
X120750000Y-109500000D01*
X125101000Y-110452000D02*
X126500000Y-110452000D01*
X126500000Y-110452000D02*
X127340000Y-111292000D01*
X124750000Y-110101000D02*
X125101000Y-110452000D01*
X127340000Y-111292000D02*
X127340000Y-113500000D01*
X123399000Y-110101000D02*
X124750000Y-110101000D01*
X120851000Y-109601000D02*
X122899000Y-109601000D01*
X120750000Y-109500000D02*
X120851000Y-109601000D01*
%TO.N,IO15*%
X128610000Y-111711000D02*
X127000000Y-110101000D01*
X122500000Y-108500000D02*
X121670000Y-108500000D01*
X127000000Y-110101000D02*
X125351000Y-110101000D01*
X128610000Y-113500000D02*
X128610000Y-111711000D01*
X125000000Y-109750000D02*
X123750000Y-109750000D01*
X123750000Y-109750000D02*
X122500000Y-108500000D01*
X125351000Y-110101000D02*
X125000000Y-109750000D01*
%TO.N,D-*%
X99387500Y-122000000D02*
X99350000Y-121962500D01*
X121500000Y-111500000D02*
X122260000Y-112260000D01*
X122260000Y-112260000D02*
X122260000Y-113500000D01*
X100500000Y-122000000D02*
X99387500Y-122000000D01*
%TO.N,IO6*%
X131150000Y-110900000D02*
X130000000Y-109750000D01*
X128000000Y-109750000D02*
X126750000Y-108500000D01*
X131150000Y-113500000D02*
X131150000Y-110900000D01*
X130000000Y-109750000D02*
X128000000Y-109750000D01*
%TO.N,IO4*%
X133690000Y-110360000D02*
X131830000Y-108500000D01*
X133690000Y-113500000D02*
X133690000Y-110360000D01*
%TO.N,IO18*%
X122500000Y-110303000D02*
X119803000Y-110303000D01*
X119803000Y-110303000D02*
X119500000Y-110000000D01*
X117399000Y-110000000D02*
X117000000Y-109601000D01*
X124800000Y-111699694D02*
X124000000Y-110899694D01*
X115151000Y-109601000D02*
X114050000Y-108500000D01*
X124800000Y-113500000D02*
X124800000Y-111699694D01*
X124000000Y-110899694D02*
X123096694Y-110899694D01*
X117000000Y-109601000D02*
X115151000Y-109601000D01*
X123096694Y-110899694D02*
X122500000Y-110303000D01*
X119500000Y-110000000D02*
X117399000Y-110000000D01*
%TO.N,IO17*%
X120085612Y-109952000D02*
X122753612Y-109952000D01*
X124701306Y-110548694D02*
X126070000Y-111917389D01*
X116590000Y-108500000D02*
X117691000Y-109601000D01*
X117691000Y-109601000D02*
X119734612Y-109601000D01*
X119734612Y-109601000D02*
X120085612Y-109952000D01*
X123350305Y-110548694D02*
X124701306Y-110548694D01*
X126070000Y-111917389D02*
X126070000Y-113500000D01*
X122753612Y-109952000D02*
X123350305Y-110548694D01*
%TO.N,IO5*%
X132250000Y-109750000D02*
X130540000Y-109750000D01*
X132420000Y-113500000D02*
X132420000Y-109920000D01*
X132420000Y-109920000D02*
X132250000Y-109750000D01*
X130540000Y-109750000D02*
X129290000Y-108500000D01*
%TO.N,IO3*%
X119740000Y-114855800D02*
X116384200Y-111500000D01*
X119740000Y-115265000D02*
X119740000Y-114855800D01*
X116384200Y-111500000D02*
X114000000Y-111500000D01*
X114000000Y-111500000D02*
X113250000Y-111500000D01*
%TO.N,IO1*%
X136230000Y-131000000D02*
X136230000Y-131850000D01*
X136230000Y-131850000D02*
X132080000Y-136000000D01*
%TO.N,IO2*%
X134960000Y-131790000D02*
X132000000Y-134750000D01*
X132000000Y-134750000D02*
X130790000Y-134750000D01*
X130790000Y-134750000D02*
X129540000Y-136000000D01*
X134960000Y-131000000D02*
X134960000Y-131790000D01*
%TO.N,IO37*%
X120100000Y-136000000D02*
X119380000Y-136000000D01*
X124800000Y-131000000D02*
X124800000Y-131300000D01*
X124800000Y-131300000D02*
X120100000Y-136000000D01*
D44*
%TO.N,IO21*%
X115250000Y-130000000D02*
X115000000Y-130250000D01*
X115250000Y-129426479D02*
X115250000Y-130000000D01*
X119251479Y-125425000D02*
X115250000Y-129426479D01*
X119740000Y-125425000D02*
X119251479Y-125425000D01*
%TO.N,IO14*%
X119740000Y-124155000D02*
X118690000Y-124155000D01*
X118076000Y-124769000D02*
X118076000Y-125891959D01*
X114250000Y-129717959D02*
X114250000Y-129750000D01*
X118690000Y-124155000D02*
X118076000Y-124769000D01*
X114250000Y-129750000D02*
X113750000Y-130250000D01*
X118076000Y-125891959D02*
X114250000Y-129717959D01*
D42*
%TO.N,IO38*%
X126070000Y-131000000D02*
X126070000Y-131850000D01*
X126070000Y-131850000D02*
X121920000Y-136000000D01*
%TO.N,IO36*%
X123530000Y-131000000D02*
X123530000Y-131432000D01*
X118000000Y-134840000D02*
X116840000Y-136000000D01*
X120212000Y-134750000D02*
X118000000Y-134750000D01*
X123530000Y-131432000D02*
X120212000Y-134750000D01*
%TO.N,IO35*%
X115901000Y-134399000D02*
X114300000Y-136000000D01*
X122260000Y-131300000D02*
X119161000Y-134399000D01*
X119161000Y-134399000D02*
X115901000Y-134399000D01*
X122260000Y-131000000D02*
X122260000Y-131300000D01*
D44*
%TO.N,IO48*%
X119740000Y-127965000D02*
X118614346Y-127965000D01*
X117000000Y-129579346D02*
X117000000Y-130250000D01*
X118614346Y-127965000D02*
X117000000Y-129579346D01*
%TO.N,IO47*%
X119740000Y-126695000D02*
X118690000Y-126695000D01*
X118690000Y-126695000D02*
X116000000Y-129385000D01*
X116000000Y-129385000D02*
X116000000Y-130250000D01*
D43*
%TO.N,15v-Ext*%
X97650000Y-112175000D02*
X97000000Y-111525000D01*
D45*
X96270000Y-111495000D02*
X96275000Y-111500000D01*
X98187500Y-111525000D02*
X97000000Y-111525000D01*
X97000000Y-111525000D02*
X96300000Y-111525000D01*
X96300000Y-111525000D02*
X96275000Y-111500000D01*
D43*
X98187500Y-112175000D02*
X97650000Y-112175000D01*
D45*
X96270000Y-108500000D02*
X96270000Y-111495000D01*
D42*
%TO.N,Net-(U2-FB)*%
X100312500Y-112825000D02*
X102094999Y-112825000D01*
X102094999Y-112825000D02*
X102570000Y-113300001D01*
X102570000Y-113300001D02*
X102570000Y-113500000D01*
X103930000Y-113500000D02*
X102570000Y-113500000D01*
%TO.N,Net-(U2-PG)*%
X103570000Y-114500000D02*
X104250000Y-114500000D01*
X100387500Y-112250000D02*
X100312500Y-112175000D01*
X101500000Y-112250000D02*
X100387500Y-112250000D01*
%TO.N,Net-(U2-SS{slash}TR)*%
X100312500Y-111525000D02*
X101905000Y-111525000D01*
X101905000Y-111525000D02*
X101930000Y-111500000D01*
D43*
%TO.N,Net-(D3-A)*%
X102500000Y-114500000D02*
X101918750Y-115081250D01*
X98187500Y-113739500D02*
X98187500Y-113475000D01*
X101543750Y-114706250D02*
X100750000Y-115500000D01*
X100312500Y-113739500D02*
X100151000Y-113901000D01*
D42*
X101905000Y-113475000D02*
X101930000Y-113500000D01*
X101930000Y-113500000D02*
X101750000Y-113500000D01*
D43*
X102250000Y-115412500D02*
X102250000Y-115925000D01*
X102930000Y-114500000D02*
X102500000Y-114500000D01*
X101543750Y-114706250D02*
X101918750Y-115081250D01*
X101043750Y-114206250D02*
X101543750Y-114706250D01*
X101918750Y-115081250D02*
X102250000Y-115412500D01*
X100312500Y-113475000D02*
X100312500Y-113739500D01*
X100312500Y-113475000D02*
X101043750Y-114206250D01*
X100750000Y-115500000D02*
X100025000Y-115500000D01*
X98349000Y-113901000D02*
X98187500Y-113739500D01*
D42*
X101750000Y-113500000D02*
X101043750Y-114206250D01*
D43*
X100151000Y-113901000D02*
X98349000Y-113901000D01*
%TD*%
%TA.AperFunction,Conductor*%
%TO.N,GND*%
G36*
X129288327Y-132231338D02*
G01*
X129322517Y-132244091D01*
X129382127Y-132250500D01*
X130320903Y-132250499D01*
X130387942Y-132270183D01*
X130433697Y-132322987D01*
X130443641Y-132392146D01*
X130414616Y-132455702D01*
X130408584Y-132462180D01*
X130037584Y-132833181D01*
X129976261Y-132866666D01*
X129949903Y-132869500D01*
X127069057Y-132869500D01*
X126910942Y-132869500D01*
X126758215Y-132910423D01*
X126758214Y-132910423D01*
X126758212Y-132910424D01*
X126758209Y-132910425D01*
X126708096Y-132939359D01*
X126708095Y-132939360D01*
X126664689Y-132964420D01*
X126621285Y-132989479D01*
X126621282Y-132989481D01*
X126509478Y-133101286D01*
X124944522Y-134666241D01*
X124883199Y-134699726D01*
X124818523Y-134696491D01*
X124776245Y-134682754D01*
X124636272Y-134660584D01*
X124566287Y-134649500D01*
X124419096Y-134649500D01*
X124352057Y-134629815D01*
X124306302Y-134577011D01*
X124296358Y-134507853D01*
X124325383Y-134444297D01*
X124331415Y-134437819D01*
X125007053Y-133762181D01*
X126438713Y-132330521D01*
X126438716Y-132330520D01*
X126482420Y-132286814D01*
X126523264Y-132264513D01*
X126543740Y-132253333D01*
X126543742Y-132253332D01*
X126543747Y-132253332D01*
X126564586Y-132251091D01*
X126564576Y-132250900D01*
X126564571Y-132250854D01*
X126564573Y-132250853D01*
X126564564Y-132250676D01*
X126567857Y-132250499D01*
X126567872Y-132250499D01*
X126627483Y-132244091D01*
X126661667Y-132231340D01*
X126731358Y-132226357D01*
X126748327Y-132231338D01*
X126782517Y-132244091D01*
X126842127Y-132250500D01*
X127837872Y-132250499D01*
X127897483Y-132244091D01*
X127931667Y-132231340D01*
X128001358Y-132226357D01*
X128018327Y-132231338D01*
X128052517Y-132244091D01*
X128112127Y-132250500D01*
X129107872Y-132250499D01*
X129167483Y-132244091D01*
X129201667Y-132231340D01*
X129271358Y-132226357D01*
X129288327Y-132231338D01*
G37*
%TD.AperFunction*%
%TA.AperFunction,Conductor*%
G36*
X127847941Y-134090185D02*
G01*
X127893696Y-134142989D01*
X127903640Y-134212147D01*
X127874615Y-134275703D01*
X127868583Y-134282181D01*
X127484522Y-134666241D01*
X127423199Y-134699726D01*
X127358523Y-134696491D01*
X127316245Y-134682754D01*
X127176272Y-134660584D01*
X127106287Y-134649500D01*
X126959096Y-134649500D01*
X126892057Y-134629815D01*
X126846302Y-134577011D01*
X126836358Y-134507853D01*
X126865383Y-134444297D01*
X126871415Y-134437819D01*
X127027054Y-134282181D01*
X127202416Y-134106819D01*
X127263739Y-134073334D01*
X127290097Y-134070500D01*
X127780902Y-134070500D01*
X127847941Y-134090185D01*
G37*
%TD.AperFunction*%
%TA.AperFunction,Conductor*%
G36*
X112742539Y-122620185D02*
G01*
X112788294Y-122672989D01*
X112799500Y-122724499D01*
X112799500Y-122849362D01*
X112814955Y-122966763D01*
X112815263Y-122967912D01*
X112815336Y-122969657D01*
X112816016Y-122974821D01*
X112815555Y-122974881D01*
X112815744Y-122979374D01*
X112818767Y-122986657D01*
X112817008Y-123009473D01*
X112817532Y-123021930D01*
X112815917Y-123030917D01*
X112814956Y-123033238D01*
X112813464Y-123044565D01*
X112812950Y-123047430D01*
X112798586Y-123076176D01*
X112785577Y-123105583D01*
X112783064Y-123107240D01*
X112781720Y-123109931D01*
X112754092Y-123126349D01*
X112727252Y-123144053D01*
X112723308Y-123144643D01*
X112721656Y-123145626D01*
X112717683Y-123145486D01*
X112690905Y-123149500D01*
X112059849Y-123149500D01*
X112012396Y-123140061D01*
X111950236Y-123114313D01*
X111927039Y-123111259D01*
X111837727Y-123099500D01*
X111837720Y-123099500D01*
X111524500Y-123099500D01*
X111457461Y-123079815D01*
X111411706Y-123027011D01*
X111400500Y-122975500D01*
X111400500Y-122724500D01*
X111420185Y-122657461D01*
X111472989Y-122611706D01*
X111524500Y-122600500D01*
X112675500Y-122600500D01*
X112742539Y-122620185D01*
G37*
%TD.AperFunction*%
%TA.AperFunction,Conductor*%
G36*
X118005703Y-120410384D02*
G01*
X118012181Y-120416416D01*
X118305139Y-120709374D01*
X118305149Y-120709385D01*
X118309479Y-120713715D01*
X118309480Y-120713716D01*
X118421284Y-120825520D01*
X118421286Y-120825521D01*
X118427031Y-120831266D01*
X118425135Y-120833161D01*
X118458559Y-120878922D01*
X118462722Y-120948668D01*
X118428518Y-121009593D01*
X118389334Y-121035443D01*
X118381878Y-121038531D01*
X118381871Y-121038535D01*
X118275331Y-121109722D01*
X118275324Y-121109728D01*
X117494727Y-121890325D01*
X117494721Y-121890332D01*
X117427322Y-121991204D01*
X117427322Y-121991205D01*
X117423536Y-121996870D01*
X117423534Y-121996874D01*
X117374499Y-122115255D01*
X117374497Y-122115261D01*
X117349500Y-122240928D01*
X117349500Y-122495064D01*
X117329815Y-122562103D01*
X117328606Y-122563948D01*
X117324861Y-122569553D01*
X117290608Y-122620817D01*
X117290602Y-122620828D01*
X117230264Y-122766498D01*
X117230261Y-122766510D01*
X117203571Y-122900691D01*
X117171186Y-122962602D01*
X117110471Y-122997176D01*
X117081954Y-123000500D01*
X116071997Y-123000500D01*
X116004958Y-122980815D01*
X115959203Y-122928011D01*
X115949058Y-122860315D01*
X115949607Y-122856145D01*
X115950500Y-122849361D01*
X115950499Y-122510640D01*
X115945462Y-122472380D01*
X115946047Y-122468625D01*
X115944718Y-122465062D01*
X115951388Y-122434375D01*
X115956227Y-122403348D01*
X115958986Y-122399422D01*
X115959560Y-122396786D01*
X115980652Y-122368606D01*
X115980707Y-122368529D01*
X115980721Y-122368514D01*
X115980724Y-122368511D01*
X115983214Y-122366020D01*
X117014662Y-121334572D01*
X117075983Y-121301089D01*
X117078150Y-121300638D01*
X117136085Y-121289113D01*
X117233497Y-121269737D01*
X117379179Y-121209394D01*
X117510289Y-121121789D01*
X117621789Y-121010289D01*
X117709394Y-120879179D01*
X117709501Y-120878922D01*
X117742812Y-120798499D01*
X117769737Y-120733497D01*
X117800500Y-120578842D01*
X117800500Y-120504097D01*
X117820185Y-120437058D01*
X117872989Y-120391303D01*
X117942147Y-120381359D01*
X118005703Y-120410384D01*
G37*
%TD.AperFunction*%
%TA.AperFunction,Conductor*%
G36*
X110992540Y-118520185D02*
G01*
X111038295Y-118572989D01*
X111049501Y-118624500D01*
X111049501Y-119258034D01*
X111060113Y-119377415D01*
X111116089Y-119573045D01*
X111116090Y-119573048D01*
X111116091Y-119573049D01*
X111210302Y-119753407D01*
X111210304Y-119753409D01*
X111338890Y-119911109D01*
X111432803Y-119987684D01*
X111496593Y-120039698D01*
X111676951Y-120133909D01*
X111872582Y-120189886D01*
X111991963Y-120200500D01*
X113108036Y-120200499D01*
X113227418Y-120189886D01*
X113423049Y-120133909D01*
X113603407Y-120039698D01*
X113759192Y-119912672D01*
X113765983Y-119907135D01*
X113766903Y-119908263D01*
X113768357Y-119907469D01*
X113773792Y-119900210D01*
X113798535Y-119890981D01*
X113821712Y-119878318D01*
X113830758Y-119878962D01*
X113839256Y-119875793D01*
X113865062Y-119881406D01*
X113891405Y-119883284D01*
X113900473Y-119889110D01*
X113907529Y-119890645D01*
X113935783Y-119911796D01*
X113936659Y-119912672D01*
X113970144Y-119973995D01*
X113965160Y-120043687D01*
X113936665Y-120088028D01*
X113927430Y-120097264D01*
X113927424Y-120097271D01*
X113838457Y-120241507D01*
X113838452Y-120241518D01*
X113785144Y-120402393D01*
X113775000Y-120501677D01*
X113775000Y-120525000D01*
X114626000Y-120525000D01*
X114693039Y-120544685D01*
X114738794Y-120597489D01*
X114750000Y-120649000D01*
X114750000Y-120901000D01*
X114730315Y-120968039D01*
X114677511Y-121013794D01*
X114626000Y-121025000D01*
X113775001Y-121025000D01*
X113775001Y-121048322D01*
X113785144Y-121147607D01*
X113814599Y-121236496D01*
X113817001Y-121306324D01*
X113781269Y-121366366D01*
X113718749Y-121397559D01*
X113696893Y-121399500D01*
X107474477Y-121399500D01*
X107407438Y-121379815D01*
X107361683Y-121327011D01*
X107351739Y-121257853D01*
X107380764Y-121194297D01*
X107396790Y-121178853D01*
X107435662Y-121147607D01*
X107497722Y-121097722D01*
X107617030Y-120949296D01*
X107701641Y-120778693D01*
X107747600Y-120593889D01*
X107750500Y-120551123D01*
X107750499Y-119648878D01*
X107747600Y-119606111D01*
X107701641Y-119421307D01*
X107641231Y-119299500D01*
X107617032Y-119250707D01*
X107617030Y-119250704D01*
X107497722Y-119102278D01*
X107497721Y-119102277D01*
X107428514Y-119046647D01*
X107388595Y-118989304D01*
X107386015Y-118919482D01*
X107421594Y-118859349D01*
X107428514Y-118853353D01*
X107461919Y-118826501D01*
X107497722Y-118797722D01*
X107617030Y-118649296D01*
X107656652Y-118569406D01*
X107704073Y-118518093D01*
X107767740Y-118500500D01*
X110925501Y-118500500D01*
X110992540Y-118520185D01*
G37*
%TD.AperFunction*%
%TA.AperFunction,Conductor*%
G36*
X104669334Y-115811647D02*
G01*
X104725267Y-115853519D01*
X104749684Y-115918983D01*
X104750000Y-115927829D01*
X104750000Y-115951096D01*
X104752897Y-115993824D01*
X104798831Y-116178523D01*
X104883390Y-116349022D01*
X104883392Y-116349025D01*
X105002630Y-116497364D01*
X105071884Y-116553031D01*
X105111803Y-116610375D01*
X105114383Y-116680197D01*
X105078805Y-116740329D01*
X105071885Y-116746326D01*
X105002278Y-116802278D01*
X104886038Y-116946887D01*
X104828695Y-116986805D01*
X104758873Y-116989385D01*
X104741946Y-116983762D01*
X104733497Y-116980263D01*
X104733495Y-116980262D01*
X104733494Y-116980262D01*
X104733488Y-116980260D01*
X104578845Y-116949500D01*
X104578842Y-116949500D01*
X104421158Y-116949500D01*
X104421155Y-116949500D01*
X104266510Y-116980261D01*
X104266498Y-116980264D01*
X104120827Y-117040602D01*
X104120814Y-117040609D01*
X104068891Y-117075304D01*
X104002214Y-117096182D01*
X103934833Y-117077698D01*
X103931109Y-117075304D01*
X103879185Y-117040609D01*
X103879172Y-117040602D01*
X103733501Y-116980264D01*
X103733491Y-116980261D01*
X103681361Y-116969892D01*
X103619450Y-116937507D01*
X103584876Y-116876791D01*
X103588616Y-116807022D01*
X103617870Y-116760596D01*
X104538319Y-115840147D01*
X104599642Y-115806663D01*
X104669334Y-115811647D01*
G37*
%TD.AperFunction*%
%TA.AperFunction,Conductor*%
G36*
X114016942Y-114300185D02*
G01*
X114037584Y-114316819D01*
X114848083Y-115127318D01*
X114852421Y-115135263D01*
X114859669Y-115140689D01*
X114868903Y-115165448D01*
X114881568Y-115188641D01*
X114880922Y-115197670D01*
X114884086Y-115206153D01*
X114878469Y-115231973D01*
X114876584Y-115258333D01*
X114870765Y-115267386D01*
X114869234Y-115274426D01*
X114848083Y-115302680D01*
X114737582Y-115413181D01*
X114676259Y-115446666D01*
X114649904Y-115449500D01*
X114610637Y-115449500D01*
X114493246Y-115464953D01*
X114493237Y-115464956D01*
X114347160Y-115525463D01*
X114221718Y-115621718D01*
X114125463Y-115747160D01*
X114098185Y-115813016D01*
X114054344Y-115867419D01*
X113988050Y-115889484D01*
X113920350Y-115872205D01*
X113887522Y-115843924D01*
X113761109Y-115688890D01*
X113603409Y-115560304D01*
X113603410Y-115560304D01*
X113603407Y-115560302D01*
X113423049Y-115466091D01*
X113423048Y-115466090D01*
X113423045Y-115466089D01*
X113305829Y-115432550D01*
X113227418Y-115410114D01*
X113227415Y-115410113D01*
X113227413Y-115410113D01*
X113161102Y-115404217D01*
X113108037Y-115399500D01*
X113108032Y-115399500D01*
X111991971Y-115399500D01*
X111991965Y-115399500D01*
X111991964Y-115399501D01*
X111983955Y-115400213D01*
X111872584Y-115410113D01*
X111676954Y-115466089D01*
X111643621Y-115483501D01*
X111496593Y-115560302D01*
X111496591Y-115560303D01*
X111496590Y-115560304D01*
X111338890Y-115688890D01*
X111218272Y-115836818D01*
X111210302Y-115846593D01*
X111196173Y-115873642D01*
X111116089Y-116026954D01*
X111076566Y-116165084D01*
X111066433Y-116200500D01*
X111060114Y-116222583D01*
X111060113Y-116222586D01*
X111049500Y-116341966D01*
X111049500Y-116875500D01*
X111029815Y-116942539D01*
X110977011Y-116988294D01*
X110925500Y-116999500D01*
X107715673Y-116999500D01*
X107648634Y-116979815D01*
X107619026Y-116953187D01*
X107497724Y-116802280D01*
X107497722Y-116802278D01*
X107428112Y-116746324D01*
X107388196Y-116688985D01*
X107385616Y-116619163D01*
X107421194Y-116559030D01*
X107428115Y-116553033D01*
X107497366Y-116497367D01*
X107497367Y-116497366D01*
X107616607Y-116349025D01*
X107616609Y-116349022D01*
X107701168Y-116178523D01*
X107747102Y-115993824D01*
X107750000Y-115951096D01*
X107750000Y-115750000D01*
X106374000Y-115750000D01*
X106306961Y-115730315D01*
X106261206Y-115677511D01*
X106250000Y-115626000D01*
X106250000Y-115374000D01*
X106269685Y-115306961D01*
X106322489Y-115261206D01*
X106374000Y-115250000D01*
X107750000Y-115250000D01*
X107750000Y-115048903D01*
X107747102Y-115006175D01*
X107701168Y-114821476D01*
X107616609Y-114650977D01*
X107616607Y-114650974D01*
X107497368Y-114502634D01*
X107495520Y-114501149D01*
X107494688Y-114499954D01*
X107492613Y-114497879D01*
X107492984Y-114497507D01*
X107455600Y-114443807D01*
X107453018Y-114373985D01*
X107488595Y-114313851D01*
X107551035Y-114282498D01*
X107573205Y-114280500D01*
X113949903Y-114280500D01*
X114016942Y-114300185D01*
G37*
%TD.AperFunction*%
%TA.AperFunction,Conductor*%
G36*
X115866885Y-113620185D02*
G01*
X115887527Y-113636819D01*
X116351196Y-114100488D01*
X116384681Y-114161811D01*
X116379697Y-114231503D01*
X116366618Y-114257059D01*
X116290608Y-114370816D01*
X116290602Y-114370827D01*
X116230264Y-114516498D01*
X116230261Y-114516508D01*
X116226656Y-114534634D01*
X116194271Y-114596545D01*
X116133555Y-114631119D01*
X116063785Y-114627378D01*
X116017358Y-114598123D01*
X115231416Y-113812181D01*
X115197931Y-113750858D01*
X115202915Y-113681166D01*
X115244787Y-113625233D01*
X115310251Y-113600816D01*
X115319097Y-113600500D01*
X115799846Y-113600500D01*
X115866885Y-113620185D01*
G37*
%TD.AperFunction*%
%TA.AperFunction,Conductor*%
G36*
X117194576Y-111156208D02*
G01*
X117213827Y-111155291D01*
X117241750Y-111166470D01*
X117244020Y-111166964D01*
X117246593Y-111168409D01*
X117324827Y-111213577D01*
X117435524Y-111243238D01*
X117477553Y-111254500D01*
X117477554Y-111254500D01*
X120188153Y-111254500D01*
X120255192Y-111274185D01*
X120300947Y-111326989D01*
X120310891Y-111396147D01*
X120281866Y-111459703D01*
X120235605Y-111493061D01*
X120120827Y-111540602D01*
X120120814Y-111540609D01*
X119989711Y-111628210D01*
X119989707Y-111628213D01*
X119878213Y-111739707D01*
X119878210Y-111739711D01*
X119790609Y-111870814D01*
X119790602Y-111870827D01*
X119730264Y-112016498D01*
X119730261Y-112016510D01*
X119699500Y-112171153D01*
X119699500Y-112328846D01*
X119730261Y-112483489D01*
X119730264Y-112483501D01*
X119790602Y-112629172D01*
X119790609Y-112629185D01*
X119878210Y-112760288D01*
X119878213Y-112760292D01*
X119989705Y-112871784D01*
X119994159Y-112875439D01*
X120033497Y-112933183D01*
X120039500Y-112971297D01*
X120039500Y-114006703D01*
X120019815Y-114073742D01*
X119967011Y-114119497D01*
X119897853Y-114129441D01*
X119834297Y-114100416D01*
X119827819Y-114094384D01*
X117096912Y-111363477D01*
X117087676Y-111346562D01*
X117074378Y-111332616D01*
X117071277Y-111316531D01*
X117063427Y-111302154D01*
X117064801Y-111282932D01*
X117061154Y-111264009D01*
X117067242Y-111248800D01*
X117068411Y-111232462D01*
X117079959Y-111217034D01*
X117087122Y-111199145D01*
X117100466Y-111189642D01*
X117110283Y-111176529D01*
X117128337Y-111169794D01*
X117144036Y-111158616D01*
X117160399Y-111157836D01*
X117175747Y-111152112D01*
X117194576Y-111156208D01*
G37*
%TD.AperFunction*%
%TA.AperFunction,Conductor*%
G36*
X102691444Y-109153999D02*
G01*
X102730486Y-109199056D01*
X102734951Y-109207820D01*
X102859890Y-109379786D01*
X103010213Y-109530109D01*
X103182179Y-109655048D01*
X103182181Y-109655049D01*
X103182184Y-109655051D01*
X103331796Y-109731282D01*
X103382591Y-109779255D01*
X103399500Y-109841766D01*
X103399500Y-110163330D01*
X103399499Y-110163348D01*
X103399499Y-110329054D01*
X103399498Y-110329054D01*
X103399499Y-110329057D01*
X103440423Y-110481785D01*
X103440424Y-110481787D01*
X103440423Y-110481787D01*
X103457621Y-110511573D01*
X103457623Y-110511575D01*
X103457624Y-110511577D01*
X103487041Y-110562529D01*
X103519479Y-110618715D01*
X103638349Y-110737585D01*
X103638354Y-110737589D01*
X104144001Y-111243237D01*
X104638349Y-111737585D01*
X104638355Y-111737590D01*
X105783998Y-112883234D01*
X105817483Y-112944557D01*
X105812499Y-113014249D01*
X105770627Y-113070182D01*
X105728413Y-113090689D01*
X105617448Y-113120423D01*
X105617447Y-113120423D01*
X105617445Y-113120424D01*
X105617441Y-113120426D01*
X105480522Y-113199475D01*
X105480518Y-113199478D01*
X105460320Y-113219676D01*
X105398996Y-113253160D01*
X105329304Y-113248174D01*
X105273371Y-113206302D01*
X105258079Y-113179446D01*
X105224099Y-113097412D01*
X105127924Y-112972075D01*
X105002586Y-112875899D01*
X104856631Y-112815444D01*
X104770000Y-112804038D01*
X104770000Y-112973568D01*
X104763663Y-112995146D01*
X104761930Y-113017570D01*
X104754009Y-113028023D01*
X104750315Y-113040607D01*
X104733318Y-113055334D01*
X104719737Y-113073261D01*
X104707422Y-113077773D01*
X104697511Y-113086362D01*
X104675251Y-113089562D01*
X104654134Y-113097301D01*
X104641334Y-113094439D01*
X104628353Y-113096306D01*
X104607894Y-113086962D01*
X104585947Y-113082056D01*
X104573297Y-113071162D01*
X104564797Y-113067281D01*
X104557815Y-113060743D01*
X104552354Y-113055219D01*
X104488282Y-112971718D01*
X104411780Y-112913016D01*
X104405815Y-112906982D01*
X104393110Y-112883392D01*
X104377311Y-112861755D01*
X104375327Y-112850375D01*
X104372684Y-112845467D01*
X104373233Y-112838359D01*
X104370000Y-112819807D01*
X104370000Y-112804038D01*
X104283365Y-112815444D01*
X104283055Y-112815528D01*
X104282733Y-112815527D01*
X104275313Y-112816505D01*
X104275184Y-112815527D01*
X104224884Y-112815526D01*
X104224820Y-112816017D01*
X104221091Y-112815526D01*
X104218891Y-112815526D01*
X104216765Y-112814956D01*
X104099361Y-112799500D01*
X103760636Y-112799500D01*
X103643246Y-112814953D01*
X103643234Y-112814957D01*
X103497163Y-112875461D01*
X103490124Y-112879526D01*
X103488528Y-112876762D01*
X103437300Y-112896534D01*
X103368864Y-112882456D01*
X103339373Y-112860639D01*
X103287603Y-112808869D01*
X103287595Y-112808863D01*
X103149393Y-112727131D01*
X103149388Y-112727129D01*
X102995208Y-112682335D01*
X102995202Y-112682334D01*
X102959188Y-112679500D01*
X102959181Y-112679500D01*
X102850096Y-112679500D01*
X102783057Y-112659815D01*
X102762415Y-112643181D01*
X102585144Y-112465910D01*
X102575520Y-112456286D01*
X102575519Y-112456284D01*
X102463715Y-112344480D01*
X102421025Y-112319833D01*
X102411558Y-112311407D01*
X102399501Y-112292085D01*
X102383784Y-112275602D01*
X102380329Y-112261362D01*
X102374569Y-112252131D01*
X102374751Y-112238370D01*
X102370000Y-112218782D01*
X102370000Y-112180192D01*
X102389685Y-112113153D01*
X102418511Y-112081818D01*
X102488282Y-112028282D01*
X102547625Y-111950943D01*
X102604052Y-111909742D01*
X102673798Y-111905587D01*
X102734718Y-111939799D01*
X102767471Y-112001516D01*
X102770000Y-112026431D01*
X102770000Y-112195959D01*
X102770001Y-112195960D01*
X102856627Y-112184557D01*
X102856633Y-112184555D01*
X103002585Y-112124100D01*
X103127924Y-112027924D01*
X103224100Y-111902586D01*
X103284555Y-111756631D01*
X103292012Y-111700000D01*
X102784500Y-111700000D01*
X102775814Y-111697449D01*
X102766854Y-111698738D01*
X102742815Y-111687759D01*
X102717461Y-111680315D01*
X102711533Y-111673473D01*
X102703298Y-111669713D01*
X102689009Y-111647479D01*
X102671706Y-111627511D01*
X102669418Y-111616997D01*
X102665523Y-111610936D01*
X102660500Y-111576001D01*
X102660499Y-111424001D01*
X102680183Y-111356961D01*
X102732987Y-111311206D01*
X102784499Y-111300000D01*
X103292010Y-111300000D01*
X103292011Y-111299998D01*
X103284557Y-111243372D01*
X103284555Y-111243366D01*
X103224100Y-111097414D01*
X103127924Y-110972075D01*
X103002586Y-110875899D01*
X102856631Y-110815444D01*
X102770000Y-110804038D01*
X102770000Y-110973568D01*
X102763663Y-110995146D01*
X102761930Y-111017570D01*
X102754009Y-111028023D01*
X102750315Y-111040607D01*
X102733318Y-111055334D01*
X102719737Y-111073261D01*
X102707422Y-111077773D01*
X102697511Y-111086362D01*
X102675251Y-111089562D01*
X102654134Y-111097301D01*
X102641334Y-111094439D01*
X102628353Y-111096306D01*
X102607894Y-111086962D01*
X102585947Y-111082056D01*
X102573297Y-111071162D01*
X102564797Y-111067281D01*
X102557815Y-111060743D01*
X102552354Y-111055219D01*
X102488282Y-110971718D01*
X102411780Y-110913016D01*
X102405815Y-110906982D01*
X102393110Y-110883392D01*
X102377311Y-110861755D01*
X102375327Y-110850375D01*
X102372684Y-110845467D01*
X102373233Y-110838359D01*
X102370000Y-110819807D01*
X102370000Y-110804038D01*
X102283365Y-110815444D01*
X102283055Y-110815528D01*
X102282733Y-110815527D01*
X102275313Y-110816505D01*
X102275184Y-110815527D01*
X102224884Y-110815526D01*
X102224820Y-110816017D01*
X102221091Y-110815526D01*
X102218891Y-110815526D01*
X102216765Y-110814956D01*
X102099361Y-110799500D01*
X101760636Y-110799500D01*
X101643246Y-110814953D01*
X101643234Y-110814957D01*
X101497163Y-110875461D01*
X101497162Y-110875461D01*
X101486827Y-110883392D01*
X101466646Y-110898876D01*
X101401480Y-110924070D01*
X101391162Y-110924500D01*
X100958101Y-110924500D01*
X100893325Y-110905479D01*
X100893135Y-110905801D01*
X100891867Y-110905051D01*
X100891062Y-110904815D01*
X100888985Y-110903346D01*
X100750390Y-110821382D01*
X100750385Y-110821380D01*
X100598633Y-110777292D01*
X100598620Y-110777290D01*
X100563163Y-110774500D01*
X100061849Y-110774500D01*
X100061824Y-110774501D01*
X100026372Y-110777291D01*
X99874614Y-110821380D01*
X99874609Y-110821382D01*
X99738583Y-110901827D01*
X99738578Y-110901831D01*
X99628342Y-111012067D01*
X99567019Y-111045551D01*
X99497327Y-111040567D01*
X99493208Y-111038946D01*
X99468767Y-111028822D01*
X99468759Y-111028820D01*
X99323872Y-111000000D01*
X99176128Y-111000000D01*
X99031240Y-111028819D01*
X99031232Y-111028822D01*
X99006788Y-111038947D01*
X98986913Y-111041083D01*
X98968184Y-111048069D01*
X98952884Y-111044740D01*
X98937319Y-111046414D01*
X98919444Y-111037466D01*
X98899911Y-111033217D01*
X98877618Y-111016529D01*
X98874840Y-111015138D01*
X98871657Y-111012066D01*
X98868236Y-111008645D01*
X98852815Y-110989855D01*
X98848126Y-110982838D01*
X98848123Y-110982834D01*
X98729662Y-110864373D01*
X98590360Y-110771295D01*
X98435582Y-110707184D01*
X98435574Y-110707182D01*
X98271271Y-110674500D01*
X98271267Y-110674500D01*
X97244500Y-110674500D01*
X97177461Y-110654815D01*
X97131706Y-110602011D01*
X97120500Y-110550500D01*
X97120500Y-109610758D01*
X97140185Y-109543719D01*
X97156819Y-109523077D01*
X97222524Y-109457372D01*
X97300104Y-109379792D01*
X97300106Y-109379788D01*
X97300109Y-109379786D01*
X97425048Y-109207820D01*
X97425047Y-109207820D01*
X97425051Y-109207816D01*
X97429514Y-109199054D01*
X97477488Y-109148259D01*
X97545308Y-109131463D01*
X97611444Y-109153999D01*
X97650486Y-109199056D01*
X97654951Y-109207820D01*
X97779890Y-109379786D01*
X97930213Y-109530109D01*
X98102179Y-109655048D01*
X98102181Y-109655049D01*
X98102184Y-109655051D01*
X98291588Y-109751557D01*
X98493757Y-109817246D01*
X98703713Y-109850500D01*
X98703714Y-109850500D01*
X98916286Y-109850500D01*
X98916287Y-109850500D01*
X99126243Y-109817246D01*
X99328412Y-109751557D01*
X99517816Y-109655051D01*
X99585276Y-109606039D01*
X99689786Y-109530109D01*
X99689788Y-109530106D01*
X99689792Y-109530104D01*
X99840104Y-109379792D01*
X99840106Y-109379788D01*
X99840109Y-109379786D01*
X99965048Y-109207820D01*
X99965047Y-109207820D01*
X99965051Y-109207816D01*
X99969514Y-109199054D01*
X100017488Y-109148259D01*
X100085308Y-109131463D01*
X100151444Y-109153999D01*
X100190486Y-109199056D01*
X100194951Y-109207820D01*
X100319890Y-109379786D01*
X100470213Y-109530109D01*
X100642179Y-109655048D01*
X100642181Y-109655049D01*
X100642184Y-109655051D01*
X100831588Y-109751557D01*
X101033757Y-109817246D01*
X101243713Y-109850500D01*
X101243714Y-109850500D01*
X101456286Y-109850500D01*
X101456287Y-109850500D01*
X101666243Y-109817246D01*
X101868412Y-109751557D01*
X102057816Y-109655051D01*
X102125276Y-109606039D01*
X102229786Y-109530109D01*
X102229788Y-109530106D01*
X102229792Y-109530104D01*
X102380104Y-109379792D01*
X102380106Y-109379788D01*
X102380109Y-109379786D01*
X102505048Y-109207820D01*
X102505047Y-109207820D01*
X102505051Y-109207816D01*
X102509514Y-109199054D01*
X102557488Y-109148259D01*
X102625308Y-109131463D01*
X102691444Y-109153999D01*
G37*
%TD.AperFunction*%
%TA.AperFunction,Conductor*%
G36*
X99027435Y-112585551D02*
G01*
X99036469Y-112585214D01*
X99059227Y-112598666D01*
X99083668Y-112608749D01*
X99088834Y-112616167D01*
X99096616Y-112620767D01*
X99108490Y-112644392D01*
X99123598Y-112666085D01*
X99125611Y-112678455D01*
X99127994Y-112683195D01*
X99127359Y-112689190D01*
X99130000Y-112705412D01*
X99130000Y-112776446D01*
X99292373Y-112938819D01*
X99302985Y-112958255D01*
X99317486Y-112974989D01*
X99319402Y-112988320D01*
X99325858Y-113000142D01*
X99324278Y-113022228D01*
X99327430Y-113044147D01*
X99321834Y-113056398D01*
X99320874Y-113069834D01*
X99307603Y-113087560D01*
X99298405Y-113107703D01*
X99287073Y-113114985D01*
X99279002Y-113125767D01*
X99258256Y-113133504D01*
X99239627Y-113145477D01*
X99217708Y-113148628D01*
X99213538Y-113150184D01*
X99204692Y-113150500D01*
X99054442Y-113150500D01*
X98987403Y-113130815D01*
X98947711Y-113089622D01*
X98873170Y-112963580D01*
X98873168Y-112963578D01*
X98873165Y-112963574D01*
X98822272Y-112912681D01*
X98821222Y-112910759D01*
X98819337Y-112909645D01*
X98804550Y-112880227D01*
X98788787Y-112851358D01*
X98788943Y-112849174D01*
X98787959Y-112847217D01*
X98791424Y-112814481D01*
X98793771Y-112781666D01*
X98795155Y-112779229D01*
X98795314Y-112777735D01*
X98799988Y-112770727D01*
X98813274Y-112747352D01*
X98817500Y-112742089D01*
X98873170Y-112686420D01*
X98903776Y-112634667D01*
X98909321Y-112627764D01*
X98931012Y-112612650D01*
X98950337Y-112594607D01*
X98959231Y-112592989D01*
X98966648Y-112587822D01*
X98993066Y-112586835D01*
X99019079Y-112582104D01*
X99027435Y-112585551D01*
G37*
%TD.AperFunction*%
%TA.AperFunction,Conductor*%
G36*
X105231444Y-109153999D02*
G01*
X105270486Y-109199056D01*
X105274951Y-109207820D01*
X105399890Y-109379786D01*
X105399896Y-109379792D01*
X105550208Y-109530104D01*
X105722184Y-109655051D01*
X105765001Y-109676867D01*
X105786792Y-109697447D01*
X105810224Y-109716146D01*
X105813088Y-109722281D01*
X105815796Y-109724839D01*
X105826172Y-109747631D01*
X105829499Y-109757470D01*
X105829499Y-109759057D01*
X105870423Y-109911785D01*
X105891444Y-109948194D01*
X105897587Y-109958834D01*
X105897588Y-109958837D01*
X105949475Y-110048709D01*
X105949481Y-110048717D01*
X106068349Y-110167585D01*
X106068355Y-110167590D01*
X108088584Y-112187819D01*
X108122069Y-112249142D01*
X108117085Y-112318834D01*
X108075213Y-112374767D01*
X108009749Y-112399184D01*
X108000903Y-112399500D01*
X107050098Y-112399500D01*
X106983059Y-112379815D01*
X106962417Y-112363181D01*
X105487590Y-110888355D01*
X105487588Y-110888352D01*
X104636819Y-110037583D01*
X104622115Y-110010655D01*
X104605523Y-109984837D01*
X104604631Y-109978636D01*
X104603334Y-109976260D01*
X104600500Y-109949902D01*
X104600500Y-109716282D01*
X104620185Y-109649243D01*
X104651615Y-109615964D01*
X104769788Y-109530107D01*
X104769788Y-109530106D01*
X104769792Y-109530104D01*
X104920104Y-109379792D01*
X104920106Y-109379788D01*
X104920109Y-109379786D01*
X105045048Y-109207820D01*
X105045047Y-109207820D01*
X105045051Y-109207816D01*
X105049514Y-109199054D01*
X105097488Y-109148259D01*
X105165308Y-109131463D01*
X105231444Y-109153999D01*
G37*
%TD.AperFunction*%
%TA.AperFunction,Conductor*%
G36*
X107771444Y-109153999D02*
G01*
X107810486Y-109199056D01*
X107814951Y-109207820D01*
X107939890Y-109379786D01*
X108090213Y-109530109D01*
X108262179Y-109655048D01*
X108262181Y-109655049D01*
X108262184Y-109655051D01*
X108451588Y-109751557D01*
X108653757Y-109817246D01*
X108863713Y-109850500D01*
X108863714Y-109850500D01*
X109076286Y-109850500D01*
X109076287Y-109850500D01*
X109286243Y-109817246D01*
X109328523Y-109803507D01*
X109343734Y-109803072D01*
X109357995Y-109797754D01*
X109377948Y-109802094D01*
X109398362Y-109801511D01*
X109412449Y-109809600D01*
X109426268Y-109812606D01*
X109454522Y-109833757D01*
X109483181Y-109862416D01*
X109516666Y-109923739D01*
X109519500Y-109950097D01*
X109519500Y-110533330D01*
X109519499Y-110533348D01*
X109519499Y-110699054D01*
X109519498Y-110699054D01*
X109560423Y-110851785D01*
X109580051Y-110885780D01*
X109580052Y-110885784D01*
X109639475Y-110988709D01*
X109639481Y-110988717D01*
X109758349Y-111107585D01*
X109758355Y-111107590D01*
X110437584Y-111786819D01*
X110471069Y-111848142D01*
X110466085Y-111917834D01*
X110424213Y-111973767D01*
X110358749Y-111998184D01*
X110349903Y-111998500D01*
X109649097Y-111998500D01*
X109582058Y-111978815D01*
X109561416Y-111962181D01*
X107307246Y-109708011D01*
X107273761Y-109646688D01*
X107278745Y-109576996D01*
X107307246Y-109532648D01*
X107309784Y-109530109D01*
X107309792Y-109530104D01*
X107460104Y-109379792D01*
X107585051Y-109207816D01*
X107589514Y-109199054D01*
X107637488Y-109148259D01*
X107705308Y-109131463D01*
X107771444Y-109153999D01*
G37*
%TD.AperFunction*%
%TA.AperFunction,Conductor*%
G36*
X116621553Y-110572185D02*
G01*
X116642195Y-110588819D01*
X116843898Y-110790522D01*
X116877383Y-110851845D01*
X116872399Y-110921537D01*
X116830527Y-110977470D01*
X116765063Y-111001887D01*
X116696790Y-110987035D01*
X116694218Y-110985591D01*
X116682908Y-110979061D01*
X116637488Y-110952838D01*
X116637486Y-110952836D01*
X116623152Y-110944561D01*
X116615985Y-110940423D01*
X116463257Y-110899499D01*
X116305143Y-110899499D01*
X116297547Y-110899499D01*
X116297531Y-110899500D01*
X113829766Y-110899500D01*
X113812311Y-110894374D01*
X113794118Y-110894266D01*
X113764643Y-110880377D01*
X113762727Y-110879815D01*
X113762102Y-110879412D01*
X113760347Y-110878269D01*
X113760289Y-110878211D01*
X113629179Y-110790606D01*
X113619678Y-110786670D01*
X113610067Y-110780412D01*
X113594504Y-110762232D01*
X113575874Y-110747219D01*
X113572198Y-110736175D01*
X113564630Y-110727334D01*
X113561366Y-110703630D01*
X113553810Y-110680925D01*
X113556688Y-110669647D01*
X113555101Y-110658117D01*
X113565172Y-110636409D01*
X113571090Y-110613226D01*
X113579608Y-110605295D01*
X113584507Y-110594737D01*
X113604713Y-110581921D01*
X113622227Y-110565616D01*
X113635290Y-110562529D01*
X113643510Y-110557316D01*
X113657009Y-110557396D01*
X113677731Y-110552500D01*
X116554514Y-110552500D01*
X116621553Y-110572185D01*
G37*
%TD.AperFunction*%
%TA.AperFunction,Conductor*%
G36*
X137003736Y-105500726D02*
G01*
X137293796Y-105518271D01*
X137308659Y-105520076D01*
X137590798Y-105571780D01*
X137605335Y-105575363D01*
X137879172Y-105660695D01*
X137893163Y-105666000D01*
X138154743Y-105783727D01*
X138167989Y-105790680D01*
X138413465Y-105939075D01*
X138425776Y-105947573D01*
X138651573Y-106124473D01*
X138662781Y-106134403D01*
X138865596Y-106337218D01*
X138875525Y-106348425D01*
X138963610Y-106460857D01*
X138989460Y-106525768D01*
X138990000Y-106537330D01*
X138990000Y-137462668D01*
X138970315Y-137529707D01*
X138963611Y-137539141D01*
X138875526Y-137651573D01*
X138865596Y-137662781D01*
X138662781Y-137865596D01*
X138651573Y-137875526D01*
X138425782Y-138052422D01*
X138413459Y-138060928D01*
X138167995Y-138209316D01*
X138154736Y-138216275D01*
X137893168Y-138333997D01*
X137879167Y-138339306D01*
X137605336Y-138424635D01*
X137590798Y-138428219D01*
X137308659Y-138479923D01*
X137293794Y-138481728D01*
X137003736Y-138499274D01*
X136996249Y-138499500D01*
X89003751Y-138499500D01*
X88996264Y-138499274D01*
X88706205Y-138481728D01*
X88691340Y-138479923D01*
X88409201Y-138428219D01*
X88394663Y-138424635D01*
X88120832Y-138339306D01*
X88106831Y-138333997D01*
X87845263Y-138216275D01*
X87832004Y-138209316D01*
X87586540Y-138060928D01*
X87574217Y-138052422D01*
X87348426Y-137875526D01*
X87337218Y-137865596D01*
X87134403Y-137662781D01*
X87124473Y-137651573D01*
X87028997Y-137529707D01*
X86947573Y-137425776D01*
X86939075Y-137413465D01*
X86790680Y-137167989D01*
X86783727Y-137154743D01*
X86666000Y-136893163D01*
X86660693Y-136879167D01*
X86583505Y-136631463D01*
X86575363Y-136605335D01*
X86571780Y-136590798D01*
X86520076Y-136308659D01*
X86518271Y-136293794D01*
X86500726Y-136003736D01*
X86500500Y-135996249D01*
X86500500Y-135893713D01*
X88149500Y-135893713D01*
X88149500Y-136106286D01*
X88182753Y-136316239D01*
X88248444Y-136518414D01*
X88344951Y-136707820D01*
X88469890Y-136879786D01*
X88620213Y-137030109D01*
X88792179Y-137155048D01*
X88792181Y-137155049D01*
X88792184Y-137155051D01*
X88981588Y-137251557D01*
X89183757Y-137317246D01*
X89393713Y-137350500D01*
X89393714Y-137350500D01*
X89606286Y-137350500D01*
X89606287Y-137350500D01*
X89816243Y-137317246D01*
X90018412Y-137251557D01*
X90207816Y-137155051D01*
X90294138Y-137092335D01*
X90379786Y-137030109D01*
X90379788Y-137030106D01*
X90379792Y-137030104D01*
X90530104Y-136879792D01*
X90530106Y-136879788D01*
X90530109Y-136879786D01*
X90655048Y-136707820D01*
X90655047Y-136707820D01*
X90655051Y-136707816D01*
X90751557Y-136518412D01*
X90817246Y-136316243D01*
X90850500Y-136106287D01*
X90850500Y-135893713D01*
X90817246Y-135683757D01*
X90751557Y-135481588D01*
X90655051Y-135292184D01*
X90655049Y-135292181D01*
X90655048Y-135292179D01*
X90530109Y-135120213D01*
X90379786Y-134969890D01*
X90207820Y-134844951D01*
X90018414Y-134748444D01*
X90018413Y-134748443D01*
X90018412Y-134748443D01*
X89816243Y-134682754D01*
X89816241Y-134682753D01*
X89816240Y-134682753D01*
X89654957Y-134657208D01*
X89606287Y-134649500D01*
X89393713Y-134649500D01*
X89345042Y-134657208D01*
X89183760Y-134682753D01*
X88981585Y-134748444D01*
X88792179Y-134844951D01*
X88620213Y-134969890D01*
X88469890Y-135120213D01*
X88344951Y-135292179D01*
X88248444Y-135481585D01*
X88182753Y-135683760D01*
X88149500Y-135893713D01*
X86500500Y-135893713D01*
X86500500Y-128902155D01*
X87750000Y-128902155D01*
X87750000Y-129200000D01*
X88450000Y-129200000D01*
X88950000Y-129200000D01*
X89650000Y-129200000D01*
X89650000Y-128902172D01*
X89649999Y-128902155D01*
X91850000Y-128902155D01*
X91850000Y-129200000D01*
X92550000Y-129200000D01*
X93050000Y-129200000D01*
X93750000Y-129200000D01*
X93750000Y-128902172D01*
X93749999Y-128902155D01*
X93743598Y-128842627D01*
X93743596Y-128842620D01*
X93693354Y-128707913D01*
X93693350Y-128707906D01*
X93607190Y-128592812D01*
X93607187Y-128592809D01*
X93492093Y-128506649D01*
X93492086Y-128506645D01*
X93357379Y-128456403D01*
X93357372Y-128456401D01*
X93297844Y-128450000D01*
X93050000Y-128450000D01*
X93050000Y-129200000D01*
X92550000Y-129200000D01*
X92550000Y-128450000D01*
X92302155Y-128450000D01*
X92242627Y-128456401D01*
X92242620Y-128456403D01*
X92107913Y-128506645D01*
X92107906Y-128506649D01*
X91992812Y-128592809D01*
X91992809Y-128592812D01*
X91906649Y-128707906D01*
X91906645Y-128707913D01*
X91856403Y-128842620D01*
X91856401Y-128842627D01*
X91850000Y-128902155D01*
X89649999Y-128902155D01*
X89643598Y-128842627D01*
X89643596Y-128842620D01*
X89593354Y-128707913D01*
X89593350Y-128707906D01*
X89507190Y-128592812D01*
X89507187Y-128592809D01*
X89392093Y-128506649D01*
X89392086Y-128506645D01*
X89257379Y-128456403D01*
X89257372Y-128456401D01*
X89197844Y-128450000D01*
X88950000Y-128450000D01*
X88950000Y-129200000D01*
X88450000Y-129200000D01*
X88450000Y-128450000D01*
X88202155Y-128450000D01*
X88142627Y-128456401D01*
X88142620Y-128456403D01*
X88007913Y-128506645D01*
X88007906Y-128506649D01*
X87892812Y-128592809D01*
X87892809Y-128592812D01*
X87806649Y-128707906D01*
X87806645Y-128707913D01*
X87756403Y-128842620D01*
X87756401Y-128842627D01*
X87750000Y-128902155D01*
X86500500Y-128902155D01*
X86500500Y-127579295D01*
X86520185Y-127512256D01*
X86572989Y-127466501D01*
X86642147Y-127456557D01*
X86671953Y-127464734D01*
X86833310Y-127531570D01*
X86833318Y-127531572D01*
X87026504Y-127569999D01*
X87026508Y-127570000D01*
X87175000Y-127570000D01*
X87175000Y-126870000D01*
X87675000Y-126870000D01*
X87675000Y-127570000D01*
X87823492Y-127570000D01*
X87823495Y-127569999D01*
X88016681Y-127531572D01*
X88016693Y-127531569D01*
X88198671Y-127456192D01*
X88198684Y-127456185D01*
X88362462Y-127346751D01*
X88362466Y-127346748D01*
X88501748Y-127207466D01*
X88501751Y-127207462D01*
X88611185Y-127043684D01*
X88611192Y-127043671D01*
X88686569Y-126861692D01*
X88686569Y-126861690D01*
X88694862Y-126820000D01*
X87891988Y-126820000D01*
X87909205Y-126810060D01*
X87965060Y-126754205D01*
X88004556Y-126685796D01*
X88025000Y-126609496D01*
X88025000Y-126530504D01*
X88004556Y-126454204D01*
X87965060Y-126385795D01*
X87909205Y-126329940D01*
X87891988Y-126320000D01*
X88694862Y-126320000D01*
X88686569Y-126278309D01*
X88686569Y-126278307D01*
X88611192Y-126096328D01*
X88611185Y-126096315D01*
X88501751Y-125932537D01*
X88501748Y-125932533D01*
X88362466Y-125793251D01*
X88362462Y-125793248D01*
X88198684Y-125683814D01*
X88198671Y-125683807D01*
X88016693Y-125608430D01*
X88016681Y-125608427D01*
X87823495Y-125570000D01*
X87675000Y-125570000D01*
X87675000Y-126270000D01*
X87175000Y-126270000D01*
X87175000Y-125570000D01*
X87026504Y-125570000D01*
X86833318Y-125608427D01*
X86833306Y-125608430D01*
X86671952Y-125675265D01*
X86602483Y-125682734D01*
X86540004Y-125651459D01*
X86504352Y-125591369D01*
X86500500Y-125560704D01*
X86500500Y-118939295D01*
X86520185Y-118872256D01*
X86572989Y-118826501D01*
X86642147Y-118816557D01*
X86671953Y-118824734D01*
X86833310Y-118891570D01*
X86833318Y-118891572D01*
X87026504Y-118929999D01*
X87026508Y-118930000D01*
X87175000Y-118930000D01*
X87175000Y-118230000D01*
X87675000Y-118230000D01*
X87675000Y-118930000D01*
X87823492Y-118930000D01*
X87823495Y-118929999D01*
X88016681Y-118891572D01*
X88016693Y-118891569D01*
X88198671Y-118816192D01*
X88198684Y-118816185D01*
X88362462Y-118706751D01*
X88362466Y-118706748D01*
X88501748Y-118567466D01*
X88501751Y-118567462D01*
X88611185Y-118403684D01*
X88611192Y-118403671D01*
X88686569Y-118221692D01*
X88686569Y-118221690D01*
X88694862Y-118180000D01*
X87891988Y-118180000D01*
X87909205Y-118170060D01*
X87965060Y-118114205D01*
X88004556Y-118045796D01*
X88025000Y-117969496D01*
X88025000Y-117890504D01*
X88004556Y-117814204D01*
X87965060Y-117745795D01*
X87909205Y-117689940D01*
X87891988Y-117680000D01*
X88694862Y-117680000D01*
X88686569Y-117638309D01*
X88686569Y-117638307D01*
X88611192Y-117456328D01*
X88611185Y-117456315D01*
X88501751Y-117292537D01*
X88501748Y-117292533D01*
X88362466Y-117153251D01*
X88362462Y-117153248D01*
X88198684Y-117043814D01*
X88198671Y-117043807D01*
X88016693Y-116968430D01*
X88016681Y-116968427D01*
X87823495Y-116930000D01*
X87675000Y-116930000D01*
X87675000Y-117630000D01*
X87175000Y-117630000D01*
X87175000Y-116930000D01*
X87026504Y-116930000D01*
X86833318Y-116968427D01*
X86833306Y-116968430D01*
X86671952Y-117035265D01*
X86602483Y-117042734D01*
X86540004Y-117011459D01*
X86504352Y-116951369D01*
X86500500Y-116920704D01*
X86500500Y-114252135D01*
X87749500Y-114252135D01*
X87749500Y-115347870D01*
X87749501Y-115347876D01*
X87755908Y-115407483D01*
X87806202Y-115542328D01*
X87806206Y-115542335D01*
X87892452Y-115657544D01*
X87892455Y-115657547D01*
X88007664Y-115743793D01*
X88007671Y-115743797D01*
X88142517Y-115794091D01*
X88142516Y-115794091D01*
X88149444Y-115794835D01*
X88202127Y-115800500D01*
X89197872Y-115800499D01*
X89257483Y-115794091D01*
X89392331Y-115743796D01*
X89507546Y-115657546D01*
X89593796Y-115542331D01*
X89616609Y-115481167D01*
X89658480Y-115425233D01*
X89723944Y-115400816D01*
X89732791Y-115400500D01*
X91767209Y-115400500D01*
X91834248Y-115420185D01*
X91880003Y-115472989D01*
X91883391Y-115481167D01*
X91906202Y-115542328D01*
X91906206Y-115542335D01*
X91992452Y-115657544D01*
X91992455Y-115657547D01*
X92107664Y-115743793D01*
X92107671Y-115743797D01*
X92151886Y-115760288D01*
X92242517Y-115794091D01*
X92302127Y-115800500D01*
X92899902Y-115800499D01*
X92966941Y-115820183D01*
X92987583Y-115836818D01*
X94316139Y-117165374D01*
X94316149Y-117165385D01*
X94320479Y-117169715D01*
X94320480Y-117169716D01*
X94432284Y-117281520D01*
X94432286Y-117281521D01*
X94432290Y-117281524D01*
X94476640Y-117307129D01*
X94569216Y-117360577D01*
X94681019Y-117390534D01*
X94721942Y-117401500D01*
X94721943Y-117401500D01*
X101150500Y-117401500D01*
X101217539Y-117421185D01*
X101263294Y-117473989D01*
X101274500Y-117525500D01*
X101274500Y-117766681D01*
X101285252Y-117871919D01*
X101283424Y-117872105D01*
X101281666Y-117895557D01*
X101280503Y-117928139D01*
X101279069Y-117930204D01*
X101278881Y-117932713D01*
X101259247Y-117958753D01*
X101240655Y-117985532D01*
X101237763Y-117987247D01*
X101236818Y-117988502D01*
X101210301Y-118003542D01*
X101161628Y-118023703D01*
X101092160Y-118031172D01*
X101029681Y-117999898D01*
X101026495Y-117996823D01*
X100955391Y-117925719D01*
X100955387Y-117925716D01*
X100812295Y-117837455D01*
X100812289Y-117837452D01*
X100812287Y-117837451D01*
X100652685Y-117784564D01*
X100652683Y-117784563D01*
X100554181Y-117774500D01*
X100554174Y-117774500D01*
X100020826Y-117774500D01*
X100020818Y-117774500D01*
X99922316Y-117784563D01*
X99922315Y-117784564D01*
X99843219Y-117810773D01*
X99762715Y-117837450D01*
X99762704Y-117837455D01*
X99619612Y-117925716D01*
X99619607Y-117925719D01*
X99587327Y-117958000D01*
X99526003Y-117991485D01*
X99456312Y-117986499D01*
X99411967Y-117958000D01*
X99380080Y-117926114D01*
X99237077Y-117837908D01*
X99237072Y-117837906D01*
X99077583Y-117785057D01*
X98979150Y-117775000D01*
X98962500Y-117775000D01*
X98962500Y-118626000D01*
X98942815Y-118693039D01*
X98890011Y-118738794D01*
X98838500Y-118750000D01*
X98712500Y-118750000D01*
X98712500Y-118876000D01*
X98692815Y-118943039D01*
X98640011Y-118988794D01*
X98588500Y-119000000D01*
X97775001Y-119000000D01*
X97764816Y-119010184D01*
X97755316Y-119042539D01*
X97702512Y-119088294D01*
X97651001Y-119099500D01*
X93027328Y-119099500D01*
X92992733Y-119094576D01*
X92847573Y-119052402D01*
X92847567Y-119052401D01*
X92810701Y-119049500D01*
X92810694Y-119049500D01*
X91679306Y-119049500D01*
X91679296Y-119049500D01*
X91670120Y-119050222D01*
X91663908Y-119048916D01*
X91657785Y-119050575D01*
X91630133Y-119041817D01*
X91601744Y-119035851D01*
X91595705Y-119030914D01*
X91591176Y-119029480D01*
X91572577Y-119012006D01*
X91572060Y-119011583D01*
X91571262Y-119012382D01*
X91570561Y-119011681D01*
X91569255Y-119009290D01*
X91564997Y-119005809D01*
X91562836Y-119003206D01*
X91562580Y-119002613D01*
X91562041Y-119002107D01*
X91560581Y-119000205D01*
X91561302Y-118999651D01*
X91551179Y-118976185D01*
X91537076Y-118950358D01*
X91537496Y-118944471D01*
X91535159Y-118939052D01*
X91539960Y-118910019D01*
X91542060Y-118880666D01*
X91545597Y-118875941D01*
X91546560Y-118870119D01*
X91566297Y-118848289D01*
X91583932Y-118824733D01*
X91589460Y-118822670D01*
X91593420Y-118818292D01*
X91621826Y-118810599D01*
X91649396Y-118800316D01*
X91658242Y-118800000D01*
X93392295Y-118800000D01*
X93392295Y-118799998D01*
X93392100Y-118797513D01*
X93346281Y-118639801D01*
X93274234Y-118517976D01*
X93205565Y-118445849D01*
X97775000Y-118445849D01*
X97775000Y-118500000D01*
X98462500Y-118500000D01*
X98462500Y-117774999D01*
X98445856Y-117775000D01*
X98347415Y-117785057D01*
X98187927Y-117837906D01*
X98187922Y-117837908D01*
X98044919Y-117926114D01*
X97926114Y-118044919D01*
X97837908Y-118187922D01*
X97837906Y-118187927D01*
X97785057Y-118347416D01*
X97775000Y-118445849D01*
X93205565Y-118445849D01*
X93134474Y-118371178D01*
X93122586Y-118348075D01*
X93107376Y-118327016D01*
X93106859Y-118317513D01*
X93102505Y-118309051D01*
X93104993Y-118283191D01*
X93103584Y-118257250D01*
X93109152Y-118239986D01*
X93109199Y-118239503D01*
X93109384Y-118239267D01*
X93109723Y-118238218D01*
X93116570Y-118221689D01*
X93124862Y-118180000D01*
X92321988Y-118180000D01*
X92339205Y-118170060D01*
X92395060Y-118114205D01*
X92434556Y-118045796D01*
X92455000Y-117969496D01*
X92455000Y-117890504D01*
X92434556Y-117814204D01*
X92395060Y-117745795D01*
X92339205Y-117689940D01*
X92321988Y-117680000D01*
X93124862Y-117680000D01*
X93116569Y-117638309D01*
X93116569Y-117638307D01*
X93041192Y-117456328D01*
X93041185Y-117456315D01*
X92931751Y-117292537D01*
X92931748Y-117292533D01*
X92792466Y-117153251D01*
X92792462Y-117153248D01*
X92628684Y-117043814D01*
X92628671Y-117043807D01*
X92446693Y-116968430D01*
X92446681Y-116968427D01*
X92253495Y-116930000D01*
X91855000Y-116930000D01*
X91855000Y-117630000D01*
X91355000Y-117630000D01*
X91355000Y-116930000D01*
X90956504Y-116930000D01*
X90763318Y-116968427D01*
X90763306Y-116968430D01*
X90581328Y-117043807D01*
X90581315Y-117043814D01*
X90417537Y-117153248D01*
X90417533Y-117153251D01*
X90278251Y-117292533D01*
X90278248Y-117292537D01*
X90168814Y-117456315D01*
X90168807Y-117456328D01*
X90093430Y-117638307D01*
X90093430Y-117638309D01*
X90085138Y-117680000D01*
X90888012Y-117680000D01*
X90870795Y-117689940D01*
X90814940Y-117745795D01*
X90775444Y-117814204D01*
X90755000Y-117890504D01*
X90755000Y-117969496D01*
X90775444Y-118045796D01*
X90814940Y-118114205D01*
X90870795Y-118170060D01*
X90888012Y-118180000D01*
X90085138Y-118180000D01*
X90093430Y-118221690D01*
X90093430Y-118221692D01*
X90168807Y-118403671D01*
X90168814Y-118403684D01*
X90278248Y-118567462D01*
X90278251Y-118567466D01*
X90417533Y-118706748D01*
X90417537Y-118706751D01*
X90581315Y-118816185D01*
X90581328Y-118816192D01*
X90590838Y-118820131D01*
X90645243Y-118863970D01*
X90667310Y-118930264D01*
X90650033Y-118997963D01*
X90646350Y-119003405D01*
X90568719Y-119137863D01*
X90538484Y-119250704D01*
X90529500Y-119284234D01*
X90529500Y-119435766D01*
X90535831Y-119459394D01*
X90568719Y-119582136D01*
X90606602Y-119647750D01*
X90644485Y-119713365D01*
X90751635Y-119820515D01*
X90852868Y-119878962D01*
X90870444Y-119889110D01*
X90882865Y-119896281D01*
X91002594Y-119928362D01*
X91062254Y-119964726D01*
X91092509Y-120026002D01*
X91094500Y-120036977D01*
X91094500Y-120065694D01*
X91097402Y-120102569D01*
X91121357Y-120185023D01*
X91122500Y-120191322D01*
X91119449Y-120219950D01*
X91119368Y-120248730D01*
X91115100Y-120260773D01*
X91115098Y-120260797D01*
X91115096Y-120260800D01*
X91115086Y-120260813D01*
X91115056Y-120260897D01*
X91112735Y-120266503D01*
X91109312Y-120274766D01*
X91094500Y-120387272D01*
X91094500Y-120612727D01*
X91100790Y-120660499D01*
X91107796Y-120713716D01*
X91110374Y-120733292D01*
X91107399Y-120733683D01*
X91107399Y-120766316D01*
X91110374Y-120766708D01*
X91094500Y-120887272D01*
X91094500Y-121112727D01*
X91105240Y-121194297D01*
X91107227Y-121209394D01*
X91110374Y-121233292D01*
X91107399Y-121233683D01*
X91107399Y-121266316D01*
X91110374Y-121266708D01*
X91109313Y-121274762D01*
X91109313Y-121274764D01*
X91107334Y-121289795D01*
X91094500Y-121387272D01*
X91094500Y-121599903D01*
X91074815Y-121666942D01*
X91058181Y-121687584D01*
X90863481Y-121882283D01*
X90863479Y-121882285D01*
X90841905Y-121919654D01*
X90829634Y-121940909D01*
X90784423Y-122019216D01*
X90743499Y-122171944D01*
X90743499Y-122171946D01*
X90743499Y-122340047D01*
X90743500Y-122340060D01*
X90743500Y-122625442D01*
X90743499Y-122625460D01*
X90743499Y-122791166D01*
X90743498Y-122791166D01*
X90769220Y-122887159D01*
X90784423Y-122943897D01*
X90802669Y-122975500D01*
X90813358Y-122994012D01*
X90813359Y-122994016D01*
X90813360Y-122994016D01*
X90862333Y-123078842D01*
X90863479Y-123080826D01*
X90863481Y-123080829D01*
X90982349Y-123199697D01*
X90982355Y-123199702D01*
X91060035Y-123277382D01*
X91093520Y-123338705D01*
X91095295Y-123381236D01*
X91094500Y-123387279D01*
X91094500Y-123612727D01*
X91102165Y-123670943D01*
X91107227Y-123709394D01*
X91110374Y-123733292D01*
X91107399Y-123733683D01*
X91107399Y-123766316D01*
X91110374Y-123766708D01*
X91094500Y-123887272D01*
X91094500Y-124112727D01*
X91109313Y-124225235D01*
X91115053Y-124239094D01*
X91116964Y-124256877D01*
X91123792Y-124273406D01*
X91121510Y-124299180D01*
X91122519Y-124308564D01*
X91122499Y-124308676D01*
X91121354Y-124314986D01*
X91097402Y-124397431D01*
X91094500Y-124434306D01*
X91094500Y-124463020D01*
X91092509Y-124473996D01*
X91081641Y-124495655D01*
X91074815Y-124518902D01*
X91066254Y-124526319D01*
X91061174Y-124536445D01*
X91040322Y-124548789D01*
X91022011Y-124564657D01*
X91002594Y-124571638D01*
X90999097Y-124572575D01*
X90882865Y-124603719D01*
X90882863Y-124603719D01*
X90882863Y-124603720D01*
X90751635Y-124679485D01*
X90751632Y-124679487D01*
X90644487Y-124786632D01*
X90644485Y-124786635D01*
X90568719Y-124917863D01*
X90529500Y-125064234D01*
X90529500Y-125215765D01*
X90568719Y-125362136D01*
X90593712Y-125405424D01*
X90644485Y-125493365D01*
X90644486Y-125493366D01*
X90648549Y-125500403D01*
X90646346Y-125501674D01*
X90666959Y-125554983D01*
X90652923Y-125623428D01*
X90604112Y-125673420D01*
X90590845Y-125679866D01*
X90581324Y-125683809D01*
X90581315Y-125683814D01*
X90417537Y-125793248D01*
X90417533Y-125793251D01*
X90278251Y-125932533D01*
X90278248Y-125932537D01*
X90168814Y-126096315D01*
X90168807Y-126096328D01*
X90093430Y-126278307D01*
X90093430Y-126278309D01*
X90085138Y-126320000D01*
X90888012Y-126320000D01*
X90870795Y-126329940D01*
X90814940Y-126385795D01*
X90775444Y-126454204D01*
X90755000Y-126530504D01*
X90755000Y-126609496D01*
X90775444Y-126685796D01*
X90814940Y-126754205D01*
X90870795Y-126810060D01*
X90888012Y-126820000D01*
X90085138Y-126820000D01*
X90093430Y-126861690D01*
X90093430Y-126861692D01*
X90168807Y-127043671D01*
X90168814Y-127043684D01*
X90278248Y-127207462D01*
X90278251Y-127207466D01*
X90417533Y-127346748D01*
X90417537Y-127346751D01*
X90581315Y-127456185D01*
X90581328Y-127456192D01*
X90763306Y-127531569D01*
X90763318Y-127531572D01*
X90956504Y-127569999D01*
X90956508Y-127570000D01*
X91355000Y-127570000D01*
X91355000Y-126870000D01*
X91855000Y-126870000D01*
X91855000Y-127570000D01*
X92253492Y-127570000D01*
X92253495Y-127569999D01*
X92446681Y-127531572D01*
X92446693Y-127531569D01*
X92628671Y-127456192D01*
X92628684Y-127456185D01*
X92792462Y-127346751D01*
X92792466Y-127346748D01*
X92931748Y-127207466D01*
X92931751Y-127207462D01*
X93041185Y-127043684D01*
X93041192Y-127043671D01*
X93116569Y-126861692D01*
X93116569Y-126861690D01*
X93124862Y-126820000D01*
X92321988Y-126820000D01*
X92339205Y-126810060D01*
X92395060Y-126754205D01*
X92434556Y-126685796D01*
X92455000Y-126609496D01*
X92455000Y-126530504D01*
X92434556Y-126454204D01*
X92395060Y-126385795D01*
X92339205Y-126329940D01*
X92321988Y-126320000D01*
X92495000Y-126320000D01*
X93124862Y-126320000D01*
X93116569Y-126278309D01*
X93116569Y-126278306D01*
X93109722Y-126261777D01*
X93102252Y-126192308D01*
X93133526Y-126129828D01*
X93143783Y-126120456D01*
X93262678Y-126001561D01*
X93262685Y-126001552D01*
X93346281Y-125860198D01*
X93392100Y-125702486D01*
X93392295Y-125700001D01*
X93392295Y-125700000D01*
X92495000Y-125700000D01*
X92495000Y-126320000D01*
X92321988Y-126320000D01*
X92270796Y-126290444D01*
X92194496Y-126270000D01*
X91995000Y-126270000D01*
X91995000Y-125700000D01*
X91658242Y-125700000D01*
X91642378Y-125695341D01*
X91625849Y-125695694D01*
X91609546Y-125685701D01*
X91591203Y-125680315D01*
X91580378Y-125667822D01*
X91566280Y-125659181D01*
X91557967Y-125641958D01*
X91545448Y-125627511D01*
X91543095Y-125611148D01*
X91535908Y-125596258D01*
X91538225Y-125577278D01*
X91535504Y-125558353D01*
X91542445Y-125542715D01*
X91544376Y-125526903D01*
X91559084Y-125505229D01*
X91561251Y-125500348D01*
X91560562Y-125499820D01*
X91562022Y-125497917D01*
X91562478Y-125497583D01*
X91562821Y-125496812D01*
X91564982Y-125494208D01*
X91567895Y-125492246D01*
X91570561Y-125488319D01*
X91571262Y-125487618D01*
X91572673Y-125489029D01*
X91592069Y-125475972D01*
X91618446Y-125456710D01*
X91621240Y-125456335D01*
X91622942Y-125455190D01*
X91631070Y-125455016D01*
X91670131Y-125449778D01*
X91671352Y-125449874D01*
X91679306Y-125450500D01*
X91679314Y-125450500D01*
X92810686Y-125450500D01*
X92810694Y-125450500D01*
X92847569Y-125447598D01*
X92847571Y-125447597D01*
X92847573Y-125447597D01*
X92992733Y-125405424D01*
X93027328Y-125400500D01*
X96738573Y-125400500D01*
X96805612Y-125420185D01*
X96841675Y-125455610D01*
X96878207Y-125510284D01*
X96878213Y-125510292D01*
X96989707Y-125621786D01*
X96989711Y-125621789D01*
X97120814Y-125709390D01*
X97120827Y-125709397D01*
X97266498Y-125769735D01*
X97266503Y-125769737D01*
X97421153Y-125800499D01*
X97421156Y-125800500D01*
X97421158Y-125800500D01*
X97578844Y-125800500D01*
X97578845Y-125800499D01*
X97733497Y-125769737D01*
X97879179Y-125709394D01*
X98010289Y-125621789D01*
X98121789Y-125510289D01*
X98209394Y-125379179D01*
X98216212Y-125362720D01*
X98269735Y-125233501D01*
X98269737Y-125233497D01*
X98300500Y-125078842D01*
X98300500Y-124921158D01*
X98300500Y-124921155D01*
X98300499Y-124921153D01*
X98288462Y-124860639D01*
X98269737Y-124766503D01*
X98257252Y-124736363D01*
X98249784Y-124666896D01*
X98281059Y-124604417D01*
X98296328Y-124590536D01*
X98377923Y-124527926D01*
X98474100Y-124402586D01*
X98534555Y-124256631D01*
X98542012Y-124200000D01*
X98034500Y-124200000D01*
X98025814Y-124197449D01*
X98016854Y-124198738D01*
X97992812Y-124187759D01*
X97967461Y-124180315D01*
X97961534Y-124173475D01*
X97953298Y-124169714D01*
X97939007Y-124147478D01*
X97921706Y-124127511D01*
X97919418Y-124116998D01*
X97915523Y-124110936D01*
X97910500Y-124076001D01*
X97910500Y-124048322D01*
X102525001Y-124048322D01*
X102535144Y-124147607D01*
X102588452Y-124308481D01*
X102588457Y-124308492D01*
X102677424Y-124452728D01*
X102677427Y-124452732D01*
X102797267Y-124572572D01*
X102797271Y-124572575D01*
X102941507Y-124661542D01*
X102941518Y-124661547D01*
X103102393Y-124714855D01*
X103201683Y-124724999D01*
X103249999Y-124724998D01*
X103250000Y-124724998D01*
X103250000Y-124025000D01*
X102525001Y-124025000D01*
X102525001Y-124048322D01*
X97910500Y-124048322D01*
X97910499Y-123973639D01*
X97910499Y-123924000D01*
X97930184Y-123856961D01*
X97982988Y-123811206D01*
X98034499Y-123800000D01*
X98542010Y-123800000D01*
X98542011Y-123799998D01*
X98534557Y-123743372D01*
X98534555Y-123743366D01*
X98474100Y-123597413D01*
X98376282Y-123469935D01*
X98371953Y-123458738D01*
X98363774Y-123449953D01*
X98359588Y-123426753D01*
X98351088Y-123404766D01*
X98353189Y-123391289D01*
X98351368Y-123381193D01*
X98360096Y-123346998D01*
X98385205Y-123286380D01*
X98385205Y-123286378D01*
X98385439Y-123285814D01*
X98429280Y-123231411D01*
X98495574Y-123209346D01*
X98563273Y-123226625D01*
X98610884Y-123277762D01*
X98614561Y-123285815D01*
X98674671Y-123430936D01*
X98674672Y-123430938D01*
X98674673Y-123430939D01*
X98769926Y-123555074D01*
X98894061Y-123650327D01*
X98894062Y-123650327D01*
X98894063Y-123650328D01*
X98942247Y-123670286D01*
X99038620Y-123710205D01*
X99154798Y-123725500D01*
X99154805Y-123725500D01*
X99545195Y-123725500D01*
X99545202Y-123725500D01*
X99661380Y-123710205D01*
X99805939Y-123650327D01*
X99837480Y-123626124D01*
X99858800Y-123617881D01*
X99878031Y-123605523D01*
X99898307Y-123602607D01*
X99902647Y-123600930D01*
X99912966Y-123600500D01*
X99920234Y-123600500D01*
X99987273Y-123620185D01*
X99989125Y-123621398D01*
X100120814Y-123709390D01*
X100120827Y-123709397D01*
X100218853Y-123750000D01*
X100266503Y-123769737D01*
X100418634Y-123799998D01*
X100421153Y-123800499D01*
X100421156Y-123800500D01*
X100421158Y-123800500D01*
X100578844Y-123800500D01*
X100578845Y-123800499D01*
X100733497Y-123769737D01*
X100879179Y-123709394D01*
X101010289Y-123621789D01*
X101121789Y-123510289D01*
X101209394Y-123379179D01*
X101269737Y-123233497D01*
X101300500Y-123078842D01*
X101300500Y-122921158D01*
X101300500Y-122921155D01*
X101300499Y-122921153D01*
X101292313Y-122880000D01*
X101269737Y-122766503D01*
X101266504Y-122758697D01*
X101209396Y-122620825D01*
X101209394Y-122620822D01*
X101209394Y-122620821D01*
X101174694Y-122568889D01*
X101153816Y-122502215D01*
X101172300Y-122434835D01*
X101174676Y-122431136D01*
X101209394Y-122379179D01*
X101269737Y-122233497D01*
X101300500Y-122078842D01*
X101300500Y-121991073D01*
X101320185Y-121924034D01*
X101362502Y-121883684D01*
X101369716Y-121879520D01*
X101481520Y-121767716D01*
X101560577Y-121630784D01*
X101577559Y-121567404D01*
X101613923Y-121507747D01*
X101676769Y-121477217D01*
X101697333Y-121475500D01*
X102054169Y-121475500D01*
X102054174Y-121475500D01*
X102152685Y-121465436D01*
X102312287Y-121412549D01*
X102455391Y-121324281D01*
X102574281Y-121205391D01*
X102662549Y-121062287D01*
X102662551Y-121062278D01*
X102663116Y-121061070D01*
X102663730Y-121060371D01*
X102666341Y-121056140D01*
X102667063Y-121056585D01*
X102668773Y-121054643D01*
X102671185Y-121046432D01*
X102691506Y-121028822D01*
X102709286Y-121008629D01*
X102717521Y-121006281D01*
X102723989Y-121000677D01*
X102750609Y-120996849D01*
X102776479Y-120989475D01*
X102784673Y-120991951D01*
X102793147Y-120990733D01*
X102817614Y-121001906D01*
X102843361Y-121009688D01*
X102848915Y-121016201D01*
X102856703Y-121019758D01*
X102871244Y-121042385D01*
X102888698Y-121062852D01*
X102890835Y-121072870D01*
X102894477Y-121078536D01*
X102899500Y-121113471D01*
X102899500Y-121294574D01*
X102879815Y-121361613D01*
X102840598Y-121400112D01*
X102796957Y-121427030D01*
X102677029Y-121546959D01*
X102588001Y-121691294D01*
X102587996Y-121691305D01*
X102534651Y-121852290D01*
X102524500Y-121951647D01*
X102524500Y-122498337D01*
X102524501Y-122498355D01*
X102534650Y-122597707D01*
X102534651Y-122597710D01*
X102587996Y-122758694D01*
X102588001Y-122758705D01*
X102677029Y-122903040D01*
X102677032Y-122903044D01*
X102686660Y-122912672D01*
X102720145Y-122973995D01*
X102715161Y-123043687D01*
X102686663Y-123088031D01*
X102677428Y-123097265D01*
X102677424Y-123097271D01*
X102588457Y-123241507D01*
X102588452Y-123241518D01*
X102535144Y-123402393D01*
X102525000Y-123501677D01*
X102525000Y-123525000D01*
X103376000Y-123525000D01*
X103443039Y-123544685D01*
X103488794Y-123597489D01*
X103500000Y-123649000D01*
X103500000Y-123775000D01*
X103626000Y-123775000D01*
X103693039Y-123794685D01*
X103738794Y-123847489D01*
X103750000Y-123899000D01*
X103750000Y-124800000D01*
X104035500Y-124800000D01*
X104044185Y-124802550D01*
X104053146Y-124801262D01*
X104077184Y-124812240D01*
X104102539Y-124819685D01*
X104108466Y-124826526D01*
X104116702Y-124830287D01*
X104130990Y-124852520D01*
X104148294Y-124872489D01*
X104150581Y-124883002D01*
X104154477Y-124889064D01*
X104159500Y-124923999D01*
X104159501Y-125075999D01*
X104139817Y-125143039D01*
X104087013Y-125188794D01*
X104035501Y-125200000D01*
X103527990Y-125200000D01*
X103527988Y-125200001D01*
X103535442Y-125256627D01*
X103535444Y-125256633D01*
X103595899Y-125402585D01*
X103692075Y-125527924D01*
X103817413Y-125624100D01*
X103963365Y-125684554D01*
X103963369Y-125684555D01*
X104050000Y-125695961D01*
X104050000Y-125526431D01*
X104056336Y-125504852D01*
X104058070Y-125482429D01*
X104065990Y-125471975D01*
X104069685Y-125459392D01*
X104086681Y-125444664D01*
X104100263Y-125426738D01*
X104112577Y-125422225D01*
X104122489Y-125413637D01*
X104144748Y-125410436D01*
X104165866Y-125402698D01*
X104178665Y-125405559D01*
X104191647Y-125403693D01*
X104212105Y-125413036D01*
X104234053Y-125417943D01*
X104246701Y-125428835D01*
X104255203Y-125432718D01*
X104262185Y-125439256D01*
X104267641Y-125444775D01*
X104331718Y-125528282D01*
X104408224Y-125586987D01*
X104414185Y-125593017D01*
X104426889Y-125616605D01*
X104442689Y-125638243D01*
X104444672Y-125649623D01*
X104447316Y-125654532D01*
X104446766Y-125661638D01*
X104450000Y-125680192D01*
X104450000Y-125695959D01*
X104450001Y-125695960D01*
X104536622Y-125684558D01*
X104536917Y-125684479D01*
X104537222Y-125684478D01*
X104544690Y-125683496D01*
X104544819Y-125684478D01*
X104595115Y-125684476D01*
X104595180Y-125683983D01*
X104598925Y-125684476D01*
X104601121Y-125684476D01*
X104603230Y-125685040D01*
X104603238Y-125685044D01*
X104720639Y-125700500D01*
X105059360Y-125700499D01*
X105059361Y-125700499D01*
X105116333Y-125692999D01*
X105120098Y-125693586D01*
X105123671Y-125692254D01*
X105154348Y-125698927D01*
X105185368Y-125703765D01*
X105189301Y-125706531D01*
X105191944Y-125707106D01*
X105220198Y-125728257D01*
X105265139Y-125773198D01*
X105265149Y-125773209D01*
X105269479Y-125777539D01*
X105269480Y-125777540D01*
X105381284Y-125889344D01*
X105381285Y-125889344D01*
X105388352Y-125896411D01*
X105388351Y-125896411D01*
X105388355Y-125896414D01*
X106806315Y-127314374D01*
X106806325Y-127314385D01*
X106810655Y-127318715D01*
X106810656Y-127318716D01*
X106922460Y-127430520D01*
X107009271Y-127480639D01*
X107009273Y-127480641D01*
X107047327Y-127502611D01*
X107059391Y-127509577D01*
X107212119Y-127550500D01*
X107370233Y-127550500D01*
X107580664Y-127550500D01*
X107647703Y-127570185D01*
X107679037Y-127599010D01*
X107764549Y-127710451D01*
X107884767Y-127802698D01*
X108024764Y-127860687D01*
X108131586Y-127874750D01*
X108137264Y-127875498D01*
X108137280Y-127875500D01*
X108137287Y-127875500D01*
X108362713Y-127875500D01*
X108362720Y-127875500D01*
X108475236Y-127860687D01*
X108475236Y-127860686D01*
X108483295Y-127859626D01*
X108483698Y-127862689D01*
X108516302Y-127862689D01*
X108516705Y-127859626D01*
X108524763Y-127860686D01*
X108524764Y-127860687D01*
X108637280Y-127875500D01*
X108637287Y-127875500D01*
X108862713Y-127875500D01*
X108862720Y-127875500D01*
X108975236Y-127860687D01*
X108975236Y-127860686D01*
X108983295Y-127859626D01*
X108983698Y-127862689D01*
X109016302Y-127862689D01*
X109016705Y-127859626D01*
X109024763Y-127860686D01*
X109024764Y-127860687D01*
X109137280Y-127875500D01*
X109137287Y-127875500D01*
X109362713Y-127875500D01*
X109362720Y-127875500D01*
X109475236Y-127860687D01*
X109475236Y-127860686D01*
X109483295Y-127859626D01*
X109483698Y-127862689D01*
X109516302Y-127862689D01*
X109516705Y-127859626D01*
X109524763Y-127860686D01*
X109524764Y-127860687D01*
X109637280Y-127875500D01*
X109637287Y-127875500D01*
X109862713Y-127875500D01*
X109862720Y-127875500D01*
X109975236Y-127860687D01*
X109975236Y-127860686D01*
X109983295Y-127859626D01*
X109983698Y-127862689D01*
X110016302Y-127862689D01*
X110016705Y-127859626D01*
X110024763Y-127860686D01*
X110024764Y-127860687D01*
X110137280Y-127875500D01*
X110137287Y-127875500D01*
X110362713Y-127875500D01*
X110362720Y-127875500D01*
X110475236Y-127860687D01*
X110615233Y-127802698D01*
X110700514Y-127737258D01*
X110765683Y-127712065D01*
X110834128Y-127726103D01*
X110884117Y-127774917D01*
X110900000Y-127835635D01*
X110900000Y-127870086D01*
X110900001Y-127870087D01*
X110975098Y-127860201D01*
X110975103Y-127860200D01*
X111114978Y-127802263D01*
X111235094Y-127710094D01*
X111327263Y-127589978D01*
X111385198Y-127450108D01*
X111385199Y-127450104D01*
X111399999Y-127337697D01*
X111400000Y-127337683D01*
X111400000Y-127089873D01*
X111378696Y-127050858D01*
X111383680Y-126981166D01*
X111425552Y-126925233D01*
X111491016Y-126900816D01*
X111499862Y-126900500D01*
X111837713Y-126900500D01*
X111837720Y-126900500D01*
X111950236Y-126885687D01*
X112090233Y-126827698D01*
X112210451Y-126735451D01*
X112302698Y-126615233D01*
X112360687Y-126475236D01*
X112375500Y-126362720D01*
X112375500Y-126137280D01*
X112360687Y-126024764D01*
X112360686Y-126024763D01*
X112359626Y-126016705D01*
X112362689Y-126016301D01*
X112362689Y-125983698D01*
X112359626Y-125983295D01*
X112362772Y-125959397D01*
X112375500Y-125862720D01*
X112375500Y-125637280D01*
X112360687Y-125524764D01*
X112360686Y-125524763D01*
X112359626Y-125516705D01*
X112362689Y-125516301D01*
X112362689Y-125483698D01*
X112359626Y-125483295D01*
X112363349Y-125455016D01*
X112375500Y-125362720D01*
X112375500Y-125137280D01*
X112360687Y-125024764D01*
X112360685Y-125024760D01*
X112359914Y-125018899D01*
X112359853Y-125018767D01*
X112359866Y-125018529D01*
X112359626Y-125016705D01*
X112359970Y-125016659D01*
X112360760Y-125002452D01*
X112359531Y-124983474D01*
X112360615Y-124975408D01*
X112360687Y-124975236D01*
X112362960Y-124957974D01*
X112377076Y-124926301D01*
X112391182Y-124894417D01*
X112391331Y-124894318D01*
X112391404Y-124894156D01*
X112420478Y-124875093D01*
X112449507Y-124855947D01*
X112449733Y-124855913D01*
X112449834Y-124855847D01*
X112450196Y-124855843D01*
X112485854Y-124850500D01*
X113613445Y-124850500D01*
X113680484Y-124870185D01*
X113726239Y-124922989D01*
X113736183Y-124992147D01*
X113731159Y-125010411D01*
X113732031Y-125010676D01*
X113730261Y-125016510D01*
X113699500Y-125171153D01*
X113699500Y-125328846D01*
X113730261Y-125483489D01*
X113730264Y-125483501D01*
X113790602Y-125629172D01*
X113790609Y-125629185D01*
X113878210Y-125760288D01*
X113878213Y-125760292D01*
X113989707Y-125871786D01*
X113989711Y-125871789D01*
X114120814Y-125959390D01*
X114120827Y-125959397D01*
X114259089Y-126016666D01*
X114266503Y-126019737D01*
X114409394Y-126048160D01*
X114421153Y-126050499D01*
X114421156Y-126050500D01*
X114421158Y-126050500D01*
X114578844Y-126050500D01*
X114578845Y-126050499D01*
X114733497Y-126019737D01*
X114840959Y-125975224D01*
X114910428Y-125967756D01*
X114972907Y-125999031D01*
X114976092Y-126002104D01*
X115046956Y-126072968D01*
X115046958Y-126072969D01*
X115046959Y-126072970D01*
X115191294Y-126161998D01*
X115191297Y-126161999D01*
X115191303Y-126162003D01*
X115352292Y-126215349D01*
X115451655Y-126225500D01*
X115998344Y-126225499D01*
X115998352Y-126225498D01*
X115998355Y-126225498D01*
X116052760Y-126219940D01*
X116097708Y-126215349D01*
X116258697Y-126162003D01*
X116403044Y-126072968D01*
X116412668Y-126063343D01*
X116473987Y-126029856D01*
X116543679Y-126034835D01*
X116569605Y-126048160D01*
X116701847Y-126137194D01*
X116722646Y-126162259D01*
X116744417Y-126186464D01*
X116744828Y-126188991D01*
X116746464Y-126190963D01*
X116750409Y-126223292D01*
X116755638Y-126255426D01*
X116754617Y-126257774D01*
X116754928Y-126260318D01*
X116740769Y-126289645D01*
X116727795Y-126319508D01*
X116724739Y-126322850D01*
X116724552Y-126323240D01*
X116724170Y-126323473D01*
X116720276Y-126327735D01*
X113744727Y-129303284D01*
X113744721Y-129303291D01*
X113687054Y-129389598D01*
X113686614Y-129390253D01*
X113686551Y-129390346D01*
X113671570Y-129408482D01*
X113647068Y-129432984D01*
X113585745Y-129466469D01*
X113583579Y-129466920D01*
X113516508Y-129480261D01*
X113516498Y-129480264D01*
X113370827Y-129540602D01*
X113370814Y-129540609D01*
X113239711Y-129628210D01*
X113239707Y-129628213D01*
X113128213Y-129739707D01*
X113128210Y-129739711D01*
X113040609Y-129870814D01*
X113040602Y-129870827D01*
X112980264Y-130016498D01*
X112980261Y-130016510D01*
X112949500Y-130171153D01*
X112949500Y-130275500D01*
X112929815Y-130342539D01*
X112877011Y-130388294D01*
X112825500Y-130399500D01*
X99079057Y-130399500D01*
X98579057Y-130399500D01*
X98420943Y-130399500D01*
X98268215Y-130440423D01*
X98268214Y-130440423D01*
X98268212Y-130440424D01*
X98268209Y-130440425D01*
X98218096Y-130469359D01*
X98218095Y-130469360D01*
X98174689Y-130494420D01*
X98131285Y-130519479D01*
X98131282Y-130519481D01*
X98075264Y-130575500D01*
X98019480Y-130631284D01*
X98019478Y-130631286D01*
X97997744Y-130653020D01*
X97987581Y-130663183D01*
X97926257Y-130696667D01*
X97926252Y-130696666D01*
X97899901Y-130699500D01*
X93874499Y-130699500D01*
X93807460Y-130679815D01*
X93761705Y-130627011D01*
X93750499Y-130575500D01*
X93750499Y-130502129D01*
X93750498Y-130502123D01*
X93750497Y-130502116D01*
X93744091Y-130442517D01*
X93743311Y-130440425D01*
X93690697Y-130299359D01*
X93692266Y-130298773D01*
X93679616Y-130240630D01*
X93691314Y-130200793D01*
X93690253Y-130200398D01*
X93743597Y-130057376D01*
X93743598Y-130057372D01*
X93749999Y-129997844D01*
X93750000Y-129997827D01*
X93750000Y-129700000D01*
X91850000Y-129700000D01*
X91850000Y-129997844D01*
X91856401Y-130057372D01*
X91856403Y-130057379D01*
X91909746Y-130200399D01*
X91908232Y-130200963D01*
X91913121Y-130224938D01*
X91920383Y-130258316D01*
X91920144Y-130259378D01*
X91920257Y-130259929D01*
X91919328Y-130263017D01*
X91912307Y-130294316D01*
X91908120Y-130305108D01*
X91906204Y-130307669D01*
X91883106Y-130369596D01*
X91882817Y-130370343D01*
X91862009Y-130397397D01*
X91841520Y-130424767D01*
X91840731Y-130425061D01*
X91840220Y-130425726D01*
X91808081Y-130437238D01*
X91776056Y-130449184D01*
X91774591Y-130449236D01*
X91774444Y-130449289D01*
X91774266Y-130449247D01*
X91767209Y-130449500D01*
X89732791Y-130449500D01*
X89665752Y-130429815D01*
X89619997Y-130377011D01*
X89616609Y-130368833D01*
X89590697Y-130299359D01*
X89592266Y-130298773D01*
X89579616Y-130240630D01*
X89591314Y-130200793D01*
X89590253Y-130200398D01*
X89643597Y-130057376D01*
X89643598Y-130057372D01*
X89649999Y-129997844D01*
X89650000Y-129997827D01*
X89650000Y-129700000D01*
X87750000Y-129700000D01*
X87750000Y-129997844D01*
X87756401Y-130057372D01*
X87756403Y-130057379D01*
X87809746Y-130200399D01*
X87807930Y-130201076D01*
X87820383Y-130258316D01*
X87808428Y-130299033D01*
X87809303Y-130299359D01*
X87755908Y-130442517D01*
X87749501Y-130502116D01*
X87749501Y-130502123D01*
X87749500Y-130502135D01*
X87749500Y-131597870D01*
X87749501Y-131597876D01*
X87755908Y-131657483D01*
X87806202Y-131792328D01*
X87806206Y-131792335D01*
X87892452Y-131907544D01*
X87892455Y-131907547D01*
X88007664Y-131993793D01*
X88007671Y-131993797D01*
X88142517Y-132044091D01*
X88142516Y-132044091D01*
X88149444Y-132044835D01*
X88202127Y-132050500D01*
X89197872Y-132050499D01*
X89257483Y-132044091D01*
X89392331Y-131993796D01*
X89507546Y-131907546D01*
X89593796Y-131792331D01*
X89616609Y-131731167D01*
X89658480Y-131675233D01*
X89723944Y-131650816D01*
X89732791Y-131650500D01*
X91767209Y-131650500D01*
X91834248Y-131670185D01*
X91880003Y-131722989D01*
X91883391Y-131731167D01*
X91906202Y-131792328D01*
X91906206Y-131792335D01*
X91992452Y-131907544D01*
X91992455Y-131907547D01*
X92107664Y-131993793D01*
X92107671Y-131993797D01*
X92242517Y-132044091D01*
X92242516Y-132044091D01*
X92249444Y-132044835D01*
X92302127Y-132050500D01*
X93297872Y-132050499D01*
X93357483Y-132044091D01*
X93492331Y-131993796D01*
X93550819Y-131950011D01*
X93583920Y-131925233D01*
X93649385Y-131900816D01*
X93658231Y-131900500D01*
X96720943Y-131900500D01*
X98113331Y-131900500D01*
X98113347Y-131900501D01*
X98120943Y-131900501D01*
X98279054Y-131900501D01*
X98279057Y-131900501D01*
X98431785Y-131859577D01*
X98481904Y-131830639D01*
X98568716Y-131780520D01*
X98680520Y-131668716D01*
X98680520Y-131668714D01*
X98690728Y-131658507D01*
X98690732Y-131658502D01*
X98712418Y-131636817D01*
X98773742Y-131603333D01*
X98800097Y-131600500D01*
X98920943Y-131600500D01*
X118170943Y-131600500D01*
X119915501Y-131600500D01*
X119982540Y-131620185D01*
X120028295Y-131672989D01*
X120039501Y-131724500D01*
X120039501Y-131797876D01*
X120045908Y-131857483D01*
X120096202Y-131992328D01*
X120096206Y-131992335D01*
X120182452Y-132107544D01*
X120182455Y-132107547D01*
X120304769Y-132199112D01*
X120303318Y-132201049D01*
X120343542Y-132241280D01*
X120358387Y-132309554D01*
X120333964Y-132375017D01*
X120322385Y-132388378D01*
X118948584Y-133762181D01*
X118887261Y-133795666D01*
X118860903Y-133798500D01*
X115987669Y-133798500D01*
X115987653Y-133798499D01*
X115980057Y-133798499D01*
X115821943Y-133798499D01*
X115714587Y-133827265D01*
X115669210Y-133839424D01*
X115669209Y-133839425D01*
X115619096Y-133868359D01*
X115619095Y-133868360D01*
X115575689Y-133893420D01*
X115532285Y-133918479D01*
X115532282Y-133918481D01*
X115420478Y-134030286D01*
X114784522Y-134666241D01*
X114723199Y-134699726D01*
X114658523Y-134696491D01*
X114616245Y-134682754D01*
X114476272Y-134660584D01*
X114406287Y-134649500D01*
X114193713Y-134649500D01*
X114145042Y-134657208D01*
X113983760Y-134682753D01*
X113781585Y-134748444D01*
X113592179Y-134844951D01*
X113420213Y-134969890D01*
X113269890Y-135120213D01*
X113144949Y-135292182D01*
X113140484Y-135300946D01*
X113092509Y-135351742D01*
X113024688Y-135368536D01*
X112958553Y-135345998D01*
X112919516Y-135300946D01*
X112915050Y-135292182D01*
X112790109Y-135120213D01*
X112639786Y-134969890D01*
X112467820Y-134844951D01*
X112278414Y-134748444D01*
X112278413Y-134748443D01*
X112278412Y-134748443D01*
X112076243Y-134682754D01*
X112076241Y-134682753D01*
X112076240Y-134682753D01*
X111914957Y-134657208D01*
X111866287Y-134649500D01*
X111653713Y-134649500D01*
X111605042Y-134657208D01*
X111443760Y-134682753D01*
X111241585Y-134748444D01*
X111052179Y-134844951D01*
X110880213Y-134969890D01*
X110729890Y-135120213D01*
X110604949Y-135292182D01*
X110600484Y-135300946D01*
X110552509Y-135351742D01*
X110484688Y-135368536D01*
X110418553Y-135345998D01*
X110379516Y-135300946D01*
X110375050Y-135292182D01*
X110250109Y-135120213D01*
X110099786Y-134969890D01*
X109927820Y-134844951D01*
X109738414Y-134748444D01*
X109738413Y-134748443D01*
X109738412Y-134748443D01*
X109536243Y-134682754D01*
X109536241Y-134682753D01*
X109536240Y-134682753D01*
X109374957Y-134657208D01*
X109326287Y-134649500D01*
X109113713Y-134649500D01*
X109065042Y-134657208D01*
X108903760Y-134682753D01*
X108701585Y-134748444D01*
X108512179Y-134844951D01*
X108340213Y-134969890D01*
X108189890Y-135120213D01*
X108064949Y-135292182D01*
X108060484Y-135300946D01*
X108012509Y-135351742D01*
X107944688Y-135368536D01*
X107878553Y-135345998D01*
X107839516Y-135300946D01*
X107835050Y-135292182D01*
X107710109Y-135120213D01*
X107559786Y-134969890D01*
X107387820Y-134844951D01*
X107198414Y-134748444D01*
X107198413Y-134748443D01*
X107198412Y-134748443D01*
X106996243Y-134682754D01*
X106996241Y-134682753D01*
X106996240Y-134682753D01*
X106834957Y-134657208D01*
X106786287Y-134649500D01*
X106573713Y-134649500D01*
X106525042Y-134657208D01*
X106363760Y-134682753D01*
X106161585Y-134748444D01*
X105972179Y-134844951D01*
X105800213Y-134969890D01*
X105649890Y-135120213D01*
X105524949Y-135292182D01*
X105520484Y-135300946D01*
X105472509Y-135351742D01*
X105404688Y-135368536D01*
X105338553Y-135345998D01*
X105299516Y-135300946D01*
X105295050Y-135292182D01*
X105170109Y-135120213D01*
X105019786Y-134969890D01*
X104847820Y-134844951D01*
X104658414Y-134748444D01*
X104658413Y-134748443D01*
X104658412Y-134748443D01*
X104456243Y-134682754D01*
X104456241Y-134682753D01*
X104456240Y-134682753D01*
X104294957Y-134657208D01*
X104246287Y-134649500D01*
X104033713Y-134649500D01*
X103985042Y-134657208D01*
X103823760Y-134682753D01*
X103621585Y-134748444D01*
X103432179Y-134844951D01*
X103260213Y-134969890D01*
X103109890Y-135120213D01*
X102984949Y-135292182D01*
X102980484Y-135300946D01*
X102932509Y-135351742D01*
X102864688Y-135368536D01*
X102798553Y-135345998D01*
X102759516Y-135300946D01*
X102755050Y-135292182D01*
X102630109Y-135120213D01*
X102479786Y-134969890D01*
X102307820Y-134844951D01*
X102118414Y-134748444D01*
X102118413Y-134748443D01*
X102118412Y-134748443D01*
X101916243Y-134682754D01*
X101916241Y-134682753D01*
X101916240Y-134682753D01*
X101754957Y-134657208D01*
X101706287Y-134649500D01*
X101493713Y-134649500D01*
X101445042Y-134657208D01*
X101283760Y-134682753D01*
X101081585Y-134748444D01*
X100892179Y-134844951D01*
X100720213Y-134969890D01*
X100569890Y-135120213D01*
X100444949Y-135292182D01*
X100440484Y-135300946D01*
X100392509Y-135351742D01*
X100324688Y-135368536D01*
X100258553Y-135345998D01*
X100219516Y-135300946D01*
X100215050Y-135292182D01*
X100090109Y-135120213D01*
X99939786Y-134969890D01*
X99767820Y-134844951D01*
X99578414Y-134748444D01*
X99578413Y-134748443D01*
X99578412Y-134748443D01*
X99376243Y-134682754D01*
X99376241Y-134682753D01*
X99376240Y-134682753D01*
X99214957Y-134657208D01*
X99166287Y-134649500D01*
X98953713Y-134649500D01*
X98905042Y-134657208D01*
X98743760Y-134682753D01*
X98541585Y-134748444D01*
X98352179Y-134844951D01*
X98180213Y-134969890D01*
X98029890Y-135120213D01*
X97904949Y-135292182D01*
X97900484Y-135300946D01*
X97852509Y-135351742D01*
X97784688Y-135368536D01*
X97718553Y-135345998D01*
X97679516Y-135300946D01*
X97675050Y-135292182D01*
X97550109Y-135120213D01*
X97399786Y-134969890D01*
X97227820Y-134844951D01*
X97038414Y-134748444D01*
X97038413Y-134748443D01*
X97038412Y-134748443D01*
X96836243Y-134682754D01*
X96836241Y-134682753D01*
X96836240Y-134682753D01*
X96674957Y-134657208D01*
X96626287Y-134649500D01*
X96413713Y-134649500D01*
X96365042Y-134657208D01*
X96203760Y-134682753D01*
X96001585Y-134748444D01*
X95812179Y-134844951D01*
X95640213Y-134969890D01*
X95489890Y-135120213D01*
X95364949Y-135292182D01*
X95360484Y-135300946D01*
X95312509Y-135351742D01*
X95244688Y-135368536D01*
X95178553Y-135345998D01*
X95139516Y-135300946D01*
X95135050Y-135292182D01*
X95010109Y-135120213D01*
X94859786Y-134969890D01*
X94687820Y-134844951D01*
X94498414Y-134748444D01*
X94498413Y-134748443D01*
X94498412Y-134748443D01*
X94296243Y-134682754D01*
X94296241Y-134682753D01*
X94296240Y-134682753D01*
X94134957Y-134657208D01*
X94086287Y-134649500D01*
X93873713Y-134649500D01*
X93825042Y-134657208D01*
X93663760Y-134682753D01*
X93461585Y-134748444D01*
X93272179Y-134844951D01*
X93100213Y-134969890D01*
X92949890Y-135120213D01*
X92824951Y-135292179D01*
X92728444Y-135481585D01*
X92662753Y-135683760D01*
X92629500Y-135893713D01*
X92629500Y-136106286D01*
X92662753Y-136316239D01*
X92728444Y-136518414D01*
X92824951Y-136707820D01*
X92949890Y-136879786D01*
X93100213Y-137030109D01*
X93272179Y-137155048D01*
X93272181Y-137155049D01*
X93272184Y-137155051D01*
X93461588Y-137251557D01*
X93663757Y-137317246D01*
X93873713Y-137350500D01*
X93873714Y-137350500D01*
X94086286Y-137350500D01*
X94086287Y-137350500D01*
X94296243Y-137317246D01*
X94498412Y-137251557D01*
X94687816Y-137155051D01*
X94774138Y-137092335D01*
X94859786Y-137030109D01*
X94859788Y-137030106D01*
X94859792Y-137030104D01*
X95010104Y-136879792D01*
X95010106Y-136879788D01*
X95010109Y-136879786D01*
X95135048Y-136707820D01*
X95135047Y-136707820D01*
X95135051Y-136707816D01*
X95139514Y-136699054D01*
X95187488Y-136648259D01*
X95255308Y-136631463D01*
X95321444Y-136653999D01*
X95360486Y-136699056D01*
X95364951Y-136707820D01*
X95489890Y-136879786D01*
X95640213Y-137030109D01*
X95812179Y-137155048D01*
X95812181Y-137155049D01*
X95812184Y-137155051D01*
X96001588Y-137251557D01*
X96203757Y-137317246D01*
X96413713Y-137350500D01*
X96413714Y-137350500D01*
X96626286Y-137350500D01*
X96626287Y-137350500D01*
X96836243Y-137317246D01*
X97038412Y-137251557D01*
X97227816Y-137155051D01*
X97314138Y-137092335D01*
X97399786Y-137030109D01*
X97399788Y-137030106D01*
X97399792Y-137030104D01*
X97550104Y-136879792D01*
X97550106Y-136879788D01*
X97550109Y-136879786D01*
X97675048Y-136707820D01*
X97675047Y-136707820D01*
X97675051Y-136707816D01*
X97679514Y-136699054D01*
X97727488Y-136648259D01*
X97795308Y-136631463D01*
X97861444Y-136653999D01*
X97900486Y-136699056D01*
X97904951Y-136707820D01*
X98029890Y-136879786D01*
X98180213Y-137030109D01*
X98352179Y-137155048D01*
X98352181Y-137155049D01*
X98352184Y-137155051D01*
X98541588Y-137251557D01*
X98743757Y-137317246D01*
X98953713Y-137350500D01*
X98953714Y-137350500D01*
X99166286Y-137350500D01*
X99166287Y-137350500D01*
X99376243Y-137317246D01*
X99578412Y-137251557D01*
X99767816Y-137155051D01*
X99854138Y-137092335D01*
X99939786Y-137030109D01*
X99939788Y-137030106D01*
X99939792Y-137030104D01*
X100090104Y-136879792D01*
X100090106Y-136879788D01*
X100090109Y-136879786D01*
X100215048Y-136707820D01*
X100215047Y-136707820D01*
X100215051Y-136707816D01*
X100219514Y-136699054D01*
X100267488Y-136648259D01*
X100335308Y-136631463D01*
X100401444Y-136653999D01*
X100440486Y-136699056D01*
X100444951Y-136707820D01*
X100569890Y-136879786D01*
X100720213Y-137030109D01*
X100892179Y-137155048D01*
X100892181Y-137155049D01*
X100892184Y-137155051D01*
X101081588Y-137251557D01*
X101283757Y-137317246D01*
X101493713Y-137350500D01*
X101493714Y-137350500D01*
X101706286Y-137350500D01*
X101706287Y-137350500D01*
X101916243Y-137317246D01*
X102118412Y-137251557D01*
X102307816Y-137155051D01*
X102394138Y-137092335D01*
X102479786Y-137030109D01*
X102479788Y-137030106D01*
X102479792Y-137030104D01*
X102630104Y-136879792D01*
X102630106Y-136879788D01*
X102630109Y-136879786D01*
X102755048Y-136707820D01*
X102755047Y-136707820D01*
X102755051Y-136707816D01*
X102759514Y-136699054D01*
X102807488Y-136648259D01*
X102875308Y-136631463D01*
X102941444Y-136653999D01*
X102980486Y-136699056D01*
X102984951Y-136707820D01*
X103109890Y-136879786D01*
X103260213Y-137030109D01*
X103432179Y-137155048D01*
X103432181Y-137155049D01*
X103432184Y-137155051D01*
X103621588Y-137251557D01*
X103823757Y-137317246D01*
X104033713Y-137350500D01*
X104033714Y-137350500D01*
X104246286Y-137350500D01*
X104246287Y-137350500D01*
X104456243Y-137317246D01*
X104658412Y-137251557D01*
X104847816Y-137155051D01*
X104934138Y-137092335D01*
X105019786Y-137030109D01*
X105019788Y-137030106D01*
X105019792Y-137030104D01*
X105170104Y-136879792D01*
X105170106Y-136879788D01*
X105170109Y-136879786D01*
X105295048Y-136707820D01*
X105295047Y-136707820D01*
X105295051Y-136707816D01*
X105299514Y-136699054D01*
X105347488Y-136648259D01*
X105415308Y-136631463D01*
X105481444Y-136653999D01*
X105520486Y-136699056D01*
X105524951Y-136707820D01*
X105649890Y-136879786D01*
X105800213Y-137030109D01*
X105972179Y-137155048D01*
X105972181Y-137155049D01*
X105972184Y-137155051D01*
X106161588Y-137251557D01*
X106363757Y-137317246D01*
X106573713Y-137350500D01*
X106573714Y-137350500D01*
X106786286Y-137350500D01*
X106786287Y-137350500D01*
X106996243Y-137317246D01*
X107198412Y-137251557D01*
X107387816Y-137155051D01*
X107474138Y-137092335D01*
X107559786Y-137030109D01*
X107559788Y-137030106D01*
X107559792Y-137030104D01*
X107710104Y-136879792D01*
X107710106Y-136879788D01*
X107710109Y-136879786D01*
X107835048Y-136707820D01*
X107835047Y-136707820D01*
X107835051Y-136707816D01*
X107839514Y-136699054D01*
X107887488Y-136648259D01*
X107955308Y-136631463D01*
X108021444Y-136653999D01*
X108060486Y-136699056D01*
X108064951Y-136707820D01*
X108189890Y-136879786D01*
X108340213Y-137030109D01*
X108512179Y-137155048D01*
X108512181Y-137155049D01*
X108512184Y-137155051D01*
X108701588Y-137251557D01*
X108903757Y-137317246D01*
X109113713Y-137350500D01*
X109113714Y-137350500D01*
X109326286Y-137350500D01*
X109326287Y-137350500D01*
X109536243Y-137317246D01*
X109738412Y-137251557D01*
X109927816Y-137155051D01*
X110014138Y-137092335D01*
X110099786Y-137030109D01*
X110099788Y-137030106D01*
X110099792Y-137030104D01*
X110250104Y-136879792D01*
X110250106Y-136879788D01*
X110250109Y-136879786D01*
X110375048Y-136707820D01*
X110375047Y-136707820D01*
X110375051Y-136707816D01*
X110379514Y-136699054D01*
X110427488Y-136648259D01*
X110495308Y-136631463D01*
X110561444Y-136653999D01*
X110600486Y-136699056D01*
X110604951Y-136707820D01*
X110729890Y-136879786D01*
X110880213Y-137030109D01*
X111052179Y-137155048D01*
X111052181Y-137155049D01*
X111052184Y-137155051D01*
X111241588Y-137251557D01*
X111443757Y-137317246D01*
X111653713Y-137350500D01*
X111653714Y-137350500D01*
X111866286Y-137350500D01*
X111866287Y-137350500D01*
X112076243Y-137317246D01*
X112278412Y-137251557D01*
X112467816Y-137155051D01*
X112554138Y-137092335D01*
X112639786Y-137030109D01*
X112639788Y-137030106D01*
X112639792Y-137030104D01*
X112790104Y-136879792D01*
X112790106Y-136879788D01*
X112790109Y-136879786D01*
X112915048Y-136707820D01*
X112915047Y-136707820D01*
X112915051Y-136707816D01*
X112919514Y-136699054D01*
X112967488Y-136648259D01*
X113035308Y-136631463D01*
X113101444Y-136653999D01*
X113140486Y-136699056D01*
X113144951Y-136707820D01*
X113269890Y-136879786D01*
X113420213Y-137030109D01*
X113592179Y-137155048D01*
X113592181Y-137155049D01*
X113592184Y-137155051D01*
X113781588Y-137251557D01*
X113983757Y-137317246D01*
X114193713Y-137350500D01*
X114193714Y-137350500D01*
X114406286Y-137350500D01*
X114406287Y-137350500D01*
X114616243Y-137317246D01*
X114818412Y-137251557D01*
X115007816Y-137155051D01*
X115094138Y-137092335D01*
X115179786Y-137030109D01*
X115179788Y-137030106D01*
X115179792Y-137030104D01*
X115330104Y-136879792D01*
X115330106Y-136879788D01*
X115330109Y-136879786D01*
X115455048Y-136707820D01*
X115455047Y-136707820D01*
X115455051Y-136707816D01*
X115459514Y-136699054D01*
X115507488Y-136648259D01*
X115575308Y-136631463D01*
X115641444Y-136653999D01*
X115680486Y-136699056D01*
X115684951Y-136707820D01*
X115809890Y-136879786D01*
X115960213Y-137030109D01*
X116132179Y-137155048D01*
X116132181Y-137155049D01*
X116132184Y-137155051D01*
X116321588Y-137251557D01*
X116523757Y-137317246D01*
X116733713Y-137350500D01*
X116733714Y-137350500D01*
X116946286Y-137350500D01*
X116946287Y-137350500D01*
X117156243Y-137317246D01*
X117358412Y-137251557D01*
X117547816Y-137155051D01*
X117634138Y-137092335D01*
X117719786Y-137030109D01*
X117719788Y-137030106D01*
X117719792Y-137030104D01*
X117870104Y-136879792D01*
X117870106Y-136879788D01*
X117870109Y-136879786D01*
X117995048Y-136707820D01*
X117995047Y-136707820D01*
X117995051Y-136707816D01*
X117999514Y-136699054D01*
X118047488Y-136648259D01*
X118115308Y-136631463D01*
X118181444Y-136653999D01*
X118220486Y-136699056D01*
X118224951Y-136707820D01*
X118349890Y-136879786D01*
X118500213Y-137030109D01*
X118672179Y-137155048D01*
X118672181Y-137155049D01*
X118672184Y-137155051D01*
X118861588Y-137251557D01*
X119063757Y-137317246D01*
X119273713Y-137350500D01*
X119273714Y-137350500D01*
X119486286Y-137350500D01*
X119486287Y-137350500D01*
X119696243Y-137317246D01*
X119898412Y-137251557D01*
X120087816Y-137155051D01*
X120174138Y-137092335D01*
X120259786Y-137030109D01*
X120259788Y-137030106D01*
X120259792Y-137030104D01*
X120410104Y-136879792D01*
X120410106Y-136879788D01*
X120410109Y-136879786D01*
X120535048Y-136707820D01*
X120535047Y-136707820D01*
X120535051Y-136707816D01*
X120539514Y-136699054D01*
X120587488Y-136648259D01*
X120655308Y-136631463D01*
X120721444Y-136653999D01*
X120760486Y-136699056D01*
X120764951Y-136707820D01*
X120889890Y-136879786D01*
X121040213Y-137030109D01*
X121212179Y-137155048D01*
X121212181Y-137155049D01*
X121212184Y-137155051D01*
X121401588Y-137251557D01*
X121603757Y-137317246D01*
X121813713Y-137350500D01*
X121813714Y-137350500D01*
X122026286Y-137350500D01*
X122026287Y-137350500D01*
X122236243Y-137317246D01*
X122438412Y-137251557D01*
X122627816Y-137155051D01*
X122714138Y-137092335D01*
X122799786Y-137030109D01*
X122799788Y-137030106D01*
X122799792Y-137030104D01*
X122950104Y-136879792D01*
X122950106Y-136879788D01*
X122950109Y-136879786D01*
X123075048Y-136707820D01*
X123075047Y-136707820D01*
X123075051Y-136707816D01*
X123079514Y-136699054D01*
X123127488Y-136648259D01*
X123195308Y-136631463D01*
X123261444Y-136653999D01*
X123300486Y-136699056D01*
X123304951Y-136707820D01*
X123429890Y-136879786D01*
X123580213Y-137030109D01*
X123752179Y-137155048D01*
X123752181Y-137155049D01*
X123752184Y-137155051D01*
X123941588Y-137251557D01*
X124143757Y-137317246D01*
X124353713Y-137350500D01*
X124353714Y-137350500D01*
X124566286Y-137350500D01*
X124566287Y-137350500D01*
X124776243Y-137317246D01*
X124978412Y-137251557D01*
X125167816Y-137155051D01*
X125254138Y-137092335D01*
X125339786Y-137030109D01*
X125339788Y-137030106D01*
X125339792Y-137030104D01*
X125490104Y-136879792D01*
X125490106Y-136879788D01*
X125490109Y-136879786D01*
X125615048Y-136707820D01*
X125615047Y-136707820D01*
X125615051Y-136707816D01*
X125619514Y-136699054D01*
X125667488Y-136648259D01*
X125735308Y-136631463D01*
X125801444Y-136653999D01*
X125840486Y-136699056D01*
X125844951Y-136707820D01*
X125969890Y-136879786D01*
X126120213Y-137030109D01*
X126292179Y-137155048D01*
X126292181Y-137155049D01*
X126292184Y-137155051D01*
X126481588Y-137251557D01*
X126683757Y-137317246D01*
X126893713Y-137350500D01*
X126893714Y-137350500D01*
X127106286Y-137350500D01*
X127106287Y-137350500D01*
X127316243Y-137317246D01*
X127518412Y-137251557D01*
X127707816Y-137155051D01*
X127794138Y-137092335D01*
X127879786Y-137030109D01*
X127879788Y-137030106D01*
X127879792Y-137030104D01*
X128030104Y-136879792D01*
X128030106Y-136879788D01*
X128030109Y-136879786D01*
X128155048Y-136707820D01*
X128155047Y-136707820D01*
X128155051Y-136707816D01*
X128159514Y-136699054D01*
X128207488Y-136648259D01*
X128275308Y-136631463D01*
X128341444Y-136653999D01*
X128380486Y-136699056D01*
X128384951Y-136707820D01*
X128509890Y-136879786D01*
X128660213Y-137030109D01*
X128832179Y-137155048D01*
X128832181Y-137155049D01*
X128832184Y-137155051D01*
X129021588Y-137251557D01*
X129223757Y-137317246D01*
X129433713Y-137350500D01*
X129433714Y-137350500D01*
X129646286Y-137350500D01*
X129646287Y-137350500D01*
X129856243Y-137317246D01*
X130058412Y-137251557D01*
X130247816Y-137155051D01*
X130419792Y-137030104D01*
X130533329Y-136916566D01*
X130594648Y-136883084D01*
X130664340Y-136888068D01*
X130720274Y-136929939D01*
X130737189Y-136960917D01*
X130786202Y-137092328D01*
X130786206Y-137092335D01*
X130872452Y-137207544D01*
X130872455Y-137207547D01*
X130987664Y-137293793D01*
X130987671Y-137293797D01*
X131122517Y-137344091D01*
X131122516Y-137344091D01*
X131129444Y-137344835D01*
X131182127Y-137350500D01*
X132977872Y-137350499D01*
X133037483Y-137344091D01*
X133172331Y-137293796D01*
X133287546Y-137207546D01*
X133373796Y-137092331D01*
X133424091Y-136957483D01*
X133430500Y-136897873D01*
X133430499Y-135893713D01*
X135149500Y-135893713D01*
X135149500Y-136106286D01*
X135182753Y-136316239D01*
X135248444Y-136518414D01*
X135344951Y-136707820D01*
X135469890Y-136879786D01*
X135620213Y-137030109D01*
X135792179Y-137155048D01*
X135792181Y-137155049D01*
X135792184Y-137155051D01*
X135981588Y-137251557D01*
X136183757Y-137317246D01*
X136393713Y-137350500D01*
X136393714Y-137350500D01*
X136606286Y-137350500D01*
X136606287Y-137350500D01*
X136816243Y-137317246D01*
X137018412Y-137251557D01*
X137207816Y-137155051D01*
X137294138Y-137092335D01*
X137379786Y-137030109D01*
X137379788Y-137030106D01*
X137379792Y-137030104D01*
X137530104Y-136879792D01*
X137530106Y-136879788D01*
X137530109Y-136879786D01*
X137655048Y-136707820D01*
X137655047Y-136707820D01*
X137655051Y-136707816D01*
X137751557Y-136518412D01*
X137817246Y-136316243D01*
X137850500Y-136106287D01*
X137850500Y-135893713D01*
X137817246Y-135683757D01*
X137751557Y-135481588D01*
X137655051Y-135292184D01*
X137655049Y-135292181D01*
X137655048Y-135292179D01*
X137530109Y-135120213D01*
X137379786Y-134969890D01*
X137207820Y-134844951D01*
X137018414Y-134748444D01*
X137018413Y-134748443D01*
X137018412Y-134748443D01*
X136816243Y-134682754D01*
X136816241Y-134682753D01*
X136816240Y-134682753D01*
X136654957Y-134657208D01*
X136606287Y-134649500D01*
X136393713Y-134649500D01*
X136345042Y-134657208D01*
X136183760Y-134682753D01*
X135981585Y-134748444D01*
X135792179Y-134844951D01*
X135620213Y-134969890D01*
X135469890Y-135120213D01*
X135344951Y-135292179D01*
X135248444Y-135481585D01*
X135182753Y-135683760D01*
X135149500Y-135893713D01*
X133430499Y-135893713D01*
X133430499Y-135550095D01*
X133450184Y-135483057D01*
X133466813Y-135462420D01*
X136598713Y-132330521D01*
X136598716Y-132330520D01*
X136642420Y-132286814D01*
X136683264Y-132264513D01*
X136703740Y-132253333D01*
X136703742Y-132253332D01*
X136703747Y-132253332D01*
X136724586Y-132251091D01*
X136724576Y-132250900D01*
X136724571Y-132250854D01*
X136724573Y-132250853D01*
X136724564Y-132250676D01*
X136727857Y-132250499D01*
X136727872Y-132250499D01*
X136787483Y-132244091D01*
X136822381Y-132231074D01*
X136892069Y-132226089D01*
X136909050Y-132231075D01*
X136942623Y-132243598D01*
X137002155Y-132249999D01*
X137002172Y-132250000D01*
X137250000Y-132250000D01*
X137750000Y-132250000D01*
X137997828Y-132250000D01*
X137997844Y-132249999D01*
X138057372Y-132243598D01*
X138057379Y-132243596D01*
X138192086Y-132193354D01*
X138192093Y-132193350D01*
X138307187Y-132107190D01*
X138307190Y-132107187D01*
X138393350Y-131992093D01*
X138393354Y-131992086D01*
X138443596Y-131857379D01*
X138443598Y-131857372D01*
X138449999Y-131797844D01*
X138450000Y-131797827D01*
X138450000Y-131250000D01*
X137750000Y-131250000D01*
X137750000Y-132250000D01*
X137250000Y-132250000D01*
X137250000Y-130750000D01*
X137750000Y-130750000D01*
X138450000Y-130750000D01*
X138450000Y-130202172D01*
X138449999Y-130202155D01*
X138443598Y-130142627D01*
X138443596Y-130142620D01*
X138393354Y-130007913D01*
X138393350Y-130007906D01*
X138307190Y-129892812D01*
X138307187Y-129892809D01*
X138192093Y-129806649D01*
X138192086Y-129806645D01*
X138057379Y-129756403D01*
X138057372Y-129756401D01*
X137997844Y-129750000D01*
X137750000Y-129750000D01*
X137750000Y-130750000D01*
X137250000Y-130750000D01*
X137250000Y-129750000D01*
X137002155Y-129750000D01*
X136942627Y-129756401D01*
X136942619Y-129756403D01*
X136909047Y-129768925D01*
X136839355Y-129773909D01*
X136822381Y-129768925D01*
X136787482Y-129755908D01*
X136787483Y-129755908D01*
X136727883Y-129749501D01*
X136727881Y-129749500D01*
X136727873Y-129749500D01*
X136727864Y-129749500D01*
X135732129Y-129749500D01*
X135732123Y-129749501D01*
X135672518Y-129755908D01*
X135638331Y-129768659D01*
X135568639Y-129773642D01*
X135551669Y-129768659D01*
X135534140Y-129762121D01*
X135517483Y-129755909D01*
X135517482Y-129755908D01*
X135457883Y-129749501D01*
X135457881Y-129749500D01*
X135457873Y-129749500D01*
X135457864Y-129749500D01*
X134462129Y-129749500D01*
X134462123Y-129749501D01*
X134402518Y-129755908D01*
X134368331Y-129768659D01*
X134298639Y-129773642D01*
X134281669Y-129768659D01*
X134264140Y-129762121D01*
X134247483Y-129755909D01*
X134247482Y-129755908D01*
X134187883Y-129749501D01*
X134187881Y-129749500D01*
X134187873Y-129749500D01*
X134187864Y-129749500D01*
X133192129Y-129749500D01*
X133192123Y-129749501D01*
X133132518Y-129755908D01*
X133098331Y-129768659D01*
X133028639Y-129773642D01*
X133011669Y-129768659D01*
X132994140Y-129762121D01*
X132977483Y-129755909D01*
X132977482Y-129755908D01*
X132917883Y-129749501D01*
X132917881Y-129749500D01*
X132917873Y-129749500D01*
X132917864Y-129749500D01*
X131922129Y-129749500D01*
X131922123Y-129749501D01*
X131862518Y-129755908D01*
X131828331Y-129768659D01*
X131758639Y-129773642D01*
X131741669Y-129768659D01*
X131724140Y-129762121D01*
X131707483Y-129755909D01*
X131707482Y-129755908D01*
X131647883Y-129749501D01*
X131647881Y-129749500D01*
X131647873Y-129749500D01*
X131647864Y-129749500D01*
X130652129Y-129749500D01*
X130652123Y-129749501D01*
X130592518Y-129755908D01*
X130558331Y-129768659D01*
X130488639Y-129773642D01*
X130471669Y-129768659D01*
X130454140Y-129762121D01*
X130437483Y-129755909D01*
X130437482Y-129755908D01*
X130377883Y-129749501D01*
X130377881Y-129749500D01*
X130377873Y-129749500D01*
X130377864Y-129749500D01*
X129382129Y-129749500D01*
X129382123Y-129749501D01*
X129322518Y-129755908D01*
X129288331Y-129768659D01*
X129218639Y-129773642D01*
X129201669Y-129768659D01*
X129184140Y-129762121D01*
X129167483Y-129755909D01*
X129167482Y-129755908D01*
X129107883Y-129749501D01*
X129107881Y-129749500D01*
X129107873Y-129749500D01*
X129107864Y-129749500D01*
X128112129Y-129749500D01*
X128112123Y-129749501D01*
X128052518Y-129755908D01*
X128018331Y-129768659D01*
X127948639Y-129773642D01*
X127931669Y-129768659D01*
X127914140Y-129762121D01*
X127897483Y-129755909D01*
X127897482Y-129755908D01*
X127837883Y-129749501D01*
X127837881Y-129749500D01*
X127837873Y-129749500D01*
X127837864Y-129749500D01*
X126842129Y-129749500D01*
X126842123Y-129749501D01*
X126782518Y-129755908D01*
X126748331Y-129768659D01*
X126678639Y-129773642D01*
X126661669Y-129768659D01*
X126644140Y-129762121D01*
X126627483Y-129755909D01*
X126627482Y-129755908D01*
X126567883Y-129749501D01*
X126567881Y-129749500D01*
X126567873Y-129749500D01*
X126567864Y-129749500D01*
X125572129Y-129749500D01*
X125572123Y-129749501D01*
X125512518Y-129755908D01*
X125478331Y-129768659D01*
X125408639Y-129773642D01*
X125391669Y-129768659D01*
X125374140Y-129762121D01*
X125357483Y-129755909D01*
X125357482Y-129755908D01*
X125297883Y-129749501D01*
X125297881Y-129749500D01*
X125297873Y-129749500D01*
X125297864Y-129749500D01*
X124302129Y-129749500D01*
X124302123Y-129749501D01*
X124242518Y-129755908D01*
X124208331Y-129768659D01*
X124138639Y-129773642D01*
X124121669Y-129768659D01*
X124104140Y-129762121D01*
X124087483Y-129755909D01*
X124087482Y-129755908D01*
X124027883Y-129749501D01*
X124027881Y-129749500D01*
X124027873Y-129749500D01*
X124027864Y-129749500D01*
X123032129Y-129749500D01*
X123032123Y-129749501D01*
X122972518Y-129755908D01*
X122938331Y-129768659D01*
X122868639Y-129773642D01*
X122851669Y-129768659D01*
X122834140Y-129762121D01*
X122817483Y-129755909D01*
X122817482Y-129755908D01*
X122757883Y-129749501D01*
X122757881Y-129749500D01*
X122757873Y-129749500D01*
X122757864Y-129749500D01*
X121762129Y-129749500D01*
X121762123Y-129749501D01*
X121702518Y-129755908D01*
X121668331Y-129768659D01*
X121598639Y-129773642D01*
X121581669Y-129768659D01*
X121564140Y-129762121D01*
X121547483Y-129755909D01*
X121547482Y-129755908D01*
X121487883Y-129749501D01*
X121487881Y-129749500D01*
X121487873Y-129749500D01*
X121487865Y-129749500D01*
X121114500Y-129749500D01*
X121047461Y-129729815D01*
X121001706Y-129677011D01*
X120990500Y-129625500D01*
X120990499Y-128737129D01*
X120990498Y-128737123D01*
X120987357Y-128707906D01*
X120984091Y-128677517D01*
X120971340Y-128643332D01*
X120966357Y-128573642D01*
X120971338Y-128556672D01*
X120984091Y-128522483D01*
X120990500Y-128462873D01*
X120990499Y-127467128D01*
X120984091Y-127407517D01*
X120971340Y-127373332D01*
X120966357Y-127303642D01*
X120971338Y-127286672D01*
X120984091Y-127252483D01*
X120990500Y-127192873D01*
X120990499Y-126197128D01*
X120984091Y-126137517D01*
X120971340Y-126103332D01*
X120966357Y-126033642D01*
X120971338Y-126016672D01*
X120984091Y-125982483D01*
X120990500Y-125922873D01*
X120990499Y-124927128D01*
X120984091Y-124867517D01*
X120971340Y-124833332D01*
X120966357Y-124763642D01*
X120971338Y-124746672D01*
X120984091Y-124712483D01*
X120990500Y-124652873D01*
X120990499Y-123657128D01*
X120984091Y-123597517D01*
X120971340Y-123563332D01*
X120966357Y-123493642D01*
X120971338Y-123476672D01*
X120984091Y-123442483D01*
X120990500Y-123382873D01*
X120990499Y-122387128D01*
X120984091Y-122327517D01*
X120971340Y-122293332D01*
X120966357Y-122223642D01*
X120971338Y-122206672D01*
X120984091Y-122172483D01*
X120990500Y-122112873D01*
X120990499Y-121117128D01*
X120984091Y-121057517D01*
X120971340Y-121023332D01*
X120966357Y-120953642D01*
X120971338Y-120936672D01*
X120984091Y-120902483D01*
X120990500Y-120842873D01*
X120990499Y-119847128D01*
X120984091Y-119787517D01*
X120971340Y-119753332D01*
X120966357Y-119683642D01*
X120971338Y-119666672D01*
X120984091Y-119632483D01*
X120990500Y-119572873D01*
X120990499Y-118577128D01*
X120984091Y-118517517D01*
X120971340Y-118483332D01*
X120966357Y-118413642D01*
X120971338Y-118396672D01*
X120984091Y-118362483D01*
X120990500Y-118302873D01*
X120990499Y-117307128D01*
X120984091Y-117247517D01*
X120971340Y-117213332D01*
X120966357Y-117143642D01*
X120971338Y-117126672D01*
X120984091Y-117092483D01*
X120990500Y-117032873D01*
X120990499Y-116037128D01*
X120984091Y-115977517D01*
X120971340Y-115943332D01*
X120966357Y-115873642D01*
X120971338Y-115856672D01*
X120984091Y-115822483D01*
X120990500Y-115762873D01*
X120990499Y-114874498D01*
X121010183Y-114807460D01*
X121062987Y-114761705D01*
X121114499Y-114750499D01*
X121487871Y-114750499D01*
X121487872Y-114750499D01*
X121547483Y-114744091D01*
X121581667Y-114731340D01*
X121651358Y-114726357D01*
X121668327Y-114731338D01*
X121702517Y-114744091D01*
X121762127Y-114750500D01*
X122757872Y-114750499D01*
X122817483Y-114744091D01*
X122851667Y-114731340D01*
X122921358Y-114726357D01*
X122938327Y-114731338D01*
X122972517Y-114744091D01*
X123032127Y-114750500D01*
X124027872Y-114750499D01*
X124087483Y-114744091D01*
X124121667Y-114731340D01*
X124191358Y-114726357D01*
X124208327Y-114731338D01*
X124242517Y-114744091D01*
X124302127Y-114750500D01*
X125297872Y-114750499D01*
X125357483Y-114744091D01*
X125391667Y-114731340D01*
X125461358Y-114726357D01*
X125478327Y-114731338D01*
X125512517Y-114744091D01*
X125572127Y-114750500D01*
X126567872Y-114750499D01*
X126627483Y-114744091D01*
X126661667Y-114731340D01*
X126731358Y-114726357D01*
X126748327Y-114731338D01*
X126782517Y-114744091D01*
X126842127Y-114750500D01*
X127837872Y-114750499D01*
X127897483Y-114744091D01*
X127931667Y-114731340D01*
X128001358Y-114726357D01*
X128018327Y-114731338D01*
X128052517Y-114744091D01*
X128112127Y-114750500D01*
X129107872Y-114750499D01*
X129167483Y-114744091D01*
X129201667Y-114731340D01*
X129271358Y-114726357D01*
X129288327Y-114731338D01*
X129322517Y-114744091D01*
X129382127Y-114750500D01*
X130377872Y-114750499D01*
X130437483Y-114744091D01*
X130471667Y-114731340D01*
X130541358Y-114726357D01*
X130558327Y-114731338D01*
X130592517Y-114744091D01*
X130652127Y-114750500D01*
X131647872Y-114750499D01*
X131707483Y-114744091D01*
X131741667Y-114731340D01*
X131811358Y-114726357D01*
X131828327Y-114731338D01*
X131862517Y-114744091D01*
X131922127Y-114750500D01*
X132917872Y-114750499D01*
X132977483Y-114744091D01*
X133011667Y-114731340D01*
X133081358Y-114726357D01*
X133098327Y-114731338D01*
X133132517Y-114744091D01*
X133192127Y-114750500D01*
X134187872Y-114750499D01*
X134247483Y-114744091D01*
X134281667Y-114731340D01*
X134351358Y-114726357D01*
X134368327Y-114731338D01*
X134402517Y-114744091D01*
X134462127Y-114750500D01*
X135375500Y-114750499D01*
X135384186Y-114753049D01*
X135393147Y-114751761D01*
X135417183Y-114762738D01*
X135442539Y-114770183D01*
X135448467Y-114777025D01*
X135456703Y-114780786D01*
X135470989Y-114803017D01*
X135488294Y-114822987D01*
X135490581Y-114833502D01*
X135494477Y-114839564D01*
X135499500Y-114874499D01*
X135499500Y-114945396D01*
X135490062Y-114992844D01*
X135484541Y-115006175D01*
X135480262Y-115016506D01*
X135480260Y-115016511D01*
X135449500Y-115171153D01*
X135449500Y-115328846D01*
X135480261Y-115483489D01*
X135480264Y-115483501D01*
X135540602Y-115629172D01*
X135540609Y-115629185D01*
X135628210Y-115760288D01*
X135628213Y-115760292D01*
X135739707Y-115871786D01*
X135739711Y-115871789D01*
X135870814Y-115959390D01*
X135870827Y-115959397D01*
X135994538Y-116010639D01*
X136016503Y-116019737D01*
X136171153Y-116050499D01*
X136171156Y-116050500D01*
X136171158Y-116050500D01*
X136328844Y-116050500D01*
X136328845Y-116050499D01*
X136483497Y-116019737D01*
X136629179Y-115959394D01*
X136760289Y-115871789D01*
X136871789Y-115760289D01*
X136959394Y-115629179D01*
X136962485Y-115621718D01*
X136987923Y-115560304D01*
X137019737Y-115483497D01*
X137050500Y-115328842D01*
X137050500Y-115171158D01*
X137050500Y-115171155D01*
X137050499Y-115171153D01*
X137019739Y-115016511D01*
X137019738Y-115016508D01*
X137019737Y-115016503D01*
X137009937Y-114992844D01*
X137008311Y-114984670D01*
X137005523Y-114980331D01*
X137000500Y-114945396D01*
X137000500Y-114874000D01*
X137020185Y-114806961D01*
X137072989Y-114761206D01*
X137124500Y-114750000D01*
X137250000Y-114750000D01*
X137750000Y-114750000D01*
X137997828Y-114750000D01*
X137997844Y-114749999D01*
X138057372Y-114743598D01*
X138057379Y-114743596D01*
X138192086Y-114693354D01*
X138192093Y-114693350D01*
X138307187Y-114607190D01*
X138307190Y-114607187D01*
X138393350Y-114492093D01*
X138393354Y-114492086D01*
X138443596Y-114357379D01*
X138443598Y-114357372D01*
X138449999Y-114297844D01*
X138450000Y-114297827D01*
X138450000Y-113750000D01*
X137750000Y-113750000D01*
X137750000Y-114750000D01*
X137250000Y-114750000D01*
X137250000Y-113250000D01*
X137750000Y-113250000D01*
X138450000Y-113250000D01*
X138450000Y-112702172D01*
X138449999Y-112702155D01*
X138443598Y-112642627D01*
X138443596Y-112642620D01*
X138393354Y-112507913D01*
X138393350Y-112507906D01*
X138307190Y-112392812D01*
X138307187Y-112392809D01*
X138192093Y-112306649D01*
X138192086Y-112306645D01*
X138057379Y-112256403D01*
X138057372Y-112256401D01*
X137997844Y-112250000D01*
X137750000Y-112250000D01*
X137750000Y-113250000D01*
X137250000Y-113250000D01*
X137250000Y-112250000D01*
X137002155Y-112250000D01*
X136942627Y-112256401D01*
X136942619Y-112256403D01*
X136909047Y-112268925D01*
X136839355Y-112273909D01*
X136822381Y-112268925D01*
X136787482Y-112255908D01*
X136787483Y-112255908D01*
X136727883Y-112249501D01*
X136727881Y-112249500D01*
X136727873Y-112249500D01*
X136727864Y-112249500D01*
X135732129Y-112249500D01*
X135732115Y-112249501D01*
X135697751Y-112253195D01*
X135628992Y-112240787D01*
X135577857Y-112193174D01*
X135562946Y-112138819D01*
X135561562Y-112139002D01*
X135560501Y-112130945D01*
X135560501Y-112130943D01*
X135519577Y-111978216D01*
X135476060Y-111902841D01*
X135440524Y-111841290D01*
X135440518Y-111841282D01*
X135084573Y-111485337D01*
X135051088Y-111424014D01*
X135050637Y-111421847D01*
X135026400Y-111300000D01*
X135019737Y-111266503D01*
X135010156Y-111243372D01*
X134959397Y-111120827D01*
X134959390Y-111120814D01*
X134871789Y-110989711D01*
X134871786Y-110989707D01*
X134760292Y-110878213D01*
X134760288Y-110878210D01*
X134629185Y-110790609D01*
X134629172Y-110790602D01*
X134483501Y-110730264D01*
X134483489Y-110730261D01*
X134390309Y-110711726D01*
X134328398Y-110679341D01*
X134293823Y-110618625D01*
X134290500Y-110590109D01*
X134290500Y-110280945D01*
X134290500Y-110280943D01*
X134290382Y-110280500D01*
X134249577Y-110128215D01*
X134210437Y-110060423D01*
X134170520Y-109991284D01*
X134058716Y-109879480D01*
X134058715Y-109879479D01*
X134054385Y-109875149D01*
X134054374Y-109875139D01*
X133163757Y-108984522D01*
X133130272Y-108923199D01*
X133133507Y-108858523D01*
X133147246Y-108816243D01*
X133180500Y-108606287D01*
X133180500Y-108393713D01*
X134899500Y-108393713D01*
X134899500Y-108606286D01*
X134932753Y-108816239D01*
X134932753Y-108816241D01*
X134932754Y-108816243D01*
X134987431Y-108984522D01*
X134998444Y-109018414D01*
X135094951Y-109207820D01*
X135219890Y-109379786D01*
X135370213Y-109530109D01*
X135542179Y-109655048D01*
X135542181Y-109655049D01*
X135542184Y-109655051D01*
X135731588Y-109751557D01*
X135933757Y-109817246D01*
X136143713Y-109850500D01*
X136143714Y-109850500D01*
X136356286Y-109850500D01*
X136356287Y-109850500D01*
X136566243Y-109817246D01*
X136768412Y-109751557D01*
X136957816Y-109655051D01*
X137025276Y-109606039D01*
X137129786Y-109530109D01*
X137129788Y-109530106D01*
X137129792Y-109530104D01*
X137280104Y-109379792D01*
X137280106Y-109379788D01*
X137280109Y-109379786D01*
X137405048Y-109207820D01*
X137405047Y-109207820D01*
X137405051Y-109207816D01*
X137501557Y-109018412D01*
X137567246Y-108816243D01*
X137600500Y-108606287D01*
X137600500Y-108393713D01*
X137567246Y-108183757D01*
X137501557Y-107981588D01*
X137405051Y-107792184D01*
X137405049Y-107792181D01*
X137405048Y-107792179D01*
X137280109Y-107620213D01*
X137129786Y-107469890D01*
X136957820Y-107344951D01*
X136768414Y-107248444D01*
X136768413Y-107248443D01*
X136768412Y-107248443D01*
X136566243Y-107182754D01*
X136566241Y-107182753D01*
X136566240Y-107182753D01*
X136404957Y-107157208D01*
X136356287Y-107149500D01*
X136143713Y-107149500D01*
X136095042Y-107157208D01*
X135933760Y-107182753D01*
X135731585Y-107248444D01*
X135542179Y-107344951D01*
X135370213Y-107469890D01*
X135219890Y-107620213D01*
X135094951Y-107792179D01*
X134998444Y-107981585D01*
X134932753Y-108183760D01*
X134899500Y-108393713D01*
X133180500Y-108393713D01*
X133147246Y-108183757D01*
X133081557Y-107981588D01*
X132985051Y-107792184D01*
X132985049Y-107792181D01*
X132985048Y-107792179D01*
X132860109Y-107620213D01*
X132709786Y-107469890D01*
X132537820Y-107344951D01*
X132348414Y-107248444D01*
X132348413Y-107248443D01*
X132348412Y-107248443D01*
X132146243Y-107182754D01*
X132146241Y-107182753D01*
X132146240Y-107182753D01*
X131984957Y-107157208D01*
X131936287Y-107149500D01*
X131723713Y-107149500D01*
X131675042Y-107157208D01*
X131513760Y-107182753D01*
X131311585Y-107248444D01*
X131122179Y-107344951D01*
X130950213Y-107469890D01*
X130799890Y-107620213D01*
X130674949Y-107792182D01*
X130670484Y-107800946D01*
X130622509Y-107851742D01*
X130554688Y-107868536D01*
X130488553Y-107845998D01*
X130449516Y-107800946D01*
X130445050Y-107792182D01*
X130320109Y-107620213D01*
X130169786Y-107469890D01*
X129997820Y-107344951D01*
X129808414Y-107248444D01*
X129808413Y-107248443D01*
X129808412Y-107248443D01*
X129606243Y-107182754D01*
X129606241Y-107182753D01*
X129606240Y-107182753D01*
X129444957Y-107157208D01*
X129396287Y-107149500D01*
X129183713Y-107149500D01*
X129135042Y-107157208D01*
X128973760Y-107182753D01*
X128771585Y-107248444D01*
X128582179Y-107344951D01*
X128410213Y-107469890D01*
X128259890Y-107620213D01*
X128134949Y-107792182D01*
X128130484Y-107800946D01*
X128082509Y-107851742D01*
X128014688Y-107868536D01*
X127948553Y-107845998D01*
X127909516Y-107800946D01*
X127905050Y-107792182D01*
X127780109Y-107620213D01*
X127629786Y-107469890D01*
X127457820Y-107344951D01*
X127268414Y-107248444D01*
X127268413Y-107248443D01*
X127268412Y-107248443D01*
X127066243Y-107182754D01*
X127066241Y-107182753D01*
X127066240Y-107182753D01*
X126904957Y-107157208D01*
X126856287Y-107149500D01*
X126643713Y-107149500D01*
X126595042Y-107157208D01*
X126433760Y-107182753D01*
X126231585Y-107248444D01*
X126042179Y-107344951D01*
X125870213Y-107469890D01*
X125719890Y-107620213D01*
X125594949Y-107792182D01*
X125590484Y-107800946D01*
X125542509Y-107851742D01*
X125474688Y-107868536D01*
X125408553Y-107845998D01*
X125369516Y-107800946D01*
X125365050Y-107792182D01*
X125240109Y-107620213D01*
X125089786Y-107469890D01*
X124917820Y-107344951D01*
X124728414Y-107248444D01*
X124728413Y-107248443D01*
X124728412Y-107248443D01*
X124526243Y-107182754D01*
X124526241Y-107182753D01*
X124526240Y-107182753D01*
X124364957Y-107157208D01*
X124316287Y-107149500D01*
X124103713Y-107149500D01*
X124055042Y-107157208D01*
X123893760Y-107182753D01*
X123691585Y-107248444D01*
X123502179Y-107344951D01*
X123330213Y-107469890D01*
X123179890Y-107620213D01*
X123054949Y-107792182D01*
X123050484Y-107800946D01*
X123002509Y-107851742D01*
X122934688Y-107868536D01*
X122868553Y-107845998D01*
X122829516Y-107800946D01*
X122825050Y-107792182D01*
X122700109Y-107620213D01*
X122549786Y-107469890D01*
X122377820Y-107344951D01*
X122188414Y-107248444D01*
X122188413Y-107248443D01*
X122188412Y-107248443D01*
X121986243Y-107182754D01*
X121986241Y-107182753D01*
X121986240Y-107182753D01*
X121824957Y-107157208D01*
X121776287Y-107149500D01*
X121563713Y-107149500D01*
X121515042Y-107157208D01*
X121353760Y-107182753D01*
X121151585Y-107248444D01*
X120962179Y-107344951D01*
X120790213Y-107469890D01*
X120639890Y-107620213D01*
X120514949Y-107792182D01*
X120510484Y-107800946D01*
X120462509Y-107851742D01*
X120394688Y-107868536D01*
X120328553Y-107845998D01*
X120289516Y-107800946D01*
X120285050Y-107792182D01*
X120160109Y-107620213D01*
X120009786Y-107469890D01*
X119837820Y-107344951D01*
X119648414Y-107248444D01*
X119648413Y-107248443D01*
X119648412Y-107248443D01*
X119446243Y-107182754D01*
X119446241Y-107182753D01*
X119446240Y-107182753D01*
X119284957Y-107157208D01*
X119236287Y-107149500D01*
X119023713Y-107149500D01*
X118975042Y-107157208D01*
X118813760Y-107182753D01*
X118611585Y-107248444D01*
X118422179Y-107344951D01*
X118250213Y-107469890D01*
X118099890Y-107620213D01*
X117974949Y-107792182D01*
X117970484Y-107800946D01*
X117922509Y-107851742D01*
X117854688Y-107868536D01*
X117788553Y-107845998D01*
X117749516Y-107800946D01*
X117745050Y-107792182D01*
X117620109Y-107620213D01*
X117469786Y-107469890D01*
X117297820Y-107344951D01*
X117108414Y-107248444D01*
X117108413Y-107248443D01*
X117108412Y-107248443D01*
X116906243Y-107182754D01*
X116906241Y-107182753D01*
X116906240Y-107182753D01*
X116744957Y-107157208D01*
X116696287Y-107149500D01*
X116483713Y-107149500D01*
X116435042Y-107157208D01*
X116273760Y-107182753D01*
X116071585Y-107248444D01*
X115882179Y-107344951D01*
X115710213Y-107469890D01*
X115559890Y-107620213D01*
X115434949Y-107792182D01*
X115430484Y-107800946D01*
X115382509Y-107851742D01*
X115314688Y-107868536D01*
X115248553Y-107845998D01*
X115209516Y-107800946D01*
X115205050Y-107792182D01*
X115080109Y-107620213D01*
X114929786Y-107469890D01*
X114757820Y-107344951D01*
X114568414Y-107248444D01*
X114568413Y-107248443D01*
X114568412Y-107248443D01*
X114366243Y-107182754D01*
X114366241Y-107182753D01*
X114366240Y-107182753D01*
X114204957Y-107157208D01*
X114156287Y-107149500D01*
X113943713Y-107149500D01*
X113895042Y-107157208D01*
X113733760Y-107182753D01*
X113531585Y-107248444D01*
X113342179Y-107344951D01*
X113170213Y-107469890D01*
X113019890Y-107620213D01*
X112894949Y-107792182D01*
X112890484Y-107800946D01*
X112842509Y-107851742D01*
X112774688Y-107868536D01*
X112708553Y-107845998D01*
X112669516Y-107800946D01*
X112665050Y-107792182D01*
X112540109Y-107620213D01*
X112389786Y-107469890D01*
X112217820Y-107344951D01*
X112028414Y-107248444D01*
X112028413Y-107248443D01*
X112028412Y-107248443D01*
X111826243Y-107182754D01*
X111826241Y-107182753D01*
X111826240Y-107182753D01*
X111664957Y-107157208D01*
X111616287Y-107149500D01*
X111403713Y-107149500D01*
X111355042Y-107157208D01*
X111193760Y-107182753D01*
X110991585Y-107248444D01*
X110802179Y-107344951D01*
X110630213Y-107469890D01*
X110479890Y-107620213D01*
X110354949Y-107792182D01*
X110350484Y-107800946D01*
X110302509Y-107851742D01*
X110234688Y-107868536D01*
X110168553Y-107845998D01*
X110129516Y-107800946D01*
X110125050Y-107792182D01*
X110000109Y-107620213D01*
X109849786Y-107469890D01*
X109677820Y-107344951D01*
X109488414Y-107248444D01*
X109488413Y-107248443D01*
X109488412Y-107248443D01*
X109286243Y-107182754D01*
X109286241Y-107182753D01*
X109286240Y-107182753D01*
X109124957Y-107157208D01*
X109076287Y-107149500D01*
X108863713Y-107149500D01*
X108815042Y-107157208D01*
X108653760Y-107182753D01*
X108451585Y-107248444D01*
X108262179Y-107344951D01*
X108090213Y-107469890D01*
X107939890Y-107620213D01*
X107814949Y-107792182D01*
X107810484Y-107800946D01*
X107762509Y-107851742D01*
X107694688Y-107868536D01*
X107628553Y-107845998D01*
X107589516Y-107800946D01*
X107585050Y-107792182D01*
X107460109Y-107620213D01*
X107309786Y-107469890D01*
X107137820Y-107344951D01*
X106948414Y-107248444D01*
X106948413Y-107248443D01*
X106948412Y-107248443D01*
X106746243Y-107182754D01*
X106746241Y-107182753D01*
X106746240Y-107182753D01*
X106584957Y-107157208D01*
X106536287Y-107149500D01*
X106323713Y-107149500D01*
X106275042Y-107157208D01*
X106113760Y-107182753D01*
X105911585Y-107248444D01*
X105722179Y-107344951D01*
X105550213Y-107469890D01*
X105399890Y-107620213D01*
X105274949Y-107792182D01*
X105270484Y-107800946D01*
X105222509Y-107851742D01*
X105154688Y-107868536D01*
X105088553Y-107845998D01*
X105049516Y-107800946D01*
X105045050Y-107792182D01*
X104920109Y-107620213D01*
X104769786Y-107469890D01*
X104597820Y-107344951D01*
X104408414Y-107248444D01*
X104408413Y-107248443D01*
X104408412Y-107248443D01*
X104206243Y-107182754D01*
X104206241Y-107182753D01*
X104206240Y-107182753D01*
X104044957Y-107157208D01*
X103996287Y-107149500D01*
X103783713Y-107149500D01*
X103735042Y-107157208D01*
X103573760Y-107182753D01*
X103371585Y-107248444D01*
X103182179Y-107344951D01*
X103010213Y-107469890D01*
X102859890Y-107620213D01*
X102734949Y-107792182D01*
X102730484Y-107800946D01*
X102682509Y-107851742D01*
X102614688Y-107868536D01*
X102548553Y-107845998D01*
X102509516Y-107800946D01*
X102505050Y-107792182D01*
X102380109Y-107620213D01*
X102229786Y-107469890D01*
X102057820Y-107344951D01*
X101868414Y-107248444D01*
X101868413Y-107248443D01*
X101868412Y-107248443D01*
X101666243Y-107182754D01*
X101666241Y-107182753D01*
X101666240Y-107182753D01*
X101504957Y-107157208D01*
X101456287Y-107149500D01*
X101243713Y-107149500D01*
X101195042Y-107157208D01*
X101033760Y-107182753D01*
X100831585Y-107248444D01*
X100642179Y-107344951D01*
X100470213Y-107469890D01*
X100319890Y-107620213D01*
X100194949Y-107792182D01*
X100190484Y-107800946D01*
X100142509Y-107851742D01*
X100074688Y-107868536D01*
X100008553Y-107845998D01*
X99969516Y-107800946D01*
X99965050Y-107792182D01*
X99840109Y-107620213D01*
X99689786Y-107469890D01*
X99517820Y-107344951D01*
X99328414Y-107248444D01*
X99328413Y-107248443D01*
X99328412Y-107248443D01*
X99126243Y-107182754D01*
X99126241Y-107182753D01*
X99126240Y-107182753D01*
X98964957Y-107157208D01*
X98916287Y-107149500D01*
X98703713Y-107149500D01*
X98655042Y-107157208D01*
X98493760Y-107182753D01*
X98291585Y-107248444D01*
X98102179Y-107344951D01*
X97930213Y-107469890D01*
X97779890Y-107620213D01*
X97654949Y-107792182D01*
X97650484Y-107800946D01*
X97602509Y-107851742D01*
X97534688Y-107868536D01*
X97468553Y-107845998D01*
X97429516Y-107800946D01*
X97425050Y-107792182D01*
X97300109Y-107620213D01*
X97149786Y-107469890D01*
X96977820Y-107344951D01*
X96788414Y-107248444D01*
X96788413Y-107248443D01*
X96788412Y-107248443D01*
X96586243Y-107182754D01*
X96586241Y-107182753D01*
X96586240Y-107182753D01*
X96424957Y-107157208D01*
X96376287Y-107149500D01*
X96163713Y-107149500D01*
X96115042Y-107157208D01*
X95953760Y-107182753D01*
X95751585Y-107248444D01*
X95562179Y-107344951D01*
X95390215Y-107469889D01*
X95276285Y-107583819D01*
X95214962Y-107617303D01*
X95145270Y-107612319D01*
X95089337Y-107570447D01*
X95072422Y-107539470D01*
X95023354Y-107407913D01*
X95023350Y-107407906D01*
X94937190Y-107292812D01*
X94937187Y-107292809D01*
X94822093Y-107206649D01*
X94822086Y-107206645D01*
X94687379Y-107156403D01*
X94687372Y-107156401D01*
X94627844Y-107150000D01*
X93980000Y-107150000D01*
X93980000Y-108066988D01*
X93922993Y-108034075D01*
X93795826Y-108000000D01*
X93664174Y-108000000D01*
X93537007Y-108034075D01*
X93480000Y-108066988D01*
X93480000Y-107150000D01*
X92832155Y-107150000D01*
X92772627Y-107156401D01*
X92772620Y-107156403D01*
X92637913Y-107206645D01*
X92637906Y-107206649D01*
X92522812Y-107292809D01*
X92522809Y-107292812D01*
X92436649Y-107407906D01*
X92436645Y-107407913D01*
X92386403Y-107542620D01*
X92386401Y-107542627D01*
X92380000Y-107602155D01*
X92380000Y-108250000D01*
X93296988Y-108250000D01*
X93264075Y-108307007D01*
X93230000Y-108434174D01*
X93230000Y-108565826D01*
X93264075Y-108692993D01*
X93296988Y-108750000D01*
X92380000Y-108750000D01*
X92380000Y-109397844D01*
X92386401Y-109457372D01*
X92386403Y-109457379D01*
X92436645Y-109592086D01*
X92436649Y-109592093D01*
X92522809Y-109707187D01*
X92522812Y-109707190D01*
X92637906Y-109793350D01*
X92637913Y-109793354D01*
X92772620Y-109843596D01*
X92772627Y-109843598D01*
X92832155Y-109849999D01*
X92832172Y-109850000D01*
X93480000Y-109850000D01*
X93480000Y-108933012D01*
X93537007Y-108965925D01*
X93664174Y-109000000D01*
X93795826Y-109000000D01*
X93922993Y-108965925D01*
X93980000Y-108933012D01*
X93980000Y-109850000D01*
X94627828Y-109850000D01*
X94627844Y-109849999D01*
X94687372Y-109843598D01*
X94687379Y-109843596D01*
X94822086Y-109793354D01*
X94822093Y-109793350D01*
X94937187Y-109707190D01*
X94937190Y-109707187D01*
X95023350Y-109592093D01*
X95023354Y-109592086D01*
X95072422Y-109460529D01*
X95072422Y-109460528D01*
X95090347Y-109436582D01*
X95114293Y-109404595D01*
X95179757Y-109380178D01*
X95179758Y-109380178D01*
X95248031Y-109395030D01*
X95276285Y-109416181D01*
X95383181Y-109523077D01*
X95416666Y-109584400D01*
X95419500Y-109610758D01*
X95419500Y-110470088D01*
X95399815Y-110537127D01*
X95347011Y-110582882D01*
X95277853Y-110592826D01*
X95256497Y-110587794D01*
X95097608Y-110535144D01*
X94998322Y-110525000D01*
X94975000Y-110525000D01*
X94975000Y-112474999D01*
X94998308Y-112474999D01*
X94998322Y-112474998D01*
X95097607Y-112464855D01*
X95258481Y-112411547D01*
X95258492Y-112411542D01*
X95402731Y-112322573D01*
X95411959Y-112313345D01*
X95473279Y-112279856D01*
X95542971Y-112284835D01*
X95587327Y-112313339D01*
X95596955Y-112322967D01*
X95596959Y-112322970D01*
X95741294Y-112411998D01*
X95741297Y-112411999D01*
X95741303Y-112412003D01*
X95902292Y-112465349D01*
X96001655Y-112475500D01*
X96548344Y-112475499D01*
X96548352Y-112475498D01*
X96548355Y-112475498D01*
X96602760Y-112469940D01*
X96647708Y-112465349D01*
X96748817Y-112431844D01*
X96818645Y-112429443D01*
X96875502Y-112461870D01*
X97171584Y-112757952D01*
X97190704Y-112770727D01*
X97233767Y-112799501D01*
X97233768Y-112799501D01*
X97294505Y-112840084D01*
X97350741Y-112863377D01*
X97405143Y-112907217D01*
X97427209Y-112973511D01*
X97425943Y-112996149D01*
X97400530Y-113167314D01*
X97396952Y-113175054D01*
X97396952Y-113183696D01*
X97377292Y-113251369D01*
X97377290Y-113251379D01*
X97374500Y-113286829D01*
X97374500Y-113663150D01*
X97374501Y-113663175D01*
X97377291Y-113698627D01*
X97421380Y-113850385D01*
X97421382Y-113850391D01*
X97445236Y-113890725D01*
X97460121Y-113929655D01*
X97465839Y-113958406D01*
X97465842Y-113958415D01*
X97522413Y-114094990D01*
X97522414Y-114094991D01*
X97522416Y-114094995D01*
X97547370Y-114132341D01*
X97604548Y-114217916D01*
X97766048Y-114379415D01*
X97766049Y-114379416D01*
X97830440Y-114443807D01*
X97851388Y-114464755D01*
X97884872Y-114526079D01*
X97879888Y-114595770D01*
X97838016Y-114651704D01*
X97828806Y-114657973D01*
X97797267Y-114677427D01*
X97677427Y-114797267D01*
X97677424Y-114797271D01*
X97588457Y-114941507D01*
X97588452Y-114941518D01*
X97535144Y-115102393D01*
X97525000Y-115201677D01*
X97525000Y-115250000D01*
X98351000Y-115250000D01*
X98418039Y-115269685D01*
X98463794Y-115322489D01*
X98475000Y-115374000D01*
X98475000Y-115626000D01*
X98455315Y-115693039D01*
X98402511Y-115738794D01*
X98351000Y-115750000D01*
X97525001Y-115750000D01*
X97525001Y-115798322D01*
X97535144Y-115897607D01*
X97581499Y-116037496D01*
X97583901Y-116107324D01*
X97548169Y-116167366D01*
X97485649Y-116198559D01*
X97463793Y-116200500D01*
X95101097Y-116200500D01*
X95034058Y-116180815D01*
X95013416Y-116164181D01*
X93786818Y-114937583D01*
X93753333Y-114876260D01*
X93750499Y-114849902D01*
X93750499Y-114252129D01*
X93750498Y-114252123D01*
X93750497Y-114252116D01*
X93744091Y-114192517D01*
X93740768Y-114183607D01*
X93690697Y-114049359D01*
X93692266Y-114048773D01*
X93679616Y-113990630D01*
X93691314Y-113950793D01*
X93690253Y-113950398D01*
X93743597Y-113807376D01*
X93743598Y-113807372D01*
X93749999Y-113747844D01*
X93750000Y-113747827D01*
X93750000Y-113450000D01*
X91850000Y-113450000D01*
X91850000Y-113747844D01*
X91856401Y-113807372D01*
X91856403Y-113807379D01*
X91909746Y-113950399D01*
X91908232Y-113950963D01*
X91913121Y-113974938D01*
X91920383Y-114008316D01*
X91920144Y-114009378D01*
X91920257Y-114009929D01*
X91919328Y-114013017D01*
X91912307Y-114044316D01*
X91908120Y-114055108D01*
X91906204Y-114057669D01*
X91883106Y-114119596D01*
X91882817Y-114120343D01*
X91862000Y-114147407D01*
X91841520Y-114174767D01*
X91840731Y-114175061D01*
X91840220Y-114175726D01*
X91808081Y-114187238D01*
X91776056Y-114199184D01*
X91774591Y-114199236D01*
X91774444Y-114199289D01*
X91774266Y-114199247D01*
X91767209Y-114199500D01*
X89732791Y-114199500D01*
X89665752Y-114179815D01*
X89619997Y-114127011D01*
X89616609Y-114118833D01*
X89590697Y-114049359D01*
X89592266Y-114048773D01*
X89579616Y-113990630D01*
X89591314Y-113950793D01*
X89590253Y-113950398D01*
X89643597Y-113807376D01*
X89643598Y-113807372D01*
X89649999Y-113747844D01*
X89650000Y-113747827D01*
X89650000Y-113450000D01*
X87750000Y-113450000D01*
X87750000Y-113747844D01*
X87756401Y-113807372D01*
X87756403Y-113807379D01*
X87809746Y-113950399D01*
X87807930Y-113951076D01*
X87820383Y-114008316D01*
X87808428Y-114049033D01*
X87809303Y-114049359D01*
X87755908Y-114192517D01*
X87751717Y-114231503D01*
X87749501Y-114252123D01*
X87749500Y-114252135D01*
X86500500Y-114252135D01*
X86500500Y-112652155D01*
X87750000Y-112652155D01*
X87750000Y-112950000D01*
X88450000Y-112950000D01*
X88950000Y-112950000D01*
X89650000Y-112950000D01*
X89650000Y-112652172D01*
X89649999Y-112652155D01*
X91850000Y-112652155D01*
X91850000Y-112950000D01*
X92550000Y-112950000D01*
X93050000Y-112950000D01*
X93750000Y-112950000D01*
X93750000Y-112652172D01*
X93749999Y-112652155D01*
X93743598Y-112592627D01*
X93743596Y-112592620D01*
X93693354Y-112457913D01*
X93693350Y-112457906D01*
X93607190Y-112342812D01*
X93607187Y-112342809D01*
X93492093Y-112256649D01*
X93492086Y-112256645D01*
X93357379Y-112206403D01*
X93357372Y-112206401D01*
X93297844Y-112200000D01*
X93050000Y-112200000D01*
X93050000Y-112950000D01*
X92550000Y-112950000D01*
X92550000Y-112200000D01*
X92302155Y-112200000D01*
X92242627Y-112206401D01*
X92242620Y-112206403D01*
X92107913Y-112256645D01*
X92107906Y-112256649D01*
X91992812Y-112342809D01*
X91992809Y-112342812D01*
X91906649Y-112457906D01*
X91906645Y-112457913D01*
X91856403Y-112592620D01*
X91856401Y-112592627D01*
X91850000Y-112652155D01*
X89649999Y-112652155D01*
X89643598Y-112592627D01*
X89643596Y-112592620D01*
X89593354Y-112457913D01*
X89593350Y-112457906D01*
X89507190Y-112342812D01*
X89507187Y-112342809D01*
X89392093Y-112256649D01*
X89392086Y-112256645D01*
X89257379Y-112206403D01*
X89257372Y-112206401D01*
X89197844Y-112200000D01*
X88950000Y-112200000D01*
X88950000Y-112950000D01*
X88450000Y-112950000D01*
X88450000Y-112200000D01*
X88202155Y-112200000D01*
X88142627Y-112206401D01*
X88142620Y-112206403D01*
X88007913Y-112256645D01*
X88007906Y-112256649D01*
X87892812Y-112342809D01*
X87892809Y-112342812D01*
X87806649Y-112457906D01*
X87806645Y-112457913D01*
X87756403Y-112592620D01*
X87756401Y-112592627D01*
X87750000Y-112652155D01*
X86500500Y-112652155D01*
X86500500Y-111798322D01*
X93775001Y-111798322D01*
X93785144Y-111897607D01*
X93838452Y-112058481D01*
X93838457Y-112058492D01*
X93927424Y-112202728D01*
X93927427Y-112202732D01*
X94047267Y-112322572D01*
X94047271Y-112322575D01*
X94191507Y-112411542D01*
X94191518Y-112411547D01*
X94352393Y-112464855D01*
X94451683Y-112474999D01*
X94475000Y-112474998D01*
X94475000Y-111750000D01*
X93775001Y-111750000D01*
X93775001Y-111798322D01*
X86500500Y-111798322D01*
X86500500Y-111201677D01*
X93775000Y-111201677D01*
X93775000Y-111250000D01*
X94475000Y-111250000D01*
X94475000Y-110524999D01*
X94451693Y-110525000D01*
X94451674Y-110525001D01*
X94352392Y-110535144D01*
X94191518Y-110588452D01*
X94191507Y-110588457D01*
X94047271Y-110677424D01*
X94047267Y-110677427D01*
X93927427Y-110797267D01*
X93927424Y-110797271D01*
X93838457Y-110941507D01*
X93838452Y-110941518D01*
X93785144Y-111102393D01*
X93775000Y-111201677D01*
X86500500Y-111201677D01*
X86500500Y-108393713D01*
X87899500Y-108393713D01*
X87899500Y-108606286D01*
X87932753Y-108816239D01*
X87932753Y-108816241D01*
X87932754Y-108816243D01*
X87987431Y-108984522D01*
X87998444Y-109018414D01*
X88094951Y-109207820D01*
X88219890Y-109379786D01*
X88370213Y-109530109D01*
X88542179Y-109655048D01*
X88542181Y-109655049D01*
X88542184Y-109655051D01*
X88731588Y-109751557D01*
X88933757Y-109817246D01*
X89143713Y-109850500D01*
X89143714Y-109850500D01*
X89356286Y-109850500D01*
X89356287Y-109850500D01*
X89566243Y-109817246D01*
X89768412Y-109751557D01*
X89957816Y-109655051D01*
X90025276Y-109606039D01*
X90129786Y-109530109D01*
X90129788Y-109530106D01*
X90129792Y-109530104D01*
X90280104Y-109379792D01*
X90280106Y-109379788D01*
X90280109Y-109379786D01*
X90405048Y-109207820D01*
X90405047Y-109207820D01*
X90405051Y-109207816D01*
X90501557Y-109018412D01*
X90567246Y-108816243D01*
X90600500Y-108606287D01*
X90600500Y-108393713D01*
X90567246Y-108183757D01*
X90501557Y-107981588D01*
X90405051Y-107792184D01*
X90405049Y-107792181D01*
X90405048Y-107792179D01*
X90317542Y-107671736D01*
X90280109Y-107620214D01*
X90280105Y-107620209D01*
X90129786Y-107469890D01*
X89957820Y-107344951D01*
X89768414Y-107248444D01*
X89768413Y-107248443D01*
X89768412Y-107248443D01*
X89566243Y-107182754D01*
X89566241Y-107182753D01*
X89566240Y-107182753D01*
X89404957Y-107157208D01*
X89356287Y-107149500D01*
X89143713Y-107149500D01*
X89095042Y-107157208D01*
X88933760Y-107182753D01*
X88731585Y-107248444D01*
X88542179Y-107344951D01*
X88370213Y-107469890D01*
X88219890Y-107620213D01*
X88094951Y-107792179D01*
X87998444Y-107981585D01*
X87932753Y-108183760D01*
X87899500Y-108393713D01*
X86500500Y-108393713D01*
X86500500Y-108003750D01*
X86500726Y-107996263D01*
X86513070Y-107792184D01*
X86518271Y-107706201D01*
X86520076Y-107691340D01*
X86533111Y-107620214D01*
X86571780Y-107409197D01*
X86575364Y-107394663D01*
X86590855Y-107344951D01*
X86660696Y-107120822D01*
X86665998Y-107106841D01*
X86783731Y-106845249D01*
X86790676Y-106832016D01*
X86939080Y-106586526D01*
X86947567Y-106574230D01*
X87124480Y-106348417D01*
X87134395Y-106337226D01*
X87337226Y-106134395D01*
X87348417Y-106124480D01*
X87574230Y-105947567D01*
X87586526Y-105939080D01*
X87832016Y-105790676D01*
X87845249Y-105783731D01*
X88106841Y-105665998D01*
X88120822Y-105660696D01*
X88394668Y-105575362D01*
X88409197Y-105571780D01*
X88691344Y-105520075D01*
X88706201Y-105518271D01*
X88996264Y-105500726D01*
X89003751Y-105500500D01*
X89065892Y-105500500D01*
X136934108Y-105500500D01*
X136996249Y-105500500D01*
X137003736Y-105500726D01*
G37*
%TD.AperFunction*%
%TD*%
%TA.AperFunction,NonConductor*%
G36*
X129222539Y-110721185D02*
G01*
X129268294Y-110773989D01*
X129279500Y-110825500D01*
X129279500Y-111231901D01*
X129259815Y-111298940D01*
X129207011Y-111344695D01*
X129137853Y-111354639D01*
X129074297Y-111325614D01*
X129067819Y-111319582D01*
X128974397Y-111226160D01*
X128974374Y-111226139D01*
X128661416Y-110913181D01*
X128627931Y-110851858D01*
X128632915Y-110782166D01*
X128674787Y-110726233D01*
X128740251Y-110701816D01*
X128749097Y-110701500D01*
X129155500Y-110701500D01*
X129222539Y-110721185D01*
G37*
%TD.AperFunction*%
%TA.AperFunction,NonConductor*%
G36*
X110865488Y-109694101D02*
G01*
X110867388Y-109693911D01*
X110900796Y-109705296D01*
X110991583Y-109751555D01*
X110991585Y-109751555D01*
X110991588Y-109751557D01*
X111193757Y-109817246D01*
X111403713Y-109850500D01*
X111403714Y-109850500D01*
X111616286Y-109850500D01*
X111616287Y-109850500D01*
X111826243Y-109817246D01*
X111868523Y-109803507D01*
X111938362Y-109801511D01*
X111994522Y-109833757D01*
X112477139Y-110316374D01*
X112477149Y-110316385D01*
X112481479Y-110320715D01*
X112481480Y-110320716D01*
X112593284Y-110432520D01*
X112676423Y-110480520D01*
X112730215Y-110511577D01*
X112876876Y-110550874D01*
X112881819Y-110552660D01*
X112905929Y-110570322D01*
X112931443Y-110585874D01*
X112933810Y-110590747D01*
X112938183Y-110593951D01*
X112948916Y-110621844D01*
X112961972Y-110648721D01*
X112961328Y-110654101D01*
X112963275Y-110659160D01*
X112957224Y-110688429D01*
X112953677Y-110718096D01*
X112950227Y-110722273D01*
X112949130Y-110727583D01*
X112928212Y-110748937D01*
X112909192Y-110771974D01*
X112901691Y-110776011D01*
X112900238Y-110777496D01*
X112897975Y-110778012D01*
X112887144Y-110783844D01*
X112870826Y-110790603D01*
X112870814Y-110790609D01*
X112739711Y-110878210D01*
X112739707Y-110878213D01*
X112628213Y-110989707D01*
X112628210Y-110989711D01*
X112540609Y-111120814D01*
X112540602Y-111120827D01*
X112480264Y-111266498D01*
X112480261Y-111266510D01*
X112449500Y-111421153D01*
X112449500Y-111473500D01*
X112429815Y-111540539D01*
X112377011Y-111586294D01*
X112325500Y-111597500D01*
X111998097Y-111597500D01*
X111931058Y-111577815D01*
X111910416Y-111561181D01*
X110756819Y-110407584D01*
X110723334Y-110346261D01*
X110720500Y-110319903D01*
X110720500Y-109815780D01*
X110721275Y-109813139D01*
X110720614Y-109810469D01*
X110731061Y-109779813D01*
X110740185Y-109748741D01*
X110742264Y-109746939D01*
X110743152Y-109744334D01*
X110768521Y-109724187D01*
X110792989Y-109702986D01*
X110795711Y-109702594D01*
X110797867Y-109700883D01*
X110830087Y-109697651D01*
X110862147Y-109693042D01*
X110865488Y-109694101D01*
G37*
%TD.AperFunction*%
%TA.AperFunction,NonConductor*%
G36*
X104849005Y-118634873D02*
G01*
X104902319Y-118673368D01*
X105002277Y-118797721D01*
X105002278Y-118797722D01*
X105071486Y-118853353D01*
X105111405Y-118910696D01*
X105113985Y-118980518D01*
X105078406Y-119040651D01*
X105071486Y-119046647D01*
X105002278Y-119102277D01*
X105002277Y-119102278D01*
X104880974Y-119253187D01*
X104823631Y-119293106D01*
X104784327Y-119299500D01*
X104381228Y-119299500D01*
X104314189Y-119279815D01*
X104268434Y-119227011D01*
X104258490Y-119157853D01*
X104287515Y-119094297D01*
X104293547Y-119087819D01*
X104505425Y-118875941D01*
X104717993Y-118663372D01*
X104779314Y-118629889D01*
X104849005Y-118634873D01*
G37*
%TD.AperFunction*%
%TA.AperFunction,NonConductor*%
G36*
X107542539Y-122620185D02*
G01*
X107588294Y-122672989D01*
X107599500Y-122724500D01*
X107599500Y-122975500D01*
X107579815Y-123042539D01*
X107527011Y-123088294D01*
X107475500Y-123099500D01*
X107162280Y-123099500D01*
X107162275Y-123099500D01*
X107162267Y-123099501D01*
X107072954Y-123111259D01*
X107003919Y-123100493D01*
X106951664Y-123054113D01*
X106932779Y-122986844D01*
X106933831Y-122972134D01*
X106945961Y-122880000D01*
X106930193Y-122880000D01*
X106926535Y-122878926D01*
X106922820Y-122879781D01*
X106893265Y-122869156D01*
X106863154Y-122860315D01*
X106859616Y-122857060D01*
X106857069Y-122856145D01*
X106831817Y-122831487D01*
X106829955Y-122829060D01*
X106807645Y-122799985D01*
X106782452Y-122734818D01*
X106796490Y-122666373D01*
X106845304Y-122616383D01*
X106906022Y-122600500D01*
X107475500Y-122600500D01*
X107542539Y-122620185D01*
G37*
%TD.AperFunction*%
M02*
