%TF.GenerationSoftware,KiCad,Pcbnew,9.0.2*%
%TF.CreationDate,2025-06-05T12:53:21-05:00*%
%TF.ProjectId,testing2,74657374-696e-4673-922e-6b696361645f,rev?*%
%TF.SameCoordinates,Original*%
%TF.FileFunction,Copper,L2,Bot*%
%TF.FilePolarity,Positive*%
%FSLAX46Y46*%
G04 Gerber Fmt 4.6, Leading zero omitted, Abs format (unit mm)*
G04 Created by KiCad (PCBNEW 9.0.2) date 2025-06-05 12:53:21*
%MOMM*%
%LPD*%
G01*
G04 APERTURE LIST*
%TA.AperFunction,HeatsinkPad*%
%ADD10C,0.500000*%
%TD*%
%TA.AperFunction,HeatsinkPad*%
%ADD11R,0.500000X2.000000*%
%TD*%
%TA.AperFunction,ComponentPad*%
%ADD12R,1.700000X1.700000*%
%TD*%
%TA.AperFunction,ComponentPad*%
%ADD13C,1.700000*%
%TD*%
%TA.AperFunction,HeatsinkPad*%
%ADD14C,0.600000*%
%TD*%
%TA.AperFunction,HeatsinkPad*%
%ADD15O,2.100000X1.000000*%
%TD*%
%TA.AperFunction,HeatsinkPad*%
%ADD16O,1.600000X1.000000*%
%TD*%
%TA.AperFunction,ViaPad*%
%ADD17C,0.600000*%
%TD*%
%TA.AperFunction,Conductor*%
%ADD18C,0.200000*%
%TD*%
%TA.AperFunction,Conductor*%
%ADD19C,0.500000*%
%TD*%
%TA.AperFunction,Conductor*%
%ADD20C,0.300000*%
%TD*%
G04 APERTURE END LIST*
D10*
%TO.P,U2,9,GND*%
%TO.N,GND*%
X99250000Y-111750000D03*
X99250000Y-112500000D03*
D11*
X99250000Y-112500000D03*
D10*
X99250000Y-113250000D03*
%TD*%
D12*
%TO.P,J3,1,Pin_1*%
%TO.N,IO1*%
X132080000Y-136000000D03*
D13*
%TO.P,J3,2,Pin_2*%
%TO.N,IO2*%
X129540000Y-136000000D03*
%TO.P,J3,3,Pin_3*%
%TO.N,TXD0*%
X127000000Y-136000000D03*
%TO.P,J3,4,Pin_4*%
%TO.N,RXD0*%
X124460000Y-136000000D03*
%TO.P,J3,5,Pin_5*%
%TO.N,IO38*%
X121920000Y-136000000D03*
%TO.P,J3,6,Pin_6*%
%TO.N,IO37*%
X119380000Y-136000000D03*
%TO.P,J3,7,Pin_7*%
%TO.N,IO36*%
X116840000Y-136000000D03*
%TO.P,J3,8,Pin_8*%
%TO.N,IO35*%
X114300000Y-136000000D03*
%TO.P,J3,9,Pin_9*%
%TO.N,IO48*%
X111760000Y-136000000D03*
%TO.P,J3,10,Pin_10*%
%TO.N,IO47*%
X109220000Y-136000000D03*
%TO.P,J3,11,Pin_11*%
%TO.N,IO21*%
X106680000Y-136000000D03*
%TO.P,J3,12,Pin_12*%
%TO.N,IO14*%
X104140000Y-136000000D03*
%TO.P,J3,13,Pin_13*%
%TO.N,unconnected-(J3-Pin_13-Pad13)*%
X101600000Y-136000000D03*
%TO.P,J3,14,Pin_14*%
%TO.N,unconnected-(J3-Pin_14-Pad14)*%
X99060000Y-136000000D03*
%TO.P,J3,15,Pin_15*%
%TO.N,unconnected-(J3-Pin_15-Pad15)*%
X96520000Y-136000000D03*
%TO.P,J3,16,Pin_16*%
%TO.N,unconnected-(J3-Pin_16-Pad16)*%
X93980000Y-136000000D03*
%TD*%
D12*
%TO.P,J2,1,Pin_1*%
%TO.N,GND*%
X93730000Y-108500000D03*
D13*
%TO.P,J2,2,Pin_2*%
%TO.N,15v-Ext*%
X96270000Y-108500000D03*
%TO.P,J2,3,Pin_3*%
%TO.N,+3V3*%
X98810000Y-108500000D03*
%TO.P,J2,4,Pin_4*%
%TO.N,IO3*%
X101350000Y-108500000D03*
%TO.P,J2,5,Pin_5*%
%TO.N,IO11*%
X103890000Y-108500000D03*
%TO.P,J2,6,Pin_6*%
%TO.N,IO10*%
X106430000Y-108500000D03*
%TO.P,J2,7,Pin_7*%
%TO.N,IO9*%
X108970000Y-108500000D03*
%TO.P,J2,8,Pin_8*%
%TO.N,IO8*%
X111510000Y-108500000D03*
%TO.P,J2,9,Pin_9*%
%TO.N,IO18*%
X114050000Y-108500000D03*
%TO.P,J2,10,Pin_10*%
%TO.N,IO17*%
X116590000Y-108500000D03*
%TO.P,J2,11,Pin_11*%
%TO.N,IO16*%
X119130000Y-108500000D03*
%TO.P,J2,12,Pin_12*%
%TO.N,IO15*%
X121670000Y-108500000D03*
%TO.P,J2,13,Pin_13*%
%TO.N,IO7*%
X124210000Y-108500000D03*
%TO.P,J2,14,Pin_14*%
%TO.N,IO6*%
X126750000Y-108500000D03*
%TO.P,J2,15,Pin_15*%
%TO.N,IO5*%
X129290000Y-108500000D03*
%TO.P,J2,16,Pin_16*%
%TO.N,IO4*%
X131830000Y-108500000D03*
%TD*%
D14*
%TO.P,U1,41,GND*%
%TO.N,GND*%
X130480000Y-119350000D03*
X129080000Y-119350000D03*
X131180000Y-120050000D03*
X129780000Y-120050000D03*
X128380000Y-120050000D03*
X130480000Y-120750000D03*
X129080000Y-120750000D03*
X131180000Y-121450000D03*
X129780000Y-121450000D03*
X128380000Y-121450000D03*
X130480000Y-122150000D03*
X129080000Y-122150000D03*
%TD*%
D15*
%TO.P,J1,S1,SHIELD*%
%TO.N,GND*%
X91605000Y-117930000D03*
D16*
X87425000Y-117930000D03*
D15*
X91605000Y-126570000D03*
D16*
X87425000Y-126570000D03*
%TD*%
D17*
%TO.N,GND*%
X109500000Y-133000000D03*
X109600000Y-119400000D03*
X137500000Y-121750000D03*
X108700000Y-115900000D03*
X118500000Y-121000000D03*
X109750000Y-111500000D03*
X114750000Y-115250000D03*
X115250000Y-113750000D03*
X104750000Y-116000000D03*
X130250000Y-125750000D03*
X125000000Y-122250000D03*
X110750000Y-132000000D03*
X114100000Y-116900000D03*
X125000000Y-118000000D03*
X110250000Y-115250000D03*
X102250000Y-132000000D03*
X108700000Y-120200000D03*
X129500000Y-132500000D03*
X115750000Y-110750000D03*
X117000000Y-121500000D03*
X125750000Y-126750000D03*
X101750000Y-125000000D03*
X97500000Y-118000000D03*
X133250000Y-117500000D03*
X105250000Y-109500000D03*
X118750000Y-133250000D03*
X97250000Y-110500000D03*
X99750000Y-127500000D03*
X113000000Y-128250000D03*
X110000000Y-116500000D03*
X103750000Y-111500000D03*
X107750000Y-109500000D03*
X117750000Y-111500000D03*
X107250000Y-112000000D03*
X112500000Y-123000000D03*
X107250000Y-129000000D03*
X117800000Y-120400000D03*
X136750000Y-111500000D03*
X127500000Y-134250000D03*
X110600000Y-120200000D03*
%TO.N,5v-Ext*%
X103500000Y-120050000D03*
%TO.N,+3V3*%
X118250000Y-129250000D03*
X117000000Y-120500000D03*
X104500000Y-117750000D03*
X114500000Y-125250000D03*
X136250000Y-115250000D03*
X117250000Y-117750000D03*
%TO.N,CHIP_PU*%
X117000000Y-114750000D03*
X134250000Y-111500000D03*
%TO.N,Net-(D1-A)*%
X101500000Y-118750000D03*
X103500000Y-117750000D03*
%TO.N,Net-(D2-A)*%
X98000000Y-119850000D03*
X97500000Y-125000000D03*
%TO.N,SDA*%
X118000000Y-123000000D03*
X114250000Y-123250000D03*
%TO.N,D+*%
X100500000Y-123000000D03*
X120500000Y-112250000D03*
%TO.N,D-*%
X100500000Y-122000000D03*
X121500000Y-111500000D03*
%TO.N,IO3*%
X113250000Y-111500000D03*
%TO.N,IO21*%
X115000000Y-130250000D03*
%TO.N,IO14*%
X113750000Y-130250000D03*
%TO.N,IO48*%
X117000000Y-130250000D03*
%TO.N,IO47*%
X116000000Y-130250000D03*
%TO.N,Net-(U2-PG)*%
X101500000Y-112250000D03*
X104250000Y-114500000D03*
%TD*%
D18*
%TO.N,+3V3*%
X117000000Y-120500000D02*
X118601000Y-122101000D01*
X118601000Y-128899000D02*
X118250000Y-129250000D01*
X113649000Y-121601000D02*
X113649000Y-124399000D01*
X118601000Y-122101000D02*
X118601000Y-128899000D01*
D19*
X99901000Y-112909636D02*
X104500000Y-117508636D01*
D18*
X117500000Y-117750000D02*
X113649000Y-121601000D01*
X113649000Y-124399000D02*
X114500000Y-125250000D01*
D19*
X117250000Y-117750000D02*
X117500000Y-117750000D01*
X104500000Y-117508636D02*
X104500000Y-117750000D01*
X99901000Y-109591000D02*
X99901000Y-112909636D01*
X120750000Y-115250000D02*
X136250000Y-115250000D01*
X117500000Y-117750000D02*
X118250000Y-117750000D01*
X118250000Y-117750000D02*
X120750000Y-115250000D01*
X98810000Y-108500000D02*
X99901000Y-109591000D01*
D18*
%TO.N,CHIP_PU*%
X119801000Y-110949000D02*
X133699000Y-110949000D01*
X118250000Y-112500000D02*
X119801000Y-110949000D01*
X117000000Y-113750000D02*
X117000000Y-114750000D01*
X118250000Y-112500000D02*
X117000000Y-113750000D01*
X133699000Y-110949000D02*
X134250000Y-111500000D01*
%TO.N,Net-(D1-A)*%
X102500000Y-117750000D02*
X101500000Y-118750000D01*
X103500000Y-117750000D02*
X102500000Y-117750000D01*
D19*
%TO.N,Net-(D2-A)*%
X97500000Y-120350000D02*
X98000000Y-119850000D01*
X97500000Y-125000000D02*
X97500000Y-120350000D01*
D18*
%TO.N,SDA*%
X114250000Y-123250000D02*
X117750000Y-123250000D01*
X117750000Y-123250000D02*
X118000000Y-123000000D01*
%TO.N,D+*%
X119700000Y-112400000D02*
X119850000Y-112250000D01*
X111000000Y-123000000D02*
X100500000Y-123000000D01*
X119700000Y-114300000D02*
X119700000Y-112400000D01*
X111000000Y-123000000D02*
X119700000Y-114300000D01*
X119850000Y-112250000D02*
X120500000Y-112250000D01*
%TO.N,D-*%
X119750000Y-111500000D02*
X121500000Y-111500000D01*
X111250000Y-122000000D02*
X119250000Y-114000000D01*
X119250000Y-112000000D02*
X119750000Y-111500000D01*
X111250000Y-122000000D02*
X100500000Y-122000000D01*
X119250000Y-114000000D02*
X119250000Y-112000000D01*
%TO.N,IO3*%
X113250000Y-111500000D02*
X112750000Y-111500000D01*
X111750000Y-110500000D02*
X103350000Y-110500000D01*
X112750000Y-111500000D02*
X111750000Y-110500000D01*
X103350000Y-110500000D02*
X101350000Y-108500000D01*
D20*
%TO.N,IO21*%
X108282000Y-134398000D02*
X106680000Y-136000000D01*
X110852000Y-134398000D02*
X108282000Y-134398000D01*
X115000000Y-130250000D02*
X110852000Y-134398000D01*
%TO.N,IO14*%
X113750000Y-130250000D02*
X109890000Y-130250000D01*
X109890000Y-130250000D02*
X104140000Y-136000000D01*
%TO.N,IO48*%
X117000000Y-130250000D02*
X117000000Y-130760000D01*
X117000000Y-130760000D02*
X111760000Y-136000000D01*
%TO.N,IO47*%
X116000000Y-130250000D02*
X111401000Y-134849000D01*
X110371000Y-134849000D02*
X109220000Y-136000000D01*
X111401000Y-134849000D02*
X110371000Y-134849000D01*
D18*
%TO.N,Net-(U2-PG)*%
X102000000Y-112250000D02*
X101500000Y-112250000D01*
X104250000Y-114500000D02*
X102000000Y-112250000D01*
%TD*%
%TA.AperFunction,Conductor*%
%TO.N,GND*%
G36*
X113197230Y-130920185D02*
G01*
X113242985Y-130972989D01*
X113252929Y-131042147D01*
X113223904Y-131105703D01*
X113217872Y-131112181D01*
X110618873Y-133711181D01*
X110557550Y-133744666D01*
X110531192Y-133747500D01*
X108217929Y-133747500D01*
X108092261Y-133772497D01*
X108092255Y-133772499D01*
X107973875Y-133821533D01*
X107973866Y-133821538D01*
X107867331Y-133892723D01*
X107867327Y-133892726D01*
X107110711Y-134649342D01*
X107049388Y-134682827D01*
X107001244Y-134682317D01*
X107001055Y-134683516D01*
X106896111Y-134666894D01*
X106786287Y-134649500D01*
X106709807Y-134649500D01*
X106642768Y-134629815D01*
X106597013Y-134577011D01*
X106587069Y-134507853D01*
X106616094Y-134444297D01*
X106622126Y-134437819D01*
X110123127Y-130936819D01*
X110184450Y-130903334D01*
X110210808Y-130900500D01*
X113130191Y-130900500D01*
X113197230Y-130920185D01*
G37*
%TD.AperFunction*%
%TA.AperFunction,Conductor*%
G36*
X116201571Y-120000177D02*
G01*
X116257504Y-120042049D01*
X116281921Y-120107513D01*
X116272798Y-120163811D01*
X116230263Y-120266503D01*
X116230262Y-120266506D01*
X116230262Y-120266507D01*
X116230261Y-120266510D01*
X116199500Y-120421153D01*
X116199500Y-120578846D01*
X116230261Y-120733489D01*
X116230264Y-120733501D01*
X116290602Y-120879172D01*
X116290609Y-120879185D01*
X116378210Y-121010288D01*
X116378213Y-121010292D01*
X116489707Y-121121786D01*
X116489711Y-121121789D01*
X116620814Y-121209390D01*
X116620827Y-121209397D01*
X116766498Y-121269735D01*
X116766503Y-121269737D01*
X116831147Y-121282595D01*
X116921849Y-121300638D01*
X116983760Y-121333023D01*
X116985339Y-121334574D01*
X117716259Y-122065494D01*
X117749744Y-122126817D01*
X117744760Y-122196509D01*
X117702888Y-122252442D01*
X117676032Y-122267735D01*
X117620829Y-122290601D01*
X117620814Y-122290609D01*
X117489711Y-122378210D01*
X117489707Y-122378213D01*
X117378210Y-122489710D01*
X117308266Y-122594391D01*
X117254654Y-122639196D01*
X117205164Y-122649500D01*
X114829766Y-122649500D01*
X114762727Y-122629815D01*
X114760875Y-122628602D01*
X114629185Y-122540609D01*
X114629172Y-122540602D01*
X114483501Y-122480264D01*
X114483491Y-122480261D01*
X114349308Y-122453570D01*
X114287397Y-122421185D01*
X114252823Y-122360469D01*
X114249500Y-122331953D01*
X114249500Y-121901097D01*
X114269185Y-121834058D01*
X114285819Y-121813416D01*
X115088947Y-121010288D01*
X116070558Y-120028676D01*
X116131879Y-119995193D01*
X116201571Y-120000177D01*
G37*
%TD.AperFunction*%
%TA.AperFunction,Conductor*%
G36*
X105231444Y-109153999D02*
G01*
X105270486Y-109199056D01*
X105274951Y-109207820D01*
X105399890Y-109379786D01*
X105550213Y-109530109D01*
X105722182Y-109655050D01*
X105741739Y-109665015D01*
X105792536Y-109712989D01*
X105809331Y-109780810D01*
X105786794Y-109846945D01*
X105732079Y-109890397D01*
X105685445Y-109899500D01*
X104634555Y-109899500D01*
X104567516Y-109879815D01*
X104521761Y-109827011D01*
X104511817Y-109757853D01*
X104540842Y-109694297D01*
X104578261Y-109665015D01*
X104588501Y-109659797D01*
X104597816Y-109655051D01*
X104684471Y-109592093D01*
X104769786Y-109530109D01*
X104769788Y-109530106D01*
X104769792Y-109530104D01*
X104920104Y-109379792D01*
X104920106Y-109379788D01*
X104920109Y-109379786D01*
X105045048Y-109207820D01*
X105045047Y-109207820D01*
X105045051Y-109207816D01*
X105049514Y-109199054D01*
X105097488Y-109148259D01*
X105165308Y-109131463D01*
X105231444Y-109153999D01*
G37*
%TD.AperFunction*%
%TA.AperFunction,Conductor*%
G36*
X107771444Y-109153999D02*
G01*
X107810486Y-109199056D01*
X107814951Y-109207820D01*
X107939890Y-109379786D01*
X108090213Y-109530109D01*
X108262182Y-109655050D01*
X108281739Y-109665015D01*
X108332536Y-109712989D01*
X108349331Y-109780810D01*
X108326794Y-109846945D01*
X108272079Y-109890397D01*
X108225445Y-109899500D01*
X107174555Y-109899500D01*
X107107516Y-109879815D01*
X107061761Y-109827011D01*
X107051817Y-109757853D01*
X107080842Y-109694297D01*
X107118261Y-109665015D01*
X107128501Y-109659797D01*
X107137816Y-109655051D01*
X107224471Y-109592093D01*
X107309786Y-109530109D01*
X107309788Y-109530106D01*
X107309792Y-109530104D01*
X107460104Y-109379792D01*
X107460106Y-109379788D01*
X107460109Y-109379786D01*
X107585048Y-109207820D01*
X107585047Y-109207820D01*
X107585051Y-109207816D01*
X107589514Y-109199054D01*
X107637488Y-109148259D01*
X107705308Y-109131463D01*
X107771444Y-109153999D01*
G37*
%TD.AperFunction*%
%TA.AperFunction,Conductor*%
G36*
X137003736Y-105500726D02*
G01*
X137293796Y-105518271D01*
X137308659Y-105520076D01*
X137590798Y-105571780D01*
X137605335Y-105575363D01*
X137879172Y-105660695D01*
X137893163Y-105666000D01*
X138154743Y-105783727D01*
X138167989Y-105790680D01*
X138413465Y-105939075D01*
X138425776Y-105947573D01*
X138651573Y-106124473D01*
X138662781Y-106134403D01*
X138865596Y-106337218D01*
X138875525Y-106348425D01*
X138963610Y-106460857D01*
X138989460Y-106525768D01*
X138990000Y-106537330D01*
X138990000Y-137462668D01*
X138970315Y-137529707D01*
X138963611Y-137539141D01*
X138875526Y-137651573D01*
X138865596Y-137662781D01*
X138662781Y-137865596D01*
X138651573Y-137875526D01*
X138425782Y-138052422D01*
X138413459Y-138060928D01*
X138167995Y-138209316D01*
X138154736Y-138216275D01*
X137893168Y-138333997D01*
X137879167Y-138339306D01*
X137605336Y-138424635D01*
X137590798Y-138428219D01*
X137308659Y-138479923D01*
X137293794Y-138481728D01*
X137003736Y-138499274D01*
X136996249Y-138499500D01*
X89003751Y-138499500D01*
X88996264Y-138499274D01*
X88706205Y-138481728D01*
X88691340Y-138479923D01*
X88409201Y-138428219D01*
X88394663Y-138424635D01*
X88120832Y-138339306D01*
X88106831Y-138333997D01*
X87845263Y-138216275D01*
X87832004Y-138209316D01*
X87586540Y-138060928D01*
X87574217Y-138052422D01*
X87348426Y-137875526D01*
X87337218Y-137865596D01*
X87134403Y-137662781D01*
X87124473Y-137651573D01*
X87028997Y-137529707D01*
X86947573Y-137425776D01*
X86939075Y-137413465D01*
X86790680Y-137167989D01*
X86783727Y-137154743D01*
X86666000Y-136893163D01*
X86660693Y-136879167D01*
X86583505Y-136631463D01*
X86575363Y-136605335D01*
X86571780Y-136590798D01*
X86520076Y-136308659D01*
X86518271Y-136293794D01*
X86500726Y-136003736D01*
X86500500Y-135996249D01*
X86500500Y-135893713D01*
X88149500Y-135893713D01*
X88149500Y-136106286D01*
X88182753Y-136316239D01*
X88248444Y-136518414D01*
X88344951Y-136707820D01*
X88469890Y-136879786D01*
X88620213Y-137030109D01*
X88792179Y-137155048D01*
X88792181Y-137155049D01*
X88792184Y-137155051D01*
X88981588Y-137251557D01*
X89183757Y-137317246D01*
X89393713Y-137350500D01*
X89393714Y-137350500D01*
X89606286Y-137350500D01*
X89606287Y-137350500D01*
X89816243Y-137317246D01*
X90018412Y-137251557D01*
X90207816Y-137155051D01*
X90294138Y-137092335D01*
X90379786Y-137030109D01*
X90379788Y-137030106D01*
X90379792Y-137030104D01*
X90530104Y-136879792D01*
X90530106Y-136879788D01*
X90530109Y-136879786D01*
X90655048Y-136707820D01*
X90655047Y-136707820D01*
X90655051Y-136707816D01*
X90751557Y-136518412D01*
X90817246Y-136316243D01*
X90850500Y-136106287D01*
X90850500Y-135893713D01*
X92629500Y-135893713D01*
X92629500Y-136106286D01*
X92662753Y-136316239D01*
X92728444Y-136518414D01*
X92824951Y-136707820D01*
X92949890Y-136879786D01*
X93100213Y-137030109D01*
X93272179Y-137155048D01*
X93272181Y-137155049D01*
X93272184Y-137155051D01*
X93461588Y-137251557D01*
X93663757Y-137317246D01*
X93873713Y-137350500D01*
X93873714Y-137350500D01*
X94086286Y-137350500D01*
X94086287Y-137350500D01*
X94296243Y-137317246D01*
X94498412Y-137251557D01*
X94687816Y-137155051D01*
X94774138Y-137092335D01*
X94859786Y-137030109D01*
X94859788Y-137030106D01*
X94859792Y-137030104D01*
X95010104Y-136879792D01*
X95010106Y-136879788D01*
X95010109Y-136879786D01*
X95135048Y-136707820D01*
X95135047Y-136707820D01*
X95135051Y-136707816D01*
X95139514Y-136699054D01*
X95187488Y-136648259D01*
X95255308Y-136631463D01*
X95321444Y-136653999D01*
X95360486Y-136699056D01*
X95364951Y-136707820D01*
X95489890Y-136879786D01*
X95640213Y-137030109D01*
X95812179Y-137155048D01*
X95812181Y-137155049D01*
X95812184Y-137155051D01*
X96001588Y-137251557D01*
X96203757Y-137317246D01*
X96413713Y-137350500D01*
X96413714Y-137350500D01*
X96626286Y-137350500D01*
X96626287Y-137350500D01*
X96836243Y-137317246D01*
X97038412Y-137251557D01*
X97227816Y-137155051D01*
X97314138Y-137092335D01*
X97399786Y-137030109D01*
X97399788Y-137030106D01*
X97399792Y-137030104D01*
X97550104Y-136879792D01*
X97550106Y-136879788D01*
X97550109Y-136879786D01*
X97675048Y-136707820D01*
X97675047Y-136707820D01*
X97675051Y-136707816D01*
X97679514Y-136699054D01*
X97727488Y-136648259D01*
X97795308Y-136631463D01*
X97861444Y-136653999D01*
X97900486Y-136699056D01*
X97904951Y-136707820D01*
X98029890Y-136879786D01*
X98180213Y-137030109D01*
X98352179Y-137155048D01*
X98352181Y-137155049D01*
X98352184Y-137155051D01*
X98541588Y-137251557D01*
X98743757Y-137317246D01*
X98953713Y-137350500D01*
X98953714Y-137350500D01*
X99166286Y-137350500D01*
X99166287Y-137350500D01*
X99376243Y-137317246D01*
X99578412Y-137251557D01*
X99767816Y-137155051D01*
X99854138Y-137092335D01*
X99939786Y-137030109D01*
X99939788Y-137030106D01*
X99939792Y-137030104D01*
X100090104Y-136879792D01*
X100090106Y-136879788D01*
X100090109Y-136879786D01*
X100215048Y-136707820D01*
X100215047Y-136707820D01*
X100215051Y-136707816D01*
X100219514Y-136699054D01*
X100267488Y-136648259D01*
X100335308Y-136631463D01*
X100401444Y-136653999D01*
X100440486Y-136699056D01*
X100444951Y-136707820D01*
X100569890Y-136879786D01*
X100720213Y-137030109D01*
X100892179Y-137155048D01*
X100892181Y-137155049D01*
X100892184Y-137155051D01*
X101081588Y-137251557D01*
X101283757Y-137317246D01*
X101493713Y-137350500D01*
X101493714Y-137350500D01*
X101706286Y-137350500D01*
X101706287Y-137350500D01*
X101916243Y-137317246D01*
X102118412Y-137251557D01*
X102307816Y-137155051D01*
X102394138Y-137092335D01*
X102479786Y-137030109D01*
X102479788Y-137030106D01*
X102479792Y-137030104D01*
X102630104Y-136879792D01*
X102630106Y-136879788D01*
X102630109Y-136879786D01*
X102755048Y-136707820D01*
X102755047Y-136707820D01*
X102755051Y-136707816D01*
X102759514Y-136699054D01*
X102807488Y-136648259D01*
X102875308Y-136631463D01*
X102941444Y-136653999D01*
X102980486Y-136699056D01*
X102984951Y-136707820D01*
X103109890Y-136879786D01*
X103260213Y-137030109D01*
X103432179Y-137155048D01*
X103432181Y-137155049D01*
X103432184Y-137155051D01*
X103621588Y-137251557D01*
X103823757Y-137317246D01*
X104033713Y-137350500D01*
X104033714Y-137350500D01*
X104246286Y-137350500D01*
X104246287Y-137350500D01*
X104456243Y-137317246D01*
X104658412Y-137251557D01*
X104847816Y-137155051D01*
X104934138Y-137092335D01*
X105019786Y-137030109D01*
X105019788Y-137030106D01*
X105019792Y-137030104D01*
X105170104Y-136879792D01*
X105170106Y-136879788D01*
X105170109Y-136879786D01*
X105295048Y-136707820D01*
X105295047Y-136707820D01*
X105295051Y-136707816D01*
X105299514Y-136699054D01*
X105347488Y-136648259D01*
X105415308Y-136631463D01*
X105481444Y-136653999D01*
X105520486Y-136699056D01*
X105524951Y-136707820D01*
X105649890Y-136879786D01*
X105800213Y-137030109D01*
X105972179Y-137155048D01*
X105972181Y-137155049D01*
X105972184Y-137155051D01*
X106161588Y-137251557D01*
X106363757Y-137317246D01*
X106573713Y-137350500D01*
X106573714Y-137350500D01*
X106786286Y-137350500D01*
X106786287Y-137350500D01*
X106996243Y-137317246D01*
X107198412Y-137251557D01*
X107387816Y-137155051D01*
X107474138Y-137092335D01*
X107559786Y-137030109D01*
X107559788Y-137030106D01*
X107559792Y-137030104D01*
X107710104Y-136879792D01*
X107710106Y-136879788D01*
X107710109Y-136879786D01*
X107835048Y-136707820D01*
X107835047Y-136707820D01*
X107835051Y-136707816D01*
X107839514Y-136699054D01*
X107887488Y-136648259D01*
X107955308Y-136631463D01*
X108021444Y-136653999D01*
X108060486Y-136699056D01*
X108064951Y-136707820D01*
X108189890Y-136879786D01*
X108340213Y-137030109D01*
X108512179Y-137155048D01*
X108512181Y-137155049D01*
X108512184Y-137155051D01*
X108701588Y-137251557D01*
X108903757Y-137317246D01*
X109113713Y-137350500D01*
X109113714Y-137350500D01*
X109326286Y-137350500D01*
X109326287Y-137350500D01*
X109536243Y-137317246D01*
X109738412Y-137251557D01*
X109927816Y-137155051D01*
X110014138Y-137092335D01*
X110099786Y-137030109D01*
X110099788Y-137030106D01*
X110099792Y-137030104D01*
X110250104Y-136879792D01*
X110250106Y-136879788D01*
X110250109Y-136879786D01*
X110375048Y-136707820D01*
X110375047Y-136707820D01*
X110375051Y-136707816D01*
X110379514Y-136699054D01*
X110427488Y-136648259D01*
X110495308Y-136631463D01*
X110561444Y-136653999D01*
X110600486Y-136699056D01*
X110604951Y-136707820D01*
X110729890Y-136879786D01*
X110880213Y-137030109D01*
X111052179Y-137155048D01*
X111052181Y-137155049D01*
X111052184Y-137155051D01*
X111241588Y-137251557D01*
X111443757Y-137317246D01*
X111653713Y-137350500D01*
X111653714Y-137350500D01*
X111866286Y-137350500D01*
X111866287Y-137350500D01*
X112076243Y-137317246D01*
X112278412Y-137251557D01*
X112467816Y-137155051D01*
X112554138Y-137092335D01*
X112639786Y-137030109D01*
X112639788Y-137030106D01*
X112639792Y-137030104D01*
X112790104Y-136879792D01*
X112790106Y-136879788D01*
X112790109Y-136879786D01*
X112915048Y-136707820D01*
X112915047Y-136707820D01*
X112915051Y-136707816D01*
X112919514Y-136699054D01*
X112967488Y-136648259D01*
X113035308Y-136631463D01*
X113101444Y-136653999D01*
X113140486Y-136699056D01*
X113144951Y-136707820D01*
X113269890Y-136879786D01*
X113420213Y-137030109D01*
X113592179Y-137155048D01*
X113592181Y-137155049D01*
X113592184Y-137155051D01*
X113781588Y-137251557D01*
X113983757Y-137317246D01*
X114193713Y-137350500D01*
X114193714Y-137350500D01*
X114406286Y-137350500D01*
X114406287Y-137350500D01*
X114616243Y-137317246D01*
X114818412Y-137251557D01*
X115007816Y-137155051D01*
X115094138Y-137092335D01*
X115179786Y-137030109D01*
X115179788Y-137030106D01*
X115179792Y-137030104D01*
X115330104Y-136879792D01*
X115330106Y-136879788D01*
X115330109Y-136879786D01*
X115455048Y-136707820D01*
X115455047Y-136707820D01*
X115455051Y-136707816D01*
X115459514Y-136699054D01*
X115507488Y-136648259D01*
X115575308Y-136631463D01*
X115641444Y-136653999D01*
X115680486Y-136699056D01*
X115684951Y-136707820D01*
X115809890Y-136879786D01*
X115960213Y-137030109D01*
X116132179Y-137155048D01*
X116132181Y-137155049D01*
X116132184Y-137155051D01*
X116321588Y-137251557D01*
X116523757Y-137317246D01*
X116733713Y-137350500D01*
X116733714Y-137350500D01*
X116946286Y-137350500D01*
X116946287Y-137350500D01*
X117156243Y-137317246D01*
X117358412Y-137251557D01*
X117547816Y-137155051D01*
X117634138Y-137092335D01*
X117719786Y-137030109D01*
X117719788Y-137030106D01*
X117719792Y-137030104D01*
X117870104Y-136879792D01*
X117870106Y-136879788D01*
X117870109Y-136879786D01*
X117995048Y-136707820D01*
X117995047Y-136707820D01*
X117995051Y-136707816D01*
X117999514Y-136699054D01*
X118047488Y-136648259D01*
X118115308Y-136631463D01*
X118181444Y-136653999D01*
X118220486Y-136699056D01*
X118224951Y-136707820D01*
X118349890Y-136879786D01*
X118500213Y-137030109D01*
X118672179Y-137155048D01*
X118672181Y-137155049D01*
X118672184Y-137155051D01*
X118861588Y-137251557D01*
X119063757Y-137317246D01*
X119273713Y-137350500D01*
X119273714Y-137350500D01*
X119486286Y-137350500D01*
X119486287Y-137350500D01*
X119696243Y-137317246D01*
X119898412Y-137251557D01*
X120087816Y-137155051D01*
X120174138Y-137092335D01*
X120259786Y-137030109D01*
X120259788Y-137030106D01*
X120259792Y-137030104D01*
X120410104Y-136879792D01*
X120410106Y-136879788D01*
X120410109Y-136879786D01*
X120535048Y-136707820D01*
X120535047Y-136707820D01*
X120535051Y-136707816D01*
X120539514Y-136699054D01*
X120587488Y-136648259D01*
X120655308Y-136631463D01*
X120721444Y-136653999D01*
X120760486Y-136699056D01*
X120764951Y-136707820D01*
X120889890Y-136879786D01*
X121040213Y-137030109D01*
X121212179Y-137155048D01*
X121212181Y-137155049D01*
X121212184Y-137155051D01*
X121401588Y-137251557D01*
X121603757Y-137317246D01*
X121813713Y-137350500D01*
X121813714Y-137350500D01*
X122026286Y-137350500D01*
X122026287Y-137350500D01*
X122236243Y-137317246D01*
X122438412Y-137251557D01*
X122627816Y-137155051D01*
X122714138Y-137092335D01*
X122799786Y-137030109D01*
X122799788Y-137030106D01*
X122799792Y-137030104D01*
X122950104Y-136879792D01*
X122950106Y-136879788D01*
X122950109Y-136879786D01*
X123075048Y-136707820D01*
X123075047Y-136707820D01*
X123075051Y-136707816D01*
X123079514Y-136699054D01*
X123127488Y-136648259D01*
X123195308Y-136631463D01*
X123261444Y-136653999D01*
X123300486Y-136699056D01*
X123304951Y-136707820D01*
X123429890Y-136879786D01*
X123580213Y-137030109D01*
X123752179Y-137155048D01*
X123752181Y-137155049D01*
X123752184Y-137155051D01*
X123941588Y-137251557D01*
X124143757Y-137317246D01*
X124353713Y-137350500D01*
X124353714Y-137350500D01*
X124566286Y-137350500D01*
X124566287Y-137350500D01*
X124776243Y-137317246D01*
X124978412Y-137251557D01*
X125167816Y-137155051D01*
X125254138Y-137092335D01*
X125339786Y-137030109D01*
X125339788Y-137030106D01*
X125339792Y-137030104D01*
X125490104Y-136879792D01*
X125490106Y-136879788D01*
X125490109Y-136879786D01*
X125615048Y-136707820D01*
X125615047Y-136707820D01*
X125615051Y-136707816D01*
X125619514Y-136699054D01*
X125667488Y-136648259D01*
X125735308Y-136631463D01*
X125801444Y-136653999D01*
X125840486Y-136699056D01*
X125844951Y-136707820D01*
X125969890Y-136879786D01*
X126120213Y-137030109D01*
X126292179Y-137155048D01*
X126292181Y-137155049D01*
X126292184Y-137155051D01*
X126481588Y-137251557D01*
X126683757Y-137317246D01*
X126893713Y-137350500D01*
X126893714Y-137350500D01*
X127106286Y-137350500D01*
X127106287Y-137350500D01*
X127316243Y-137317246D01*
X127518412Y-137251557D01*
X127707816Y-137155051D01*
X127794138Y-137092335D01*
X127879786Y-137030109D01*
X127879788Y-137030106D01*
X127879792Y-137030104D01*
X128030104Y-136879792D01*
X128030106Y-136879788D01*
X128030109Y-136879786D01*
X128155048Y-136707820D01*
X128155047Y-136707820D01*
X128155051Y-136707816D01*
X128159514Y-136699054D01*
X128207488Y-136648259D01*
X128275308Y-136631463D01*
X128341444Y-136653999D01*
X128380486Y-136699056D01*
X128384951Y-136707820D01*
X128509890Y-136879786D01*
X128660213Y-137030109D01*
X128832179Y-137155048D01*
X128832181Y-137155049D01*
X128832184Y-137155051D01*
X129021588Y-137251557D01*
X129223757Y-137317246D01*
X129433713Y-137350500D01*
X129433714Y-137350500D01*
X129646286Y-137350500D01*
X129646287Y-137350500D01*
X129856243Y-137317246D01*
X130058412Y-137251557D01*
X130247816Y-137155051D01*
X130419792Y-137030104D01*
X130533329Y-136916566D01*
X130594648Y-136883084D01*
X130664340Y-136888068D01*
X130720274Y-136929939D01*
X130737189Y-136960917D01*
X130786202Y-137092328D01*
X130786206Y-137092335D01*
X130872452Y-137207544D01*
X130872455Y-137207547D01*
X130987664Y-137293793D01*
X130987671Y-137293797D01*
X131122517Y-137344091D01*
X131122516Y-137344091D01*
X131129444Y-137344835D01*
X131182127Y-137350500D01*
X132977872Y-137350499D01*
X133037483Y-137344091D01*
X133172331Y-137293796D01*
X133287546Y-137207546D01*
X133373796Y-137092331D01*
X133424091Y-136957483D01*
X133430500Y-136897873D01*
X133430499Y-135893713D01*
X135149500Y-135893713D01*
X135149500Y-136106286D01*
X135182753Y-136316239D01*
X135248444Y-136518414D01*
X135344951Y-136707820D01*
X135469890Y-136879786D01*
X135620213Y-137030109D01*
X135792179Y-137155048D01*
X135792181Y-137155049D01*
X135792184Y-137155051D01*
X135981588Y-137251557D01*
X136183757Y-137317246D01*
X136393713Y-137350500D01*
X136393714Y-137350500D01*
X136606286Y-137350500D01*
X136606287Y-137350500D01*
X136816243Y-137317246D01*
X137018412Y-137251557D01*
X137207816Y-137155051D01*
X137294138Y-137092335D01*
X137379786Y-137030109D01*
X137379788Y-137030106D01*
X137379792Y-137030104D01*
X137530104Y-136879792D01*
X137530106Y-136879788D01*
X137530109Y-136879786D01*
X137655048Y-136707820D01*
X137655047Y-136707820D01*
X137655051Y-136707816D01*
X137751557Y-136518412D01*
X137817246Y-136316243D01*
X137850500Y-136106287D01*
X137850500Y-135893713D01*
X137817246Y-135683757D01*
X137751557Y-135481588D01*
X137655051Y-135292184D01*
X137655049Y-135292181D01*
X137655048Y-135292179D01*
X137530109Y-135120213D01*
X137379786Y-134969890D01*
X137207820Y-134844951D01*
X137018414Y-134748444D01*
X137018413Y-134748443D01*
X137018412Y-134748443D01*
X136816243Y-134682754D01*
X136816241Y-134682753D01*
X136816240Y-134682753D01*
X136654957Y-134657208D01*
X136606287Y-134649500D01*
X136393713Y-134649500D01*
X136345042Y-134657208D01*
X136183760Y-134682753D01*
X135981585Y-134748444D01*
X135792179Y-134844951D01*
X135620213Y-134969890D01*
X135469890Y-135120213D01*
X135344951Y-135292179D01*
X135248444Y-135481585D01*
X135182753Y-135683760D01*
X135149500Y-135893713D01*
X133430499Y-135893713D01*
X133430499Y-135102128D01*
X133424091Y-135042517D01*
X133422810Y-135039083D01*
X133373797Y-134907671D01*
X133373793Y-134907664D01*
X133287547Y-134792455D01*
X133287544Y-134792452D01*
X133172335Y-134706206D01*
X133172328Y-134706202D01*
X133037482Y-134655908D01*
X133037483Y-134655908D01*
X132977883Y-134649501D01*
X132977881Y-134649500D01*
X132977873Y-134649500D01*
X132977864Y-134649500D01*
X131182129Y-134649500D01*
X131182123Y-134649501D01*
X131122516Y-134655908D01*
X130987671Y-134706202D01*
X130987664Y-134706206D01*
X130872455Y-134792452D01*
X130872452Y-134792455D01*
X130786206Y-134907664D01*
X130786203Y-134907669D01*
X130737189Y-135039083D01*
X130695317Y-135095016D01*
X130629853Y-135119433D01*
X130561580Y-135104581D01*
X130533326Y-135083430D01*
X130419786Y-134969890D01*
X130247820Y-134844951D01*
X130058414Y-134748444D01*
X130058413Y-134748443D01*
X130058412Y-134748443D01*
X129856243Y-134682754D01*
X129856241Y-134682753D01*
X129856240Y-134682753D01*
X129694957Y-134657208D01*
X129646287Y-134649500D01*
X129433713Y-134649500D01*
X129385042Y-134657208D01*
X129223760Y-134682753D01*
X129021585Y-134748444D01*
X128832179Y-134844951D01*
X128660213Y-134969890D01*
X128509890Y-135120213D01*
X128384949Y-135292182D01*
X128380484Y-135300946D01*
X128332509Y-135351742D01*
X128264688Y-135368536D01*
X128198553Y-135345998D01*
X128159516Y-135300946D01*
X128155050Y-135292182D01*
X128030109Y-135120213D01*
X127879786Y-134969890D01*
X127707820Y-134844951D01*
X127518414Y-134748444D01*
X127518413Y-134748443D01*
X127518412Y-134748443D01*
X127316243Y-134682754D01*
X127316241Y-134682753D01*
X127316240Y-134682753D01*
X127154957Y-134657208D01*
X127106287Y-134649500D01*
X126893713Y-134649500D01*
X126845042Y-134657208D01*
X126683760Y-134682753D01*
X126481585Y-134748444D01*
X126292179Y-134844951D01*
X126120213Y-134969890D01*
X125969890Y-135120213D01*
X125844949Y-135292182D01*
X125840484Y-135300946D01*
X125792509Y-135351742D01*
X125724688Y-135368536D01*
X125658553Y-135345998D01*
X125619516Y-135300946D01*
X125615050Y-135292182D01*
X125490109Y-135120213D01*
X125339786Y-134969890D01*
X125167820Y-134844951D01*
X124978414Y-134748444D01*
X124978413Y-134748443D01*
X124978412Y-134748443D01*
X124776243Y-134682754D01*
X124776241Y-134682753D01*
X124776240Y-134682753D01*
X124614957Y-134657208D01*
X124566287Y-134649500D01*
X124353713Y-134649500D01*
X124305042Y-134657208D01*
X124143760Y-134682753D01*
X123941585Y-134748444D01*
X123752179Y-134844951D01*
X123580213Y-134969890D01*
X123429890Y-135120213D01*
X123304949Y-135292182D01*
X123300484Y-135300946D01*
X123252509Y-135351742D01*
X123184688Y-135368536D01*
X123118553Y-135345998D01*
X123079516Y-135300946D01*
X123075050Y-135292182D01*
X122950109Y-135120213D01*
X122799786Y-134969890D01*
X122627820Y-134844951D01*
X122438414Y-134748444D01*
X122438413Y-134748443D01*
X122438412Y-134748443D01*
X122236243Y-134682754D01*
X122236241Y-134682753D01*
X122236240Y-134682753D01*
X122074957Y-134657208D01*
X122026287Y-134649500D01*
X121813713Y-134649500D01*
X121765042Y-134657208D01*
X121603760Y-134682753D01*
X121401585Y-134748444D01*
X121212179Y-134844951D01*
X121040213Y-134969890D01*
X120889890Y-135120213D01*
X120764949Y-135292182D01*
X120760484Y-135300946D01*
X120712509Y-135351742D01*
X120644688Y-135368536D01*
X120578553Y-135345998D01*
X120539516Y-135300946D01*
X120535050Y-135292182D01*
X120410109Y-135120213D01*
X120259786Y-134969890D01*
X120087820Y-134844951D01*
X119898414Y-134748444D01*
X119898413Y-134748443D01*
X119898412Y-134748443D01*
X119696243Y-134682754D01*
X119696241Y-134682753D01*
X119696240Y-134682753D01*
X119534957Y-134657208D01*
X119486287Y-134649500D01*
X119273713Y-134649500D01*
X119225042Y-134657208D01*
X119063760Y-134682753D01*
X118861585Y-134748444D01*
X118672179Y-134844951D01*
X118500213Y-134969890D01*
X118349890Y-135120213D01*
X118224949Y-135292182D01*
X118220484Y-135300946D01*
X118172509Y-135351742D01*
X118104688Y-135368536D01*
X118038553Y-135345998D01*
X117999516Y-135300946D01*
X117995050Y-135292182D01*
X117870109Y-135120213D01*
X117719786Y-134969890D01*
X117547820Y-134844951D01*
X117358414Y-134748444D01*
X117358413Y-134748443D01*
X117358412Y-134748443D01*
X117156243Y-134682754D01*
X117156241Y-134682753D01*
X117156240Y-134682753D01*
X116994957Y-134657208D01*
X116946287Y-134649500D01*
X116733713Y-134649500D01*
X116685042Y-134657208D01*
X116523760Y-134682753D01*
X116321585Y-134748444D01*
X116132179Y-134844951D01*
X115960213Y-134969890D01*
X115809890Y-135120213D01*
X115684949Y-135292182D01*
X115680484Y-135300946D01*
X115632509Y-135351742D01*
X115564688Y-135368536D01*
X115498553Y-135345998D01*
X115459516Y-135300946D01*
X115455050Y-135292182D01*
X115330109Y-135120213D01*
X115179786Y-134969890D01*
X115007820Y-134844951D01*
X114818414Y-134748444D01*
X114818413Y-134748443D01*
X114818412Y-134748443D01*
X114616243Y-134682754D01*
X114616241Y-134682753D01*
X114616240Y-134682753D01*
X114454957Y-134657208D01*
X114406287Y-134649500D01*
X114329807Y-134649500D01*
X114262768Y-134629815D01*
X114217013Y-134577011D01*
X114207069Y-134507853D01*
X114236094Y-134444297D01*
X114242126Y-134437819D01*
X117505272Y-131174674D01*
X117505273Y-131174673D01*
X117505273Y-131174672D01*
X117505277Y-131174669D01*
X117576465Y-131068127D01*
X117625501Y-130949744D01*
X117650500Y-130824069D01*
X117650500Y-130754935D01*
X117670185Y-130687896D01*
X117671366Y-130686090D01*
X117709394Y-130629179D01*
X117769737Y-130483497D01*
X117800500Y-130328842D01*
X117800500Y-130171158D01*
X117800500Y-130171155D01*
X117793540Y-130136167D01*
X117799767Y-130066576D01*
X117842629Y-130011398D01*
X117908519Y-129988153D01*
X117962609Y-129997414D01*
X118008695Y-130016503D01*
X118016503Y-130019737D01*
X118171153Y-130050499D01*
X118171156Y-130050500D01*
X118171158Y-130050500D01*
X118328844Y-130050500D01*
X118328845Y-130050499D01*
X118483497Y-130019737D01*
X118629179Y-129959394D01*
X118760289Y-129871789D01*
X118871789Y-129760289D01*
X118959394Y-129629179D01*
X119019737Y-129483497D01*
X119050500Y-129328842D01*
X119050500Y-129328840D01*
X119050637Y-129328152D01*
X119066275Y-129287966D01*
X119074019Y-129275216D01*
X119081520Y-129267716D01*
X119137267Y-129171158D01*
X119160577Y-129130785D01*
X119201501Y-128978057D01*
X119201501Y-128819943D01*
X119201501Y-128812348D01*
X119201500Y-128812330D01*
X119201500Y-122190059D01*
X119201501Y-122190046D01*
X119201501Y-122021945D01*
X119201501Y-122021943D01*
X119160577Y-121869215D01*
X119102265Y-121768216D01*
X119081520Y-121732284D01*
X118969716Y-121620480D01*
X118969713Y-121620478D01*
X117834574Y-120485339D01*
X117801089Y-120424016D01*
X117800638Y-120421849D01*
X117773117Y-120283497D01*
X117769737Y-120266503D01*
X117769735Y-120266498D01*
X117709397Y-120120827D01*
X117709390Y-120120814D01*
X117621789Y-119989711D01*
X117621786Y-119989707D01*
X117510292Y-119878213D01*
X117510288Y-119878210D01*
X117379185Y-119790609D01*
X117379172Y-119790602D01*
X117233501Y-119730264D01*
X117233489Y-119730261D01*
X117078845Y-119699500D01*
X117078842Y-119699500D01*
X116921158Y-119699500D01*
X116921155Y-119699500D01*
X116766510Y-119730261D01*
X116766507Y-119730262D01*
X116766506Y-119730262D01*
X116766503Y-119730263D01*
X116676757Y-119767436D01*
X116663811Y-119772799D01*
X116594341Y-119780267D01*
X116531862Y-119748991D01*
X116496210Y-119688902D01*
X116498705Y-119619077D01*
X116528676Y-119570558D01*
X117562416Y-118536819D01*
X117623739Y-118503334D01*
X117650097Y-118500500D01*
X118323920Y-118500500D01*
X118421462Y-118481096D01*
X118468913Y-118471658D01*
X118605495Y-118415084D01*
X118670291Y-118371789D01*
X118670294Y-118371786D01*
X118670296Y-118371786D01*
X118702153Y-118350500D01*
X118728416Y-118332952D01*
X121024549Y-116036819D01*
X121085872Y-116003334D01*
X121112230Y-116000500D01*
X135945396Y-116000500D01*
X135992844Y-116009937D01*
X136016503Y-116019737D01*
X136016508Y-116019738D01*
X136016511Y-116019739D01*
X136171153Y-116050499D01*
X136171156Y-116050500D01*
X136171158Y-116050500D01*
X136328844Y-116050500D01*
X136328845Y-116050499D01*
X136483497Y-116019737D01*
X136629179Y-115959394D01*
X136760289Y-115871789D01*
X136871789Y-115760289D01*
X136959394Y-115629179D01*
X137019737Y-115483497D01*
X137050500Y-115328842D01*
X137050500Y-115171158D01*
X137050500Y-115171155D01*
X137050499Y-115171153D01*
X137019738Y-115016510D01*
X137019737Y-115016503D01*
X137006062Y-114983489D01*
X136959397Y-114870827D01*
X136959390Y-114870814D01*
X136871789Y-114739711D01*
X136871786Y-114739707D01*
X136760292Y-114628213D01*
X136760288Y-114628210D01*
X136629185Y-114540609D01*
X136629172Y-114540602D01*
X136483501Y-114480264D01*
X136483489Y-114480261D01*
X136328845Y-114449500D01*
X136328842Y-114449500D01*
X136171158Y-114449500D01*
X136171155Y-114449500D01*
X136016511Y-114480260D01*
X136016506Y-114480262D01*
X136016504Y-114480262D01*
X136016503Y-114480263D01*
X135992844Y-114490062D01*
X135945396Y-114499500D01*
X120676080Y-114499500D01*
X120531092Y-114528340D01*
X120531087Y-114528342D01*
X120459023Y-114558191D01*
X120389554Y-114565658D01*
X120327075Y-114534383D01*
X120291423Y-114474293D01*
X120287767Y-114436679D01*
X120288484Y-114423903D01*
X120300501Y-114379057D01*
X120300501Y-114220943D01*
X120300500Y-114220939D01*
X120300500Y-113174500D01*
X120320185Y-113107461D01*
X120372989Y-113061706D01*
X120424500Y-113050500D01*
X120578844Y-113050500D01*
X120578845Y-113050499D01*
X120733497Y-113019737D01*
X120879179Y-112959394D01*
X121010289Y-112871789D01*
X121121789Y-112760289D01*
X121209394Y-112629179D01*
X121269737Y-112483497D01*
X121286422Y-112399617D01*
X121318806Y-112337706D01*
X121379522Y-112303132D01*
X121415066Y-112300748D01*
X121415066Y-112300500D01*
X121418774Y-112300500D01*
X121420191Y-112300405D01*
X121421156Y-112300500D01*
X121421158Y-112300500D01*
X121578844Y-112300500D01*
X121578845Y-112300499D01*
X121733497Y-112269737D01*
X121879179Y-112209394D01*
X122010289Y-112121789D01*
X122121789Y-112010289D01*
X122209394Y-111879179D01*
X122269737Y-111733497D01*
X122282321Y-111670234D01*
X122286484Y-111649308D01*
X122318869Y-111587397D01*
X122379585Y-111552823D01*
X122408101Y-111549500D01*
X133341899Y-111549500D01*
X133408938Y-111569185D01*
X133454693Y-111621989D01*
X133463516Y-111649308D01*
X133480261Y-111733491D01*
X133480264Y-111733501D01*
X133540602Y-111879172D01*
X133540609Y-111879185D01*
X133628210Y-112010288D01*
X133628213Y-112010292D01*
X133739707Y-112121786D01*
X133739711Y-112121789D01*
X133870814Y-112209390D01*
X133870827Y-112209397D01*
X134016498Y-112269735D01*
X134016503Y-112269737D01*
X134170680Y-112300405D01*
X134171153Y-112300499D01*
X134171156Y-112300500D01*
X134171158Y-112300500D01*
X134328844Y-112300500D01*
X134328845Y-112300499D01*
X134483497Y-112269737D01*
X134629179Y-112209394D01*
X134760289Y-112121789D01*
X134871789Y-112010289D01*
X134959394Y-111879179D01*
X135019737Y-111733497D01*
X135050500Y-111578842D01*
X135050500Y-111421158D01*
X135050500Y-111421155D01*
X135050499Y-111421153D01*
X135019738Y-111266510D01*
X135019737Y-111266503D01*
X134966021Y-111136819D01*
X134959397Y-111120827D01*
X134959390Y-111120814D01*
X134871789Y-110989711D01*
X134871786Y-110989707D01*
X134760292Y-110878213D01*
X134760288Y-110878210D01*
X134629185Y-110790609D01*
X134629172Y-110790602D01*
X134483501Y-110730264D01*
X134483491Y-110730261D01*
X134328151Y-110699362D01*
X134266241Y-110666977D01*
X134264662Y-110665426D01*
X134067717Y-110468481D01*
X134067716Y-110468480D01*
X133980904Y-110418360D01*
X133980904Y-110418359D01*
X133980900Y-110418358D01*
X133930785Y-110389423D01*
X133778057Y-110348499D01*
X133619943Y-110348499D01*
X133612347Y-110348499D01*
X133612331Y-110348500D01*
X119880057Y-110348500D01*
X119721942Y-110348500D01*
X119569215Y-110389423D01*
X119569214Y-110389423D01*
X119569212Y-110389424D01*
X119569209Y-110389425D01*
X119519096Y-110418359D01*
X119519095Y-110418360D01*
X119475689Y-110443420D01*
X119432285Y-110468479D01*
X119432282Y-110468481D01*
X119320478Y-110580286D01*
X117881284Y-112019481D01*
X116631286Y-113269478D01*
X116519481Y-113381282D01*
X116519479Y-113381284D01*
X116513391Y-113391830D01*
X116485336Y-113440424D01*
X116440423Y-113518215D01*
X116399499Y-113670943D01*
X116399499Y-113670945D01*
X116399499Y-113839046D01*
X116399500Y-113839059D01*
X116399500Y-114170234D01*
X116379815Y-114237273D01*
X116378602Y-114239125D01*
X116290609Y-114370814D01*
X116290602Y-114370827D01*
X116230264Y-114516498D01*
X116230261Y-114516510D01*
X116199500Y-114671153D01*
X116199500Y-114828846D01*
X116230261Y-114983489D01*
X116230264Y-114983501D01*
X116290602Y-115129172D01*
X116290609Y-115129185D01*
X116378210Y-115260288D01*
X116378213Y-115260292D01*
X116489707Y-115371786D01*
X116489711Y-115371789D01*
X116620814Y-115459390D01*
X116620821Y-115459394D01*
X116676030Y-115482262D01*
X116730433Y-115526102D01*
X116752499Y-115592396D01*
X116735221Y-115660095D01*
X116716259Y-115684504D01*
X111037584Y-121363181D01*
X110976261Y-121396666D01*
X110949903Y-121399500D01*
X101079766Y-121399500D01*
X101012727Y-121379815D01*
X101010875Y-121378602D01*
X100879185Y-121290609D01*
X100879172Y-121290602D01*
X100733501Y-121230264D01*
X100733489Y-121230261D01*
X100578845Y-121199500D01*
X100578842Y-121199500D01*
X100421158Y-121199500D01*
X100421155Y-121199500D01*
X100266510Y-121230261D01*
X100266498Y-121230264D01*
X100120827Y-121290602D01*
X100120814Y-121290609D01*
X99989711Y-121378210D01*
X99989707Y-121378213D01*
X99878213Y-121489707D01*
X99878210Y-121489711D01*
X99790609Y-121620814D01*
X99790602Y-121620827D01*
X99730264Y-121766498D01*
X99730261Y-121766510D01*
X99699500Y-121921153D01*
X99699500Y-122078846D01*
X99730261Y-122233489D01*
X99730264Y-122233501D01*
X99790602Y-122379172D01*
X99790609Y-122379185D01*
X99825304Y-122431109D01*
X99846182Y-122497786D01*
X99827698Y-122565167D01*
X99825304Y-122568891D01*
X99790609Y-122620814D01*
X99790602Y-122620827D01*
X99730264Y-122766498D01*
X99730261Y-122766510D01*
X99699500Y-122921153D01*
X99699500Y-123078846D01*
X99730261Y-123233489D01*
X99730264Y-123233501D01*
X99790602Y-123379172D01*
X99790609Y-123379185D01*
X99878210Y-123510288D01*
X99878213Y-123510292D01*
X99989707Y-123621786D01*
X99989711Y-123621789D01*
X100120814Y-123709390D01*
X100120827Y-123709397D01*
X100266498Y-123769735D01*
X100266503Y-123769737D01*
X100421153Y-123800499D01*
X100421156Y-123800500D01*
X100421158Y-123800500D01*
X100578844Y-123800500D01*
X100578845Y-123800499D01*
X100733497Y-123769737D01*
X100879179Y-123709394D01*
X100933663Y-123672989D01*
X101010875Y-123621398D01*
X101077553Y-123600520D01*
X101079766Y-123600500D01*
X107370500Y-123600500D01*
X107437539Y-123620185D01*
X107483294Y-123672989D01*
X107494500Y-123724500D01*
X107494500Y-126376000D01*
X107494501Y-126376009D01*
X107506052Y-126483450D01*
X107506054Y-126483462D01*
X107517260Y-126534972D01*
X107551383Y-126637497D01*
X107551386Y-126637503D01*
X107629171Y-126758537D01*
X107629179Y-126758548D01*
X107674923Y-126811340D01*
X107674926Y-126811343D01*
X107674930Y-126811347D01*
X107783664Y-126905567D01*
X107783667Y-126905568D01*
X107783668Y-126905569D01*
X107877925Y-126948616D01*
X107914541Y-126965338D01*
X107981580Y-126985023D01*
X107981584Y-126985024D01*
X108124000Y-127005500D01*
X108124003Y-127005500D01*
X110875990Y-127005500D01*
X110876000Y-127005500D01*
X110983456Y-126993947D01*
X111034967Y-126982741D01*
X111069197Y-126971347D01*
X111137497Y-126948616D01*
X111137501Y-126948613D01*
X111137504Y-126948613D01*
X111258543Y-126870825D01*
X111311347Y-126825070D01*
X111405567Y-126716336D01*
X111465338Y-126585459D01*
X111485023Y-126518420D01*
X111485024Y-126518416D01*
X111505500Y-126376000D01*
X111505500Y-123724500D01*
X111493947Y-123617044D01*
X111482741Y-123565533D01*
X111457226Y-123488876D01*
X111456669Y-123473258D01*
X111451201Y-123458616D01*
X111455447Y-123439055D01*
X111454733Y-123419052D01*
X111462908Y-123404688D01*
X111466024Y-123390336D01*
X111487126Y-123362137D01*
X111487163Y-123362073D01*
X111487209Y-123362026D01*
X111487212Y-123362023D01*
X111488058Y-123361176D01*
X111490699Y-123358534D01*
X111490702Y-123358533D01*
X111490725Y-123358510D01*
X111490728Y-123358505D01*
X112836820Y-122012413D01*
X112898142Y-121978930D01*
X112967834Y-121983914D01*
X113023767Y-122025786D01*
X113048184Y-122091250D01*
X113048500Y-122100096D01*
X113048500Y-124312330D01*
X113048499Y-124312348D01*
X113048499Y-124478054D01*
X113048498Y-124478054D01*
X113089423Y-124630787D01*
X113089424Y-124630788D01*
X113114102Y-124673531D01*
X113114104Y-124673534D01*
X113114105Y-124673535D01*
X113167784Y-124766511D01*
X113168479Y-124767714D01*
X113168481Y-124767717D01*
X113287349Y-124886585D01*
X113287355Y-124886590D01*
X113665425Y-125264660D01*
X113698910Y-125325983D01*
X113699361Y-125328149D01*
X113730261Y-125483491D01*
X113730264Y-125483501D01*
X113790602Y-125629172D01*
X113790609Y-125629185D01*
X113878210Y-125760288D01*
X113878213Y-125760292D01*
X113989707Y-125871786D01*
X113989711Y-125871789D01*
X114120814Y-125959390D01*
X114120827Y-125959397D01*
X114266498Y-126019735D01*
X114266503Y-126019737D01*
X114421153Y-126050499D01*
X114421156Y-126050500D01*
X114421158Y-126050500D01*
X114578844Y-126050500D01*
X114578845Y-126050499D01*
X114733497Y-126019737D01*
X114879179Y-125959394D01*
X115010289Y-125871789D01*
X115121789Y-125760289D01*
X115209394Y-125629179D01*
X115269737Y-125483497D01*
X115300500Y-125328842D01*
X115300500Y-125171158D01*
X115300500Y-125171155D01*
X115300499Y-125171153D01*
X115282137Y-125078842D01*
X115269737Y-125016503D01*
X115228880Y-124917865D01*
X115209397Y-124870827D01*
X115209390Y-124870814D01*
X115121789Y-124739711D01*
X115121786Y-124739707D01*
X115010292Y-124628213D01*
X115010288Y-124628210D01*
X114879185Y-124540609D01*
X114879172Y-124540602D01*
X114733501Y-124480264D01*
X114733491Y-124480261D01*
X114578151Y-124449362D01*
X114561394Y-124440596D01*
X114542916Y-124436577D01*
X114517877Y-124417832D01*
X114516241Y-124416977D01*
X114514662Y-124415426D01*
X114343491Y-124244255D01*
X114310006Y-124182932D01*
X114314990Y-124113240D01*
X114356862Y-124057307D01*
X114406976Y-124034957D01*
X114483497Y-124019737D01*
X114596166Y-123973067D01*
X114629172Y-123959397D01*
X114629172Y-123959396D01*
X114629179Y-123959394D01*
X114641086Y-123951438D01*
X114760875Y-123871398D01*
X114827553Y-123850520D01*
X114829766Y-123850500D01*
X117670939Y-123850500D01*
X117670943Y-123850501D01*
X117829057Y-123850501D01*
X117857801Y-123842798D01*
X117871654Y-123842257D01*
X117892629Y-123847534D01*
X117914254Y-123848049D01*
X117925842Y-123855891D01*
X117939411Y-123859306D01*
X117954203Y-123875086D01*
X117972117Y-123887210D01*
X117977625Y-123900072D01*
X117987195Y-123910281D01*
X117991107Y-123931554D01*
X117999623Y-123951438D01*
X118000500Y-123966162D01*
X118000500Y-128404036D01*
X117980815Y-128471075D01*
X117928011Y-128516830D01*
X117923954Y-128518597D01*
X117870821Y-128540606D01*
X117870814Y-128540609D01*
X117739711Y-128628210D01*
X117739707Y-128628213D01*
X117628213Y-128739707D01*
X117628210Y-128739711D01*
X117540609Y-128870814D01*
X117540602Y-128870827D01*
X117480264Y-129016498D01*
X117480261Y-129016510D01*
X117449500Y-129171153D01*
X117449500Y-129328841D01*
X117456460Y-129363834D01*
X117450231Y-129433426D01*
X117407368Y-129488602D01*
X117341478Y-129511846D01*
X117287391Y-129502586D01*
X117241314Y-129483501D01*
X117233497Y-129480263D01*
X117233493Y-129480262D01*
X117233489Y-129480261D01*
X117078845Y-129449500D01*
X117078842Y-129449500D01*
X116921158Y-129449500D01*
X116921155Y-129449500D01*
X116766510Y-129480261D01*
X116766498Y-129480264D01*
X116620827Y-129540602D01*
X116620814Y-129540609D01*
X116568891Y-129575304D01*
X116502214Y-129596182D01*
X116434833Y-129577698D01*
X116431109Y-129575304D01*
X116379185Y-129540609D01*
X116379172Y-129540602D01*
X116233501Y-129480264D01*
X116233489Y-129480261D01*
X116078845Y-129449500D01*
X116078842Y-129449500D01*
X115921158Y-129449500D01*
X115921155Y-129449500D01*
X115766510Y-129480261D01*
X115766498Y-129480264D01*
X115620827Y-129540602D01*
X115620814Y-129540609D01*
X115568891Y-129575304D01*
X115502214Y-129596182D01*
X115434833Y-129577698D01*
X115431109Y-129575304D01*
X115379185Y-129540609D01*
X115379172Y-129540602D01*
X115233501Y-129480264D01*
X115233489Y-129480261D01*
X115078845Y-129449500D01*
X115078842Y-129449500D01*
X114921158Y-129449500D01*
X114921155Y-129449500D01*
X114766510Y-129480261D01*
X114766498Y-129480264D01*
X114620827Y-129540602D01*
X114620814Y-129540609D01*
X114489711Y-129628210D01*
X114489707Y-129628213D01*
X114462681Y-129655240D01*
X114401358Y-129688725D01*
X114331666Y-129683741D01*
X114287319Y-129655240D01*
X114260292Y-129628213D01*
X114260288Y-129628210D01*
X114129185Y-129540609D01*
X114129172Y-129540602D01*
X113983501Y-129480264D01*
X113983489Y-129480261D01*
X113828845Y-129449500D01*
X113828842Y-129449500D01*
X113671158Y-129449500D01*
X113671155Y-129449500D01*
X113516510Y-129480261D01*
X113516498Y-129480264D01*
X113370827Y-129540602D01*
X113370820Y-129540606D01*
X113341928Y-129559911D01*
X113313955Y-129578602D01*
X113247279Y-129599480D01*
X113245065Y-129599500D01*
X109825929Y-129599500D01*
X109700261Y-129624497D01*
X109700255Y-129624499D01*
X109581874Y-129673534D01*
X109475326Y-129744726D01*
X104570710Y-134649342D01*
X104509387Y-134682827D01*
X104461245Y-134682315D01*
X104461055Y-134683516D01*
X104356111Y-134666894D01*
X104246287Y-134649500D01*
X104033713Y-134649500D01*
X103985042Y-134657208D01*
X103823760Y-134682753D01*
X103621585Y-134748444D01*
X103432179Y-134844951D01*
X103260213Y-134969890D01*
X103109890Y-135120213D01*
X102984949Y-135292182D01*
X102980484Y-135300946D01*
X102932509Y-135351742D01*
X102864688Y-135368536D01*
X102798553Y-135345998D01*
X102759516Y-135300946D01*
X102755050Y-135292182D01*
X102630109Y-135120213D01*
X102479786Y-134969890D01*
X102307820Y-134844951D01*
X102118414Y-134748444D01*
X102118413Y-134748443D01*
X102118412Y-134748443D01*
X101916243Y-134682754D01*
X101916241Y-134682753D01*
X101916240Y-134682753D01*
X101754957Y-134657208D01*
X101706287Y-134649500D01*
X101493713Y-134649500D01*
X101445042Y-134657208D01*
X101283760Y-134682753D01*
X101081585Y-134748444D01*
X100892179Y-134844951D01*
X100720213Y-134969890D01*
X100569890Y-135120213D01*
X100444949Y-135292182D01*
X100440484Y-135300946D01*
X100392509Y-135351742D01*
X100324688Y-135368536D01*
X100258553Y-135345998D01*
X100219516Y-135300946D01*
X100215050Y-135292182D01*
X100090109Y-135120213D01*
X99939786Y-134969890D01*
X99767820Y-134844951D01*
X99578414Y-134748444D01*
X99578413Y-134748443D01*
X99578412Y-134748443D01*
X99376243Y-134682754D01*
X99376241Y-134682753D01*
X99376240Y-134682753D01*
X99214957Y-134657208D01*
X99166287Y-134649500D01*
X98953713Y-134649500D01*
X98905042Y-134657208D01*
X98743760Y-134682753D01*
X98541585Y-134748444D01*
X98352179Y-134844951D01*
X98180213Y-134969890D01*
X98029890Y-135120213D01*
X97904949Y-135292182D01*
X97900484Y-135300946D01*
X97852509Y-135351742D01*
X97784688Y-135368536D01*
X97718553Y-135345998D01*
X97679516Y-135300946D01*
X97675050Y-135292182D01*
X97550109Y-135120213D01*
X97399786Y-134969890D01*
X97227820Y-134844951D01*
X97038414Y-134748444D01*
X97038413Y-134748443D01*
X97038412Y-134748443D01*
X96836243Y-134682754D01*
X96836241Y-134682753D01*
X96836240Y-134682753D01*
X96674957Y-134657208D01*
X96626287Y-134649500D01*
X96413713Y-134649500D01*
X96365042Y-134657208D01*
X96203760Y-134682753D01*
X96001585Y-134748444D01*
X95812179Y-134844951D01*
X95640213Y-134969890D01*
X95489890Y-135120213D01*
X95364949Y-135292182D01*
X95360484Y-135300946D01*
X95312509Y-135351742D01*
X95244688Y-135368536D01*
X95178553Y-135345998D01*
X95139516Y-135300946D01*
X95135050Y-135292182D01*
X95010109Y-135120213D01*
X94859786Y-134969890D01*
X94687820Y-134844951D01*
X94498414Y-134748444D01*
X94498413Y-134748443D01*
X94498412Y-134748443D01*
X94296243Y-134682754D01*
X94296241Y-134682753D01*
X94296240Y-134682753D01*
X94134957Y-134657208D01*
X94086287Y-134649500D01*
X93873713Y-134649500D01*
X93825042Y-134657208D01*
X93663760Y-134682753D01*
X93461585Y-134748444D01*
X93272179Y-134844951D01*
X93100213Y-134969890D01*
X92949890Y-135120213D01*
X92824951Y-135292179D01*
X92728444Y-135481585D01*
X92662753Y-135683760D01*
X92629500Y-135893713D01*
X90850500Y-135893713D01*
X90817246Y-135683757D01*
X90751557Y-135481588D01*
X90655051Y-135292184D01*
X90655049Y-135292181D01*
X90655048Y-135292179D01*
X90530109Y-135120213D01*
X90379786Y-134969890D01*
X90207820Y-134844951D01*
X90018414Y-134748444D01*
X90018413Y-134748443D01*
X90018412Y-134748443D01*
X89816243Y-134682754D01*
X89816241Y-134682753D01*
X89816240Y-134682753D01*
X89654957Y-134657208D01*
X89606287Y-134649500D01*
X89393713Y-134649500D01*
X89345042Y-134657208D01*
X89183760Y-134682753D01*
X88981585Y-134748444D01*
X88792179Y-134844951D01*
X88620213Y-134969890D01*
X88469890Y-135120213D01*
X88344951Y-135292179D01*
X88248444Y-135481585D01*
X88182753Y-135683760D01*
X88149500Y-135893713D01*
X86500500Y-135893713D01*
X86500500Y-127579295D01*
X86520185Y-127512256D01*
X86572989Y-127466501D01*
X86642147Y-127456557D01*
X86671953Y-127464734D01*
X86833310Y-127531570D01*
X86833318Y-127531572D01*
X87026504Y-127569999D01*
X87026508Y-127570000D01*
X87175000Y-127570000D01*
X87175000Y-126870000D01*
X87675000Y-126870000D01*
X87675000Y-127570000D01*
X87823492Y-127570000D01*
X87823495Y-127569999D01*
X88016681Y-127531572D01*
X88016693Y-127531569D01*
X88198671Y-127456192D01*
X88198684Y-127456185D01*
X88362462Y-127346751D01*
X88362466Y-127346748D01*
X88501748Y-127207466D01*
X88501751Y-127207462D01*
X88611185Y-127043684D01*
X88611192Y-127043671D01*
X88686569Y-126861692D01*
X88686569Y-126861690D01*
X88694862Y-126820000D01*
X87891988Y-126820000D01*
X87909205Y-126810060D01*
X87965060Y-126754205D01*
X88004556Y-126685796D01*
X88025000Y-126609496D01*
X88025000Y-126530504D01*
X88004556Y-126454204D01*
X87965060Y-126385795D01*
X87909205Y-126329940D01*
X87891988Y-126320000D01*
X88694862Y-126320000D01*
X90085138Y-126320000D01*
X90888012Y-126320000D01*
X90870795Y-126329940D01*
X90814940Y-126385795D01*
X90775444Y-126454204D01*
X90755000Y-126530504D01*
X90755000Y-126609496D01*
X90775444Y-126685796D01*
X90814940Y-126754205D01*
X90870795Y-126810060D01*
X90888012Y-126820000D01*
X90085138Y-126820000D01*
X90093430Y-126861690D01*
X90093430Y-126861692D01*
X90168807Y-127043671D01*
X90168814Y-127043684D01*
X90278248Y-127207462D01*
X90278251Y-127207466D01*
X90417533Y-127346748D01*
X90417537Y-127346751D01*
X90581315Y-127456185D01*
X90581328Y-127456192D01*
X90763306Y-127531569D01*
X90763318Y-127531572D01*
X90956504Y-127569999D01*
X90956508Y-127570000D01*
X91355000Y-127570000D01*
X91355000Y-126870000D01*
X91855000Y-126870000D01*
X91855000Y-127570000D01*
X92253492Y-127570000D01*
X92253495Y-127569999D01*
X92446681Y-127531572D01*
X92446693Y-127531569D01*
X92628671Y-127456192D01*
X92628684Y-127456185D01*
X92792462Y-127346751D01*
X92792466Y-127346748D01*
X92931748Y-127207466D01*
X92931751Y-127207462D01*
X93041185Y-127043684D01*
X93041192Y-127043671D01*
X93116569Y-126861692D01*
X93116569Y-126861690D01*
X93124862Y-126820000D01*
X92321988Y-126820000D01*
X92339205Y-126810060D01*
X92395060Y-126754205D01*
X92434556Y-126685796D01*
X92455000Y-126609496D01*
X92455000Y-126530504D01*
X92434556Y-126454204D01*
X92395060Y-126385795D01*
X92339205Y-126329940D01*
X92321988Y-126320000D01*
X93124862Y-126320000D01*
X93116569Y-126278309D01*
X93116569Y-126278307D01*
X93041192Y-126096328D01*
X93041185Y-126096315D01*
X92931751Y-125932537D01*
X92931748Y-125932533D01*
X92792466Y-125793251D01*
X92792462Y-125793248D01*
X92628684Y-125683814D01*
X92628671Y-125683807D01*
X92446693Y-125608430D01*
X92446681Y-125608427D01*
X92253495Y-125570000D01*
X91855000Y-125570000D01*
X91855000Y-126270000D01*
X91355000Y-126270000D01*
X91355000Y-125731784D01*
X91374685Y-125664745D01*
X91417000Y-125624397D01*
X91458365Y-125600515D01*
X91565515Y-125493365D01*
X91571210Y-125483501D01*
X91586721Y-125456637D01*
X91641279Y-125362138D01*
X91641281Y-125362135D01*
X91680500Y-125215766D01*
X91680500Y-125064234D01*
X91642163Y-124921158D01*
X96699500Y-124921158D01*
X96699500Y-124929001D01*
X96699500Y-125078846D01*
X96730261Y-125233489D01*
X96730264Y-125233501D01*
X96790602Y-125379172D01*
X96790609Y-125379185D01*
X96878210Y-125510288D01*
X96878213Y-125510292D01*
X96989707Y-125621786D01*
X96989711Y-125621789D01*
X97120814Y-125709390D01*
X97120827Y-125709397D01*
X97266498Y-125769735D01*
X97266503Y-125769737D01*
X97421153Y-125800499D01*
X97421156Y-125800500D01*
X97421158Y-125800500D01*
X97578844Y-125800500D01*
X97578845Y-125800499D01*
X97733497Y-125769737D01*
X97879179Y-125709394D01*
X98010289Y-125621789D01*
X98121789Y-125510289D01*
X98209394Y-125379179D01*
X98269737Y-125233497D01*
X98300500Y-125078842D01*
X98300500Y-124921158D01*
X98300500Y-124921155D01*
X98300499Y-124921153D01*
X98269739Y-124766511D01*
X98269738Y-124766508D01*
X98269737Y-124766503D01*
X98259937Y-124742844D01*
X98250500Y-124695396D01*
X98250500Y-120712230D01*
X98259144Y-120682790D01*
X98265667Y-120652805D01*
X98269422Y-120647787D01*
X98270185Y-120645191D01*
X98286814Y-120624552D01*
X98315297Y-120596069D01*
X98355528Y-120569189D01*
X98379179Y-120559394D01*
X98510289Y-120471789D01*
X98621789Y-120360289D01*
X98709394Y-120229179D01*
X98769737Y-120083497D01*
X98784715Y-120008194D01*
X98792084Y-119971153D01*
X102699500Y-119971153D01*
X102699500Y-120128846D01*
X102730261Y-120283489D01*
X102730264Y-120283501D01*
X102790602Y-120429172D01*
X102790609Y-120429185D01*
X102878210Y-120560288D01*
X102878213Y-120560292D01*
X102989707Y-120671786D01*
X102989711Y-120671789D01*
X103120814Y-120759390D01*
X103120827Y-120759397D01*
X103266498Y-120819735D01*
X103266503Y-120819737D01*
X103421153Y-120850499D01*
X103421156Y-120850500D01*
X103421158Y-120850500D01*
X103578844Y-120850500D01*
X103578845Y-120850499D01*
X103733497Y-120819737D01*
X103879179Y-120759394D01*
X104010289Y-120671789D01*
X104121789Y-120560289D01*
X104209394Y-120429179D01*
X104212719Y-120421153D01*
X104269735Y-120283501D01*
X104269737Y-120283497D01*
X104300500Y-120128842D01*
X104300500Y-119971158D01*
X104300500Y-119971155D01*
X104300499Y-119971153D01*
X104282012Y-119878213D01*
X104269737Y-119816503D01*
X104269735Y-119816498D01*
X104209397Y-119670827D01*
X104209390Y-119670814D01*
X104121789Y-119539711D01*
X104121786Y-119539707D01*
X104010292Y-119428213D01*
X104010288Y-119428210D01*
X103879185Y-119340609D01*
X103879172Y-119340602D01*
X103733501Y-119280264D01*
X103733489Y-119280261D01*
X103578845Y-119249500D01*
X103578842Y-119249500D01*
X103421158Y-119249500D01*
X103421155Y-119249500D01*
X103266510Y-119280261D01*
X103266498Y-119280264D01*
X103120827Y-119340602D01*
X103120814Y-119340609D01*
X102989711Y-119428210D01*
X102989707Y-119428213D01*
X102878213Y-119539707D01*
X102878210Y-119539711D01*
X102790609Y-119670814D01*
X102790602Y-119670827D01*
X102730264Y-119816498D01*
X102730261Y-119816510D01*
X102699500Y-119971153D01*
X98792084Y-119971153D01*
X98798107Y-119940875D01*
X98798107Y-119940874D01*
X98800500Y-119928844D01*
X98800500Y-119771155D01*
X98800499Y-119771153D01*
X98792365Y-119730261D01*
X98769737Y-119616503D01*
X98755502Y-119582136D01*
X98709397Y-119470827D01*
X98709390Y-119470814D01*
X98621789Y-119339711D01*
X98621786Y-119339707D01*
X98510292Y-119228213D01*
X98510288Y-119228210D01*
X98379185Y-119140609D01*
X98379172Y-119140602D01*
X98233501Y-119080264D01*
X98233489Y-119080261D01*
X98078845Y-119049500D01*
X98078842Y-119049500D01*
X97921158Y-119049500D01*
X97921155Y-119049500D01*
X97766510Y-119080261D01*
X97766498Y-119080264D01*
X97620827Y-119140602D01*
X97620814Y-119140609D01*
X97489711Y-119228210D01*
X97489707Y-119228213D01*
X97378213Y-119339707D01*
X97378207Y-119339715D01*
X97290607Y-119470818D01*
X97290606Y-119470819D01*
X97280805Y-119494480D01*
X97253927Y-119534703D01*
X96917048Y-119871583D01*
X96900547Y-119896280D01*
X96874342Y-119935500D01*
X96870751Y-119940875D01*
X96834916Y-119994504D01*
X96834912Y-119994511D01*
X96778343Y-120131082D01*
X96778340Y-120131092D01*
X96749500Y-120276079D01*
X96749500Y-124695396D01*
X96748049Y-124702687D01*
X96746408Y-124722916D01*
X96744079Y-124733147D01*
X96730263Y-124766503D01*
X96699500Y-124921158D01*
X91642163Y-124921158D01*
X91641281Y-124917865D01*
X91565515Y-124786635D01*
X91458365Y-124679485D01*
X91374018Y-124630787D01*
X91327136Y-124603719D01*
X91253950Y-124584109D01*
X91180766Y-124564500D01*
X91029234Y-124564500D01*
X90882863Y-124603719D01*
X90751635Y-124679485D01*
X90751632Y-124679487D01*
X90644487Y-124786632D01*
X90644485Y-124786635D01*
X90568719Y-124917863D01*
X90529500Y-125064234D01*
X90529500Y-125215765D01*
X90568719Y-125362136D01*
X90608153Y-125430437D01*
X90644485Y-125493365D01*
X90644486Y-125493366D01*
X90648549Y-125500403D01*
X90646346Y-125501674D01*
X90666959Y-125554983D01*
X90652923Y-125623428D01*
X90604112Y-125673420D01*
X90590845Y-125679866D01*
X90581324Y-125683809D01*
X90581315Y-125683814D01*
X90417537Y-125793248D01*
X90417533Y-125793251D01*
X90278251Y-125932533D01*
X90278248Y-125932537D01*
X90168814Y-126096315D01*
X90168807Y-126096328D01*
X90093430Y-126278307D01*
X90093430Y-126278309D01*
X90085138Y-126320000D01*
X88694862Y-126320000D01*
X88686569Y-126278309D01*
X88686569Y-126278307D01*
X88611192Y-126096328D01*
X88611185Y-126096315D01*
X88501751Y-125932537D01*
X88501748Y-125932533D01*
X88362466Y-125793251D01*
X88362462Y-125793248D01*
X88198684Y-125683814D01*
X88198671Y-125683807D01*
X88016693Y-125608430D01*
X88016681Y-125608427D01*
X87823495Y-125570000D01*
X87675000Y-125570000D01*
X87675000Y-126270000D01*
X87175000Y-126270000D01*
X87175000Y-125570000D01*
X87026504Y-125570000D01*
X86833318Y-125608427D01*
X86833306Y-125608430D01*
X86671952Y-125675265D01*
X86602483Y-125682734D01*
X86540004Y-125651459D01*
X86504352Y-125591369D01*
X86500500Y-125560704D01*
X86500500Y-118939295D01*
X86520185Y-118872256D01*
X86572989Y-118826501D01*
X86642147Y-118816557D01*
X86671953Y-118824734D01*
X86833310Y-118891570D01*
X86833318Y-118891572D01*
X87026504Y-118929999D01*
X87026508Y-118930000D01*
X87175000Y-118930000D01*
X87175000Y-118230000D01*
X87675000Y-118230000D01*
X87675000Y-118930000D01*
X87823492Y-118930000D01*
X87823495Y-118929999D01*
X88016681Y-118891572D01*
X88016693Y-118891569D01*
X88198671Y-118816192D01*
X88198684Y-118816185D01*
X88362462Y-118706751D01*
X88362466Y-118706748D01*
X88501748Y-118567466D01*
X88501751Y-118567462D01*
X88611185Y-118403684D01*
X88611192Y-118403671D01*
X88686569Y-118221692D01*
X88686569Y-118221690D01*
X88694862Y-118180000D01*
X87891988Y-118180000D01*
X87909205Y-118170060D01*
X87965060Y-118114205D01*
X88004556Y-118045796D01*
X88025000Y-117969496D01*
X88025000Y-117890504D01*
X88004556Y-117814204D01*
X87965060Y-117745795D01*
X87909205Y-117689940D01*
X87891988Y-117680000D01*
X88694862Y-117680000D01*
X90085138Y-117680000D01*
X90888012Y-117680000D01*
X90870795Y-117689940D01*
X90814940Y-117745795D01*
X90775444Y-117814204D01*
X90755000Y-117890504D01*
X90755000Y-117969496D01*
X90775444Y-118045796D01*
X90814940Y-118114205D01*
X90870795Y-118170060D01*
X90888012Y-118180000D01*
X90085138Y-118180000D01*
X90093430Y-118221690D01*
X90093430Y-118221692D01*
X90168807Y-118403671D01*
X90168814Y-118403684D01*
X90278248Y-118567462D01*
X90278251Y-118567466D01*
X90417533Y-118706748D01*
X90417537Y-118706751D01*
X90581315Y-118816185D01*
X90581328Y-118816192D01*
X90590838Y-118820131D01*
X90645243Y-118863970D01*
X90667310Y-118930264D01*
X90650033Y-118997963D01*
X90646350Y-119003405D01*
X90568719Y-119137863D01*
X90538807Y-119249500D01*
X90529500Y-119284234D01*
X90529500Y-119435766D01*
X90545232Y-119494480D01*
X90568719Y-119582136D01*
X90606602Y-119647750D01*
X90644485Y-119713365D01*
X90751635Y-119820515D01*
X90882865Y-119896281D01*
X91029234Y-119935500D01*
X91029236Y-119935500D01*
X91180764Y-119935500D01*
X91180766Y-119935500D01*
X91327135Y-119896281D01*
X91458365Y-119820515D01*
X91565515Y-119713365D01*
X91641281Y-119582135D01*
X91680500Y-119435766D01*
X91680500Y-119284234D01*
X91641281Y-119137865D01*
X91565515Y-119006635D01*
X91458365Y-118899485D01*
X91444654Y-118891569D01*
X91416998Y-118875601D01*
X91368784Y-118825033D01*
X91355000Y-118768215D01*
X91355000Y-118230000D01*
X91855000Y-118230000D01*
X91855000Y-118930000D01*
X92253492Y-118930000D01*
X92253495Y-118929999D01*
X92446681Y-118891572D01*
X92446693Y-118891569D01*
X92628671Y-118816192D01*
X92628684Y-118816185D01*
X92792462Y-118706751D01*
X92792466Y-118706748D01*
X92931748Y-118567466D01*
X92931751Y-118567462D01*
X93041185Y-118403684D01*
X93041192Y-118403671D01*
X93116569Y-118221692D01*
X93116569Y-118221690D01*
X93124862Y-118180000D01*
X92321988Y-118180000D01*
X92339205Y-118170060D01*
X92395060Y-118114205D01*
X92434556Y-118045796D01*
X92455000Y-117969496D01*
X92455000Y-117890504D01*
X92434556Y-117814204D01*
X92395060Y-117745795D01*
X92339205Y-117689940D01*
X92321988Y-117680000D01*
X93124862Y-117680000D01*
X93116569Y-117638309D01*
X93116569Y-117638307D01*
X93041192Y-117456328D01*
X93041185Y-117456315D01*
X92931751Y-117292537D01*
X92931748Y-117292533D01*
X92792466Y-117153251D01*
X92792462Y-117153248D01*
X92628684Y-117043814D01*
X92628671Y-117043807D01*
X92446693Y-116968430D01*
X92446681Y-116968427D01*
X92253495Y-116930000D01*
X91855000Y-116930000D01*
X91855000Y-117630000D01*
X91355000Y-117630000D01*
X91355000Y-116930000D01*
X90956504Y-116930000D01*
X90763318Y-116968427D01*
X90763306Y-116968430D01*
X90581328Y-117043807D01*
X90581315Y-117043814D01*
X90417537Y-117153248D01*
X90417533Y-117153251D01*
X90278251Y-117292533D01*
X90278248Y-117292537D01*
X90168814Y-117456315D01*
X90168807Y-117456328D01*
X90093430Y-117638307D01*
X90093430Y-117638309D01*
X90085138Y-117680000D01*
X88694862Y-117680000D01*
X88686569Y-117638309D01*
X88686569Y-117638307D01*
X88611192Y-117456328D01*
X88611185Y-117456315D01*
X88501751Y-117292537D01*
X88501748Y-117292533D01*
X88362466Y-117153251D01*
X88362462Y-117153248D01*
X88198684Y-117043814D01*
X88198671Y-117043807D01*
X88016693Y-116968430D01*
X88016681Y-116968427D01*
X87823495Y-116930000D01*
X87675000Y-116930000D01*
X87675000Y-117630000D01*
X87175000Y-117630000D01*
X87175000Y-116930000D01*
X87026504Y-116930000D01*
X86833318Y-116968427D01*
X86833306Y-116968430D01*
X86671952Y-117035265D01*
X86602483Y-117042734D01*
X86540004Y-117011459D01*
X86504352Y-116951369D01*
X86500500Y-116920704D01*
X86500500Y-108393713D01*
X87899500Y-108393713D01*
X87899500Y-108606286D01*
X87932753Y-108816239D01*
X87998444Y-109018414D01*
X88094951Y-109207820D01*
X88219890Y-109379786D01*
X88370213Y-109530109D01*
X88542179Y-109655048D01*
X88542181Y-109655049D01*
X88542184Y-109655051D01*
X88731588Y-109751557D01*
X88933757Y-109817246D01*
X89143713Y-109850500D01*
X89143714Y-109850500D01*
X89356286Y-109850500D01*
X89356287Y-109850500D01*
X89566243Y-109817246D01*
X89768412Y-109751557D01*
X89957816Y-109655051D01*
X90044471Y-109592093D01*
X90129786Y-109530109D01*
X90129788Y-109530106D01*
X90129792Y-109530104D01*
X90280104Y-109379792D01*
X90280106Y-109379788D01*
X90280109Y-109379786D01*
X90405048Y-109207820D01*
X90405047Y-109207820D01*
X90405051Y-109207816D01*
X90501557Y-109018412D01*
X90567246Y-108816243D01*
X90600500Y-108606287D01*
X90600500Y-108393713D01*
X90567246Y-108183757D01*
X90501557Y-107981588D01*
X90405051Y-107792184D01*
X90405049Y-107792181D01*
X90405048Y-107792179D01*
X90317542Y-107671736D01*
X90280109Y-107620214D01*
X90280105Y-107620209D01*
X90262051Y-107602155D01*
X92380000Y-107602155D01*
X92380000Y-108250000D01*
X93296988Y-108250000D01*
X93264075Y-108307007D01*
X93230000Y-108434174D01*
X93230000Y-108565826D01*
X93264075Y-108692993D01*
X93296988Y-108750000D01*
X92380000Y-108750000D01*
X92380000Y-109397844D01*
X92386401Y-109457372D01*
X92386403Y-109457379D01*
X92436645Y-109592086D01*
X92436649Y-109592093D01*
X92522809Y-109707187D01*
X92522812Y-109707190D01*
X92637906Y-109793350D01*
X92637913Y-109793354D01*
X92772620Y-109843596D01*
X92772627Y-109843598D01*
X92832155Y-109849999D01*
X92832172Y-109850000D01*
X93480000Y-109850000D01*
X93480000Y-108933012D01*
X93537007Y-108965925D01*
X93664174Y-109000000D01*
X93795826Y-109000000D01*
X93922993Y-108965925D01*
X93980000Y-108933012D01*
X93980000Y-109850000D01*
X94627828Y-109850000D01*
X94627844Y-109849999D01*
X94687372Y-109843598D01*
X94687379Y-109843596D01*
X94822086Y-109793354D01*
X94822093Y-109793350D01*
X94937187Y-109707190D01*
X94937190Y-109707187D01*
X95023350Y-109592093D01*
X95023354Y-109592086D01*
X95072422Y-109460529D01*
X95114293Y-109404595D01*
X95179757Y-109380178D01*
X95248030Y-109395030D01*
X95276285Y-109416181D01*
X95390213Y-109530109D01*
X95562179Y-109655048D01*
X95562181Y-109655049D01*
X95562184Y-109655051D01*
X95751588Y-109751557D01*
X95953757Y-109817246D01*
X96163713Y-109850500D01*
X96163714Y-109850500D01*
X96376286Y-109850500D01*
X96376287Y-109850500D01*
X96586243Y-109817246D01*
X96788412Y-109751557D01*
X96977816Y-109655051D01*
X97064471Y-109592093D01*
X97149786Y-109530109D01*
X97149788Y-109530106D01*
X97149792Y-109530104D01*
X97300104Y-109379792D01*
X97300106Y-109379788D01*
X97300109Y-109379786D01*
X97425048Y-109207820D01*
X97425047Y-109207820D01*
X97425051Y-109207816D01*
X97429514Y-109199054D01*
X97477488Y-109148259D01*
X97545308Y-109131463D01*
X97611444Y-109153999D01*
X97650486Y-109199056D01*
X97654951Y-109207820D01*
X97779890Y-109379786D01*
X97930213Y-109530109D01*
X98102179Y-109655048D01*
X98102181Y-109655049D01*
X98102184Y-109655051D01*
X98291588Y-109751557D01*
X98493757Y-109817246D01*
X98703713Y-109850500D01*
X98703714Y-109850500D01*
X98916285Y-109850500D01*
X98916287Y-109850500D01*
X99007104Y-109836115D01*
X99076394Y-109845069D01*
X99129847Y-109890065D01*
X99150487Y-109956816D01*
X99150500Y-109958588D01*
X99150500Y-110903334D01*
X99130815Y-110970373D01*
X99078011Y-111016128D01*
X99050691Y-111024951D01*
X99031240Y-111028820D01*
X99031228Y-111028823D01*
X98925974Y-111072420D01*
X98925974Y-111072421D01*
X99114181Y-111260627D01*
X99147666Y-111321950D01*
X99150500Y-111348308D01*
X99150500Y-111704691D01*
X99130815Y-111771730D01*
X99078011Y-111817485D01*
X99008853Y-111827429D01*
X98945297Y-111798404D01*
X98938819Y-111792372D01*
X98572421Y-111425974D01*
X98572420Y-111425974D01*
X98528823Y-111531228D01*
X98528820Y-111531240D01*
X98500000Y-111676126D01*
X98500000Y-111823873D01*
X98528820Y-111968759D01*
X98528823Y-111968771D01*
X98573880Y-112077548D01*
X98581349Y-112147017D01*
X98573880Y-112172452D01*
X98528823Y-112281228D01*
X98528820Y-112281240D01*
X98500000Y-112426126D01*
X98500000Y-112573873D01*
X98528820Y-112718759D01*
X98528823Y-112718771D01*
X98573880Y-112827548D01*
X98581349Y-112897017D01*
X98573880Y-112922452D01*
X98528823Y-113031228D01*
X98528820Y-113031240D01*
X98500000Y-113176126D01*
X98500000Y-113323873D01*
X98528820Y-113468759D01*
X98528822Y-113468767D01*
X98572421Y-113574024D01*
X98985542Y-113160904D01*
X98993487Y-113156565D01*
X98998913Y-113149318D01*
X99023672Y-113140083D01*
X99046865Y-113127419D01*
X99055894Y-113128064D01*
X99064377Y-113124901D01*
X99090197Y-113130517D01*
X99116557Y-113132403D01*
X99125610Y-113138221D01*
X99132650Y-113139753D01*
X99160904Y-113160904D01*
X99179289Y-113179289D01*
X99165224Y-113193355D01*
X99150000Y-113230109D01*
X99150000Y-113269891D01*
X99165224Y-113306645D01*
X99193355Y-113334776D01*
X99230109Y-113350000D01*
X99269891Y-113350000D01*
X99287695Y-113342625D01*
X99318048Y-113388052D01*
X99318050Y-113388054D01*
X99320573Y-113391830D01*
X99339457Y-113452144D01*
X99341450Y-113458508D01*
X99322965Y-113525888D01*
X99322962Y-113525890D01*
X99305151Y-113548401D01*
X98925974Y-113927577D01*
X99031236Y-113971178D01*
X99031240Y-113971179D01*
X99176126Y-113999999D01*
X99176129Y-114000000D01*
X99323871Y-114000000D01*
X99323873Y-113999999D01*
X99468759Y-113971179D01*
X99468767Y-113971177D01*
X99605254Y-113914642D01*
X99605265Y-113914636D01*
X99664140Y-113875297D01*
X99730817Y-113854418D01*
X99798197Y-113872902D01*
X99820713Y-113890717D01*
X102867815Y-116937819D01*
X102878427Y-116957255D01*
X102892928Y-116973989D01*
X102894844Y-116987320D01*
X102901300Y-116999142D01*
X102899720Y-117021228D01*
X102902872Y-117043147D01*
X102897276Y-117055398D01*
X102896316Y-117068834D01*
X102883045Y-117086560D01*
X102873847Y-117106703D01*
X102862515Y-117113985D01*
X102854444Y-117124767D01*
X102833698Y-117132504D01*
X102815069Y-117144477D01*
X102793150Y-117147628D01*
X102788980Y-117149184D01*
X102780134Y-117149500D01*
X102586670Y-117149500D01*
X102586654Y-117149499D01*
X102579058Y-117149499D01*
X102420943Y-117149499D01*
X102344579Y-117169961D01*
X102268214Y-117190423D01*
X102268209Y-117190426D01*
X102131290Y-117269475D01*
X102131282Y-117269481D01*
X101485339Y-117915425D01*
X101424016Y-117948910D01*
X101421850Y-117949361D01*
X101266508Y-117980261D01*
X101266498Y-117980264D01*
X101120827Y-118040602D01*
X101120814Y-118040609D01*
X100989711Y-118128210D01*
X100989707Y-118128213D01*
X100878213Y-118239707D01*
X100878210Y-118239711D01*
X100790609Y-118370814D01*
X100790602Y-118370827D01*
X100730264Y-118516498D01*
X100730261Y-118516510D01*
X100699500Y-118671153D01*
X100699500Y-118828846D01*
X100730261Y-118983489D01*
X100730264Y-118983501D01*
X100790602Y-119129172D01*
X100790609Y-119129185D01*
X100878210Y-119260288D01*
X100878213Y-119260292D01*
X100989707Y-119371786D01*
X100989711Y-119371789D01*
X101120814Y-119459390D01*
X101120827Y-119459397D01*
X101260528Y-119517262D01*
X101266503Y-119519737D01*
X101421153Y-119550499D01*
X101421156Y-119550500D01*
X101421158Y-119550500D01*
X101578844Y-119550500D01*
X101578845Y-119550499D01*
X101733497Y-119519737D01*
X101851599Y-119470818D01*
X101879172Y-119459397D01*
X101879172Y-119459396D01*
X101879179Y-119459394D01*
X102010289Y-119371789D01*
X102121789Y-119260289D01*
X102209394Y-119129179D01*
X102269737Y-118983497D01*
X102293513Y-118863970D01*
X102300638Y-118828150D01*
X102333023Y-118766239D01*
X102334514Y-118764720D01*
X102712417Y-118386819D01*
X102739344Y-118372115D01*
X102765163Y-118355523D01*
X102771363Y-118354631D01*
X102773740Y-118353334D01*
X102800098Y-118350500D01*
X102920234Y-118350500D01*
X102987273Y-118370185D01*
X102989125Y-118371398D01*
X103120814Y-118459390D01*
X103120827Y-118459397D01*
X103220060Y-118500500D01*
X103266503Y-118519737D01*
X103421153Y-118550499D01*
X103421156Y-118550500D01*
X103421158Y-118550500D01*
X103578844Y-118550500D01*
X103578845Y-118550499D01*
X103733497Y-118519737D01*
X103879179Y-118459394D01*
X103931110Y-118424694D01*
X103997785Y-118403816D01*
X104065165Y-118422300D01*
X104068863Y-118424676D01*
X104120821Y-118459394D01*
X104120823Y-118459395D01*
X104120825Y-118459396D01*
X104220060Y-118500500D01*
X104266503Y-118519737D01*
X104421153Y-118550499D01*
X104421156Y-118550500D01*
X104421158Y-118550500D01*
X104578844Y-118550500D01*
X104578845Y-118550499D01*
X104733497Y-118519737D01*
X104879179Y-118459394D01*
X105010289Y-118371789D01*
X105121789Y-118260289D01*
X105209394Y-118129179D01*
X105269737Y-117983497D01*
X105300500Y-117828842D01*
X105300500Y-117671158D01*
X105300500Y-117671155D01*
X105300499Y-117671153D01*
X105269739Y-117516511D01*
X105269738Y-117516508D01*
X105269737Y-117516503D01*
X105259937Y-117492844D01*
X105250500Y-117445396D01*
X105250500Y-117434715D01*
X105221659Y-117289728D01*
X105221658Y-117289727D01*
X105221658Y-117289723D01*
X105165130Y-117153251D01*
X105165087Y-117153147D01*
X105165080Y-117153134D01*
X105082952Y-117030221D01*
X105040051Y-116987320D01*
X104978416Y-116925685D01*
X103174517Y-115121786D01*
X101313336Y-113260604D01*
X101279851Y-113199281D01*
X101284835Y-113129589D01*
X101326707Y-113073656D01*
X101392171Y-113049239D01*
X101415017Y-113050669D01*
X101415093Y-113049903D01*
X101421156Y-113050500D01*
X101421158Y-113050500D01*
X101578844Y-113050500D01*
X101578845Y-113050499D01*
X101733497Y-113019737D01*
X101789182Y-112996670D01*
X101858651Y-112989202D01*
X101921130Y-113020477D01*
X101924316Y-113023551D01*
X103415425Y-114514660D01*
X103448910Y-114575983D01*
X103449361Y-114578149D01*
X103480261Y-114733491D01*
X103480264Y-114733501D01*
X103540602Y-114879172D01*
X103540609Y-114879185D01*
X103628210Y-115010288D01*
X103628213Y-115010292D01*
X103739707Y-115121786D01*
X103739711Y-115121789D01*
X103870814Y-115209390D01*
X103870827Y-115209397D01*
X104016498Y-115269735D01*
X104016503Y-115269737D01*
X104171153Y-115300499D01*
X104171156Y-115300500D01*
X104171158Y-115300500D01*
X104328844Y-115300500D01*
X104328845Y-115300499D01*
X104483497Y-115269737D01*
X104629179Y-115209394D01*
X104760289Y-115121789D01*
X104871789Y-115010289D01*
X104959394Y-114879179D01*
X104962854Y-114870827D01*
X105000259Y-114780521D01*
X105019737Y-114733497D01*
X105050500Y-114578842D01*
X105050500Y-114421158D01*
X105050500Y-114421155D01*
X105050499Y-114421153D01*
X105019737Y-114266503D01*
X105019735Y-114266498D01*
X104959397Y-114120827D01*
X104959390Y-114120814D01*
X104871789Y-113989711D01*
X104871786Y-113989707D01*
X104760292Y-113878213D01*
X104760288Y-113878210D01*
X104629185Y-113790609D01*
X104629172Y-113790602D01*
X104483501Y-113730264D01*
X104483491Y-113730261D01*
X104328151Y-113699362D01*
X104266241Y-113666977D01*
X104264662Y-113665426D01*
X102487590Y-111888355D01*
X102487588Y-111888352D01*
X102368717Y-111769481D01*
X102368716Y-111769480D01*
X102281904Y-111719360D01*
X102281904Y-111719359D01*
X102281900Y-111719358D01*
X102231785Y-111690423D01*
X102080927Y-111650000D01*
X102079054Y-111649498D01*
X102070997Y-111648438D01*
X102071188Y-111646981D01*
X102012725Y-111629814D01*
X102010873Y-111628601D01*
X101879185Y-111540609D01*
X101879172Y-111540602D01*
X101733501Y-111480264D01*
X101733489Y-111480261D01*
X101578845Y-111449500D01*
X101578842Y-111449500D01*
X101421158Y-111449500D01*
X101421155Y-111449500D01*
X101266510Y-111480261D01*
X101266498Y-111480264D01*
X101120827Y-111540602D01*
X101120814Y-111540609D01*
X100989711Y-111628210D01*
X100989707Y-111628213D01*
X100878213Y-111739707D01*
X100874347Y-111744419D01*
X100873298Y-111743558D01*
X100824986Y-111783932D01*
X100755661Y-111792637D01*
X100692634Y-111762480D01*
X100655917Y-111703035D01*
X100651500Y-111670234D01*
X100651500Y-109862147D01*
X100671185Y-109795108D01*
X100723989Y-109749353D01*
X100793147Y-109739409D01*
X100826903Y-109750113D01*
X100827079Y-109749690D01*
X100831580Y-109751554D01*
X100831585Y-109751555D01*
X100831588Y-109751557D01*
X101033757Y-109817246D01*
X101243713Y-109850500D01*
X101243714Y-109850500D01*
X101456286Y-109850500D01*
X101456287Y-109850500D01*
X101666243Y-109817246D01*
X101708523Y-109803507D01*
X101778362Y-109801511D01*
X101834522Y-109833757D01*
X102865139Y-110864374D01*
X102865149Y-110864385D01*
X102869479Y-110868715D01*
X102869480Y-110868716D01*
X102981284Y-110980520D01*
X103063621Y-111028057D01*
X103118215Y-111059577D01*
X103270943Y-111100500D01*
X103429057Y-111100500D01*
X111449903Y-111100500D01*
X111516942Y-111120185D01*
X111537583Y-111136818D01*
X112381284Y-111980520D01*
X112381286Y-111980521D01*
X112381290Y-111980524D01*
X112448767Y-112019481D01*
X112518216Y-112059577D01*
X112670943Y-112100501D01*
X112670945Y-112100501D01*
X112679002Y-112101562D01*
X112678810Y-112103018D01*
X112737275Y-112120186D01*
X112739127Y-112121399D01*
X112870814Y-112209390D01*
X112870827Y-112209397D01*
X113016498Y-112269735D01*
X113016503Y-112269737D01*
X113170680Y-112300405D01*
X113171153Y-112300499D01*
X113171156Y-112300500D01*
X113171158Y-112300500D01*
X113328844Y-112300500D01*
X113328845Y-112300499D01*
X113483497Y-112269737D01*
X113629179Y-112209394D01*
X113760289Y-112121789D01*
X113871789Y-112010289D01*
X113959394Y-111879179D01*
X114019737Y-111733497D01*
X114050500Y-111578842D01*
X114050500Y-111421158D01*
X114050500Y-111421155D01*
X114050499Y-111421153D01*
X114019738Y-111266510D01*
X114019737Y-111266503D01*
X113966021Y-111136819D01*
X113959397Y-111120827D01*
X113959390Y-111120814D01*
X113871789Y-110989711D01*
X113871786Y-110989707D01*
X113760292Y-110878213D01*
X113760288Y-110878210D01*
X113629185Y-110790609D01*
X113629172Y-110790602D01*
X113483501Y-110730264D01*
X113483489Y-110730261D01*
X113328845Y-110699500D01*
X113328842Y-110699500D01*
X113171158Y-110699500D01*
X113171155Y-110699500D01*
X113016505Y-110730261D01*
X113016497Y-110730264D01*
X112960814Y-110753328D01*
X112891345Y-110760795D01*
X112828866Y-110729519D01*
X112825683Y-110726447D01*
X112237590Y-110138355D01*
X112237588Y-110138352D01*
X112118717Y-110019481D01*
X112118716Y-110019480D01*
X112031904Y-109969360D01*
X112031904Y-109969359D01*
X112031902Y-109969359D01*
X112027655Y-109966907D01*
X111979439Y-109916340D01*
X111966216Y-109847733D01*
X111992184Y-109782868D01*
X112033359Y-109749035D01*
X112217816Y-109655051D01*
X112304471Y-109592093D01*
X112389786Y-109530109D01*
X112389788Y-109530106D01*
X112389792Y-109530104D01*
X112540104Y-109379792D01*
X112540106Y-109379788D01*
X112540109Y-109379786D01*
X112665048Y-109207820D01*
X112665047Y-109207820D01*
X112665051Y-109207816D01*
X112669514Y-109199054D01*
X112717488Y-109148259D01*
X112785308Y-109131463D01*
X112851444Y-109153999D01*
X112890486Y-109199056D01*
X112894951Y-109207820D01*
X113019890Y-109379786D01*
X113170213Y-109530109D01*
X113342179Y-109655048D01*
X113342181Y-109655049D01*
X113342184Y-109655051D01*
X113531588Y-109751557D01*
X113733757Y-109817246D01*
X113943713Y-109850500D01*
X113943714Y-109850500D01*
X114156286Y-109850500D01*
X114156287Y-109850500D01*
X114366243Y-109817246D01*
X114568412Y-109751557D01*
X114757816Y-109655051D01*
X114844471Y-109592093D01*
X114929786Y-109530109D01*
X114929788Y-109530106D01*
X114929792Y-109530104D01*
X115080104Y-109379792D01*
X115080106Y-109379788D01*
X115080109Y-109379786D01*
X115205048Y-109207820D01*
X115205047Y-109207820D01*
X115205051Y-109207816D01*
X115209514Y-109199054D01*
X115257488Y-109148259D01*
X115325308Y-109131463D01*
X115391444Y-109153999D01*
X115430486Y-109199056D01*
X115434951Y-109207820D01*
X115559890Y-109379786D01*
X115710213Y-109530109D01*
X115882179Y-109655048D01*
X115882181Y-109655049D01*
X115882184Y-109655051D01*
X116071588Y-109751557D01*
X116273757Y-109817246D01*
X116483713Y-109850500D01*
X116483714Y-109850500D01*
X116696286Y-109850500D01*
X116696287Y-109850500D01*
X116906243Y-109817246D01*
X117108412Y-109751557D01*
X117297816Y-109655051D01*
X117384471Y-109592093D01*
X117469786Y-109530109D01*
X117469788Y-109530106D01*
X117469792Y-109530104D01*
X117620104Y-109379792D01*
X117620106Y-109379788D01*
X117620109Y-109379786D01*
X117745048Y-109207820D01*
X117745047Y-109207820D01*
X117745051Y-109207816D01*
X117749514Y-109199054D01*
X117797488Y-109148259D01*
X117865308Y-109131463D01*
X117931444Y-109153999D01*
X117970486Y-109199056D01*
X117974951Y-109207820D01*
X118099890Y-109379786D01*
X118250213Y-109530109D01*
X118422179Y-109655048D01*
X118422181Y-109655049D01*
X118422184Y-109655051D01*
X118611588Y-109751557D01*
X118813757Y-109817246D01*
X119023713Y-109850500D01*
X119023714Y-109850500D01*
X119236286Y-109850500D01*
X119236287Y-109850500D01*
X119446243Y-109817246D01*
X119648412Y-109751557D01*
X119837816Y-109655051D01*
X119924471Y-109592093D01*
X120009786Y-109530109D01*
X120009788Y-109530106D01*
X120009792Y-109530104D01*
X120160104Y-109379792D01*
X120160106Y-109379788D01*
X120160109Y-109379786D01*
X120285048Y-109207820D01*
X120285047Y-109207820D01*
X120285051Y-109207816D01*
X120289514Y-109199054D01*
X120337488Y-109148259D01*
X120405308Y-109131463D01*
X120471444Y-109153999D01*
X120510486Y-109199056D01*
X120514951Y-109207820D01*
X120639890Y-109379786D01*
X120790213Y-109530109D01*
X120962179Y-109655048D01*
X120962181Y-109655049D01*
X120962184Y-109655051D01*
X121151588Y-109751557D01*
X121353757Y-109817246D01*
X121563713Y-109850500D01*
X121563714Y-109850500D01*
X121776286Y-109850500D01*
X121776287Y-109850500D01*
X121986243Y-109817246D01*
X122188412Y-109751557D01*
X122377816Y-109655051D01*
X122464471Y-109592093D01*
X122549786Y-109530109D01*
X122549788Y-109530106D01*
X122549792Y-109530104D01*
X122700104Y-109379792D01*
X122700106Y-109379788D01*
X122700109Y-109379786D01*
X122825048Y-109207820D01*
X122825047Y-109207820D01*
X122825051Y-109207816D01*
X122829514Y-109199054D01*
X122877488Y-109148259D01*
X122945308Y-109131463D01*
X123011444Y-109153999D01*
X123050486Y-109199056D01*
X123054951Y-109207820D01*
X123179890Y-109379786D01*
X123330213Y-109530109D01*
X123502179Y-109655048D01*
X123502181Y-109655049D01*
X123502184Y-109655051D01*
X123691588Y-109751557D01*
X123893757Y-109817246D01*
X124103713Y-109850500D01*
X124103714Y-109850500D01*
X124316286Y-109850500D01*
X124316287Y-109850500D01*
X124526243Y-109817246D01*
X124728412Y-109751557D01*
X124917816Y-109655051D01*
X125004471Y-109592093D01*
X125089786Y-109530109D01*
X125089788Y-109530106D01*
X125089792Y-109530104D01*
X125240104Y-109379792D01*
X125240106Y-109379788D01*
X125240109Y-109379786D01*
X125365048Y-109207820D01*
X125365047Y-109207820D01*
X125365051Y-109207816D01*
X125369514Y-109199054D01*
X125417488Y-109148259D01*
X125485308Y-109131463D01*
X125551444Y-109153999D01*
X125590486Y-109199056D01*
X125594951Y-109207820D01*
X125719890Y-109379786D01*
X125870213Y-109530109D01*
X126042179Y-109655048D01*
X126042181Y-109655049D01*
X126042184Y-109655051D01*
X126231588Y-109751557D01*
X126433757Y-109817246D01*
X126643713Y-109850500D01*
X126643714Y-109850500D01*
X126856286Y-109850500D01*
X126856287Y-109850500D01*
X127066243Y-109817246D01*
X127268412Y-109751557D01*
X127457816Y-109655051D01*
X127544471Y-109592093D01*
X127629786Y-109530109D01*
X127629788Y-109530106D01*
X127629792Y-109530104D01*
X127780104Y-109379792D01*
X127780106Y-109379788D01*
X127780109Y-109379786D01*
X127905048Y-109207820D01*
X127905047Y-109207820D01*
X127905051Y-109207816D01*
X127909514Y-109199054D01*
X127957488Y-109148259D01*
X128025308Y-109131463D01*
X128091444Y-109153999D01*
X128130486Y-109199056D01*
X128134951Y-109207820D01*
X128259890Y-109379786D01*
X128410213Y-109530109D01*
X128582179Y-109655048D01*
X128582181Y-109655049D01*
X128582184Y-109655051D01*
X128771588Y-109751557D01*
X128973757Y-109817246D01*
X129183713Y-109850500D01*
X129183714Y-109850500D01*
X129396286Y-109850500D01*
X129396287Y-109850500D01*
X129606243Y-109817246D01*
X129808412Y-109751557D01*
X129997816Y-109655051D01*
X130084471Y-109592093D01*
X130169786Y-109530109D01*
X130169788Y-109530106D01*
X130169792Y-109530104D01*
X130320104Y-109379792D01*
X130320106Y-109379788D01*
X130320109Y-109379786D01*
X130445048Y-109207820D01*
X130445047Y-109207820D01*
X130445051Y-109207816D01*
X130449514Y-109199054D01*
X130497488Y-109148259D01*
X130565308Y-109131463D01*
X130631444Y-109153999D01*
X130670486Y-109199056D01*
X130674951Y-109207820D01*
X130799890Y-109379786D01*
X130950213Y-109530109D01*
X131122179Y-109655048D01*
X131122181Y-109655049D01*
X131122184Y-109655051D01*
X131311588Y-109751557D01*
X131513757Y-109817246D01*
X131723713Y-109850500D01*
X131723714Y-109850500D01*
X131936286Y-109850500D01*
X131936287Y-109850500D01*
X132146243Y-109817246D01*
X132348412Y-109751557D01*
X132537816Y-109655051D01*
X132624471Y-109592093D01*
X132709786Y-109530109D01*
X132709788Y-109530106D01*
X132709792Y-109530104D01*
X132860104Y-109379792D01*
X132860106Y-109379788D01*
X132860109Y-109379786D01*
X132985048Y-109207820D01*
X132985047Y-109207820D01*
X132985051Y-109207816D01*
X133081557Y-109018412D01*
X133147246Y-108816243D01*
X133180500Y-108606287D01*
X133180500Y-108393713D01*
X134899500Y-108393713D01*
X134899500Y-108606286D01*
X134932753Y-108816239D01*
X134998444Y-109018414D01*
X135094951Y-109207820D01*
X135219890Y-109379786D01*
X135370213Y-109530109D01*
X135542179Y-109655048D01*
X135542181Y-109655049D01*
X135542184Y-109655051D01*
X135731588Y-109751557D01*
X135933757Y-109817246D01*
X136143713Y-109850500D01*
X136143714Y-109850500D01*
X136356286Y-109850500D01*
X136356287Y-109850500D01*
X136566243Y-109817246D01*
X136768412Y-109751557D01*
X136957816Y-109655051D01*
X137044471Y-109592093D01*
X137129786Y-109530109D01*
X137129788Y-109530106D01*
X137129792Y-109530104D01*
X137280104Y-109379792D01*
X137280106Y-109379788D01*
X137280109Y-109379786D01*
X137405048Y-109207820D01*
X137405047Y-109207820D01*
X137405051Y-109207816D01*
X137501557Y-109018412D01*
X137567246Y-108816243D01*
X137600500Y-108606287D01*
X137600500Y-108393713D01*
X137567246Y-108183757D01*
X137501557Y-107981588D01*
X137405051Y-107792184D01*
X137405049Y-107792181D01*
X137405048Y-107792179D01*
X137280109Y-107620213D01*
X137129786Y-107469890D01*
X136957820Y-107344951D01*
X136768414Y-107248444D01*
X136768413Y-107248443D01*
X136768412Y-107248443D01*
X136566243Y-107182754D01*
X136566241Y-107182753D01*
X136566240Y-107182753D01*
X136404957Y-107157208D01*
X136356287Y-107149500D01*
X136143713Y-107149500D01*
X136095042Y-107157208D01*
X135933760Y-107182753D01*
X135731585Y-107248444D01*
X135542179Y-107344951D01*
X135370213Y-107469890D01*
X135219890Y-107620213D01*
X135094951Y-107792179D01*
X134998444Y-107981585D01*
X134932753Y-108183760D01*
X134899500Y-108393713D01*
X133180500Y-108393713D01*
X133147246Y-108183757D01*
X133081557Y-107981588D01*
X132985051Y-107792184D01*
X132985049Y-107792181D01*
X132985048Y-107792179D01*
X132860109Y-107620213D01*
X132709786Y-107469890D01*
X132537820Y-107344951D01*
X132348414Y-107248444D01*
X132348413Y-107248443D01*
X132348412Y-107248443D01*
X132146243Y-107182754D01*
X132146241Y-107182753D01*
X132146240Y-107182753D01*
X131984957Y-107157208D01*
X131936287Y-107149500D01*
X131723713Y-107149500D01*
X131675042Y-107157208D01*
X131513760Y-107182753D01*
X131311585Y-107248444D01*
X131122179Y-107344951D01*
X130950213Y-107469890D01*
X130799890Y-107620213D01*
X130674949Y-107792182D01*
X130670484Y-107800946D01*
X130622509Y-107851742D01*
X130554688Y-107868536D01*
X130488553Y-107845998D01*
X130449516Y-107800946D01*
X130445050Y-107792182D01*
X130320109Y-107620213D01*
X130169786Y-107469890D01*
X129997820Y-107344951D01*
X129808414Y-107248444D01*
X129808413Y-107248443D01*
X129808412Y-107248443D01*
X129606243Y-107182754D01*
X129606241Y-107182753D01*
X129606240Y-107182753D01*
X129444957Y-107157208D01*
X129396287Y-107149500D01*
X129183713Y-107149500D01*
X129135042Y-107157208D01*
X128973760Y-107182753D01*
X128771585Y-107248444D01*
X128582179Y-107344951D01*
X128410213Y-107469890D01*
X128259890Y-107620213D01*
X128134949Y-107792182D01*
X128130484Y-107800946D01*
X128082509Y-107851742D01*
X128014688Y-107868536D01*
X127948553Y-107845998D01*
X127909516Y-107800946D01*
X127905050Y-107792182D01*
X127780109Y-107620213D01*
X127629786Y-107469890D01*
X127457820Y-107344951D01*
X127268414Y-107248444D01*
X127268413Y-107248443D01*
X127268412Y-107248443D01*
X127066243Y-107182754D01*
X127066241Y-107182753D01*
X127066240Y-107182753D01*
X126904957Y-107157208D01*
X126856287Y-107149500D01*
X126643713Y-107149500D01*
X126595042Y-107157208D01*
X126433760Y-107182753D01*
X126231585Y-107248444D01*
X126042179Y-107344951D01*
X125870213Y-107469890D01*
X125719890Y-107620213D01*
X125594949Y-107792182D01*
X125590484Y-107800946D01*
X125542509Y-107851742D01*
X125474688Y-107868536D01*
X125408553Y-107845998D01*
X125369516Y-107800946D01*
X125365050Y-107792182D01*
X125240109Y-107620213D01*
X125089786Y-107469890D01*
X124917820Y-107344951D01*
X124728414Y-107248444D01*
X124728413Y-107248443D01*
X124728412Y-107248443D01*
X124526243Y-107182754D01*
X124526241Y-107182753D01*
X124526240Y-107182753D01*
X124364957Y-107157208D01*
X124316287Y-107149500D01*
X124103713Y-107149500D01*
X124055042Y-107157208D01*
X123893760Y-107182753D01*
X123691585Y-107248444D01*
X123502179Y-107344951D01*
X123330213Y-107469890D01*
X123179890Y-107620213D01*
X123054949Y-107792182D01*
X123050484Y-107800946D01*
X123002509Y-107851742D01*
X122934688Y-107868536D01*
X122868553Y-107845998D01*
X122829516Y-107800946D01*
X122825050Y-107792182D01*
X122700109Y-107620213D01*
X122549786Y-107469890D01*
X122377820Y-107344951D01*
X122188414Y-107248444D01*
X122188413Y-107248443D01*
X122188412Y-107248443D01*
X121986243Y-107182754D01*
X121986241Y-107182753D01*
X121986240Y-107182753D01*
X121824957Y-107157208D01*
X121776287Y-107149500D01*
X121563713Y-107149500D01*
X121515042Y-107157208D01*
X121353760Y-107182753D01*
X121151585Y-107248444D01*
X120962179Y-107344951D01*
X120790213Y-107469890D01*
X120639890Y-107620213D01*
X120514949Y-107792182D01*
X120510484Y-107800946D01*
X120462509Y-107851742D01*
X120394688Y-107868536D01*
X120328553Y-107845998D01*
X120289516Y-107800946D01*
X120285050Y-107792182D01*
X120160109Y-107620213D01*
X120009786Y-107469890D01*
X119837820Y-107344951D01*
X119648414Y-107248444D01*
X119648413Y-107248443D01*
X119648412Y-107248443D01*
X119446243Y-107182754D01*
X119446241Y-107182753D01*
X119446240Y-107182753D01*
X119284957Y-107157208D01*
X119236287Y-107149500D01*
X119023713Y-107149500D01*
X118975042Y-107157208D01*
X118813760Y-107182753D01*
X118611585Y-107248444D01*
X118422179Y-107344951D01*
X118250213Y-107469890D01*
X118099890Y-107620213D01*
X117974949Y-107792182D01*
X117970484Y-107800946D01*
X117922509Y-107851742D01*
X117854688Y-107868536D01*
X117788553Y-107845998D01*
X117749516Y-107800946D01*
X117745050Y-107792182D01*
X117620109Y-107620213D01*
X117469786Y-107469890D01*
X117297820Y-107344951D01*
X117108414Y-107248444D01*
X117108413Y-107248443D01*
X117108412Y-107248443D01*
X116906243Y-107182754D01*
X116906241Y-107182753D01*
X116906240Y-107182753D01*
X116744957Y-107157208D01*
X116696287Y-107149500D01*
X116483713Y-107149500D01*
X116435042Y-107157208D01*
X116273760Y-107182753D01*
X116071585Y-107248444D01*
X115882179Y-107344951D01*
X115710213Y-107469890D01*
X115559890Y-107620213D01*
X115434949Y-107792182D01*
X115430484Y-107800946D01*
X115382509Y-107851742D01*
X115314688Y-107868536D01*
X115248553Y-107845998D01*
X115209516Y-107800946D01*
X115205050Y-107792182D01*
X115080109Y-107620213D01*
X114929786Y-107469890D01*
X114757820Y-107344951D01*
X114568414Y-107248444D01*
X114568413Y-107248443D01*
X114568412Y-107248443D01*
X114366243Y-107182754D01*
X114366241Y-107182753D01*
X114366240Y-107182753D01*
X114204957Y-107157208D01*
X114156287Y-107149500D01*
X113943713Y-107149500D01*
X113895042Y-107157208D01*
X113733760Y-107182753D01*
X113531585Y-107248444D01*
X113342179Y-107344951D01*
X113170213Y-107469890D01*
X113019890Y-107620213D01*
X112894949Y-107792182D01*
X112890484Y-107800946D01*
X112842509Y-107851742D01*
X112774688Y-107868536D01*
X112708553Y-107845998D01*
X112669516Y-107800946D01*
X112665050Y-107792182D01*
X112540109Y-107620213D01*
X112389786Y-107469890D01*
X112217820Y-107344951D01*
X112028414Y-107248444D01*
X112028413Y-107248443D01*
X112028412Y-107248443D01*
X111826243Y-107182754D01*
X111826241Y-107182753D01*
X111826240Y-107182753D01*
X111664957Y-107157208D01*
X111616287Y-107149500D01*
X111403713Y-107149500D01*
X111355042Y-107157208D01*
X111193760Y-107182753D01*
X110991585Y-107248444D01*
X110802179Y-107344951D01*
X110630213Y-107469890D01*
X110479890Y-107620213D01*
X110354949Y-107792182D01*
X110350484Y-107800946D01*
X110302509Y-107851742D01*
X110234688Y-107868536D01*
X110168553Y-107845998D01*
X110129516Y-107800946D01*
X110125050Y-107792182D01*
X110000109Y-107620213D01*
X109849786Y-107469890D01*
X109677820Y-107344951D01*
X109488414Y-107248444D01*
X109488413Y-107248443D01*
X109488412Y-107248443D01*
X109286243Y-107182754D01*
X109286241Y-107182753D01*
X109286240Y-107182753D01*
X109124957Y-107157208D01*
X109076287Y-107149500D01*
X108863713Y-107149500D01*
X108815042Y-107157208D01*
X108653760Y-107182753D01*
X108451585Y-107248444D01*
X108262179Y-107344951D01*
X108090213Y-107469890D01*
X107939890Y-107620213D01*
X107814949Y-107792182D01*
X107810484Y-107800946D01*
X107762509Y-107851742D01*
X107694688Y-107868536D01*
X107628553Y-107845998D01*
X107589516Y-107800946D01*
X107585050Y-107792182D01*
X107460109Y-107620213D01*
X107309786Y-107469890D01*
X107137820Y-107344951D01*
X106948414Y-107248444D01*
X106948413Y-107248443D01*
X106948412Y-107248443D01*
X106746243Y-107182754D01*
X106746241Y-107182753D01*
X106746240Y-107182753D01*
X106584957Y-107157208D01*
X106536287Y-107149500D01*
X106323713Y-107149500D01*
X106275042Y-107157208D01*
X106113760Y-107182753D01*
X105911585Y-107248444D01*
X105722179Y-107344951D01*
X105550213Y-107469890D01*
X105399890Y-107620213D01*
X105274949Y-107792182D01*
X105270484Y-107800946D01*
X105222509Y-107851742D01*
X105154688Y-107868536D01*
X105088553Y-107845998D01*
X105049516Y-107800946D01*
X105045050Y-107792182D01*
X104920109Y-107620213D01*
X104769786Y-107469890D01*
X104597820Y-107344951D01*
X104408414Y-107248444D01*
X104408413Y-107248443D01*
X104408412Y-107248443D01*
X104206243Y-107182754D01*
X104206241Y-107182753D01*
X104206240Y-107182753D01*
X104044957Y-107157208D01*
X103996287Y-107149500D01*
X103783713Y-107149500D01*
X103735042Y-107157208D01*
X103573760Y-107182753D01*
X103371585Y-107248444D01*
X103182179Y-107344951D01*
X103010213Y-107469890D01*
X102859890Y-107620213D01*
X102734949Y-107792182D01*
X102730484Y-107800946D01*
X102682509Y-107851742D01*
X102614688Y-107868536D01*
X102548553Y-107845998D01*
X102509516Y-107800946D01*
X102505050Y-107792182D01*
X102380109Y-107620213D01*
X102229786Y-107469890D01*
X102057820Y-107344951D01*
X101868414Y-107248444D01*
X101868413Y-107248443D01*
X101868412Y-107248443D01*
X101666243Y-107182754D01*
X101666241Y-107182753D01*
X101666240Y-107182753D01*
X101504957Y-107157208D01*
X101456287Y-107149500D01*
X101243713Y-107149500D01*
X101195042Y-107157208D01*
X101033760Y-107182753D01*
X100831585Y-107248444D01*
X100642179Y-107344951D01*
X100470213Y-107469890D01*
X100319890Y-107620213D01*
X100194949Y-107792182D01*
X100190484Y-107800946D01*
X100142509Y-107851742D01*
X100074688Y-107868536D01*
X100008553Y-107845998D01*
X99969516Y-107800946D01*
X99965050Y-107792182D01*
X99840109Y-107620213D01*
X99689786Y-107469890D01*
X99517820Y-107344951D01*
X99328414Y-107248444D01*
X99328413Y-107248443D01*
X99328412Y-107248443D01*
X99126243Y-107182754D01*
X99126241Y-107182753D01*
X99126240Y-107182753D01*
X98964957Y-107157208D01*
X98916287Y-107149500D01*
X98703713Y-107149500D01*
X98655042Y-107157208D01*
X98493760Y-107182753D01*
X98291585Y-107248444D01*
X98102179Y-107344951D01*
X97930213Y-107469890D01*
X97779890Y-107620213D01*
X97654949Y-107792182D01*
X97650484Y-107800946D01*
X97602509Y-107851742D01*
X97534688Y-107868536D01*
X97468553Y-107845998D01*
X97429516Y-107800946D01*
X97425050Y-107792182D01*
X97300109Y-107620213D01*
X97149786Y-107469890D01*
X96977820Y-107344951D01*
X96788414Y-107248444D01*
X96788413Y-107248443D01*
X96788412Y-107248443D01*
X96586243Y-107182754D01*
X96586241Y-107182753D01*
X96586240Y-107182753D01*
X96424957Y-107157208D01*
X96376287Y-107149500D01*
X96163713Y-107149500D01*
X96115042Y-107157208D01*
X95953760Y-107182753D01*
X95751585Y-107248444D01*
X95562179Y-107344951D01*
X95390215Y-107469889D01*
X95276285Y-107583819D01*
X95214962Y-107617303D01*
X95145270Y-107612319D01*
X95089337Y-107570447D01*
X95072422Y-107539470D01*
X95023354Y-107407913D01*
X95023350Y-107407906D01*
X94937190Y-107292812D01*
X94937187Y-107292809D01*
X94822093Y-107206649D01*
X94822086Y-107206645D01*
X94687379Y-107156403D01*
X94687372Y-107156401D01*
X94627844Y-107150000D01*
X93980000Y-107150000D01*
X93980000Y-108066988D01*
X93922993Y-108034075D01*
X93795826Y-108000000D01*
X93664174Y-108000000D01*
X93537007Y-108034075D01*
X93480000Y-108066988D01*
X93480000Y-107150000D01*
X92832155Y-107150000D01*
X92772627Y-107156401D01*
X92772620Y-107156403D01*
X92637913Y-107206645D01*
X92637906Y-107206649D01*
X92522812Y-107292809D01*
X92522809Y-107292812D01*
X92436649Y-107407906D01*
X92436645Y-107407913D01*
X92386403Y-107542620D01*
X92386401Y-107542627D01*
X92380000Y-107602155D01*
X90262051Y-107602155D01*
X90129786Y-107469890D01*
X89957820Y-107344951D01*
X89768414Y-107248444D01*
X89768413Y-107248443D01*
X89768412Y-107248443D01*
X89566243Y-107182754D01*
X89566241Y-107182753D01*
X89566240Y-107182753D01*
X89404957Y-107157208D01*
X89356287Y-107149500D01*
X89143713Y-107149500D01*
X89095042Y-107157208D01*
X88933760Y-107182753D01*
X88731585Y-107248444D01*
X88542179Y-107344951D01*
X88370213Y-107469890D01*
X88219890Y-107620213D01*
X88094951Y-107792179D01*
X87998444Y-107981585D01*
X87932753Y-108183760D01*
X87899500Y-108393713D01*
X86500500Y-108393713D01*
X86500500Y-108003750D01*
X86500726Y-107996263D01*
X86513070Y-107792184D01*
X86518271Y-107706201D01*
X86520076Y-107691340D01*
X86533111Y-107620214D01*
X86571780Y-107409197D01*
X86575364Y-107394663D01*
X86590855Y-107344951D01*
X86660696Y-107120822D01*
X86665998Y-107106841D01*
X86783731Y-106845249D01*
X86790676Y-106832016D01*
X86939080Y-106586526D01*
X86947567Y-106574230D01*
X87124480Y-106348417D01*
X87134395Y-106337226D01*
X87337226Y-106134395D01*
X87348417Y-106124480D01*
X87574230Y-105947567D01*
X87586526Y-105939080D01*
X87832016Y-105790676D01*
X87845249Y-105783731D01*
X88106841Y-105665998D01*
X88120822Y-105660696D01*
X88394668Y-105575362D01*
X88409197Y-105571780D01*
X88691344Y-105520075D01*
X88706201Y-105518271D01*
X88996264Y-105500726D01*
X89003751Y-105500500D01*
X89065892Y-105500500D01*
X136934108Y-105500500D01*
X136996249Y-105500500D01*
X137003736Y-105500726D01*
G37*
%TD.AperFunction*%
%TD*%
%TA.AperFunction,NonConductor*%
G36*
X110311444Y-109153999D02*
G01*
X110350486Y-109199056D01*
X110354951Y-109207820D01*
X110479890Y-109379786D01*
X110630213Y-109530109D01*
X110802182Y-109655050D01*
X110821739Y-109665015D01*
X110872536Y-109712989D01*
X110889331Y-109780810D01*
X110866794Y-109846945D01*
X110812079Y-109890397D01*
X110765445Y-109899500D01*
X109714555Y-109899500D01*
X109647516Y-109879815D01*
X109601761Y-109827011D01*
X109591817Y-109757853D01*
X109620842Y-109694297D01*
X109658261Y-109665015D01*
X109668501Y-109659797D01*
X109677816Y-109655051D01*
X109764471Y-109592093D01*
X109849786Y-109530109D01*
X109849788Y-109530106D01*
X109849792Y-109530104D01*
X110000104Y-109379792D01*
X110000106Y-109379788D01*
X110000109Y-109379786D01*
X110125048Y-109207820D01*
X110125047Y-109207820D01*
X110125051Y-109207816D01*
X110129514Y-109199054D01*
X110177488Y-109148259D01*
X110245308Y-109131463D01*
X110311444Y-109153999D01*
G37*
%TD.AperFunction*%
%TA.AperFunction,NonConductor*%
G36*
X118568834Y-113132915D02*
G01*
X118624767Y-113174787D01*
X118649184Y-113240251D01*
X118649500Y-113249097D01*
X118649500Y-113699902D01*
X118629815Y-113766941D01*
X118613181Y-113787583D01*
X117934504Y-114466259D01*
X117912946Y-114478030D01*
X117893748Y-114493356D01*
X117882821Y-114494479D01*
X117873181Y-114499744D01*
X117848678Y-114497991D01*
X117824245Y-114500505D01*
X117814446Y-114495543D01*
X117803489Y-114494760D01*
X117783824Y-114480038D01*
X117761910Y-114468943D01*
X117754311Y-114457945D01*
X117747556Y-114452888D01*
X117739891Y-114441360D01*
X117735548Y-114433963D01*
X117709394Y-114370821D01*
X117621789Y-114239711D01*
X117621086Y-114239008D01*
X117617568Y-114233016D01*
X117609923Y-114202480D01*
X117600520Y-114172447D01*
X117600500Y-114170234D01*
X117600500Y-114050097D01*
X117620185Y-113983058D01*
X117636819Y-113962416D01*
X118437819Y-113161416D01*
X118499142Y-113127931D01*
X118568834Y-113132915D01*
G37*
%TD.AperFunction*%
%TA.AperFunction,NonConductor*%
G36*
X110943039Y-123620185D02*
G01*
X110988794Y-123672989D01*
X111000000Y-123724500D01*
X111000000Y-126376000D01*
X110980315Y-126443039D01*
X110927511Y-126488794D01*
X110876000Y-126500000D01*
X108124000Y-126500000D01*
X108056961Y-126480315D01*
X108011206Y-126427511D01*
X108000000Y-126376000D01*
X108000000Y-123724500D01*
X108019685Y-123657461D01*
X108072489Y-123611706D01*
X108124000Y-123600500D01*
X110876000Y-123600500D01*
X110943039Y-123620185D01*
G37*
%TD.AperFunction*%
M02*
