%TF.GenerationSoftware,KiCad,Pcbnew,9.0.2*%
%TF.CreationDate,2025-06-05T12:53:21-05:00*%
%TF.ProjectId,testing2,74657374-696e-4673-922e-6b696361645f,rev?*%
%TF.SameCoordinates,Original*%
%TF.FileFunction,Paste,Top*%
%TF.FilePolarity,Positive*%
%FSLAX46Y46*%
G04 Gerber Fmt 4.6, Leading zero omitted, Abs format (unit mm)*
G04 Created by KiCad (PCBNEW 9.0.2) date 2025-06-05 12:53:21*
%MOMM*%
%LPD*%
G01*
G04 APERTURE LIST*
G04 Aperture macros list*
%AMRoundRect*
0 Rectangle with rounded corners*
0 $1 Rounding radius*
0 $2 $3 $4 $5 $6 $7 $8 $9 X,Y pos of 4 corners*
0 Add a 4 corners polygon primitive as box body*
4,1,4,$2,$3,$4,$5,$6,$7,$8,$9,$2,$3,0*
0 Add four circle primitives for the rounded corners*
1,1,$1+$1,$2,$3*
1,1,$1+$1,$4,$5*
1,1,$1+$1,$6,$7*
1,1,$1+$1,$8,$9*
0 Add four rect primitives between the rounded corners*
20,1,$1+$1,$2,$3,$4,$5,0*
20,1,$1+$1,$4,$5,$6,$7,0*
20,1,$1+$1,$6,$7,$8,$9,0*
20,1,$1+$1,$8,$9,$2,$3,0*%
G04 Aperture macros list end*
%ADD10RoundRect,0.135000X-0.135000X-0.185000X0.135000X-0.185000X0.135000X0.185000X-0.135000X0.185000X0*%
%ADD11RoundRect,0.218750X0.256250X-0.218750X0.256250X0.218750X-0.256250X0.218750X-0.256250X-0.218750X0*%
%ADD12RoundRect,0.137500X-0.337500X-0.137500X0.337500X-0.137500X0.337500X0.137500X-0.337500X0.137500X0*%
%ADD13RoundRect,0.125000X-0.187500X-0.125000X0.187500X-0.125000X0.187500X0.125000X-0.187500X0.125000X0*%
%ADD14RoundRect,0.225000X0.225000X0.250000X-0.225000X0.250000X-0.225000X-0.250000X0.225000X-0.250000X0*%
%ADD15RoundRect,0.079500X-0.100500X0.079500X-0.100500X-0.079500X0.100500X-0.079500X0.100500X0.079500X0*%
%ADD16R,0.900000X1.000000*%
%ADD17RoundRect,0.225000X-0.250000X0.225000X-0.250000X-0.225000X0.250000X-0.225000X0.250000X0.225000X0*%
%ADD18RoundRect,0.079500X0.100500X-0.079500X0.100500X0.079500X-0.100500X0.079500X-0.100500X-0.079500X0*%
%ADD19RoundRect,0.079500X0.079500X0.100500X-0.079500X0.100500X-0.079500X-0.100500X0.079500X-0.100500X0*%
%ADD20R,0.900000X0.900000*%
%ADD21R,0.900000X1.500000*%
%ADD22R,1.500000X0.900000*%
%ADD23RoundRect,0.079500X-0.079500X-0.100500X0.079500X-0.100500X0.079500X0.100500X-0.079500X0.100500X0*%
%ADD24RoundRect,0.093750X-0.156250X-0.093750X0.156250X-0.093750X0.156250X0.093750X-0.156250X0.093750X0*%
%ADD25RoundRect,0.075000X-0.250000X-0.075000X0.250000X-0.075000X0.250000X0.075000X-0.250000X0.075000X0*%
%ADD26RoundRect,0.375000X-0.625000X-0.375000X0.625000X-0.375000X0.625000X0.375000X-0.625000X0.375000X0*%
%ADD27RoundRect,0.500000X-0.500000X-1.400000X0.500000X-1.400000X0.500000X1.400000X-0.500000X1.400000X0*%
%ADD28RoundRect,0.150000X-0.500000X0.150000X-0.500000X-0.150000X0.500000X-0.150000X0.500000X0.150000X0*%
%ADD29RoundRect,0.075000X-0.575000X0.075000X-0.575000X-0.075000X0.575000X-0.075000X0.575000X0.075000X0*%
%ADD30RoundRect,0.075000X-0.075000X0.350000X-0.075000X-0.350000X0.075000X-0.350000X0.075000X0.350000X0*%
%ADD31RoundRect,0.075000X-0.350000X-0.075000X0.350000X-0.075000X0.350000X0.075000X-0.350000X0.075000X0*%
%ADD32RoundRect,0.225000X-0.225000X-0.250000X0.225000X-0.250000X0.225000X0.250000X-0.225000X0.250000X0*%
%ADD33RoundRect,0.218750X0.218750X0.256250X-0.218750X0.256250X-0.218750X-0.256250X0.218750X-0.256250X0*%
%ADD34RoundRect,0.218750X-0.218750X-0.256250X0.218750X-0.256250X0.218750X0.256250X-0.218750X0.256250X0*%
G04 APERTURE END LIST*
D10*
%TO.C,R10*%
X101740000Y-113500000D03*
X102760000Y-113500000D03*
%TD*%
D11*
%TO.C,D3*%
X102250000Y-117500000D03*
X102250000Y-115925000D03*
%TD*%
D12*
%TO.C,U2*%
X99250000Y-111870000D03*
X99250000Y-112500000D03*
X99250000Y-113130000D03*
D13*
X98187500Y-111525000D03*
X98187500Y-112175000D03*
X98187500Y-112825000D03*
X98187500Y-113475000D03*
X100312500Y-113475000D03*
X100312500Y-112825000D03*
X100312500Y-112175000D03*
X100312500Y-111525000D03*
%TD*%
D14*
%TO.C,C12*%
X100025000Y-115500000D03*
X98475000Y-115500000D03*
%TD*%
D15*
%TO.C,C5*%
X117250000Y-118905000D03*
X117250000Y-119595000D03*
%TD*%
D16*
%TO.C,SW1*%
X88700000Y-113200000D03*
X92800000Y-113200000D03*
X88700000Y-114800000D03*
X92800000Y-114800000D03*
%TD*%
D17*
%TO.C,C1*%
X103500000Y-122225000D03*
X103500000Y-123775000D03*
%TD*%
D14*
%TO.C,C8*%
X96275000Y-111500000D03*
X94725000Y-111500000D03*
%TD*%
D18*
%TO.C,R4*%
X116250000Y-116845000D03*
X116250000Y-116155000D03*
%TD*%
D17*
%TO.C,C4*%
X114750000Y-119225000D03*
X114750000Y-120775000D03*
%TD*%
D19*
%TO.C,R3*%
X103595000Y-118750000D03*
X102905000Y-118750000D03*
%TD*%
D15*
%TO.C,C2*%
X104750000Y-121905000D03*
X104750000Y-122595000D03*
%TD*%
D20*
%TO.C,U1*%
X131180000Y-119350000D03*
X129780000Y-119350000D03*
X128380000Y-119350000D03*
X131180000Y-120750000D03*
X129780000Y-120750000D03*
X128380000Y-120750000D03*
X131180000Y-122150000D03*
X129780000Y-122150000D03*
X128380000Y-122150000D03*
D21*
X137500000Y-113500000D03*
X136230000Y-113500000D03*
X134960000Y-113500000D03*
X133690000Y-113500000D03*
X132420000Y-113500000D03*
X131150000Y-113500000D03*
X129880000Y-113500000D03*
X128610000Y-113500000D03*
X127340000Y-113500000D03*
X126070000Y-113500000D03*
X124800000Y-113500000D03*
X123530000Y-113500000D03*
X122260000Y-113500000D03*
X120990000Y-113500000D03*
D22*
X119740000Y-115265000D03*
X119740000Y-116535000D03*
X119740000Y-117805000D03*
X119740000Y-119075000D03*
X119740000Y-120345000D03*
X119740000Y-121615000D03*
X119740000Y-122885000D03*
X119740000Y-124155000D03*
X119740000Y-125425000D03*
X119740000Y-126695000D03*
X119740000Y-127965000D03*
X119740000Y-129235000D03*
D21*
X120990000Y-131000000D03*
X122260000Y-131000000D03*
X123530000Y-131000000D03*
X124800000Y-131000000D03*
X126070000Y-131000000D03*
X127340000Y-131000000D03*
X128610000Y-131000000D03*
X129880000Y-131000000D03*
X131150000Y-131000000D03*
X132420000Y-131000000D03*
X133690000Y-131000000D03*
X134960000Y-131000000D03*
X136230000Y-131000000D03*
X137500000Y-131000000D03*
%TD*%
D18*
%TO.C,C10*%
X106250000Y-123345000D03*
X106250000Y-122655000D03*
%TD*%
D15*
%TO.C,R7*%
X113500000Y-122655000D03*
X113500000Y-123345000D03*
%TD*%
D23*
%TO.C,R6*%
X103905000Y-113500000D03*
X104595000Y-113500000D03*
%TD*%
%TO.C,R1*%
X97155000Y-124000000D03*
X97845000Y-124000000D03*
%TD*%
D24*
%TO.C,U3*%
X97650000Y-121962500D03*
D25*
X97575000Y-122500000D03*
D24*
X97650000Y-123037500D03*
X99350000Y-123037500D03*
D25*
X99425000Y-122500000D03*
D24*
X99350000Y-121962500D03*
%TD*%
D23*
%TO.C,R2*%
X97155000Y-121000000D03*
X97845000Y-121000000D03*
%TD*%
D26*
%TO.C,U5*%
X106250000Y-115500000D03*
X106250000Y-117800000D03*
D27*
X112550000Y-117800000D03*
D26*
X106250000Y-120100000D03*
%TD*%
D28*
%TO.C,J1*%
X92245000Y-119050000D03*
X92245000Y-119850000D03*
D29*
X92245000Y-121000000D03*
X92245000Y-122000000D03*
X92245000Y-122500000D03*
X92245000Y-123500000D03*
D28*
X92245000Y-124650000D03*
X92245000Y-125450000D03*
X92245000Y-125450000D03*
X92245000Y-124650000D03*
D29*
X92245000Y-124000000D03*
X92245000Y-123000000D03*
X92245000Y-121500000D03*
X92245000Y-120500000D03*
D28*
X92245000Y-119850000D03*
X92245000Y-119050000D03*
%TD*%
D30*
%TO.C,U4*%
X110750000Y-123050000D03*
X110250000Y-123050000D03*
X109750000Y-123050000D03*
X109250000Y-123050000D03*
X108750000Y-123050000D03*
X108250000Y-123050000D03*
D31*
X107550000Y-123750000D03*
X107550000Y-124250000D03*
X107550000Y-124750000D03*
X107550000Y-125250000D03*
X107550000Y-125750000D03*
X107550000Y-126250000D03*
D30*
X108250000Y-126950000D03*
X108750000Y-126950000D03*
X109250000Y-126950000D03*
X109750000Y-126950000D03*
X110250000Y-126950000D03*
X110750000Y-126950000D03*
D31*
X111450000Y-126250000D03*
X111450000Y-125750000D03*
X111450000Y-125250000D03*
X111450000Y-124750000D03*
X111450000Y-124250000D03*
X111450000Y-123750000D03*
%TD*%
D16*
%TO.C,SW3*%
X88700000Y-129450000D03*
X92800000Y-129450000D03*
X88700000Y-131050000D03*
X92800000Y-131050000D03*
%TD*%
D15*
%TO.C,C3*%
X116000000Y-119905000D03*
X116000000Y-120595000D03*
%TD*%
D32*
%TO.C,C6*%
X115725000Y-125250000D03*
X117275000Y-125250000D03*
%TD*%
D15*
%TO.C,R5*%
X118250000Y-129905000D03*
X118250000Y-130595000D03*
%TD*%
D33*
%TO.C,D2*%
X101787500Y-120500000D03*
X100212500Y-120500000D03*
%TD*%
D19*
%TO.C,C11*%
X104915000Y-125000000D03*
X104225000Y-125000000D03*
%TD*%
D23*
%TO.C,C9*%
X101905000Y-111500000D03*
X102595000Y-111500000D03*
%TD*%
D34*
%TO.C,D1*%
X98712500Y-118750000D03*
X100287500Y-118750000D03*
%TD*%
D23*
%TO.C,R9*%
X102905000Y-114500000D03*
X103595000Y-114500000D03*
%TD*%
D15*
%TO.C,R8*%
X115250000Y-122655000D03*
X115250000Y-123345000D03*
%TD*%
%TO.C,C7*%
X114750000Y-116155000D03*
X114750000Y-116845000D03*
%TD*%
M02*
