%TF.GenerationSoftware,KiCad,Pcbnew,9.0.2*%
%TF.CreationDate,2025-06-05T12:53:21-05:00*%
%TF.ProjectId,testing2,74657374-696e-4673-922e-6b696361645f,rev?*%
%TF.SameCoordinates,Original*%
%TF.FileFunction,Legend,Bot*%
%TF.FilePolarity,Positive*%
%FSLAX46Y46*%
G04 Gerber Fmt 4.6, Leading zero omitted, Abs format (unit mm)*
G04 Created by KiCad (PCBNEW 9.0.2) date 2025-06-05 12:53:21*
%MOMM*%
%LPD*%
G01*
G04 APERTURE LIST*
%ADD10C,0.150000*%
%ADD11R,1.700000X1.700000*%
%ADD12C,1.700000*%
%ADD13C,2.200000*%
%ADD14C,0.650000*%
%ADD15O,2.100000X1.000000*%
%ADD16O,1.600000X1.000000*%
G04 APERTURE END LIST*
D10*
X138003696Y-127068104D02*
X138041792Y-127106200D01*
X138041792Y-127106200D02*
X138156077Y-127144295D01*
X138156077Y-127144295D02*
X138232268Y-127144295D01*
X138232268Y-127144295D02*
X138346554Y-127106200D01*
X138346554Y-127106200D02*
X138422744Y-127030009D01*
X138422744Y-127030009D02*
X138460839Y-126953819D01*
X138460839Y-126953819D02*
X138498935Y-126801438D01*
X138498935Y-126801438D02*
X138498935Y-126687152D01*
X138498935Y-126687152D02*
X138460839Y-126534771D01*
X138460839Y-126534771D02*
X138422744Y-126458580D01*
X138422744Y-126458580D02*
X138346554Y-126382390D01*
X138346554Y-126382390D02*
X138232268Y-126344295D01*
X138232268Y-126344295D02*
X138156077Y-126344295D01*
X138156077Y-126344295D02*
X138041792Y-126382390D01*
X138041792Y-126382390D02*
X138003696Y-126420485D01*
X137660839Y-127144295D02*
X137660839Y-126610961D01*
X137660839Y-126763342D02*
X137622744Y-126687152D01*
X137622744Y-126687152D02*
X137584649Y-126649057D01*
X137584649Y-126649057D02*
X137508458Y-126610961D01*
X137508458Y-126610961D02*
X137432268Y-126610961D01*
X136822744Y-127144295D02*
X136822744Y-126725247D01*
X136822744Y-126725247D02*
X136860839Y-126649057D01*
X136860839Y-126649057D02*
X136937030Y-126610961D01*
X136937030Y-126610961D02*
X137089411Y-126610961D01*
X137089411Y-126610961D02*
X137165601Y-126649057D01*
X136822744Y-127106200D02*
X136898935Y-127144295D01*
X136898935Y-127144295D02*
X137089411Y-127144295D01*
X137089411Y-127144295D02*
X137165601Y-127106200D01*
X137165601Y-127106200D02*
X137203697Y-127030009D01*
X137203697Y-127030009D02*
X137203697Y-126953819D01*
X137203697Y-126953819D02*
X137165601Y-126877628D01*
X137165601Y-126877628D02*
X137089411Y-126839533D01*
X137089411Y-126839533D02*
X136898935Y-126839533D01*
X136898935Y-126839533D02*
X136822744Y-126801438D01*
X136517982Y-126610961D02*
X136098934Y-126610961D01*
X136098934Y-126610961D02*
X136517982Y-127144295D01*
X136517982Y-127144295D02*
X136098934Y-127144295D01*
X135870363Y-126610961D02*
X135679887Y-127144295D01*
X135489410Y-126610961D02*
X135679887Y-127144295D01*
X135679887Y-127144295D02*
X135756077Y-127334771D01*
X135756077Y-127334771D02*
X135794172Y-127372866D01*
X135794172Y-127372866D02*
X135870363Y-127410961D01*
X135070363Y-127068104D02*
X135032267Y-127106200D01*
X135032267Y-127106200D02*
X135070363Y-127144295D01*
X135070363Y-127144295D02*
X135108458Y-127106200D01*
X135108458Y-127106200D02*
X135070363Y-127068104D01*
X135070363Y-127068104D02*
X135070363Y-127144295D01*
X135222744Y-126382390D02*
X135146553Y-126344295D01*
X135146553Y-126344295D02*
X134956077Y-126344295D01*
X134956077Y-126344295D02*
X134879886Y-126382390D01*
X134879886Y-126382390D02*
X134841791Y-126458580D01*
X134841791Y-126458580D02*
X134841791Y-126534771D01*
X134841791Y-126534771D02*
X134879886Y-126610961D01*
X134879886Y-126610961D02*
X134917982Y-126649057D01*
X134917982Y-126649057D02*
X134994172Y-126687152D01*
X134994172Y-126687152D02*
X135032267Y-126725247D01*
X135032267Y-126725247D02*
X135070363Y-126801438D01*
X135070363Y-126801438D02*
X135070363Y-126839533D01*
X133889410Y-127144295D02*
X133889410Y-126344295D01*
X132975125Y-126610961D02*
X132822744Y-127144295D01*
X132822744Y-127144295D02*
X132670363Y-126763342D01*
X132670363Y-126763342D02*
X132517982Y-127144295D01*
X132517982Y-127144295D02*
X132365601Y-126610961D01*
X131717982Y-127144295D02*
X131717982Y-126725247D01*
X131717982Y-126725247D02*
X131756077Y-126649057D01*
X131756077Y-126649057D02*
X131832268Y-126610961D01*
X131832268Y-126610961D02*
X131984649Y-126610961D01*
X131984649Y-126610961D02*
X132060839Y-126649057D01*
X131717982Y-127106200D02*
X131794173Y-127144295D01*
X131794173Y-127144295D02*
X131984649Y-127144295D01*
X131984649Y-127144295D02*
X132060839Y-127106200D01*
X132060839Y-127106200D02*
X132098935Y-127030009D01*
X132098935Y-127030009D02*
X132098935Y-126953819D01*
X132098935Y-126953819D02*
X132060839Y-126877628D01*
X132060839Y-126877628D02*
X131984649Y-126839533D01*
X131984649Y-126839533D02*
X131794173Y-126839533D01*
X131794173Y-126839533D02*
X131717982Y-126801438D01*
X131375125Y-127106200D02*
X131298934Y-127144295D01*
X131298934Y-127144295D02*
X131146553Y-127144295D01*
X131146553Y-127144295D02*
X131070363Y-127106200D01*
X131070363Y-127106200D02*
X131032267Y-127030009D01*
X131032267Y-127030009D02*
X131032267Y-126991914D01*
X131032267Y-126991914D02*
X131070363Y-126915723D01*
X131070363Y-126915723D02*
X131146553Y-126877628D01*
X131146553Y-126877628D02*
X131260839Y-126877628D01*
X131260839Y-126877628D02*
X131337029Y-126839533D01*
X131337029Y-126839533D02*
X131375125Y-126763342D01*
X131375125Y-126763342D02*
X131375125Y-126725247D01*
X131375125Y-126725247D02*
X131337029Y-126649057D01*
X131337029Y-126649057D02*
X131260839Y-126610961D01*
X131260839Y-126610961D02*
X131146553Y-126610961D01*
X131146553Y-126610961D02*
X131070363Y-126649057D01*
X129737029Y-127106200D02*
X129813220Y-127144295D01*
X129813220Y-127144295D02*
X129965601Y-127144295D01*
X129965601Y-127144295D02*
X130041791Y-127106200D01*
X130041791Y-127106200D02*
X130079886Y-127068104D01*
X130079886Y-127068104D02*
X130117982Y-126991914D01*
X130117982Y-126991914D02*
X130117982Y-126763342D01*
X130117982Y-126763342D02*
X130079886Y-126687152D01*
X130079886Y-126687152D02*
X130041791Y-126649057D01*
X130041791Y-126649057D02*
X129965601Y-126610961D01*
X129965601Y-126610961D02*
X129813220Y-126610961D01*
X129813220Y-126610961D02*
X129737029Y-126649057D01*
X129394172Y-127144295D02*
X129394172Y-126610961D01*
X129394172Y-126763342D02*
X129356077Y-126687152D01*
X129356077Y-126687152D02*
X129317982Y-126649057D01*
X129317982Y-126649057D02*
X129241791Y-126610961D01*
X129241791Y-126610961D02*
X129165601Y-126610961D01*
X128556077Y-127144295D02*
X128556077Y-126725247D01*
X128556077Y-126725247D02*
X128594172Y-126649057D01*
X128594172Y-126649057D02*
X128670363Y-126610961D01*
X128670363Y-126610961D02*
X128822744Y-126610961D01*
X128822744Y-126610961D02*
X128898934Y-126649057D01*
X128556077Y-127106200D02*
X128632268Y-127144295D01*
X128632268Y-127144295D02*
X128822744Y-127144295D01*
X128822744Y-127144295D02*
X128898934Y-127106200D01*
X128898934Y-127106200D02*
X128937030Y-127030009D01*
X128937030Y-127030009D02*
X128937030Y-126953819D01*
X128937030Y-126953819D02*
X128898934Y-126877628D01*
X128898934Y-126877628D02*
X128822744Y-126839533D01*
X128822744Y-126839533D02*
X128632268Y-126839533D01*
X128632268Y-126839533D02*
X128556077Y-126801438D01*
X128251315Y-126610961D02*
X127832267Y-126610961D01*
X127832267Y-126610961D02*
X128251315Y-127144295D01*
X128251315Y-127144295D02*
X127832267Y-127144295D01*
X127603696Y-126610961D02*
X127413220Y-127144295D01*
X127222743Y-126610961D02*
X127413220Y-127144295D01*
X127413220Y-127144295D02*
X127489410Y-127334771D01*
X127489410Y-127334771D02*
X127527505Y-127372866D01*
X127527505Y-127372866D02*
X127603696Y-127410961D01*
X126194172Y-127144295D02*
X126270362Y-127106200D01*
X126270362Y-127106200D02*
X126308457Y-127068104D01*
X126308457Y-127068104D02*
X126346553Y-126991914D01*
X126346553Y-126991914D02*
X126346553Y-126763342D01*
X126346553Y-126763342D02*
X126308457Y-126687152D01*
X126308457Y-126687152D02*
X126270362Y-126649057D01*
X126270362Y-126649057D02*
X126194172Y-126610961D01*
X126194172Y-126610961D02*
X126079886Y-126610961D01*
X126079886Y-126610961D02*
X126003695Y-126649057D01*
X126003695Y-126649057D02*
X125965600Y-126687152D01*
X125965600Y-126687152D02*
X125927505Y-126763342D01*
X125927505Y-126763342D02*
X125927505Y-126991914D01*
X125927505Y-126991914D02*
X125965600Y-127068104D01*
X125965600Y-127068104D02*
X126003695Y-127106200D01*
X126003695Y-127106200D02*
X126079886Y-127144295D01*
X126079886Y-127144295D02*
X126194172Y-127144295D01*
X125584647Y-126610961D02*
X125584647Y-127144295D01*
X125584647Y-126687152D02*
X125546552Y-126649057D01*
X125546552Y-126649057D02*
X125470362Y-126610961D01*
X125470362Y-126610961D02*
X125356076Y-126610961D01*
X125356076Y-126610961D02*
X125279885Y-126649057D01*
X125279885Y-126649057D02*
X125241790Y-126725247D01*
X125241790Y-126725247D02*
X125241790Y-127144295D01*
X124517980Y-127106200D02*
X124594171Y-127144295D01*
X124594171Y-127144295D02*
X124746552Y-127144295D01*
X124746552Y-127144295D02*
X124822742Y-127106200D01*
X124822742Y-127106200D02*
X124860837Y-127068104D01*
X124860837Y-127068104D02*
X124898933Y-126991914D01*
X124898933Y-126991914D02*
X124898933Y-126763342D01*
X124898933Y-126763342D02*
X124860837Y-126687152D01*
X124860837Y-126687152D02*
X124822742Y-126649057D01*
X124822742Y-126649057D02*
X124746552Y-126610961D01*
X124746552Y-126610961D02*
X124594171Y-126610961D01*
X124594171Y-126610961D02*
X124517980Y-126649057D01*
X123870361Y-127106200D02*
X123946552Y-127144295D01*
X123946552Y-127144295D02*
X124098933Y-127144295D01*
X124098933Y-127144295D02*
X124175123Y-127106200D01*
X124175123Y-127106200D02*
X124213219Y-127030009D01*
X124213219Y-127030009D02*
X124213219Y-126725247D01*
X124213219Y-126725247D02*
X124175123Y-126649057D01*
X124175123Y-126649057D02*
X124098933Y-126610961D01*
X124098933Y-126610961D02*
X123946552Y-126610961D01*
X123946552Y-126610961D02*
X123870361Y-126649057D01*
X123870361Y-126649057D02*
X123832266Y-126725247D01*
X123832266Y-126725247D02*
X123832266Y-126801438D01*
X123832266Y-126801438D02*
X124213219Y-126877628D01*
X123489409Y-127068104D02*
X123451314Y-127106200D01*
X123451314Y-127106200D02*
X123489409Y-127144295D01*
X123489409Y-127144295D02*
X123527505Y-127106200D01*
X123527505Y-127106200D02*
X123489409Y-127068104D01*
X123489409Y-127068104D02*
X123489409Y-127144295D01*
X122613219Y-126344295D02*
X122156076Y-126344295D01*
X122384648Y-127144295D02*
X122384648Y-126344295D01*
X121889409Y-127144295D02*
X121889409Y-126344295D01*
X121546552Y-127144295D02*
X121546552Y-126725247D01*
X121546552Y-126725247D02*
X121584647Y-126649057D01*
X121584647Y-126649057D02*
X121660838Y-126610961D01*
X121660838Y-126610961D02*
X121775124Y-126610961D01*
X121775124Y-126610961D02*
X121851314Y-126649057D01*
X121851314Y-126649057D02*
X121889409Y-126687152D01*
X120860837Y-127106200D02*
X120937028Y-127144295D01*
X120937028Y-127144295D02*
X121089409Y-127144295D01*
X121089409Y-127144295D02*
X121165599Y-127106200D01*
X121165599Y-127106200D02*
X121203695Y-127030009D01*
X121203695Y-127030009D02*
X121203695Y-126725247D01*
X121203695Y-126725247D02*
X121165599Y-126649057D01*
X121165599Y-126649057D02*
X121089409Y-126610961D01*
X121089409Y-126610961D02*
X120937028Y-126610961D01*
X120937028Y-126610961D02*
X120860837Y-126649057D01*
X120860837Y-126649057D02*
X120822742Y-126725247D01*
X120822742Y-126725247D02*
X120822742Y-126801438D01*
X120822742Y-126801438D02*
X121203695Y-126877628D01*
X120556076Y-126610961D02*
X120365600Y-127144295D01*
X120175123Y-126610961D02*
X120365600Y-127144295D01*
X120365600Y-127144295D02*
X120441790Y-127334771D01*
X120441790Y-127334771D02*
X120479885Y-127372866D01*
X120479885Y-127372866D02*
X120556076Y-127410961D01*
X119146552Y-127144295D02*
X119222742Y-127106200D01*
X119222742Y-127106200D02*
X119260837Y-127030009D01*
X119260837Y-127030009D02*
X119260837Y-126344295D01*
X118727504Y-127144295D02*
X118803694Y-127106200D01*
X118803694Y-127106200D02*
X118841789Y-127068104D01*
X118841789Y-127068104D02*
X118879885Y-126991914D01*
X118879885Y-126991914D02*
X118879885Y-126763342D01*
X118879885Y-126763342D02*
X118841789Y-126687152D01*
X118841789Y-126687152D02*
X118803694Y-126649057D01*
X118803694Y-126649057D02*
X118727504Y-126610961D01*
X118727504Y-126610961D02*
X118613218Y-126610961D01*
X118613218Y-126610961D02*
X118537027Y-126649057D01*
X118537027Y-126649057D02*
X118498932Y-126687152D01*
X118498932Y-126687152D02*
X118460837Y-126763342D01*
X118460837Y-126763342D02*
X118460837Y-126991914D01*
X118460837Y-126991914D02*
X118498932Y-127068104D01*
X118498932Y-127068104D02*
X118537027Y-127106200D01*
X118537027Y-127106200D02*
X118613218Y-127144295D01*
X118613218Y-127144295D02*
X118727504Y-127144295D01*
X117775122Y-127106200D02*
X117851313Y-127144295D01*
X117851313Y-127144295D02*
X118003694Y-127144295D01*
X118003694Y-127144295D02*
X118079884Y-127106200D01*
X118079884Y-127106200D02*
X118117979Y-127068104D01*
X118117979Y-127068104D02*
X118156075Y-126991914D01*
X118156075Y-126991914D02*
X118156075Y-126763342D01*
X118156075Y-126763342D02*
X118117979Y-126687152D01*
X118117979Y-126687152D02*
X118079884Y-126649057D01*
X118079884Y-126649057D02*
X118003694Y-126610961D01*
X118003694Y-126610961D02*
X117851313Y-126610961D01*
X117851313Y-126610961D02*
X117775122Y-126649057D01*
X117432265Y-127144295D02*
X117432265Y-126344295D01*
X117356075Y-126839533D02*
X117127503Y-127144295D01*
X117127503Y-126610961D02*
X117432265Y-126915723D01*
X116479884Y-127106200D02*
X116556075Y-127144295D01*
X116556075Y-127144295D02*
X116708456Y-127144295D01*
X116708456Y-127144295D02*
X116784646Y-127106200D01*
X116784646Y-127106200D02*
X116822742Y-127030009D01*
X116822742Y-127030009D02*
X116822742Y-126725247D01*
X116822742Y-126725247D02*
X116784646Y-126649057D01*
X116784646Y-126649057D02*
X116708456Y-126610961D01*
X116708456Y-126610961D02*
X116556075Y-126610961D01*
X116556075Y-126610961D02*
X116479884Y-126649057D01*
X116479884Y-126649057D02*
X116441789Y-126725247D01*
X116441789Y-126725247D02*
X116441789Y-126801438D01*
X116441789Y-126801438D02*
X116822742Y-126877628D01*
X115756075Y-127144295D02*
X115756075Y-126344295D01*
X115756075Y-127106200D02*
X115832266Y-127144295D01*
X115832266Y-127144295D02*
X115984647Y-127144295D01*
X115984647Y-127144295D02*
X116060837Y-127106200D01*
X116060837Y-127106200D02*
X116098932Y-127068104D01*
X116098932Y-127068104D02*
X116137028Y-126991914D01*
X116137028Y-126991914D02*
X116137028Y-126763342D01*
X116137028Y-126763342D02*
X116098932Y-126687152D01*
X116098932Y-126687152D02*
X116060837Y-126649057D01*
X116060837Y-126649057D02*
X115984647Y-126610961D01*
X115984647Y-126610961D02*
X115832266Y-126610961D01*
X115832266Y-126610961D02*
X115756075Y-126649057D01*
X114765598Y-127144295D02*
X114765598Y-126610961D01*
X114765598Y-126687152D02*
X114727503Y-126649057D01*
X114727503Y-126649057D02*
X114651313Y-126610961D01*
X114651313Y-126610961D02*
X114537027Y-126610961D01*
X114537027Y-126610961D02*
X114460836Y-126649057D01*
X114460836Y-126649057D02*
X114422741Y-126725247D01*
X114422741Y-126725247D02*
X114422741Y-127144295D01*
X114422741Y-126725247D02*
X114384646Y-126649057D01*
X114384646Y-126649057D02*
X114308455Y-126610961D01*
X114308455Y-126610961D02*
X114194170Y-126610961D01*
X114194170Y-126610961D02*
X114117979Y-126649057D01*
X114117979Y-126649057D02*
X114079884Y-126725247D01*
X114079884Y-126725247D02*
X114079884Y-127144295D01*
X113394169Y-127106200D02*
X113470360Y-127144295D01*
X113470360Y-127144295D02*
X113622741Y-127144295D01*
X113622741Y-127144295D02*
X113698931Y-127106200D01*
X113698931Y-127106200D02*
X113737027Y-127030009D01*
X113737027Y-127030009D02*
X113737027Y-126725247D01*
X113737027Y-126725247D02*
X113698931Y-126649057D01*
X113698931Y-126649057D02*
X113622741Y-126610961D01*
X113622741Y-126610961D02*
X113470360Y-126610961D01*
X113470360Y-126610961D02*
X113394169Y-126649057D01*
X113394169Y-126649057D02*
X113356074Y-126725247D01*
X113356074Y-126725247D02*
X113356074Y-126801438D01*
X113356074Y-126801438D02*
X113737027Y-126877628D01*
X112403693Y-127144295D02*
X112403693Y-126610961D01*
X112403693Y-126344295D02*
X112441789Y-126382390D01*
X112441789Y-126382390D02*
X112403693Y-126420485D01*
X112403693Y-126420485D02*
X112365598Y-126382390D01*
X112365598Y-126382390D02*
X112403693Y-126344295D01*
X112403693Y-126344295D02*
X112403693Y-126420485D01*
X112022741Y-126610961D02*
X112022741Y-127144295D01*
X112022741Y-126687152D02*
X111984646Y-126649057D01*
X111984646Y-126649057D02*
X111908456Y-126610961D01*
X111908456Y-126610961D02*
X111794170Y-126610961D01*
X111794170Y-126610961D02*
X111717979Y-126649057D01*
X111717979Y-126649057D02*
X111679884Y-126725247D01*
X111679884Y-126725247D02*
X111679884Y-127144295D01*
X110346550Y-127144295D02*
X110346550Y-126725247D01*
X110346550Y-126725247D02*
X110384645Y-126649057D01*
X110384645Y-126649057D02*
X110460836Y-126610961D01*
X110460836Y-126610961D02*
X110613217Y-126610961D01*
X110613217Y-126610961D02*
X110689407Y-126649057D01*
X110346550Y-127106200D02*
X110422741Y-127144295D01*
X110422741Y-127144295D02*
X110613217Y-127144295D01*
X110613217Y-127144295D02*
X110689407Y-127106200D01*
X110689407Y-127106200D02*
X110727503Y-127030009D01*
X110727503Y-127030009D02*
X110727503Y-126953819D01*
X110727503Y-126953819D02*
X110689407Y-126877628D01*
X110689407Y-126877628D02*
X110613217Y-126839533D01*
X110613217Y-126839533D02*
X110422741Y-126839533D01*
X110422741Y-126839533D02*
X110346550Y-126801438D01*
X109356073Y-127144295D02*
X109356073Y-126610961D01*
X109356073Y-126763342D02*
X109317978Y-126687152D01*
X109317978Y-126687152D02*
X109279883Y-126649057D01*
X109279883Y-126649057D02*
X109203692Y-126610961D01*
X109203692Y-126610961D02*
X109127502Y-126610961D01*
X108746550Y-127144295D02*
X108822740Y-127106200D01*
X108822740Y-127106200D02*
X108860835Y-127068104D01*
X108860835Y-127068104D02*
X108898931Y-126991914D01*
X108898931Y-126991914D02*
X108898931Y-126763342D01*
X108898931Y-126763342D02*
X108860835Y-126687152D01*
X108860835Y-126687152D02*
X108822740Y-126649057D01*
X108822740Y-126649057D02*
X108746550Y-126610961D01*
X108746550Y-126610961D02*
X108632264Y-126610961D01*
X108632264Y-126610961D02*
X108556073Y-126649057D01*
X108556073Y-126649057D02*
X108517978Y-126687152D01*
X108517978Y-126687152D02*
X108479883Y-126763342D01*
X108479883Y-126763342D02*
X108479883Y-126991914D01*
X108479883Y-126991914D02*
X108517978Y-127068104D01*
X108517978Y-127068104D02*
X108556073Y-127106200D01*
X108556073Y-127106200D02*
X108632264Y-127144295D01*
X108632264Y-127144295D02*
X108746550Y-127144295D01*
X108022740Y-127144295D02*
X108098930Y-127106200D01*
X108098930Y-127106200D02*
X108137025Y-127068104D01*
X108137025Y-127068104D02*
X108175121Y-126991914D01*
X108175121Y-126991914D02*
X108175121Y-126763342D01*
X108175121Y-126763342D02*
X108137025Y-126687152D01*
X108137025Y-126687152D02*
X108098930Y-126649057D01*
X108098930Y-126649057D02*
X108022740Y-126610961D01*
X108022740Y-126610961D02*
X107908454Y-126610961D01*
X107908454Y-126610961D02*
X107832263Y-126649057D01*
X107832263Y-126649057D02*
X107794168Y-126687152D01*
X107794168Y-126687152D02*
X107756073Y-126763342D01*
X107756073Y-126763342D02*
X107756073Y-126991914D01*
X107756073Y-126991914D02*
X107794168Y-127068104D01*
X107794168Y-127068104D02*
X107832263Y-127106200D01*
X107832263Y-127106200D02*
X107908454Y-127144295D01*
X107908454Y-127144295D02*
X108022740Y-127144295D01*
X107413215Y-127144295D02*
X107413215Y-126610961D01*
X107413215Y-126687152D02*
X107375120Y-126649057D01*
X107375120Y-126649057D02*
X107298930Y-126610961D01*
X107298930Y-126610961D02*
X107184644Y-126610961D01*
X107184644Y-126610961D02*
X107108453Y-126649057D01*
X107108453Y-126649057D02*
X107070358Y-126725247D01*
X107070358Y-126725247D02*
X107070358Y-127144295D01*
X107070358Y-126725247D02*
X107032263Y-126649057D01*
X107032263Y-126649057D02*
X106956072Y-126610961D01*
X106956072Y-126610961D02*
X106841787Y-126610961D01*
X106841787Y-126610961D02*
X106765596Y-126649057D01*
X106765596Y-126649057D02*
X106727501Y-126725247D01*
X106727501Y-126725247D02*
X106727501Y-127144295D01*
X106346548Y-127068104D02*
X106308453Y-127106200D01*
X106308453Y-127106200D02*
X106346548Y-127144295D01*
X106346548Y-127144295D02*
X106384644Y-127106200D01*
X106384644Y-127106200D02*
X106346548Y-127068104D01*
X106346548Y-127068104D02*
X106346548Y-127144295D01*
X104784644Y-126915723D02*
X104403691Y-126915723D01*
X104860834Y-127144295D02*
X104594167Y-126344295D01*
X104594167Y-126344295D02*
X104327501Y-127144295D01*
X103451310Y-127144295D02*
X103451310Y-126610961D01*
X103451310Y-126763342D02*
X103413215Y-126687152D01*
X103413215Y-126687152D02*
X103375120Y-126649057D01*
X103375120Y-126649057D02*
X103298929Y-126610961D01*
X103298929Y-126610961D02*
X103222739Y-126610961D01*
X102613215Y-126610961D02*
X102613215Y-127144295D01*
X102956072Y-126610961D02*
X102956072Y-127030009D01*
X102956072Y-127030009D02*
X102917977Y-127106200D01*
X102917977Y-127106200D02*
X102841787Y-127144295D01*
X102841787Y-127144295D02*
X102727501Y-127144295D01*
X102727501Y-127144295D02*
X102651310Y-127106200D01*
X102651310Y-127106200D02*
X102613215Y-127068104D01*
X102232262Y-127144295D02*
X102232262Y-126344295D01*
X102232262Y-126649057D02*
X102156072Y-126610961D01*
X102156072Y-126610961D02*
X102003691Y-126610961D01*
X102003691Y-126610961D02*
X101927500Y-126649057D01*
X101927500Y-126649057D02*
X101889405Y-126687152D01*
X101889405Y-126687152D02*
X101851310Y-126763342D01*
X101851310Y-126763342D02*
X101851310Y-126991914D01*
X101851310Y-126991914D02*
X101889405Y-127068104D01*
X101889405Y-127068104D02*
X101927500Y-127106200D01*
X101927500Y-127106200D02*
X102003691Y-127144295D01*
X102003691Y-127144295D02*
X102156072Y-127144295D01*
X102156072Y-127144295D02*
X102232262Y-127106200D01*
X101508452Y-127144295D02*
X101508452Y-126344295D01*
X101508452Y-126649057D02*
X101432262Y-126610961D01*
X101432262Y-126610961D02*
X101279881Y-126610961D01*
X101279881Y-126610961D02*
X101203690Y-126649057D01*
X101203690Y-126649057D02*
X101165595Y-126687152D01*
X101165595Y-126687152D02*
X101127500Y-126763342D01*
X101127500Y-126763342D02*
X101127500Y-126991914D01*
X101127500Y-126991914D02*
X101165595Y-127068104D01*
X101165595Y-127068104D02*
X101203690Y-127106200D01*
X101203690Y-127106200D02*
X101279881Y-127144295D01*
X101279881Y-127144295D02*
X101432262Y-127144295D01*
X101432262Y-127144295D02*
X101508452Y-127106200D01*
X100479880Y-127106200D02*
X100556071Y-127144295D01*
X100556071Y-127144295D02*
X100708452Y-127144295D01*
X100708452Y-127144295D02*
X100784642Y-127106200D01*
X100784642Y-127106200D02*
X100822738Y-127030009D01*
X100822738Y-127030009D02*
X100822738Y-126725247D01*
X100822738Y-126725247D02*
X100784642Y-126649057D01*
X100784642Y-126649057D02*
X100708452Y-126610961D01*
X100708452Y-126610961D02*
X100556071Y-126610961D01*
X100556071Y-126610961D02*
X100479880Y-126649057D01*
X100479880Y-126649057D02*
X100441785Y-126725247D01*
X100441785Y-126725247D02*
X100441785Y-126801438D01*
X100441785Y-126801438D02*
X100822738Y-126877628D01*
X100098928Y-127144295D02*
X100098928Y-126610961D01*
X100098928Y-126763342D02*
X100060833Y-126687152D01*
X100060833Y-126687152D02*
X100022738Y-126649057D01*
X100022738Y-126649057D02*
X99946547Y-126610961D01*
X99946547Y-126610961D02*
X99870357Y-126610961D01*
X98994166Y-127144295D02*
X98994166Y-126610961D01*
X98994166Y-126763342D02*
X98956071Y-126687152D01*
X98956071Y-126687152D02*
X98917976Y-126649057D01*
X98917976Y-126649057D02*
X98841785Y-126610961D01*
X98841785Y-126610961D02*
X98765595Y-126610961D01*
X98384643Y-127144295D02*
X98460833Y-127106200D01*
X98460833Y-127106200D02*
X98498928Y-127068104D01*
X98498928Y-127068104D02*
X98537024Y-126991914D01*
X98537024Y-126991914D02*
X98537024Y-126763342D01*
X98537024Y-126763342D02*
X98498928Y-126687152D01*
X98498928Y-126687152D02*
X98460833Y-126649057D01*
X98460833Y-126649057D02*
X98384643Y-126610961D01*
X98384643Y-126610961D02*
X98270357Y-126610961D01*
X98270357Y-126610961D02*
X98194166Y-126649057D01*
X98194166Y-126649057D02*
X98156071Y-126687152D01*
X98156071Y-126687152D02*
X98117976Y-126763342D01*
X98117976Y-126763342D02*
X98117976Y-126991914D01*
X98117976Y-126991914D02*
X98156071Y-127068104D01*
X98156071Y-127068104D02*
X98194166Y-127106200D01*
X98194166Y-127106200D02*
X98270357Y-127144295D01*
X98270357Y-127144295D02*
X98384643Y-127144295D01*
X97660833Y-127144295D02*
X97737023Y-127106200D01*
X97737023Y-127106200D02*
X97775118Y-127068104D01*
X97775118Y-127068104D02*
X97813214Y-126991914D01*
X97813214Y-126991914D02*
X97813214Y-126763342D01*
X97813214Y-126763342D02*
X97775118Y-126687152D01*
X97775118Y-126687152D02*
X97737023Y-126649057D01*
X97737023Y-126649057D02*
X97660833Y-126610961D01*
X97660833Y-126610961D02*
X97546547Y-126610961D01*
X97546547Y-126610961D02*
X97470356Y-126649057D01*
X97470356Y-126649057D02*
X97432261Y-126687152D01*
X97432261Y-126687152D02*
X97394166Y-126763342D01*
X97394166Y-126763342D02*
X97394166Y-126991914D01*
X97394166Y-126991914D02*
X97432261Y-127068104D01*
X97432261Y-127068104D02*
X97470356Y-127106200D01*
X97470356Y-127106200D02*
X97546547Y-127144295D01*
X97546547Y-127144295D02*
X97660833Y-127144295D01*
X97051308Y-127144295D02*
X97051308Y-126610961D01*
X97051308Y-126687152D02*
X97013213Y-126649057D01*
X97013213Y-126649057D02*
X96937023Y-126610961D01*
X96937023Y-126610961D02*
X96822737Y-126610961D01*
X96822737Y-126610961D02*
X96746546Y-126649057D01*
X96746546Y-126649057D02*
X96708451Y-126725247D01*
X96708451Y-126725247D02*
X96708451Y-127144295D01*
X96708451Y-126725247D02*
X96670356Y-126649057D01*
X96670356Y-126649057D02*
X96594165Y-126610961D01*
X96594165Y-126610961D02*
X96479880Y-126610961D01*
X96479880Y-126610961D02*
X96403689Y-126649057D01*
X96403689Y-126649057D02*
X96365594Y-126725247D01*
X96365594Y-126725247D02*
X96365594Y-127144295D01*
X95984641Y-127068104D02*
X95946546Y-127106200D01*
X95946546Y-127106200D02*
X95984641Y-127144295D01*
X95984641Y-127144295D02*
X96022737Y-127106200D01*
X96022737Y-127106200D02*
X95984641Y-127068104D01*
X95984641Y-127068104D02*
X95984641Y-127144295D01*
X137889411Y-128415723D02*
X137508458Y-128415723D01*
X137965601Y-128644295D02*
X137698934Y-127844295D01*
X137698934Y-127844295D02*
X137432268Y-128644295D01*
X136556077Y-128644295D02*
X136556077Y-128110961D01*
X136556077Y-128263342D02*
X136517982Y-128187152D01*
X136517982Y-128187152D02*
X136479887Y-128149057D01*
X136479887Y-128149057D02*
X136403696Y-128110961D01*
X136403696Y-128110961D02*
X136327506Y-128110961D01*
X135717982Y-128110961D02*
X135717982Y-128644295D01*
X136060839Y-128110961D02*
X136060839Y-128530009D01*
X136060839Y-128530009D02*
X136022744Y-128606200D01*
X136022744Y-128606200D02*
X135946554Y-128644295D01*
X135946554Y-128644295D02*
X135832268Y-128644295D01*
X135832268Y-128644295D02*
X135756077Y-128606200D01*
X135756077Y-128606200D02*
X135717982Y-128568104D01*
X135337029Y-128644295D02*
X135337029Y-127844295D01*
X135337029Y-128149057D02*
X135260839Y-128110961D01*
X135260839Y-128110961D02*
X135108458Y-128110961D01*
X135108458Y-128110961D02*
X135032267Y-128149057D01*
X135032267Y-128149057D02*
X134994172Y-128187152D01*
X134994172Y-128187152D02*
X134956077Y-128263342D01*
X134956077Y-128263342D02*
X134956077Y-128491914D01*
X134956077Y-128491914D02*
X134994172Y-128568104D01*
X134994172Y-128568104D02*
X135032267Y-128606200D01*
X135032267Y-128606200D02*
X135108458Y-128644295D01*
X135108458Y-128644295D02*
X135260839Y-128644295D01*
X135260839Y-128644295D02*
X135337029Y-128606200D01*
X134613219Y-128644295D02*
X134613219Y-127844295D01*
X134613219Y-128149057D02*
X134537029Y-128110961D01*
X134537029Y-128110961D02*
X134384648Y-128110961D01*
X134384648Y-128110961D02*
X134308457Y-128149057D01*
X134308457Y-128149057D02*
X134270362Y-128187152D01*
X134270362Y-128187152D02*
X134232267Y-128263342D01*
X134232267Y-128263342D02*
X134232267Y-128491914D01*
X134232267Y-128491914D02*
X134270362Y-128568104D01*
X134270362Y-128568104D02*
X134308457Y-128606200D01*
X134308457Y-128606200D02*
X134384648Y-128644295D01*
X134384648Y-128644295D02*
X134537029Y-128644295D01*
X134537029Y-128644295D02*
X134613219Y-128606200D01*
X133584647Y-128606200D02*
X133660838Y-128644295D01*
X133660838Y-128644295D02*
X133813219Y-128644295D01*
X133813219Y-128644295D02*
X133889409Y-128606200D01*
X133889409Y-128606200D02*
X133927505Y-128530009D01*
X133927505Y-128530009D02*
X133927505Y-128225247D01*
X133927505Y-128225247D02*
X133889409Y-128149057D01*
X133889409Y-128149057D02*
X133813219Y-128110961D01*
X133813219Y-128110961D02*
X133660838Y-128110961D01*
X133660838Y-128110961D02*
X133584647Y-128149057D01*
X133584647Y-128149057D02*
X133546552Y-128225247D01*
X133546552Y-128225247D02*
X133546552Y-128301438D01*
X133546552Y-128301438D02*
X133927505Y-128377628D01*
X133203695Y-128644295D02*
X133203695Y-128110961D01*
X133203695Y-128263342D02*
X133165600Y-128187152D01*
X133165600Y-128187152D02*
X133127505Y-128149057D01*
X133127505Y-128149057D02*
X133051314Y-128110961D01*
X133051314Y-128110961D02*
X132975124Y-128110961D01*
X132098933Y-128644295D02*
X132098933Y-128110961D01*
X132098933Y-128263342D02*
X132060838Y-128187152D01*
X132060838Y-128187152D02*
X132022743Y-128149057D01*
X132022743Y-128149057D02*
X131946552Y-128110961D01*
X131946552Y-128110961D02*
X131870362Y-128110961D01*
X131489410Y-128644295D02*
X131565600Y-128606200D01*
X131565600Y-128606200D02*
X131603695Y-128568104D01*
X131603695Y-128568104D02*
X131641791Y-128491914D01*
X131641791Y-128491914D02*
X131641791Y-128263342D01*
X131641791Y-128263342D02*
X131603695Y-128187152D01*
X131603695Y-128187152D02*
X131565600Y-128149057D01*
X131565600Y-128149057D02*
X131489410Y-128110961D01*
X131489410Y-128110961D02*
X131375124Y-128110961D01*
X131375124Y-128110961D02*
X131298933Y-128149057D01*
X131298933Y-128149057D02*
X131260838Y-128187152D01*
X131260838Y-128187152D02*
X131222743Y-128263342D01*
X131222743Y-128263342D02*
X131222743Y-128491914D01*
X131222743Y-128491914D02*
X131260838Y-128568104D01*
X131260838Y-128568104D02*
X131298933Y-128606200D01*
X131298933Y-128606200D02*
X131375124Y-128644295D01*
X131375124Y-128644295D02*
X131489410Y-128644295D01*
X130765600Y-128644295D02*
X130841790Y-128606200D01*
X130841790Y-128606200D02*
X130879885Y-128568104D01*
X130879885Y-128568104D02*
X130917981Y-128491914D01*
X130917981Y-128491914D02*
X130917981Y-128263342D01*
X130917981Y-128263342D02*
X130879885Y-128187152D01*
X130879885Y-128187152D02*
X130841790Y-128149057D01*
X130841790Y-128149057D02*
X130765600Y-128110961D01*
X130765600Y-128110961D02*
X130651314Y-128110961D01*
X130651314Y-128110961D02*
X130575123Y-128149057D01*
X130575123Y-128149057D02*
X130537028Y-128187152D01*
X130537028Y-128187152D02*
X130498933Y-128263342D01*
X130498933Y-128263342D02*
X130498933Y-128491914D01*
X130498933Y-128491914D02*
X130537028Y-128568104D01*
X130537028Y-128568104D02*
X130575123Y-128606200D01*
X130575123Y-128606200D02*
X130651314Y-128644295D01*
X130651314Y-128644295D02*
X130765600Y-128644295D01*
X130156075Y-128644295D02*
X130156075Y-128110961D01*
X130156075Y-128187152D02*
X130117980Y-128149057D01*
X130117980Y-128149057D02*
X130041790Y-128110961D01*
X130041790Y-128110961D02*
X129927504Y-128110961D01*
X129927504Y-128110961D02*
X129851313Y-128149057D01*
X129851313Y-128149057D02*
X129813218Y-128225247D01*
X129813218Y-128225247D02*
X129813218Y-128644295D01*
X129813218Y-128225247D02*
X129775123Y-128149057D01*
X129775123Y-128149057D02*
X129698932Y-128110961D01*
X129698932Y-128110961D02*
X129584647Y-128110961D01*
X129584647Y-128110961D02*
X129508456Y-128149057D01*
X129508456Y-128149057D02*
X129470361Y-128225247D01*
X129470361Y-128225247D02*
X129470361Y-128644295D01*
X128594170Y-128110961D02*
X128289408Y-128110961D01*
X128479884Y-128644295D02*
X128479884Y-127958580D01*
X128479884Y-127958580D02*
X128441789Y-127882390D01*
X128441789Y-127882390D02*
X128365599Y-127844295D01*
X128365599Y-127844295D02*
X128289408Y-127844295D01*
X127679884Y-128110961D02*
X127679884Y-128644295D01*
X128022741Y-128110961D02*
X128022741Y-128530009D01*
X128022741Y-128530009D02*
X127984646Y-128606200D01*
X127984646Y-128606200D02*
X127908456Y-128644295D01*
X127908456Y-128644295D02*
X127794170Y-128644295D01*
X127794170Y-128644295D02*
X127717979Y-128606200D01*
X127717979Y-128606200D02*
X127679884Y-128568104D01*
X127184646Y-128644295D02*
X127260836Y-128606200D01*
X127260836Y-128606200D02*
X127298931Y-128530009D01*
X127298931Y-128530009D02*
X127298931Y-127844295D01*
X126765598Y-128644295D02*
X126841788Y-128606200D01*
X126841788Y-128606200D02*
X126879883Y-128530009D01*
X126879883Y-128530009D02*
X126879883Y-127844295D01*
X125737026Y-128644295D02*
X125813216Y-128606200D01*
X125813216Y-128606200D02*
X125851311Y-128568104D01*
X125851311Y-128568104D02*
X125889407Y-128491914D01*
X125889407Y-128491914D02*
X125889407Y-128263342D01*
X125889407Y-128263342D02*
X125851311Y-128187152D01*
X125851311Y-128187152D02*
X125813216Y-128149057D01*
X125813216Y-128149057D02*
X125737026Y-128110961D01*
X125737026Y-128110961D02*
X125622740Y-128110961D01*
X125622740Y-128110961D02*
X125546549Y-128149057D01*
X125546549Y-128149057D02*
X125508454Y-128187152D01*
X125508454Y-128187152D02*
X125470359Y-128263342D01*
X125470359Y-128263342D02*
X125470359Y-128491914D01*
X125470359Y-128491914D02*
X125508454Y-128568104D01*
X125508454Y-128568104D02*
X125546549Y-128606200D01*
X125546549Y-128606200D02*
X125622740Y-128644295D01*
X125622740Y-128644295D02*
X125737026Y-128644295D01*
X125241787Y-128110961D02*
X124937025Y-128110961D01*
X125127501Y-128644295D02*
X125127501Y-127958580D01*
X125127501Y-127958580D02*
X125089406Y-127882390D01*
X125089406Y-127882390D02*
X125013216Y-127844295D01*
X125013216Y-127844295D02*
X124937025Y-127844295D01*
X124060834Y-128644295D02*
X124060834Y-128110961D01*
X124060834Y-128263342D02*
X124022739Y-128187152D01*
X124022739Y-128187152D02*
X123984644Y-128149057D01*
X123984644Y-128149057D02*
X123908453Y-128110961D01*
X123908453Y-128110961D02*
X123832263Y-128110961D01*
X123222739Y-128644295D02*
X123222739Y-128225247D01*
X123222739Y-128225247D02*
X123260834Y-128149057D01*
X123260834Y-128149057D02*
X123337025Y-128110961D01*
X123337025Y-128110961D02*
X123489406Y-128110961D01*
X123489406Y-128110961D02*
X123565596Y-128149057D01*
X123222739Y-128606200D02*
X123298930Y-128644295D01*
X123298930Y-128644295D02*
X123489406Y-128644295D01*
X123489406Y-128644295D02*
X123565596Y-128606200D01*
X123565596Y-128606200D02*
X123603692Y-128530009D01*
X123603692Y-128530009D02*
X123603692Y-128453819D01*
X123603692Y-128453819D02*
X123565596Y-128377628D01*
X123565596Y-128377628D02*
X123489406Y-128339533D01*
X123489406Y-128339533D02*
X123298930Y-128339533D01*
X123298930Y-128339533D02*
X123222739Y-128301438D01*
X122956072Y-128110961D02*
X122651310Y-128110961D01*
X122841786Y-127844295D02*
X122841786Y-128530009D01*
X122841786Y-128530009D02*
X122803691Y-128606200D01*
X122803691Y-128606200D02*
X122727501Y-128644295D01*
X122727501Y-128644295D02*
X122651310Y-128644295D01*
X122422739Y-128606200D02*
X122346548Y-128644295D01*
X122346548Y-128644295D02*
X122194167Y-128644295D01*
X122194167Y-128644295D02*
X122117977Y-128606200D01*
X122117977Y-128606200D02*
X122079881Y-128530009D01*
X122079881Y-128530009D02*
X122079881Y-128491914D01*
X122079881Y-128491914D02*
X122117977Y-128415723D01*
X122117977Y-128415723D02*
X122194167Y-128377628D01*
X122194167Y-128377628D02*
X122308453Y-128377628D01*
X122308453Y-128377628D02*
X122384643Y-128339533D01*
X122384643Y-128339533D02*
X122422739Y-128263342D01*
X122422739Y-128263342D02*
X122422739Y-128225247D01*
X122422739Y-128225247D02*
X122384643Y-128149057D01*
X122384643Y-128149057D02*
X122308453Y-128110961D01*
X122308453Y-128110961D02*
X122194167Y-128110961D01*
X122194167Y-128110961D02*
X122117977Y-128149057D01*
X121737024Y-128568104D02*
X121698929Y-128606200D01*
X121698929Y-128606200D02*
X121737024Y-128644295D01*
X121737024Y-128644295D02*
X121775120Y-128606200D01*
X121775120Y-128606200D02*
X121737024Y-128568104D01*
X121737024Y-128568104D02*
X121737024Y-128644295D01*
X120784644Y-128415723D02*
X120403691Y-128415723D01*
X120860834Y-128644295D02*
X120594167Y-127844295D01*
X120594167Y-127844295D02*
X120327501Y-128644295D01*
X120060834Y-128110961D02*
X120060834Y-128644295D01*
X120060834Y-128187152D02*
X120022739Y-128149057D01*
X120022739Y-128149057D02*
X119946549Y-128110961D01*
X119946549Y-128110961D02*
X119832263Y-128110961D01*
X119832263Y-128110961D02*
X119756072Y-128149057D01*
X119756072Y-128149057D02*
X119717977Y-128225247D01*
X119717977Y-128225247D02*
X119717977Y-128644295D01*
X118994167Y-128644295D02*
X118994167Y-127844295D01*
X118994167Y-128606200D02*
X119070358Y-128644295D01*
X119070358Y-128644295D02*
X119222739Y-128644295D01*
X119222739Y-128644295D02*
X119298929Y-128606200D01*
X119298929Y-128606200D02*
X119337024Y-128568104D01*
X119337024Y-128568104D02*
X119375120Y-128491914D01*
X119375120Y-128491914D02*
X119375120Y-128263342D01*
X119375120Y-128263342D02*
X119337024Y-128187152D01*
X119337024Y-128187152D02*
X119298929Y-128149057D01*
X119298929Y-128149057D02*
X119222739Y-128110961D01*
X119222739Y-128110961D02*
X119070358Y-128110961D01*
X119070358Y-128110961D02*
X118994167Y-128149057D01*
X118003690Y-128644295D02*
X118003690Y-128110961D01*
X118003690Y-128263342D02*
X117965595Y-128187152D01*
X117965595Y-128187152D02*
X117927500Y-128149057D01*
X117927500Y-128149057D02*
X117851309Y-128110961D01*
X117851309Y-128110961D02*
X117775119Y-128110961D01*
X117165595Y-128644295D02*
X117165595Y-128225247D01*
X117165595Y-128225247D02*
X117203690Y-128149057D01*
X117203690Y-128149057D02*
X117279881Y-128110961D01*
X117279881Y-128110961D02*
X117432262Y-128110961D01*
X117432262Y-128110961D02*
X117508452Y-128149057D01*
X117165595Y-128606200D02*
X117241786Y-128644295D01*
X117241786Y-128644295D02*
X117432262Y-128644295D01*
X117432262Y-128644295D02*
X117508452Y-128606200D01*
X117508452Y-128606200D02*
X117546548Y-128530009D01*
X117546548Y-128530009D02*
X117546548Y-128453819D01*
X117546548Y-128453819D02*
X117508452Y-128377628D01*
X117508452Y-128377628D02*
X117432262Y-128339533D01*
X117432262Y-128339533D02*
X117241786Y-128339533D01*
X117241786Y-128339533D02*
X117165595Y-128301438D01*
X116898928Y-128110961D02*
X116594166Y-128110961D01*
X116784642Y-127844295D02*
X116784642Y-128530009D01*
X116784642Y-128530009D02*
X116746547Y-128606200D01*
X116746547Y-128606200D02*
X116670357Y-128644295D01*
X116670357Y-128644295D02*
X116594166Y-128644295D01*
X116365595Y-128606200D02*
X116289404Y-128644295D01*
X116289404Y-128644295D02*
X116137023Y-128644295D01*
X116137023Y-128644295D02*
X116060833Y-128606200D01*
X116060833Y-128606200D02*
X116022737Y-128530009D01*
X116022737Y-128530009D02*
X116022737Y-128491914D01*
X116022737Y-128491914D02*
X116060833Y-128415723D01*
X116060833Y-128415723D02*
X116137023Y-128377628D01*
X116137023Y-128377628D02*
X116251309Y-128377628D01*
X116251309Y-128377628D02*
X116327499Y-128339533D01*
X116327499Y-128339533D02*
X116365595Y-128263342D01*
X116365595Y-128263342D02*
X116365595Y-128225247D01*
X116365595Y-128225247D02*
X116327499Y-128149057D01*
X116327499Y-128149057D02*
X116251309Y-128110961D01*
X116251309Y-128110961D02*
X116137023Y-128110961D01*
X116137023Y-128110961D02*
X116060833Y-128149057D01*
X115070356Y-128644295D02*
X115070356Y-128110961D01*
X115070356Y-128187152D02*
X115032261Y-128149057D01*
X115032261Y-128149057D02*
X114956071Y-128110961D01*
X114956071Y-128110961D02*
X114841785Y-128110961D01*
X114841785Y-128110961D02*
X114765594Y-128149057D01*
X114765594Y-128149057D02*
X114727499Y-128225247D01*
X114727499Y-128225247D02*
X114727499Y-128644295D01*
X114727499Y-128225247D02*
X114689404Y-128149057D01*
X114689404Y-128149057D02*
X114613213Y-128110961D01*
X114613213Y-128110961D02*
X114498928Y-128110961D01*
X114498928Y-128110961D02*
X114422737Y-128149057D01*
X114422737Y-128149057D02*
X114384642Y-128225247D01*
X114384642Y-128225247D02*
X114384642Y-128644295D01*
X113660832Y-128644295D02*
X113660832Y-128225247D01*
X113660832Y-128225247D02*
X113698927Y-128149057D01*
X113698927Y-128149057D02*
X113775118Y-128110961D01*
X113775118Y-128110961D02*
X113927499Y-128110961D01*
X113927499Y-128110961D02*
X114003689Y-128149057D01*
X113660832Y-128606200D02*
X113737023Y-128644295D01*
X113737023Y-128644295D02*
X113927499Y-128644295D01*
X113927499Y-128644295D02*
X114003689Y-128606200D01*
X114003689Y-128606200D02*
X114041785Y-128530009D01*
X114041785Y-128530009D02*
X114041785Y-128453819D01*
X114041785Y-128453819D02*
X114003689Y-128377628D01*
X114003689Y-128377628D02*
X113927499Y-128339533D01*
X113927499Y-128339533D02*
X113737023Y-128339533D01*
X113737023Y-128339533D02*
X113660832Y-128301438D01*
X113279879Y-128644295D02*
X113279879Y-127844295D01*
X113203689Y-128339533D02*
X112975117Y-128644295D01*
X112975117Y-128110961D02*
X113279879Y-128415723D01*
X112327498Y-128606200D02*
X112403689Y-128644295D01*
X112403689Y-128644295D02*
X112556070Y-128644295D01*
X112556070Y-128644295D02*
X112632260Y-128606200D01*
X112632260Y-128606200D02*
X112670356Y-128530009D01*
X112670356Y-128530009D02*
X112670356Y-128225247D01*
X112670356Y-128225247D02*
X112632260Y-128149057D01*
X112632260Y-128149057D02*
X112556070Y-128110961D01*
X112556070Y-128110961D02*
X112403689Y-128110961D01*
X112403689Y-128110961D02*
X112327498Y-128149057D01*
X112327498Y-128149057D02*
X112289403Y-128225247D01*
X112289403Y-128225247D02*
X112289403Y-128301438D01*
X112289403Y-128301438D02*
X112670356Y-128377628D01*
X111337022Y-128644295D02*
X111337022Y-128110961D01*
X111337022Y-128187152D02*
X111298927Y-128149057D01*
X111298927Y-128149057D02*
X111222737Y-128110961D01*
X111222737Y-128110961D02*
X111108451Y-128110961D01*
X111108451Y-128110961D02*
X111032260Y-128149057D01*
X111032260Y-128149057D02*
X110994165Y-128225247D01*
X110994165Y-128225247D02*
X110994165Y-128644295D01*
X110994165Y-128225247D02*
X110956070Y-128149057D01*
X110956070Y-128149057D02*
X110879879Y-128110961D01*
X110879879Y-128110961D02*
X110765594Y-128110961D01*
X110765594Y-128110961D02*
X110689403Y-128149057D01*
X110689403Y-128149057D02*
X110651308Y-128225247D01*
X110651308Y-128225247D02*
X110651308Y-128644295D01*
X109965593Y-128606200D02*
X110041784Y-128644295D01*
X110041784Y-128644295D02*
X110194165Y-128644295D01*
X110194165Y-128644295D02*
X110270355Y-128606200D01*
X110270355Y-128606200D02*
X110308451Y-128530009D01*
X110308451Y-128530009D02*
X110308451Y-128225247D01*
X110308451Y-128225247D02*
X110270355Y-128149057D01*
X110270355Y-128149057D02*
X110194165Y-128110961D01*
X110194165Y-128110961D02*
X110041784Y-128110961D01*
X110041784Y-128110961D02*
X109965593Y-128149057D01*
X109965593Y-128149057D02*
X109927498Y-128225247D01*
X109927498Y-128225247D02*
X109927498Y-128301438D01*
X109927498Y-128301438D02*
X110308451Y-128377628D01*
X108632260Y-128606200D02*
X108708451Y-128644295D01*
X108708451Y-128644295D02*
X108860832Y-128644295D01*
X108860832Y-128644295D02*
X108937022Y-128606200D01*
X108937022Y-128606200D02*
X108975117Y-128568104D01*
X108975117Y-128568104D02*
X109013213Y-128491914D01*
X109013213Y-128491914D02*
X109013213Y-128263342D01*
X109013213Y-128263342D02*
X108975117Y-128187152D01*
X108975117Y-128187152D02*
X108937022Y-128149057D01*
X108937022Y-128149057D02*
X108860832Y-128110961D01*
X108860832Y-128110961D02*
X108708451Y-128110961D01*
X108708451Y-128110961D02*
X108632260Y-128149057D01*
X108289403Y-128644295D02*
X108289403Y-128110961D01*
X108289403Y-128263342D02*
X108251308Y-128187152D01*
X108251308Y-128187152D02*
X108213213Y-128149057D01*
X108213213Y-128149057D02*
X108137022Y-128110961D01*
X108137022Y-128110961D02*
X108060832Y-128110961D01*
X107451308Y-128644295D02*
X107451308Y-128225247D01*
X107451308Y-128225247D02*
X107489403Y-128149057D01*
X107489403Y-128149057D02*
X107565594Y-128110961D01*
X107565594Y-128110961D02*
X107717975Y-128110961D01*
X107717975Y-128110961D02*
X107794165Y-128149057D01*
X107451308Y-128606200D02*
X107527499Y-128644295D01*
X107527499Y-128644295D02*
X107717975Y-128644295D01*
X107717975Y-128644295D02*
X107794165Y-128606200D01*
X107794165Y-128606200D02*
X107832261Y-128530009D01*
X107832261Y-128530009D02*
X107832261Y-128453819D01*
X107832261Y-128453819D02*
X107794165Y-128377628D01*
X107794165Y-128377628D02*
X107717975Y-128339533D01*
X107717975Y-128339533D02*
X107527499Y-128339533D01*
X107527499Y-128339533D02*
X107451308Y-128301438D01*
X107146546Y-128110961D02*
X106727498Y-128110961D01*
X106727498Y-128110961D02*
X107146546Y-128644295D01*
X107146546Y-128644295D02*
X106727498Y-128644295D01*
X106498927Y-128110961D02*
X106308451Y-128644295D01*
X106117974Y-128110961D02*
X106308451Y-128644295D01*
X106308451Y-128644295D02*
X106384641Y-128834771D01*
X106384641Y-128834771D02*
X106422736Y-128872866D01*
X106422736Y-128872866D02*
X106498927Y-128910961D01*
X105813212Y-128568104D02*
X105775117Y-128606200D01*
X105775117Y-128606200D02*
X105813212Y-128644295D01*
X105813212Y-128644295D02*
X105851308Y-128606200D01*
X105851308Y-128606200D02*
X105813212Y-128568104D01*
X105813212Y-128568104D02*
X105813212Y-128644295D01*
%LPC*%
D11*
%TO.C,J3*%
X132080000Y-136000000D03*
D12*
X129540000Y-136000000D03*
X127000000Y-136000000D03*
X124460000Y-136000000D03*
X121920000Y-136000000D03*
X119380000Y-136000000D03*
X116840000Y-136000000D03*
X114300000Y-136000000D03*
X111760000Y-136000000D03*
X109220000Y-136000000D03*
X106680000Y-136000000D03*
X104140000Y-136000000D03*
X101600000Y-136000000D03*
X99060000Y-136000000D03*
X96520000Y-136000000D03*
X93980000Y-136000000D03*
%TD*%
D11*
%TO.C,J2*%
X93730000Y-108500000D03*
D12*
X96270000Y-108500000D03*
X98810000Y-108500000D03*
X101350000Y-108500000D03*
X103890000Y-108500000D03*
X106430000Y-108500000D03*
X108970000Y-108500000D03*
X111510000Y-108500000D03*
X114050000Y-108500000D03*
X116590000Y-108500000D03*
X119130000Y-108500000D03*
X121670000Y-108500000D03*
X124210000Y-108500000D03*
X126750000Y-108500000D03*
X129290000Y-108500000D03*
X131830000Y-108500000D03*
%TD*%
D13*
%TO.C,H4*%
X89250000Y-108500000D03*
%TD*%
D14*
%TO.C,J1*%
X91105000Y-119360000D03*
X91105000Y-125140000D03*
D15*
X91605000Y-117930000D03*
D16*
X87425000Y-117930000D03*
D15*
X91605000Y-126570000D03*
D16*
X87425000Y-126570000D03*
%TD*%
D13*
%TO.C,H2*%
X89500000Y-136000000D03*
%TD*%
%TO.C,H3*%
X136250000Y-108500000D03*
%TD*%
%TO.C,H1*%
X136500000Y-136000000D03*
%TD*%
%LPD*%
M02*
